<svg xmlns="http://www.w3.org/2000/svg" xmlns:xlink="http://www.w3.org/1999/xlink" version="1.2" width="210.00mm" height="58.50mm" viewBox="0 0 119.5016 33.2877">
<style type="text/css">
<![CDATA[
tspan { white-space: pre; }
]]>
</style>
<!-- Page: 1/1 -->
<g transform="translate(5.6906, 5.7790)">
<line stroke-linejoin="round" stroke-linecap="round" stroke-width="0.1000" stroke="currentColor" x1="0.0500" y1="0" x2="113.7610" y2="0"/>
</g>
<g transform="translate(5.6906, 4.7790)">
<line stroke-linejoin="round" stroke-linecap="round" stroke-width="0.1000" stroke="currentColor" x1="0.0500" y1="0" x2="113.7610" y2="0"/>
</g>
<g transform="translate(5.6906, 3.7790)">
<line stroke-linejoin="round" stroke-linecap="round" stroke-width="0.1000" stroke="currentColor" x1="0.0500" y1="0" x2="113.7610" y2="0"/>
</g>
<g transform="translate(5.6906, 2.7790)">
<line stroke-linejoin="round" stroke-linecap="round" stroke-width="0.1000" stroke="currentColor" x1="0.0500" y1="0" x2="113.7610" y2="0"/>
</g>
<g transform="translate(5.6906, 1.7790)">
<line stroke-linejoin="round" stroke-linecap="round" stroke-width="0.1000" stroke="currentColor" x1="0.0500" y1="0" x2="113.7610" y2="0"/>
</g>
<g transform="translate(46.8069, 3.7790)">
<rect x="0.0000" y="-2.0000" width="0.1900" height="4.0000" ry="0.0000" fill="currentColor"/>
</g>
<g transform="translate(117.6616, 3.2790)">
<path transform="scale(0.0040, -0.0040)" d="M0 0c0 31 25 56 56 56s56 -25 56 -56s-25 -56 -56 -56s-56 25 -56 56z" fill="currentColor"/>
</g>
<g transform="translate(117.6616, 4.2790)">
<path transform="scale(0.0040, -0.0040)" d="M0 0c0 31 25 56 56 56s56 -25 56 -56s-25 -56 -56 -56s-56 25 -56 56z" fill="currentColor"/>
</g>
<g transform="scale(-1.0000, 1.0000)">
<g transform="translate(-119.5016, 3.7790)">
<rect x="0.0000" y="-2.0000" width="0.6000" height="4.0000" ry="0.0000" fill="currentColor"/>
</g>
<g transform="translate(-119.5016, 1.7790)">
<path transform="scale(0.0040, -0.0040)" d="M0 -56v87c0 14 11 25 25 25h50c159 0 271 136 362 270c12 17 38 -1 26 -18c-99 -144 -215 -364 -388 -364h-75z" fill="currentColor"/>
</g>
<g transform="translate(-119.5016, 5.7790)">
<path transform="scale(0.0040, -0.0040)" d="M0 56h75c173 0 289 -220 388 -364c12 -17 -14 -35 -26 -18c-91 134 -203 270 -362 270h-50c-14 0 -25 11 -25 25v87z" fill="currentColor"/>
</g>
</g>
<g transform="translate(118.4116, 3.7790)">
<rect x="0.0000" y="-2.0000" width="0.1900" height="4.0000" ry="0.0000" fill="currentColor"/>
</g>
<g transform="translate(74.7281, 3.7790)">
<rect x="0.0000" y="-2.0000" width="0.1900" height="4.0000" ry="0.0000" fill="currentColor"/>
</g>
<g transform="translate(14.7606, 3.7790)">
<rect x="0.0000" y="-2.0000" width="0.6000" height="4.0000" ry="0.0000" fill="currentColor"/>
</g>
<g transform="translate(14.7606, 1.7790)">
<path transform="scale(0.0040, -0.0040)" d="M0 -56v87c0 14 11 25 25 25h50c159 0 271 136 362 270c12 17 38 -1 26 -18c-99 -144 -215 -364 -388 -364h-75z" fill="currentColor"/>
</g>
<g transform="translate(14.7606, 5.7790)">
<path transform="scale(0.0040, -0.0040)" d="M0 56h75c173 0 289 -220 388 -364c12 -17 -14 -35 -26 -18c-91 134 -203 270 -362 270h-50c-14 0 -25 11 -25 25v87z" fill="currentColor"/>
</g>
<g transform="translate(16.1506, 3.2790)">
<path transform="scale(0.0040, -0.0040)" d="M0 0c0 31 25 56 56 56s56 -25 56 -56s-25 -56 -56 -56s-56 25 -56 56z" fill="currentColor"/>
</g>
<g transform="translate(16.1506, 4.2790)">
<path transform="scale(0.0040, -0.0040)" d="M0 0c0 31 25 56 56 56s56 -25 56 -56s-25 -56 -56 -56s-56 25 -56 56z" fill="currentColor"/>
</g>
<g transform="translate(15.6606, 3.7790)">
<rect x="0.0000" y="-2.0000" width="0.1900" height="4.0000" ry="0.0000" fill="currentColor"/>
</g>
<g transform="translate(102.9368, 3.7790)">
<rect x="0.0000" y="-2.0000" width="0.1900" height="4.0000" ry="0.0000" fill="currentColor"/>
</g>
<g transform="translate(5.6906, 6.7790)">
<rect x="87.5741" y="-0.1000" width="1.9563" height="0.2000" ry="0.1000" fill="currentColor"/>
</g>
<g transform="translate(99.1063, 5.7790)">
<path transform="scale(0.0040, -0.0040)" d="M218 136c66 0 108 -36 108 -89c0 -89 -113 -183 -218 -183c-66 0 -108 36 -108 89c0 89 113 183 218 183z" fill="currentColor"/>
</g>
<g transform="translate(81.3574, 5.2790)">
<path transform="scale(0.0040, -0.0040)" d="M218 136c66 0 108 -36 108 -89c0 -89 -113 -183 -218 -183c-66 0 -108 36 -108 89c0 89 113 183 218 183z" fill="currentColor"/>
</g>
<g transform="translate(83.1116, 5.2790)">
<path transform="scale(0.0040, -0.0040)" d="M0 0c0 31 25 56 56 56s56 -25 56 -56s-25 -56 -56 -56s-56 25 -56 56z" fill="currentColor"/>
</g>
<g transform="translate(82.5966, 3.7790)">
<rect x="-0.0650" y="-1.8124" width="0.1300" height="3.1263" ry="0.0400" fill="currentColor"/>
</g>
<g transform="translate(86.3488, 4.7790)">
<path transform="scale(0.0040, -0.0040)" d="M218 136c66 0 108 -36 108 -89c0 -89 -113 -183 -218 -183c-66 0 -108 36 -108 89c0 89 113 183 218 183z" fill="currentColor"/>
</g>
<g transform="translate(87.5880, 3.7790)">
<rect x="-0.0650" y="-1.9976" width="0.1300" height="2.8115" ry="0.0400" fill="currentColor"/>
</g>
<g transform="translate(89.3382, 5.7790)">
<path transform="scale(0.0040, -0.0040)" d="M218 136c66 0 108 -36 108 -89c0 -89 -113 -183 -218 -183c-66 0 -108 36 -108 89c0 89 113 183 218 183z" fill="currentColor"/>
</g>
<g transform="translate(89.3382, 9.3600)">
<text font-family="Source Sans Pro" font-size="2.6163" text-anchor="start" fill="currentColor">
<tspan>C</tspan>
</text>
</g>
<g transform="translate(90.5774, 3.7790)">
<rect x="-0.0650" y="-1.5000" width="0.1300" height="3.3139" ry="0.0400" fill="currentColor"/>
</g>
<g transform="translate(90.6424, 2.3190)">
<path transform="scale(0.0040, -0.0040)" d="M0 0v-250h-16v250h16zM0 0c0 -197 207 -336 207 -533c0 -71 -15 -141 -41 -207c-5 -8 -13 -12 -20 -12c-13 0 -26 11 -23 27c26 61 42 126 42 192c0 103 -94 208 -165 283v250z" fill="currentColor"/>
</g>
<g transform="translate(93.5907, 6.7790)">
<path transform="scale(0.0040, -0.0040)" d="M218 136c66 0 108 -36 108 -89c0 -89 -113 -183 -218 -183c-66 0 -108 36 -108 89c0 89 113 183 218 183z" fill="currentColor"/>
</g>
<g transform="translate(94.8299, 3.7790)">
<rect x="-0.0650" y="-0.5000" width="0.1300" height="3.3139" ry="0.0400" fill="currentColor"/>
</g>
<g transform="translate(66.9327, 6.2790)">
<path transform="scale(0.0040, -0.0040)" d="M218 136c66 0 108 -36 108 -89c0 -89 -113 -183 -218 -183c-66 0 -108 36 -108 89c0 89 113 183 218 183z" fill="currentColor"/>
</g>
<g transform="translate(68.6869, 6.2790)">
<path transform="scale(0.0040, -0.0040)" d="M0 0c0 31 25 56 56 56s56 -25 56 -56s-25 -56 -56 -56s-56 25 -56 56z" fill="currentColor"/>
</g>
<g transform="translate(68.1719, 3.7790)">
<rect x="-0.0650" y="-0.8124" width="0.1300" height="3.1263" ry="0.0400" fill="currentColor"/>
</g>
<g transform="translate(71.9240, 5.7790)">
<path transform="scale(0.0040, -0.0040)" d="M218 136c66 0 108 -36 108 -89c0 -89 -113 -183 -218 -183c-66 0 -108 36 -108 89c0 89 113 183 218 183z" fill="currentColor"/>
</g>
<g transform="translate(73.1633, 3.7790)">
<rect x="-0.0650" y="-0.9976" width="0.1300" height="2.8115" ry="0.0400" fill="currentColor"/>
</g>
<g transform="translate(75.8417, 5.2790)">
<path transform="scale(0.0040, -0.0040)" d="M218 136c66 0 108 -36 108 -89c0 -89 -113 -183 -218 -183c-66 0 -108 36 -108 89c0 89 113 183 218 183z" fill="currentColor"/>
</g>
<g transform="translate(75.8417, 9.3600)">
<text font-family="Source Sans Pro" font-size="2.6163" text-anchor="start" fill="currentColor">
<tspan>F</tspan>
</text>
</g>
<g transform="translate(77.0810, 3.7790)">
<rect x="-0.0650" y="-2.0000" width="0.1300" height="3.3139" ry="0.0400" fill="currentColor"/>
</g>
<g transform="translate(82.5316, 1.9690)">
<polygon stroke-linejoin="round" stroke-linecap="round" stroke-width="0.0800" fill="currentColor" stroke="currentColor" points="5.0814 -0.3900 5.0814 0.0100 0.0400 0.2000 0.0400 -0.2000"/>
</g>
<g transform="translate(86.4880, 2.6322)">
<polygon stroke-linejoin="round" stroke-linecap="round" stroke-width="0.0800" fill="currentColor" stroke="currentColor" points="1.1250 -0.2432 1.1250 0.1568 0.0400 0.2000 0.0400 -0.2000"/>
</g>
<g transform="translate(68.1069, 2.9690)">
<polygon stroke-linejoin="round" stroke-linecap="round" stroke-width="0.0800" fill="currentColor" stroke="currentColor" points="5.0814 -0.3900 5.0814 0.0100 0.0400 0.2000 0.0400 -0.2000"/>
</g>
<g transform="translate(72.0633, 3.6322)">
<polygon stroke-linejoin="round" stroke-linecap="round" stroke-width="0.0800" fill="currentColor" stroke="currentColor" points="1.1250 -0.2432 1.1250 0.1568 0.0400 0.2000 0.0400 -0.2000"/>
</g>
<g transform="translate(54.6104, 1.7790)">
<polygon stroke-linejoin="round" stroke-linecap="round" stroke-width="0.0800" fill="currentColor" stroke="currentColor" points="5.0814 -0.0100 5.0814 0.3900 0.0400 0.2000 0.0400 -0.2000"/>
</g>
<g transform="translate(58.5668, 2.7358)">
<polygon stroke-linejoin="round" stroke-linecap="round" stroke-width="0.0800" fill="currentColor" stroke="currentColor" points="1.1250 -0.1568 1.1250 0.2432 0.0400 0.2000 0.0400 -0.2000"/>
</g>
<g transform="translate(43.3342, 6.3985)">
<polygon stroke-linejoin="round" stroke-linecap="round" stroke-width="0.0800" fill="currentColor" stroke="currentColor" points="1.1250 -0.1295 1.1250 0.2705 0.0400 0.2000 0.0400 -0.2000"/>
</g>
<g transform="translate(39.3778, 6.9690)">
<polygon stroke-linejoin="round" stroke-linecap="round" stroke-width="0.0800" fill="currentColor" stroke="currentColor" points="5.0814 0.1100 5.0814 0.5100 0.0400 0.2000 0.0400 -0.2000"/>
</g>
<g transform="translate(27.0556, 0.9690)">
<polygon stroke-linejoin="round" stroke-linecap="round" stroke-width="0.0800" fill="currentColor" stroke="currentColor" points="5.0814 -0.3900 5.0814 0.0100 0.0400 0.2000 0.0400 -0.2000"/>
</g>
<g transform="translate(31.0120, 1.6322)">
<polygon stroke-linejoin="round" stroke-linecap="round" stroke-width="0.0800" fill="currentColor" stroke="currentColor" points="1.1250 -0.2432 1.1250 0.1568 0.0400 0.2000 0.0400 -0.2000"/>
</g>
<g transform="translate(19.0748, 0.9690)">
<polygon stroke-linejoin="round" stroke-linecap="round" stroke-width="0.0800" fill="currentColor" stroke="currentColor" points="3.0794 -0.2000 3.0794 0.2000 0.0400 0.2000 0.0400 -0.2000"/>
</g>
<g transform="translate(19.0748, 1.7790)">
<polygon stroke-linejoin="round" stroke-linecap="round" stroke-width="0.0800" fill="currentColor" stroke="currentColor" points="1.1250 -0.2000 1.1250 0.2000 0.0400 0.2000 0.0400 -0.2000"/>
</g>
<g transform="translate(100.4105, 2.3190)">
<path transform="scale(0.0040, -0.0040)" d="M0 0v-250h-16v250h16zM0 0c0 -197 207 -336 207 -533c0 -71 -15 -141 -41 -207c-5 -8 -13 -12 -20 -12c-13 0 -26 11 -23 27c26 61 42 126 42 192c0 103 -94 208 -165 283v250z" fill="currentColor"/>
</g>
<g transform="translate(105.0504, 6.2790)">
<path transform="scale(0.0040, -0.0040)" d="M314 65c0 23 -19 41 -42 41c-39 0 -204 -110 -231 -143c-7 -8 -10 -18 -10 -28c0 -23 19 -41 42 -41c39 0 203 110 230 143c7 8 11 18 11 28zM262 136c41 0 82 -14 82 -71c0 -26 -16 -112 -74 -151c-25 -17 -87 -50 -187 -50c-41 0 -83 14 -83 71c0 26 16 112 74 151
c25 17 88 50 188 50z" fill="currentColor"/>
</g>
<g transform="translate(105.0504, 9.3600)">
<text font-family="Source Sans Pro" font-size="2.6163" text-anchor="start" fill="currentColor">
<tspan>D</tspan>
</text>
</g>
<g transform="translate(106.6552, 9.3600)">
<text font-family="Source Sans Pro" font-size="2.6163" text-anchor="start" fill="currentColor">
<tspan>m</tspan>
</text>
</g>
<g transform="translate(106.8778, 6.2790)">
<path transform="scale(0.0040, -0.0040)" d="M0 0c0 31 25 56 56 56s56 -25 56 -56s-25 -56 -56 -56s-56 25 -56 56z" fill="currentColor"/>
</g>
<g transform="translate(106.3628, 3.7790)">
<rect x="-0.0650" y="-1.0000" width="0.1300" height="3.2410" ry="0.0400" fill="currentColor"/>
</g>
<g transform="translate(100.3455, 3.7790)">
<rect x="-0.0650" y="-1.5000" width="0.1300" height="3.3139" ry="0.0400" fill="currentColor"/>
</g>
<g transform="translate(112.5680, 4.2790)">
<path transform="scale(0.0040, -0.0040)" d="M218 136c66 0 108 -36 108 -89c0 -89 -113 -183 -218 -183c-66 0 -108 36 -108 89c0 89 113 183 218 183z" fill="currentColor"/>
</g>
<g transform="translate(113.8072, 3.7790)">
<rect x="-0.0650" y="-3.0000" width="0.1300" height="3.3139" ry="0.0400" fill="currentColor"/>
</g>
<g transform="translate(112.3680, 4.2790)">
<path transform="scale(0.0020, -0.0020)" d="M-31 -250c0 -10 -9 -19 -19 -19c-5 0 -12 2 -16 8c-54 77 -90 167 -90 261s36 184 90 261c4 6 11 8 16 8c10 0 19 -9 19 -19c0 -21 -63 -57 -63 -250s63 -229 63 -250z" fill="currentColor"/>
</g>
<g transform="translate(114.0722, 4.2790)">
<path transform="scale(0.0020, -0.0020)" d="M31 -250c0 21 63 57 63 250s-63 229 -63 250c0 10 9 19 19 19c5 0 12 -2 16 -8c54 -77 90 -167 90 -261s-36 -184 -90 -261c-4 -6 -11 -8 -16 -8c-10 0 -19 9 -19 19z" fill="currentColor"/>
</g>
<g transform="translate(25.8814, 4.7790)">
<path transform="scale(0.0040, -0.0040)" d="M218 136c66 0 108 -36 108 -89c0 -89 -113 -183 -218 -183c-66 0 -108 36 -108 89c0 89 113 183 218 183z" fill="currentColor"/>
</g>
<g transform="translate(27.6356, 4.2790)">
<path transform="scale(0.0040, -0.0040)" d="M0 0c0 31 25 56 56 56s56 -25 56 -56s-25 -56 -56 -56s-56 25 -56 56z" fill="currentColor"/>
</g>
<g transform="translate(27.1206, 3.7790)">
<rect x="-0.0650" y="-2.8124" width="0.1300" height="3.6263" ry="0.0400" fill="currentColor"/>
</g>
<g transform="translate(30.8727, 4.2790)">
<path transform="scale(0.0040, -0.0040)" d="M218 136c66 0 108 -36 108 -89c0 -89 -113 -183 -218 -183c-66 0 -108 36 -108 89c0 89 113 183 218 183z" fill="currentColor"/>
</g>
<g transform="translate(32.1120, 3.7790)">
<rect x="-0.0650" y="-2.9976" width="0.1300" height="3.3115" ry="0.0400" fill="currentColor"/>
</g>
<g transform="translate(33.8622, 3.7790)">
<path transform="scale(0.0040, -0.0040)" d="M218 136c66 0 108 -36 108 -89c0 -89 -113 -183 -218 -183c-66 0 -108 36 -108 89c0 89 113 183 218 183z" fill="currentColor"/>
</g>
<g transform="translate(33.8622, 9.3600)">
<text font-family="Source Sans Pro" font-size="2.6163" text-anchor="start" fill="currentColor">
<tspan>G</tspan>
</text>
</g>
<g transform="translate(33.9272, 3.7790)">
<rect x="-0.0650" y="0.1861" width="0.1300" height="3.1472" ry="0.0400" fill="currentColor"/>
</g>
<g transform="translate(32.8162, 3.7790)">
<path transform="scale(0.0040, -0.0040)" d="M-8 375c8 4 17 7 26 7s16 -3 24 -7l-2 -183l106 20h3c10 0 18 -7 18 -17l7 -570c-8 -4 -16 -7 -25 -7s-17 3 -25 7l3 183l-106 -20h-3c-10 0 -18 7 -18 17zM131 112l-92 -17l-3 -207l92 17z" fill="currentColor"/>
</g>
<g transform="translate(39.3778, 3.2790)">
<path transform="scale(0.0040, -0.0040)" d="M218 136c66 0 108 -36 108 -89c0 -89 -113 -183 -218 -183c-66 0 -108 36 -108 89c0 89 113 183 218 183z" fill="currentColor"/>
</g>
<g transform="translate(41.1320, 3.2790)">
<path transform="scale(0.0040, -0.0040)" d="M0 0c0 31 25 56 56 56s56 -25 56 -56s-25 -56 -56 -56s-56 25 -56 56z" fill="currentColor"/>
</g>
<g transform="translate(39.4428, 3.7790)">
<rect x="-0.0650" y="-0.3139" width="0.1300" height="3.5078" ry="0.0400" fill="currentColor"/>
</g>
<g transform="translate(3.8370, 1.3360)">
<text font-family="Source Sans Pro" font-size="1.7461" text-anchor="start" fill="currentColor">
<tspan>1</tspan>
</text>
</g>
<g transform="translate(3.8370, 3.3360)">
<text font-family="Source Sans Pro" font-size="1.7461" text-anchor="start" fill="currentColor">
<tspan>5</tspan>
</text>
</g>
<g transform="translate(2.9834, 5.3360)">
<text font-family="Source Sans Pro" font-size="1.7461" text-anchor="start" fill="currentColor">
<tspan>17</tspan>
</text>
</g>
<g transform="translate(2.9834, 7.3360)">
<text font-family="Source Sans Pro" font-size="1.7461" text-anchor="start" fill="currentColor">
<tspan>21</tspan>
</text>
</g>
<g transform="translate(17.9006, 4.2790)">
<path transform="scale(0.0040, -0.0040)" d="M218 136c66 0 108 -36 108 -89c0 -89 -113 -183 -218 -183c-66 0 -108 36 -108 89c0 89 113 183 218 183z" fill="currentColor"/>
</g>
<g transform="translate(6.4906, 4.7790)">
<path transform="scale(0.0040, -0.0040)" d="M266 -635h-6c-108 0 -195 88 -195 197c0 58 53 103 112 103c54 0 95 -47 95 -103c0 -52 -43 -95 -95 -95c-11 0 -21 2 -31 6c26 -39 68 -65 117 -65h4zM461 -203c68 24 113 90 113 164c0 90 -66 179 -173 190c19 -89 48 -242 60 -354zM74 28c0 -145 141 -247 264 -247
c1 0 47 0 82 6c-7 64 -29 203 -63 364c-79 -8 -124 -61 -124 -119c0 -44 25 -91 81 -123c5 -5 7 -10 7 -15c0 -11 -10 -22 -22 -22c-15 0 -126 62 -126 187c0 88 58 174 160 197c-14 58 -29 117 -46 175c-107 -121 -213 -243 -213 -403zM250 553c-29 96 -52 170 -52 346
c0 115 55 224 149 292c6 5 14 5 20 0c68 -80 133 -245 133 -358c0 -143 -86 -255 -180 -364c21 -68 39 -138 56 -207c2 0 7 1 13 1c155 0 256 -128 256 -261c0 -113 -74 -212 -180 -246c3 -35 5 -70 5 -105c0 -19 -1 -39 -2 -58c-7 -119 -88 -225 -202 -228l1 43
c93 2 153 92 159 191c1 18 2 37 2 55c0 31 -1 61 -4 92c-5 -1 -44 -8 -89 -8c-193 0 -333 180 -333 374c0 177 131 306 248 441zM428 916c0 34 1 66 -20 129c-99 -48 -162 -149 -162 -259c0 -52 12 -115 36 -194c80 97 146 198 146 324z" fill="currentColor"/>
</g>
<g transform="translate(10.1106, 3.7790)">
<path transform="scale(0.0040, -0.0040)" d="M27 41l-1 -66v-11c0 -22 1 -44 4 -66c45 38 93 80 93 139c0 33 -14 67 -43 67c-31 0 -52 -30 -53 -63zM-15 -138l-12 595c8 5 18 8 27 8s19 -3 27 -8l-7 -345c25 21 58 34 91 34c52 0 89 -48 89 -102c0 -80 -86 -117 -147 -169c-15 -13 -24 -38 -45 -38
c-13 0 -23 11 -23 25z" fill="currentColor"/>
</g>
<g transform="translate(12.0606, 3.7790)">
<path transform="scale(0.0040, -0.0040)" d="M250 262c116 0 176 -106 176 -163c0 -40 -30 -72 -67 -72c-31 0 -75 25 -75 75c0 38 27 77 72 77c4 0 9 0 14 -1c-28 37 -72 59 -120 59c-106 0 -113 -73 -113 -186v-51v-51c0 -113 7 -187 113 -187c80 0 139 70 158 151c2 7 7 10 12 10c6 0 13 -4 13 -12
c0 -22 -50 -174 -183 -174c-59 0 -250 19 -250 263c0 62 18 262 250 262z" fill="currentColor"/>
</g>
<g transform="translate(17.9006, 9.3600)">
<text font-family="Source Sans Pro" font-size="2.6163" text-anchor="start" fill="currentColor">
<tspan>D</tspan>
</text>
</g>
<g transform="translate(19.5053, 9.3600)">
<text font-family="Source Sans Pro" font-size="2.6163" text-anchor="start" fill="currentColor">
<tspan>m</tspan>
</text>
</g>
<g transform="translate(19.1398, 3.7790)">
<rect x="-0.0650" y="-2.8100" width="0.1300" height="3.1239" ry="0.0400" fill="currentColor"/>
</g>
<g transform="translate(62.6562, 3.7790)">
<rect x="-0.0650" y="-1.0000" width="0.1300" height="3.3139" ry="0.0400" fill="currentColor"/>
</g>
<g transform="translate(20.8900, 4.2790)">
<path transform="scale(0.0040, -0.0040)" d="M218 136c66 0 108 -36 108 -89c0 -89 -113 -183 -218 -183c-66 0 -108 36 -108 89c0 89 113 183 218 183z" fill="currentColor"/>
</g>
<g transform="translate(22.6442, 4.2790)">
<path transform="scale(0.0040, -0.0040)" d="M0 0c0 31 25 56 56 56s56 -25 56 -56s-25 -56 -56 -56s-56 25 -56 56z" fill="currentColor"/>
</g>
<g transform="translate(22.1292, 3.7790)">
<rect x="-0.0650" y="-2.8100" width="0.1300" height="3.1239" ry="0.0400" fill="currentColor"/>
</g>
<g transform="translate(54.6754, 3.7790)">
<rect x="-0.0650" y="-1.9976" width="0.1300" height="3.3115" ry="0.0400" fill="currentColor"/>
</g>
<g transform="translate(53.4362, 5.2790)">
<path transform="scale(0.0040, -0.0040)" d="M218 136c66 0 108 -36 108 -89c0 -89 -113 -183 -218 -183c-66 0 -108 36 -108 89c0 89 113 183 218 183z" fill="currentColor"/>
</g>
<g transform="translate(55.1904, 5.2790)">
<path transform="scale(0.0040, -0.0040)" d="M0 0c0 31 25 56 56 56s56 -25 56 -56s-25 -56 -56 -56s-56 25 -56 56z" fill="currentColor"/>
</g>
<g transform="translate(58.4276, 5.7790)">
<path transform="scale(0.0040, -0.0040)" d="M218 136c66 0 108 -36 108 -89c0 -89 -113 -183 -218 -183c-66 0 -108 36 -108 89c0 89 113 183 218 183z" fill="currentColor"/>
</g>
<g transform="translate(59.6668, 3.7790)">
<rect x="-0.0650" y="-1.8124" width="0.1300" height="3.6263" ry="0.0400" fill="currentColor"/>
</g>
<g transform="translate(61.4170, 6.2790)">
<path transform="scale(0.0040, -0.0040)" d="M218 136c66 0 108 -36 108 -89c0 -89 -113 -183 -218 -183c-66 0 -108 36 -108 89c0 89 113 183 218 183z" fill="currentColor"/>
</g>
<g transform="translate(44.3692, 3.7790)">
<path transform="scale(0.0040, -0.0040)" d="M218 136c66 0 108 -36 108 -89c0 -89 -113 -183 -218 -183c-66 0 -108 36 -108 89c0 89 113 183 218 183z" fill="currentColor"/>
</g>
<g transform="translate(44.4342, 3.7790)">
<rect x="-0.0650" y="0.1861" width="0.1300" height="3.3100" ry="0.0400" fill="currentColor"/>
</g>
<g transform="translate(49.1598, 3.7790)">
<rect x="-0.0650" y="-3.0000" width="0.1300" height="3.3139" ry="0.0400" fill="currentColor"/>
</g>
<g transform="translate(47.9206, 9.3600)">
<text font-family="Source Sans Pro" font-size="2.6163" text-anchor="start" fill="currentColor">
<tspan>D</tspan>
</text>
</g>
<g transform="translate(49.5253, 9.3600)">
<text font-family="Source Sans Pro" font-size="2.6163" text-anchor="start" fill="currentColor">
<tspan>m</tspan>
</text>
</g>
<g transform="translate(47.9206, 4.2790)">
<path transform="scale(0.0040, -0.0040)" d="M218 136c66 0 108 -36 108 -89c0 -89 -113 -183 -218 -183c-66 0 -108 36 -108 89c0 89 113 183 218 183z" fill="currentColor"/>
</g>
<g transform="translate(5.6906, 17.7790)">
<line stroke-linejoin="round" stroke-linecap="round" stroke-width="0.1000" stroke="currentColor" x1="0.0500" y1="0" x2="113.7610" y2="0"/>
</g>
<g transform="translate(5.6906, 16.7790)">
<line stroke-linejoin="round" stroke-linecap="round" stroke-width="0.1000" stroke="currentColor" x1="0.0500" y1="0" x2="113.7610" y2="0"/>
</g>
<g transform="translate(5.6906, 15.7790)">
<line stroke-linejoin="round" stroke-linecap="round" stroke-width="0.1000" stroke="currentColor" x1="0.0500" y1="0" x2="113.7610" y2="0"/>
</g>
<g transform="translate(5.6906, 14.7790)">
<line stroke-linejoin="round" stroke-linecap="round" stroke-width="0.1000" stroke="currentColor" x1="0.0500" y1="0" x2="113.7610" y2="0"/>
</g>
<g transform="translate(5.6906, 13.7790)">
<line stroke-linejoin="round" stroke-linecap="round" stroke-width="0.1000" stroke="currentColor" x1="0.0500" y1="0" x2="113.7610" y2="0"/>
</g>
<g transform="translate(5.6906, 12.7790)">
<rect x="104.0809" y="-0.1000" width="1.9563" height="0.2000" ry="0.1000" fill="currentColor"/>
</g>
<g transform="translate(5.6906, 12.7790)">
<rect x="92.9131" y="-0.1000" width="1.9563" height="0.2000" ry="0.1000" fill="currentColor"/>
</g>
<g transform="translate(5.6906, 12.7790)">
<rect x="90.2682" y="-0.1000" width="1.9563" height="0.2000" ry="0.1000" fill="currentColor"/>
</g>
<g transform="translate(40.6214, 15.7790)">
<rect x="0.0000" y="-2.0000" width="0.1900" height="4.0000" ry="0.0000" fill="currentColor"/>
</g>
<g transform="translate(66.9673, 15.7790)">
<rect x="0.0000" y="-2.0000" width="0.1900" height="4.0000" ry="0.0000" fill="currentColor"/>
</g>
<g transform="translate(119.3116, 15.7790)">
<rect x="0.0000" y="-2.0000" width="0.1900" height="4.0000" ry="0.0000" fill="currentColor"/>
</g>
<g transform="translate(95.1195, 15.7790)">
<rect x="0.0000" y="-2.0000" width="0.1900" height="4.0000" ry="0.0000" fill="currentColor"/>
</g>
<g transform="translate(88.8489, 15.7790)">
<rect x="-0.0650" y="-1.8139" width="0.1300" height="2.9983" ry="0.0400" fill="currentColor"/>
</g>
<g transform="translate(90.5381, 13.2790)">
<path transform="scale(0.0040, -0.0040)" d="M0 0c0 31 25 56 56 56s56 -25 56 -56s-25 -56 -56 -56s-56 25 -56 56z" fill="currentColor"/>
</g>
<g transform="translate(88.7839, 13.7790)">
<path transform="scale(0.0040, -0.0040)" d="M218 136c66 0 108 -36 108 -89c0 -89 -113 -183 -218 -183c-66 0 -108 36 -108 89c0 89 113 183 218 183z" fill="currentColor"/>
</g>
<g transform="translate(86.2040, 15.7790)">
<rect x="-0.0650" y="-1.3139" width="0.1300" height="3.1295" ry="0.0400" fill="currentColor"/>
</g>
<g transform="translate(86.1390, 14.2790)">
<path transform="scale(0.0040, -0.0040)" d="M218 136c66 0 108 -36 108 -89c0 -89 -113 -183 -218 -183c-66 0 -108 36 -108 89c0 89 113 183 218 183z" fill="currentColor"/>
</g>
<g transform="translate(68.0648, 21.2353)">
<text font-family="Source Sans Pro" font-size="2.6163" text-anchor="start" fill="currentColor">
<tspan>D</tspan>
</text>
</g>
<g transform="translate(69.6696, 21.2353)">
<text font-family="Source Sans Pro" font-size="2.6163" text-anchor="start" fill="currentColor">
<tspan>m</tspan>
</text>
</g>
<g transform="translate(93.0453, 13.2790)">
<path transform="scale(0.0040, -0.0040)" d="M218 136c66 0 108 -36 108 -89c0 -89 -113 -183 -218 -183c-66 0 -108 36 -108 89c0 89 113 183 218 183z" fill="currentColor"/>
</g>
<g transform="translate(96.3498, 15.7790)">
<rect x="-0.0650" y="-2.8139" width="0.1300" height="2.8139" ry="0.0400" fill="currentColor"/>
</g>
<g transform="translate(96.2848, 21.2353)">
<text font-family="Source Sans Pro" font-size="2.6163" text-anchor="start" fill="currentColor">
<tspan>F</tspan>
</text>
</g>
<g transform="translate(96.2848, 12.7790)">
<path transform="scale(0.0040, -0.0040)" d="M218 136c66 0 108 -36 108 -89c0 -89 -113 -183 -218 -183c-66 0 -108 36 -108 89c0 89 113 183 218 183z" fill="currentColor"/>
</g>
<g transform="translate(93.1103, 15.7790)">
<rect x="-0.0650" y="-2.3139" width="0.1300" height="3.1295" ry="0.0400" fill="currentColor"/>
</g>
<g transform="translate(70.7747, 15.7790)">
<rect x="-0.0650" y="-0.8139" width="0.1300" height="3.0229" ry="0.0400" fill="currentColor"/>
</g>
<g transform="translate(72.4639, 14.2790)">
<path transform="scale(0.0040, -0.0040)" d="M0 0c0 31 25 56 56 56s56 -25 56 -56s-25 -56 -56 -56s-56 25 -56 56z" fill="currentColor"/>
</g>
<g transform="translate(70.7097, 14.7790)">
<path transform="scale(0.0040, -0.0040)" d="M218 136c66 0 108 -36 108 -89c0 -89 -113 -183 -218 -183c-66 0 -108 36 -108 89c0 89 113 183 218 183z" fill="currentColor"/>
</g>
<g transform="translate(68.1298, 15.7790)">
<rect x="-0.0650" y="0.6861" width="0.1300" height="2.2949" ry="0.0400" fill="currentColor"/>
</g>
<g transform="translate(81.9425, 15.7790)">
<rect x="-0.0650" y="-0.8139" width="0.1300" height="2.9983" ry="0.0400" fill="currentColor"/>
</g>
<g transform="translate(83.6317, 14.2790)">
<path transform="scale(0.0040, -0.0040)" d="M0 0c0 31 25 56 56 56s56 -25 56 -56s-25 -56 -56 -56s-56 25 -56 56z" fill="currentColor"/>
</g>
<g transform="translate(81.8775, 14.7790)">
<path transform="scale(0.0040, -0.0040)" d="M218 136c66 0 108 -36 108 -89c0 -89 -113 -183 -218 -183c-66 0 -108 36 -108 89c0 89 113 183 218 183z" fill="currentColor"/>
</g>
<g transform="translate(79.2976, 15.7790)">
<rect x="-0.0650" y="-0.3139" width="0.1300" height="3.3111" ry="0.0400" fill="currentColor"/>
</g>
<g transform="translate(79.2326, 15.2790)">
<path transform="scale(0.0040, -0.0040)" d="M218 136c66 0 108 -36 108 -89c0 -89 -113 -183 -218 -183c-66 0 -108 36 -108 89c0 89 113 183 218 183z" fill="currentColor"/>
</g>
<g transform="translate(75.0362, 15.7790)">
<rect x="-0.0650" y="-0.8139" width="0.1300" height="3.6267" ry="0.0400" fill="currentColor"/>
</g>
<g transform="translate(76.7254, 14.2790)">
<path transform="scale(0.0040, -0.0040)" d="M0 0c0 31 25 56 56 56s56 -25 56 -56s-25 -56 -56 -56s-56 25 -56 56z" fill="currentColor"/>
</g>
<g transform="translate(74.9712, 14.7790)">
<path transform="scale(0.0040, -0.0040)" d="M218 136c66 0 108 -36 108 -89c0 -89 -113 -183 -218 -183c-66 0 -108 36 -108 89c0 89 113 183 218 183z" fill="currentColor"/>
</g>
<g transform="translate(68.0648, 17.9690)">
<polygon stroke-linejoin="round" stroke-linecap="round" stroke-width="0.0800" fill="currentColor" stroke="currentColor" points="1.1250 -0.5401 1.1250 -0.1401 0.0400 0.2000 0.0400 -0.2000"/>
</g>
<g transform="translate(68.0648, 18.7790)">
<polygon stroke-linejoin="round" stroke-linecap="round" stroke-width="0.0800" fill="currentColor" stroke="currentColor" points="2.7349 -1.0100 2.7349 -0.6100 0.0400 0.2000 0.0400 -0.2000"/>
</g>
<g transform="translate(78.1976, 17.9186)">
<polygon stroke-linejoin="round" stroke-linecap="round" stroke-width="0.0800" fill="currentColor" stroke="currentColor" points="1.1250 -0.1496 1.1250 0.2504 0.0400 0.2000 0.0400 -0.2000"/>
</g>
<g transform="translate(74.9712, 18.5890)">
<polygon stroke-linejoin="round" stroke-linecap="round" stroke-width="0.0800" fill="currentColor" stroke="currentColor" points="4.3515 -0.0100 4.3515 0.3900 0.0400 0.2000 0.0400 -0.2000"/>
</g>
<g transform="translate(85.1040, 16.8798)">
<polygon stroke-linejoin="round" stroke-linecap="round" stroke-width="0.0800" fill="currentColor" stroke="currentColor" points="1.1250 -0.3008 1.1250 0.0992 0.0400 0.2000 0.0400 -0.2000"/>
</g>
<g transform="translate(81.8775, 17.9690)">
<polygon stroke-linejoin="round" stroke-linecap="round" stroke-width="0.0800" fill="currentColor" stroke="currentColor" points="4.3515 -0.5800 4.3515 -0.1800 0.0400 0.2000 0.0400 -0.2000"/>
</g>
<g transform="translate(58.7581, 17.9186)">
<polygon stroke-linejoin="round" stroke-linecap="round" stroke-width="0.0800" fill="currentColor" stroke="currentColor" points="1.1250 -0.1496 1.1250 0.2504 0.0400 0.2000 0.0400 -0.2000"/>
</g>
<g transform="translate(55.5316, 18.5890)">
<polygon stroke-linejoin="round" stroke-linecap="round" stroke-width="0.0800" fill="currentColor" stroke="currentColor" points="4.3515 -0.0100 4.3515 0.3900 0.0400 0.2000 0.0400 -0.2000"/>
</g>
<g transform="translate(92.0103, 15.8798)">
<polygon stroke-linejoin="round" stroke-linecap="round" stroke-width="0.0800" fill="currentColor" stroke="currentColor" points="1.1250 -0.3008 1.1250 0.0992 0.0400 0.2000 0.0400 -0.2000"/>
</g>
<g transform="translate(88.7839, 16.9690)">
<polygon stroke-linejoin="round" stroke-linecap="round" stroke-width="0.0800" fill="currentColor" stroke="currentColor" points="4.3515 -0.5800 4.3515 -0.1800 0.0400 0.2000 0.0400 -0.2000"/>
</g>
<g transform="translate(96.2848, 14.9690)">
<polygon stroke-linejoin="round" stroke-linecap="round" stroke-width="0.0800" fill="currentColor" stroke="currentColor" points="1.1250 -0.2000 1.1250 0.2000 0.0400 0.2000 0.0400 -0.2000"/>
</g>
<g transform="translate(96.2848, 15.7790)">
<polygon stroke-linejoin="round" stroke-linecap="round" stroke-width="0.0800" fill="currentColor" stroke="currentColor" points="2.7349 -0.2000 2.7349 0.2000 0.0400 0.2000 0.0400 -0.2000"/>
</g>
<g transform="translate(106.4176, 17.5641)">
<polygon stroke-linejoin="round" stroke-linecap="round" stroke-width="0.0800" fill="currentColor" stroke="currentColor" points="1.1250 0.0149 1.1250 0.4149 0.0400 0.2000 0.0400 -0.2000"/>
</g>
<g transform="translate(103.1912, 17.7790)">
<polygon stroke-linejoin="round" stroke-linecap="round" stroke-width="0.0800" fill="currentColor" stroke="currentColor" points="4.3515 0.6100 4.3515 1.0100 0.0400 0.2000 0.0400 -0.2000"/>
</g>
<g transform="translate(37.3561, 18.1215)">
<polygon stroke-linejoin="round" stroke-linecap="round" stroke-width="0.0800" fill="currentColor" stroke="currentColor" points="1.1250 0.1475 1.1250 0.5475 0.0400 0.2000 0.0400 -0.2000"/>
</g>
<g transform="translate(34.1296, 17.9690)">
<polygon stroke-linejoin="round" stroke-linecap="round" stroke-width="0.0800" fill="currentColor" stroke="currentColor" points="4.3515 1.1100 4.3515 1.5100 0.0400 0.2000 0.0400 -0.2000"/>
</g>
<g transform="translate(13.4106, 17.9690)">
<polygon stroke-linejoin="round" stroke-linecap="round" stroke-width="0.0800" fill="currentColor" stroke="currentColor" points="1.1250 -0.5401 1.1250 -0.1401 0.0400 0.2000 0.0400 -0.2000"/>
</g>
<g transform="translate(13.4106, 18.7790)">
<polygon stroke-linejoin="round" stroke-linecap="round" stroke-width="0.0800" fill="currentColor" stroke="currentColor" points="2.7349 -1.0100 2.7349 -0.6100 0.0400 0.2000 0.0400 -0.2000"/>
</g>
<g transform="translate(23.5434, 17.9186)">
<polygon stroke-linejoin="round" stroke-linecap="round" stroke-width="0.0800" fill="currentColor" stroke="currentColor" points="1.1250 -0.1496 1.1250 0.2504 0.0400 0.2000 0.0400 -0.2000"/>
</g>
<g transform="translate(20.3169, 18.5890)">
<polygon stroke-linejoin="round" stroke-linecap="round" stroke-width="0.0800" fill="currentColor" stroke="currentColor" points="4.3515 -0.0100 4.3515 0.3900 0.0400 0.2000 0.0400 -0.2000"/>
</g>
<g transform="translate(30.4497, 16.8798)">
<polygon stroke-linejoin="round" stroke-linecap="round" stroke-width="0.0800" fill="currentColor" stroke="currentColor" points="1.1250 -0.3008 1.1250 0.0992 0.0400 0.2000 0.0400 -0.2000"/>
</g>
<g transform="translate(27.2233, 17.9690)">
<polygon stroke-linejoin="round" stroke-linecap="round" stroke-width="0.0800" fill="currentColor" stroke="currentColor" points="4.3515 -0.5800 4.3515 -0.1800 0.0400 0.2000 0.0400 -0.2000"/>
</g>
<g transform="translate(41.7189, 17.9690)">
<polygon stroke-linejoin="round" stroke-linecap="round" stroke-width="0.0800" fill="currentColor" stroke="currentColor" points="1.1250 -0.5401 1.1250 -0.1401 0.0400 0.2000 0.0400 -0.2000"/>
</g>
<g transform="translate(41.7189, 18.7790)">
<polygon stroke-linejoin="round" stroke-linecap="round" stroke-width="0.0800" fill="currentColor" stroke="currentColor" points="2.7349 -1.0100 2.7349 -0.6100 0.0400 0.2000 0.0400 -0.2000"/>
</g>
<g transform="translate(51.8517, 17.9186)">
<polygon stroke-linejoin="round" stroke-linecap="round" stroke-width="0.0800" fill="currentColor" stroke="currentColor" points="1.1250 -0.1496 1.1250 0.2504 0.0400 0.2000 0.0400 -0.2000"/>
</g>
<g transform="translate(48.6253, 18.5890)">
<polygon stroke-linejoin="round" stroke-linecap="round" stroke-width="0.0800" fill="currentColor" stroke="currentColor" points="4.3515 -0.0100 4.3515 0.3900 0.0400 0.2000 0.0400 -0.2000"/>
</g>
<g transform="translate(103.1912, 13.7790)">
<path transform="scale(0.0040, -0.0040)" d="M218 136c66 0 108 -36 108 -89c0 -89 -113 -183 -218 -183c-66 0 -108 36 -108 89c0 89 113 183 218 183z" fill="currentColor"/>
</g>
<g transform="translate(107.5176, 15.7790)">
<rect x="-0.0650" y="-0.3139" width="0.1300" height="3.1119" ry="0.0400" fill="currentColor"/>
</g>
<g transform="translate(107.4526, 15.2790)">
<path transform="scale(0.0040, -0.0040)" d="M218 136c66 0 108 -36 108 -89c0 -89 -113 -183 -218 -183c-66 0 -108 36 -108 89c0 89 113 183 218 183z" fill="currentColor"/>
</g>
<g transform="translate(103.2562, 15.7790)">
<rect x="-0.0650" y="-1.8139" width="0.1300" height="3.8259" ry="0.0400" fill="currentColor"/>
</g>
<g transform="translate(104.9454, 13.2790)">
<path transform="scale(0.0040, -0.0040)" d="M0 0c0 31 25 56 56 56s56 -25 56 -56s-25 -56 -56 -56s-56 25 -56 56z" fill="currentColor"/>
</g>
<g transform="translate(98.9947, 15.7790)">
<rect x="-0.0650" y="-2.8139" width="0.1300" height="2.8139" ry="0.0400" fill="currentColor"/>
</g>
<g transform="translate(100.6839, 12.2790)">
<path transform="scale(0.0040, -0.0040)" d="M0 0c0 31 25 56 56 56s56 -25 56 -56s-25 -56 -56 -56s-56 25 -56 56z" fill="currentColor"/>
</g>
<g transform="translate(98.9297, 12.7790)">
<path transform="scale(0.0040, -0.0040)" d="M218 136c66 0 108 -36 108 -89c0 -89 -113 -183 -218 -183c-66 0 -108 36 -108 89c0 89 113 183 218 183z" fill="currentColor"/>
</g>
<g transform="translate(116.0215, 15.7790)">
<rect x="-0.0650" y="-3.0000" width="0.1300" height="3.3139" ry="0.0400" fill="currentColor"/>
</g>
<g transform="translate(114.7823, 16.2790)">
<path transform="scale(0.0040, -0.0040)" d="M218 136c66 0 108 -36 108 -89c0 -89 -113 -183 -218 -183c-66 0 -108 36 -108 89c0 89 113 183 218 183z" fill="currentColor"/>
</g>
<g transform="translate(110.1625, 15.7790)">
<rect x="-0.0650" y="-2.8139" width="0.1300" height="3.3139" ry="0.0400" fill="currentColor"/>
</g>
<g transform="translate(110.0975, 12.7790)">
<path transform="scale(0.0040, -0.0040)" d="M218 136c66 0 108 -36 108 -89c0 -89 -113 -183 -218 -183c-66 0 -108 36 -108 89c0 89 113 183 218 183z" fill="currentColor"/>
</g>
<g transform="translate(34.1296, 13.7790)">
<path transform="scale(0.0040, -0.0040)" d="M218 136c66 0 108 -36 108 -89c0 -89 -113 -183 -218 -183c-66 0 -108 36 -108 89c0 89 113 183 218 183z" fill="currentColor"/>
</g>
<g transform="translate(31.5497, 15.7790)">
<rect x="-0.0650" y="-1.3139" width="0.1300" height="3.1295" ry="0.0400" fill="currentColor"/>
</g>
<g transform="translate(31.4847, 14.2790)">
<path transform="scale(0.0040, -0.0040)" d="M218 136c66 0 108 -36 108 -89c0 -89 -113 -183 -218 -183c-66 0 -108 36 -108 89c0 89 113 183 218 183z" fill="currentColor"/>
</g>
<g transform="translate(35.8838, 13.2790)">
<path transform="scale(0.0040, -0.0040)" d="M0 0c0 31 25 56 56 56s56 -25 56 -56s-25 -56 -56 -56s-56 25 -56 56z" fill="currentColor"/>
</g>
<g transform="translate(27.2883, 15.7790)">
<rect x="-0.0650" y="-0.8139" width="0.1300" height="2.9983" ry="0.0400" fill="currentColor"/>
</g>
<g transform="translate(28.9775, 14.2790)">
<path transform="scale(0.0040, -0.0040)" d="M0 0c0 31 25 56 56 56s56 -25 56 -56s-25 -56 -56 -56s-56 25 -56 56z" fill="currentColor"/>
</g>
<g transform="translate(27.2233, 14.7790)">
<path transform="scale(0.0040, -0.0040)" d="M218 136c66 0 108 -36 108 -89c0 -89 -113 -183 -218 -183c-66 0 -108 36 -108 89c0 89 113 183 218 183z" fill="currentColor"/>
</g>
<g transform="translate(24.6434, 15.7790)">
<rect x="-0.0650" y="-0.3139" width="0.1300" height="3.3111" ry="0.0400" fill="currentColor"/>
</g>
<g transform="translate(41.7839, 15.7790)">
<rect x="-0.0650" y="0.6861" width="0.1300" height="2.2949" ry="0.0400" fill="currentColor"/>
</g>
<g transform="translate(41.7189, 21.2353)">
<text font-family="Source Sans Pro" font-size="2.6163" text-anchor="start" fill="currentColor">
<tspan>D</tspan>
</text>
</g>
<g transform="translate(43.3237, 21.2353)">
<text font-family="Source Sans Pro" font-size="2.6163" text-anchor="start" fill="currentColor">
<tspan>m</tspan>
</text>
</g>
<g transform="translate(41.7189, 16.2790)">
<path transform="scale(0.0040, -0.0040)" d="M218 136c66 0 108 -36 108 -89c0 -89 -113 -183 -218 -183c-66 0 -108 36 -108 89c0 89 113 183 218 183z" fill="currentColor"/>
</g>
<g transform="translate(24.5784, 15.2790)">
<path transform="scale(0.0040, -0.0040)" d="M218 136c66 0 108 -36 108 -89c0 -89 -113 -183 -218 -183c-66 0 -108 36 -108 89c0 89 113 183 218 183z" fill="currentColor"/>
</g>
<g transform="translate(38.4561, 15.7790)">
<rect x="-0.0650" y="0.6861" width="0.1300" height="2.7945" ry="0.0400" fill="currentColor"/>
</g>
<g transform="translate(68.0648, 16.2790)">
<path transform="scale(0.0040, -0.0040)" d="M218 136c66 0 108 -36 108 -89c0 -89 -113 -183 -218 -183c-66 0 -108 36 -108 89c0 89 113 183 218 183z" fill="currentColor"/>
</g>
<g transform="translate(34.1946, 15.7790)">
<rect x="-0.0650" y="-1.8139" width="0.1300" height="4.0233" ry="0.0400" fill="currentColor"/>
</g>
<g transform="translate(6.4906, 16.7790)">
<path transform="scale(0.0040, -0.0040)" d="M266 -635h-6c-108 0 -195 88 -195 197c0 58 53 103 112 103c54 0 95 -47 95 -103c0 -52 -43 -95 -95 -95c-11 0 -21 2 -31 6c26 -39 68 -65 117 -65h4zM461 -203c68 24 113 90 113 164c0 90 -66 179 -173 190c19 -89 48 -242 60 -354zM74 28c0 -145 141 -247 264 -247
c1 0 47 0 82 6c-7 64 -29 203 -63 364c-79 -8 -124 -61 -124 -119c0 -44 25 -91 81 -123c5 -5 7 -10 7 -15c0 -11 -10 -22 -22 -22c-15 0 -126 62 -126 187c0 88 58 174 160 197c-14 58 -29 117 -46 175c-107 -121 -213 -243 -213 -403zM250 553c-29 96 -52 170 -52 346
c0 115 55 224 149 292c6 5 14 5 20 0c68 -80 133 -245 133 -358c0 -143 -86 -255 -180 -364c21 -68 39 -138 56 -207c2 0 7 1 13 1c155 0 256 -128 256 -261c0 -113 -74 -212 -180 -246c3 -35 5 -70 5 -105c0 -19 -1 -39 -2 -58c-7 -119 -88 -225 -202 -228l1 43
c93 2 153 92 159 191c1 18 2 37 2 55c0 31 -1 61 -4 92c-5 -1 -44 -8 -89 -8c-193 0 -333 180 -333 374c0 177 131 306 248 441zM428 916c0 34 1 66 -20 129c-99 -48 -162 -149 -162 -259c0 -52 12 -115 36 -194c80 97 146 198 146 324z" fill="currentColor"/>
</g>
<g transform="translate(13.4756, 15.7790)">
<rect x="-0.0650" y="0.6861" width="0.1300" height="2.2949" ry="0.0400" fill="currentColor"/>
</g>
<g transform="translate(13.4106, 21.2353)">
<text font-family="Source Sans Pro" font-size="2.6163" text-anchor="start" fill="currentColor">
<tspan>D</tspan>
</text>
</g>
<g transform="translate(15.0153, 21.2353)">
<text font-family="Source Sans Pro" font-size="2.6163" text-anchor="start" fill="currentColor">
<tspan>m</tspan>
</text>
</g>
<g transform="translate(13.4106, 16.2790)">
<path transform="scale(0.0040, -0.0040)" d="M218 136c66 0 108 -36 108 -89c0 -89 -113 -183 -218 -183c-66 0 -108 36 -108 89c0 89 113 183 218 183z" fill="currentColor"/>
</g>
<g transform="translate(10.1106, 15.7790)">
<path transform="scale(0.0040, -0.0040)" d="M27 41l-1 -66v-11c0 -22 1 -44 4 -66c45 38 93 80 93 139c0 33 -14 67 -43 67c-31 0 -52 -30 -53 -63zM-15 -138l-12 595c8 5 18 8 27 8s19 -3 27 -8l-7 -345c25 21 58 34 91 34c52 0 89 -48 89 -102c0 -80 -86 -117 -147 -169c-15 -13 -24 -38 -45 -38
c-13 0 -23 11 -23 25z" fill="currentColor"/>
</g>
<g transform="translate(3.8370, 15.3360)">
<text font-family="Source Sans Pro" font-size="1.7461" text-anchor="start" fill="currentColor">
<tspan>9</tspan>
</text>
</g>
<g transform="translate(2.9834, 17.3360)">
<text font-family="Source Sans Pro" font-size="1.7461" text-anchor="start" fill="currentColor">
<tspan>25</tspan>
</text>
</g>
<g transform="translate(20.3819, 15.7790)">
<rect x="-0.0650" y="-0.8139" width="0.1300" height="3.6267" ry="0.0400" fill="currentColor"/>
</g>
<g transform="translate(22.0711, 14.2790)">
<path transform="scale(0.0040, -0.0040)" d="M0 0c0 31 25 56 56 56s56 -25 56 -56s-25 -56 -56 -56s-56 25 -56 56z" fill="currentColor"/>
</g>
<g transform="translate(20.3169, 14.7790)">
<path transform="scale(0.0040, -0.0040)" d="M218 136c66 0 108 -36 108 -89c0 -89 -113 -183 -218 -183c-66 0 -108 36 -108 89c0 89 113 183 218 183z" fill="currentColor"/>
</g>
<g transform="translate(38.3911, 16.2790)">
<path transform="scale(0.0040, -0.0040)" d="M218 136c66 0 108 -36 108 -89c0 -89 -113 -183 -218 -183c-66 0 -108 36 -108 89c0 89 113 183 218 183z" fill="currentColor"/>
</g>
<g transform="translate(16.1205, 15.7790)">
<rect x="-0.0650" y="-0.8139" width="0.1300" height="3.0229" ry="0.0400" fill="currentColor"/>
</g>
<g transform="translate(17.8097, 14.2790)">
<path transform="scale(0.0040, -0.0040)" d="M0 0c0 31 25 56 56 56s56 -25 56 -56s-25 -56 -56 -56s-56 25 -56 56z" fill="currentColor"/>
</g>
<g transform="translate(16.0555, 14.7790)">
<path transform="scale(0.0040, -0.0040)" d="M218 136c66 0 108 -36 108 -89c0 -89 -113 -183 -218 -183c-66 0 -108 36 -108 89c0 89 113 183 218 183z" fill="currentColor"/>
</g>
<g transform="translate(48.6253, 14.7790)">
<path transform="scale(0.0040, -0.0040)" d="M218 136c66 0 108 -36 108 -89c0 -89 -113 -183 -218 -183c-66 0 -108 36 -108 89c0 89 113 183 218 183z" fill="currentColor"/>
</g>
<g transform="translate(59.7931, 15.2790)">
<path transform="scale(0.0040, -0.0040)" d="M218 136c66 0 108 -36 108 -89c0 -89 -113 -183 -218 -183c-66 0 -108 36 -108 89c0 89 113 183 218 183z" fill="currentColor"/>
</g>
<g transform="translate(52.8867, 15.2790)">
<path transform="scale(0.0040, -0.0040)" d="M218 136c66 0 108 -36 108 -89c0 -89 -113 -183 -218 -183c-66 0 -108 36 -108 89c0 89 113 183 218 183z" fill="currentColor"/>
</g>
<g transform="translate(59.8581, 15.7790)">
<rect x="-0.0650" y="-0.3139" width="0.1300" height="3.3111" ry="0.0400" fill="currentColor"/>
</g>
<g transform="translate(50.3795, 14.2790)">
<path transform="scale(0.0040, -0.0040)" d="M0 0c0 31 25 56 56 56s56 -25 56 -56s-25 -56 -56 -56s-56 25 -56 56z" fill="currentColor"/>
</g>
<g transform="translate(55.5316, 14.7790)">
<path transform="scale(0.0040, -0.0040)" d="M218 136c66 0 108 -36 108 -89c0 -89 -113 -183 -218 -183c-66 0 -108 36 -108 89c0 89 113 183 218 183z" fill="currentColor"/>
</g>
<g transform="translate(48.6903, 15.7790)">
<rect x="-0.0650" y="-0.8139" width="0.1300" height="3.6267" ry="0.0400" fill="currentColor"/>
</g>
<g transform="translate(55.5966, 15.7790)">
<rect x="-0.0650" y="-0.8139" width="0.1300" height="3.6267" ry="0.0400" fill="currentColor"/>
</g>
<g transform="translate(55.5316, 21.2353)">
<text font-family="Source Sans Pro" font-size="2.6163" text-anchor="start" fill="currentColor">
<tspan>A</tspan>
</text>
</g>
<g transform="translate(56.9657, 21.2353)">
<text font-family="Source Sans Pro" font-size="2.6163" text-anchor="start" fill="currentColor">
<tspan>m</tspan>
</text>
</g>
<g transform="translate(57.2858, 14.2790)">
<path transform="scale(0.0040, -0.0040)" d="M0 0c0 31 25 56 56 56s56 -25 56 -56s-25 -56 -56 -56s-56 25 -56 56z" fill="currentColor"/>
</g>
<g transform="translate(63.6772, 15.7790)">
<rect x="-0.0650" y="-3.0000" width="0.1300" height="3.3139" ry="0.0400" fill="currentColor"/>
</g>
<g transform="translate(62.4380, 16.2790)">
<path transform="scale(0.0040, -0.0040)" d="M218 136c66 0 108 -36 108 -89c0 -89 -113 -183 -218 -183c-66 0 -108 36 -108 89c0 89 113 183 218 183z" fill="currentColor"/>
</g>
<g transform="translate(52.9517, 15.7790)">
<rect x="-0.0650" y="-0.3139" width="0.1300" height="3.3111" ry="0.0400" fill="currentColor"/>
</g>
<g transform="translate(44.3638, 14.7790)">
<path transform="scale(0.0040, -0.0040)" d="M218 136c66 0 108 -36 108 -89c0 -89 -113 -183 -218 -183c-66 0 -108 36 -108 89c0 89 113 183 218 183z" fill="currentColor"/>
</g>
<g transform="translate(46.1180, 14.2790)">
<path transform="scale(0.0040, -0.0040)" d="M0 0c0 31 25 56 56 56s56 -25 56 -56s-25 -56 -56 -56s-56 25 -56 56z" fill="currentColor"/>
</g>
<g transform="translate(44.4288, 15.7790)">
<rect x="-0.0650" y="-0.8139" width="0.1300" height="3.0229" ry="0.0400" fill="currentColor"/>
</g>
<g transform="translate(5.6906, 29.7790)">
<line stroke-linejoin="round" stroke-linecap="round" stroke-width="0.1000" stroke="currentColor" x1="0.0500" y1="0" x2="113.7610" y2="0"/>
</g>
<g transform="translate(5.6906, 28.7790)">
<line stroke-linejoin="round" stroke-linecap="round" stroke-width="0.1000" stroke="currentColor" x1="0.0500" y1="0" x2="113.7610" y2="0"/>
</g>
<g transform="translate(5.6906, 27.7790)">
<line stroke-linejoin="round" stroke-linecap="round" stroke-width="0.1000" stroke="currentColor" x1="0.0500" y1="0" x2="113.7610" y2="0"/>
</g>
<g transform="translate(5.6906, 26.7790)">
<line stroke-linejoin="round" stroke-linecap="round" stroke-width="0.1000" stroke="currentColor" x1="0.0500" y1="0" x2="113.7610" y2="0"/>
</g>
<g transform="translate(5.6906, 25.7790)">
<line stroke-linejoin="round" stroke-linecap="round" stroke-width="0.1000" stroke="currentColor" x1="0.0500" y1="0" x2="113.7610" y2="0"/>
</g>
<g transform="translate(96.7594, 27.7790)">
<rect x="0.0000" y="-2.0000" width="0.1900" height="4.0000" ry="0.0000" fill="currentColor"/>
</g>
<g transform="translate(117.6616, 27.2790)">
<path transform="scale(0.0040, -0.0040)" d="M0 0c0 31 25 56 56 56s56 -25 56 -56s-25 -56 -56 -56s-56 25 -56 56z" fill="currentColor"/>
</g>
<g transform="translate(117.6616, 28.2790)">
<path transform="scale(0.0040, -0.0040)" d="M0 0c0 31 25 56 56 56s56 -25 56 -56s-25 -56 -56 -56s-56 25 -56 56z" fill="currentColor"/>
</g>
<g transform="scale(-1.0000, 1.0000)">
<g transform="translate(-119.5016, 27.7790)">
<rect x="0.0000" y="-2.0000" width="0.6000" height="4.0000" ry="0.0000" fill="currentColor"/>
</g>
<g transform="translate(-119.5016, 25.7790)">
<path transform="scale(0.0040, -0.0040)" d="M0 -56v87c0 14 11 25 25 25h50c159 0 271 136 362 270c12 17 38 -1 26 -18c-99 -144 -215 -364 -388 -364h-75z" fill="currentColor"/>
</g>
<g transform="translate(-119.5016, 29.7790)">
<path transform="scale(0.0040, -0.0040)" d="M0 56h75c173 0 289 -220 388 -364c12 -17 -14 -35 -26 -18c-91 134 -203 270 -362 270h-50c-14 0 -25 11 -25 25v87z" fill="currentColor"/>
</g>
</g>
<g transform="translate(118.4116, 27.7790)">
<rect x="0.0000" y="-2.0000" width="0.1900" height="4.0000" ry="0.0000" fill="currentColor"/>
</g>
<g transform="translate(68.0459, 27.7790)">
<rect x="0.0000" y="-2.0000" width="0.1900" height="4.0000" ry="0.0000" fill="currentColor"/>
</g>
<g transform="translate(41.1707, 27.7790)">
<rect x="0.0000" y="-2.0000" width="0.1900" height="4.0000" ry="0.0000" fill="currentColor"/>
</g>
<g transform="translate(90.3614, 27.7790)">
<rect x="-0.0650" y="-1.8139" width="0.1300" height="2.9984" ry="0.0400" fill="currentColor"/>
</g>
<g transform="translate(92.0506, 25.2790)">
<path transform="scale(0.0040, -0.0040)" d="M0 0c0 31 25 56 56 56s56 -25 56 -56s-25 -56 -56 -56s-56 25 -56 56z" fill="currentColor"/>
</g>
<g transform="translate(90.2964, 25.7790)">
<path transform="scale(0.0040, -0.0040)" d="M218 136c66 0 108 -36 108 -89c0 -89 -113 -183 -218 -183c-66 0 -108 36 -108 89c0 89 113 183 218 183z" fill="currentColor"/>
</g>
<g transform="translate(87.6714, 27.7790)">
<rect x="-0.0650" y="-1.3139" width="0.1300" height="3.1294" ry="0.0400" fill="currentColor"/>
</g>
<g transform="translate(87.6064, 26.2790)">
<path transform="scale(0.0040, -0.0040)" d="M218 136c66 0 108 -36 108 -89c0 -89 -113 -183 -218 -183c-66 0 -108 36 -108 89c0 89 113 183 218 183z" fill="currentColor"/>
</g>
<g transform="translate(98.0482, 27.7790)">
<rect x="-0.0650" y="-1.3139" width="0.1300" height="3.3326" ry="0.0400" fill="currentColor"/>
</g>
<g transform="translate(69.1554, 28.2790)">
<path transform="scale(0.0040, -0.0040)" d="M218 136c66 0 108 -36 108 -89c0 -89 -113 -183 -218 -183c-66 0 -108 36 -108 89c0 89 113 183 218 183z" fill="currentColor"/>
</g>
<g transform="translate(97.9832, 33.2353)">
<text font-family="Source Sans Pro" font-size="2.6163" text-anchor="start" fill="currentColor">
<tspan>C</tspan>
</text>
</g>
<g transform="translate(97.9832, 26.2790)">
<path transform="scale(0.0040, -0.0040)" d="M218 136c66 0 108 -36 108 -89c0 -89 -113 -183 -218 -183c-66 0 -108 36 -108 89c0 89 113 183 218 183z" fill="currentColor"/>
</g>
<g transform="translate(94.7184, 27.7790)">
<rect x="-0.0650" y="-2.3139" width="0.1300" height="3.1294" ry="0.0400" fill="currentColor"/>
</g>
<g transform="translate(94.6534, 25.2790)">
<path transform="scale(0.0040, -0.0040)" d="M218 136c66 0 108 -36 108 -89c0 -89 -113 -183 -218 -183c-66 0 -108 36 -108 89c0 89 113 183 218 183z" fill="currentColor"/>
</g>
<g transform="translate(71.9104, 27.7790)">
<rect x="-0.0650" y="-0.8139" width="0.1300" height="3.0226" ry="0.0400" fill="currentColor"/>
</g>
<g transform="translate(73.5996, 26.2790)">
<path transform="scale(0.0040, -0.0040)" d="M0 0c0 31 25 56 56 56s56 -25 56 -56s-25 -56 -56 -56s-56 25 -56 56z" fill="currentColor"/>
</g>
<g transform="translate(71.8454, 26.7790)">
<path transform="scale(0.0040, -0.0040)" d="M218 136c66 0 108 -36 108 -89c0 -89 -113 -183 -218 -183c-66 0 -108 36 -108 89c0 89 113 183 218 183z" fill="currentColor"/>
</g>
<g transform="translate(69.2204, 27.7790)">
<rect x="-0.0650" y="0.6861" width="0.1300" height="2.2952" ry="0.0400" fill="currentColor"/>
</g>
<g transform="translate(69.1554, 33.2353)">
<text font-family="Source Sans Pro" font-size="2.6163" text-anchor="start" fill="currentColor">
<tspan>D</tspan>
</text>
</g>
<g transform="translate(70.7602, 33.2353)">
<text font-family="Source Sans Pro" font-size="2.6163" text-anchor="start" fill="currentColor">
<tspan>m</tspan>
</text>
</g>
<g transform="translate(85.0036, 26.2790)">
<path transform="scale(0.0040, -0.0040)" d="M0 0c0 31 25 56 56 56s56 -25 56 -56s-25 -56 -56 -56s-56 25 -56 56z" fill="currentColor"/>
</g>
<g transform="translate(83.2494, 26.7790)">
<path transform="scale(0.0040, -0.0040)" d="M218 136c66 0 108 -36 108 -89c0 -89 -113 -183 -218 -183c-66 0 -108 36 -108 89c0 89 113 183 218 183z" fill="currentColor"/>
</g>
<g transform="translate(80.6244, 27.7790)">
<rect x="-0.0650" y="-0.3139" width="0.1300" height="3.3111" ry="0.0400" fill="currentColor"/>
</g>
<g transform="translate(80.5594, 27.2790)">
<path transform="scale(0.0040, -0.0040)" d="M218 136c66 0 108 -36 108 -89c0 -89 -113 -183 -218 -183c-66 0 -108 36 -108 89c0 89 113 183 218 183z" fill="currentColor"/>
</g>
<g transform="translate(83.3144, 27.7790)">
<rect x="-0.0650" y="-0.8139" width="0.1300" height="2.9984" ry="0.0400" fill="currentColor"/>
</g>
<g transform="translate(76.2674, 27.7790)">
<rect x="-0.0650" y="-0.8139" width="0.1300" height="3.6266" ry="0.0400" fill="currentColor"/>
</g>
<g transform="translate(77.9566, 26.2790)">
<path transform="scale(0.0040, -0.0040)" d="M0 0c0 31 25 56 56 56s56 -25 56 -56s-25 -56 -56 -56s-56 25 -56 56z" fill="currentColor"/>
</g>
<g transform="translate(76.2024, 26.7790)">
<path transform="scale(0.0040, -0.0040)" d="M218 136c66 0 108 -36 108 -89c0 -89 -113 -183 -218 -183c-66 0 -108 36 -108 89c0 89 113 183 218 183z" fill="currentColor"/>
</g>
<g transform="translate(69.1554, 29.9690)">
<polygon stroke-linejoin="round" stroke-linecap="round" stroke-width="0.0800" fill="currentColor" stroke="currentColor" points="1.1250 -0.5346 1.1250 -0.1346 0.0400 0.2000 0.0400 -0.2000"/>
</g>
<g transform="translate(69.1554, 30.7790)">
<polygon stroke-linejoin="round" stroke-linecap="round" stroke-width="0.0800" fill="currentColor" stroke="currentColor" points="2.7800 -1.0100 2.7800 -0.6100 0.0400 0.2000 0.0400 -0.2000"/>
</g>
<g transform="translate(79.5244, 29.9197)">
<polygon stroke-linejoin="round" stroke-linecap="round" stroke-width="0.0800" fill="currentColor" stroke="currentColor" points="1.1250 -0.1507 1.1250 0.2493 0.0400 0.2000 0.0400 -0.2000"/>
</g>
<g transform="translate(76.2024, 30.5890)">
<polygon stroke-linejoin="round" stroke-linecap="round" stroke-width="0.0800" fill="currentColor" stroke="currentColor" points="4.4470 -0.0100 4.4470 0.3900 0.0400 0.2000 0.0400 -0.2000"/>
</g>
<g transform="translate(86.5714, 28.8777)">
<polygon stroke-linejoin="round" stroke-linecap="round" stroke-width="0.0800" fill="currentColor" stroke="currentColor" points="1.1250 -0.2987 1.1250 0.1013 0.0400 0.2000 0.0400 -0.2000"/>
</g>
<g transform="translate(83.2494, 29.9690)">
<polygon stroke-linejoin="round" stroke-linecap="round" stroke-width="0.0800" fill="currentColor" stroke="currentColor" points="4.4470 -0.5800 4.4470 -0.1800 0.0400 0.2000 0.0400 -0.2000"/>
</g>
<g transform="translate(59.6962, 29.9197)">
<polygon stroke-linejoin="round" stroke-linecap="round" stroke-width="0.0800" fill="currentColor" stroke="currentColor" points="1.1250 -0.1507 1.1250 0.2493 0.0400 0.2000 0.0400 -0.2000"/>
</g>
<g transform="translate(56.3742, 30.5890)">
<polygon stroke-linejoin="round" stroke-linecap="round" stroke-width="0.0800" fill="currentColor" stroke="currentColor" points="4.4470 -0.0100 4.4470 0.3900 0.0400 0.2000 0.0400 -0.2000"/>
</g>
<g transform="translate(93.6184, 27.8777)">
<polygon stroke-linejoin="round" stroke-linecap="round" stroke-width="0.0800" fill="currentColor" stroke="currentColor" points="1.1250 -0.2987 1.1250 0.1013 0.0400 0.2000 0.0400 -0.2000"/>
</g>
<g transform="translate(90.2964, 28.9690)">
<polygon stroke-linejoin="round" stroke-linecap="round" stroke-width="0.0800" fill="currentColor" stroke="currentColor" points="4.4470 -0.5800 4.4470 -0.1800 0.0400 0.2000 0.0400 -0.2000"/>
</g>
<g transform="translate(97.9832, 28.9690)">
<polygon stroke-linejoin="round" stroke-linecap="round" stroke-width="0.0800" fill="currentColor" stroke="currentColor" points="1.1250 0.1346 1.1250 0.5346 0.0400 0.2000 0.0400 -0.2000"/>
</g>
<g transform="translate(97.9832, 29.7790)">
<polygon stroke-linejoin="round" stroke-linecap="round" stroke-width="0.0800" fill="currentColor" stroke="currentColor" points="2.7800 0.6100 2.7800 1.0100 0.0400 0.2000 0.0400 -0.2000"/>
</g>
<g transform="translate(108.3522, 29.6180)">
<polygon stroke-linejoin="round" stroke-linecap="round" stroke-width="0.0800" fill="currentColor" stroke="currentColor" points="1.1250 -0.0390 1.1250 0.3610 0.0400 0.2000 0.0400 -0.2000"/>
</g>
<g transform="translate(105.0302, 29.9690)">
<polygon stroke-linejoin="round" stroke-linecap="round" stroke-width="0.0800" fill="currentColor" stroke="currentColor" points="4.4470 0.4200 4.4470 0.8200 0.0400 0.2000 0.0400 -0.2000"/>
</g>
<g transform="translate(37.8736, 30.1289)">
<polygon stroke-linejoin="round" stroke-linecap="round" stroke-width="0.0800" fill="currentColor" stroke="currentColor" points="1.1250 0.1401 1.1250 0.5401 0.0400 0.2000 0.0400 -0.2000"/>
</g>
<g transform="translate(34.5516, 29.9690)">
<polygon stroke-linejoin="round" stroke-linecap="round" stroke-width="0.0800" fill="currentColor" stroke="currentColor" points="4.4470 1.1100 4.4470 1.5100 0.0400 0.2000 0.0400 -0.2000"/>
</g>
<g transform="translate(13.4106, 29.9690)">
<polygon stroke-linejoin="round" stroke-linecap="round" stroke-width="0.0800" fill="currentColor" stroke="currentColor" points="1.1250 -0.5346 1.1250 -0.1346 0.0400 0.2000 0.0400 -0.2000"/>
</g>
<g transform="translate(13.4106, 30.7790)">
<polygon stroke-linejoin="round" stroke-linecap="round" stroke-width="0.0800" fill="currentColor" stroke="currentColor" points="2.7800 -1.0100 2.7800 -0.6100 0.0400 0.2000 0.0400 -0.2000"/>
</g>
<g transform="translate(23.7796, 29.9197)">
<polygon stroke-linejoin="round" stroke-linecap="round" stroke-width="0.0800" fill="currentColor" stroke="currentColor" points="1.1250 -0.1507 1.1250 0.2493 0.0400 0.2000 0.0400 -0.2000"/>
</g>
<g transform="translate(20.4576, 30.5890)">
<polygon stroke-linejoin="round" stroke-linecap="round" stroke-width="0.0800" fill="currentColor" stroke="currentColor" points="4.4470 -0.0100 4.4470 0.3900 0.0400 0.2000 0.0400 -0.2000"/>
</g>
<g transform="translate(30.8266, 28.8777)">
<polygon stroke-linejoin="round" stroke-linecap="round" stroke-width="0.0800" fill="currentColor" stroke="currentColor" points="1.1250 -0.2987 1.1250 0.1013 0.0400 0.2000 0.0400 -0.2000"/>
</g>
<g transform="translate(27.5046, 29.9690)">
<polygon stroke-linejoin="round" stroke-linecap="round" stroke-width="0.0800" fill="currentColor" stroke="currentColor" points="4.4470 -0.5800 4.4470 -0.1800 0.0400 0.2000 0.0400 -0.2000"/>
</g>
<g transform="translate(42.2802, 29.9690)">
<polygon stroke-linejoin="round" stroke-linecap="round" stroke-width="0.0800" fill="currentColor" stroke="currentColor" points="1.1250 -0.5346 1.1250 -0.1346 0.0400 0.2000 0.0400 -0.2000"/>
</g>
<g transform="translate(42.2802, 30.7790)">
<polygon stroke-linejoin="round" stroke-linecap="round" stroke-width="0.0800" fill="currentColor" stroke="currentColor" points="2.7800 -1.0100 2.7800 -0.6100 0.0400 0.2000 0.0400 -0.2000"/>
</g>
<g transform="translate(52.6492, 29.9197)">
<polygon stroke-linejoin="round" stroke-linecap="round" stroke-width="0.0800" fill="currentColor" stroke="currentColor" points="1.1250 -0.1507 1.1250 0.2493 0.0400 0.2000 0.0400 -0.2000"/>
</g>
<g transform="translate(49.3272, 30.5890)">
<polygon stroke-linejoin="round" stroke-linecap="round" stroke-width="0.0800" fill="currentColor" stroke="currentColor" points="4.4470 -0.0100 4.4470 0.3900 0.0400 0.2000 0.0400 -0.2000"/>
</g>
<g transform="translate(106.7844, 25.2790)">
<path transform="scale(0.0040, -0.0040)" d="M0 0c0 31 25 56 56 56s56 -25 56 -56s-25 -56 -56 -56s-56 25 -56 56z" fill="currentColor"/>
</g>
<g transform="translate(105.0952, 27.7790)">
<rect x="-0.0650" y="-2.3139" width="0.1300" height="4.5129" ry="0.0400" fill="currentColor"/>
</g>
<g transform="translate(106.7844, 26.2790)">
<path transform="scale(0.0040, -0.0040)" d="M0 0c0 31 25 56 56 56s56 -25 56 -56s-25 -56 -56 -56s-56 25 -56 56z" fill="currentColor"/>
</g>
<g transform="translate(105.0302, 25.2790)">
<path transform="scale(0.0040, -0.0040)" d="M218 136c66 0 108 -36 108 -89c0 -89 -113 -183 -218 -183c-66 0 -108 36 -108 89c0 89 113 183 218 183z" fill="currentColor"/>
</g>
<g transform="translate(105.0302, 26.2790)">
<path transform="scale(0.0040, -0.0040)" d="M218 136c66 0 108 -36 108 -89c0 -89 -113 -183 -218 -183c-66 0 -108 36 -108 89c0 89 113 183 218 183z" fill="currentColor"/>
</g>
<g transform="translate(100.7382, 27.7790)">
<rect x="-0.0650" y="-0.3139" width="0.1300" height="3.1052" ry="0.0400" fill="currentColor"/>
</g>
<g transform="translate(102.4274, 27.2790)">
<path transform="scale(0.0040, -0.0040)" d="M0 0c0 31 25 56 56 56s56 -25 56 -56s-25 -56 -56 -56s-56 25 -56 56z" fill="currentColor"/>
</g>
<g transform="translate(100.6732, 27.2790)">
<path transform="scale(0.0040, -0.0040)" d="M218 136c66 0 108 -36 108 -89c0 -89 -113 -183 -218 -183c-66 0 -108 36 -108 89c0 89 113 183 218 183z" fill="currentColor"/>
</g>
<g transform="translate(112.1422, 27.7790)">
<rect x="-0.0650" y="-0.7410" width="0.1300" height="3.2410" ry="0.0400" fill="currentColor"/>
</g>
<g transform="translate(112.0772, 33.2353)">
<text font-family="Source Sans Pro" font-size="2.6163" text-anchor="start" fill="currentColor">
<tspan>D</tspan>
</text>
</g>
<g transform="translate(113.6819, 33.2353)">
<text font-family="Source Sans Pro" font-size="2.6163" text-anchor="start" fill="currentColor">
<tspan>m</tspan>
</text>
</g>
<g transform="translate(112.0772, 26.7790)">
<path transform="scale(0.0040, -0.0040)" d="M314 65c0 23 -19 41 -42 41c-39 0 -204 -110 -231 -143c-7 -8 -10 -18 -10 -28c0 -23 19 -41 42 -41c39 0 203 110 230 143c7 8 11 18 11 28zM262 136c41 0 82 -14 82 -71c0 -26 -16 -112 -74 -151c-25 -17 -87 -50 -187 -50c-41 0 -83 14 -83 71c0 26 16 112 74 151
c25 17 88 50 188 50z" fill="currentColor"/>
</g>
<g transform="translate(109.4522, 27.7790)">
<rect x="-0.0650" y="-1.3139" width="0.1300" height="4.1149" ry="0.0400" fill="currentColor"/>
</g>
<g transform="translate(109.3872, 26.2790)">
<path transform="scale(0.0040, -0.0040)" d="M218 136c66 0 108 -36 108 -89c0 -89 -113 -183 -218 -183c-66 0 -108 36 -108 89c0 89 113 183 218 183z" fill="currentColor"/>
</g>
<g transform="translate(109.3872, 27.2790)">
<path transform="scale(0.0040, -0.0040)" d="M218 136c66 0 108 -36 108 -89c0 -89 -113 -183 -218 -183c-66 0 -108 36 -108 89c0 89 113 183 218 183z" fill="currentColor"/>
</g>
<g transform="translate(31.9266, 27.7790)">
<rect x="-0.0650" y="-1.3139" width="0.1300" height="3.1294" ry="0.0400" fill="currentColor"/>
</g>
<g transform="translate(31.8616, 26.2790)">
<path transform="scale(0.0040, -0.0040)" d="M218 136c66 0 108 -36 108 -89c0 -89 -113 -183 -218 -183c-66 0 -108 36 -108 89c0 89 113 183 218 183z" fill="currentColor"/>
</g>
<g transform="translate(27.5696, 27.7790)">
<rect x="-0.0650" y="-0.8139" width="0.1300" height="2.9984" ry="0.0400" fill="currentColor"/>
</g>
<g transform="translate(29.2588, 26.2790)">
<path transform="scale(0.0040, -0.0040)" d="M0 0c0 31 25 56 56 56s56 -25 56 -56s-25 -56 -56 -56s-56 25 -56 56z" fill="currentColor"/>
</g>
<g transform="translate(27.5046, 26.7790)">
<path transform="scale(0.0040, -0.0040)" d="M218 136c66 0 108 -36 108 -89c0 -89 -113 -183 -218 -183c-66 0 -108 36 -108 89c0 89 113 183 218 183z" fill="currentColor"/>
</g>
<g transform="translate(24.8796, 27.7790)">
<rect x="-0.0650" y="-0.3139" width="0.1300" height="3.3111" ry="0.0400" fill="currentColor"/>
</g>
<g transform="translate(24.8146, 27.2790)">
<path transform="scale(0.0040, -0.0040)" d="M218 136c66 0 108 -36 108 -89c0 -89 -113 -183 -218 -183c-66 0 -108 36 -108 89c0 89 113 183 218 183z" fill="currentColor"/>
</g>
<g transform="translate(42.3452, 27.7790)">
<rect x="-0.0650" y="0.6861" width="0.1300" height="2.2952" ry="0.0400" fill="currentColor"/>
</g>
<g transform="translate(42.2802, 33.2353)">
<text font-family="Source Sans Pro" font-size="2.6163" text-anchor="start" fill="currentColor">
<tspan>D</tspan>
</text>
</g>
<g transform="translate(43.8849, 33.2353)">
<text font-family="Source Sans Pro" font-size="2.6163" text-anchor="start" fill="currentColor">
<tspan>m</tspan>
</text>
</g>
<g transform="translate(42.2802, 28.2790)">
<path transform="scale(0.0040, -0.0040)" d="M218 136c66 0 108 -36 108 -89c0 -89 -113 -183 -218 -183c-66 0 -108 36 -108 89c0 89 113 183 218 183z" fill="currentColor"/>
</g>
<g transform="translate(38.9086, 28.2790)">
<path transform="scale(0.0040, -0.0040)" d="M218 136c66 0 108 -36 108 -89c0 -89 -113 -183 -218 -183c-66 0 -108 36 -108 89c0 89 113 183 218 183z" fill="currentColor"/>
</g>
<g transform="translate(34.6166, 27.7790)">
<rect x="-0.0650" y="-1.8139" width="0.1300" height="4.0229" ry="0.0400" fill="currentColor"/>
</g>
<g transform="translate(36.3058, 25.2790)">
<path transform="scale(0.0040, -0.0040)" d="M0 0c0 31 25 56 56 56s56 -25 56 -56s-25 -56 -56 -56s-56 25 -56 56z" fill="currentColor"/>
</g>
<g transform="translate(34.5516, 25.7790)">
<path transform="scale(0.0040, -0.0040)" d="M218 136c66 0 108 -36 108 -89c0 -89 -113 -183 -218 -183c-66 0 -108 36 -108 89c0 89 113 183 218 183z" fill="currentColor"/>
</g>
<g transform="translate(6.4906, 28.7790)">
<path transform="scale(0.0040, -0.0040)" d="M266 -635h-6c-108 0 -195 88 -195 197c0 58 53 103 112 103c54 0 95 -47 95 -103c0 -52 -43 -95 -95 -95c-11 0 -21 2 -31 6c26 -39 68 -65 117 -65h4zM461 -203c68 24 113 90 113 164c0 90 -66 179 -173 190c19 -89 48 -242 60 -354zM74 28c0 -145 141 -247 264 -247
c1 0 47 0 82 6c-7 64 -29 203 -63 364c-79 -8 -124 -61 -124 -119c0 -44 25 -91 81 -123c5 -5 7 -10 7 -15c0 -11 -10 -22 -22 -22c-15 0 -126 62 -126 187c0 88 58 174 160 197c-14 58 -29 117 -46 175c-107 -121 -213 -243 -213 -403zM250 553c-29 96 -52 170 -52 346
c0 115 55 224 149 292c6 5 14 5 20 0c68 -80 133 -245 133 -358c0 -143 -86 -255 -180 -364c21 -68 39 -138 56 -207c2 0 7 1 13 1c155 0 256 -128 256 -261c0 -113 -74 -212 -180 -246c3 -35 5 -70 5 -105c0 -19 -1 -39 -2 -58c-7 -119 -88 -225 -202 -228l1 43
c93 2 153 92 159 191c1 18 2 37 2 55c0 31 -1 61 -4 92c-5 -1 -44 -8 -89 -8c-193 0 -333 180 -333 374c0 177 131 306 248 441zM428 916c0 34 1 66 -20 129c-99 -48 -162 -149 -162 -259c0 -52 12 -115 36 -194c80 97 146 198 146 324z" fill="currentColor"/>
</g>
<g transform="translate(13.4106, 33.2353)">
<text font-family="Source Sans Pro" font-size="2.6163" text-anchor="start" fill="currentColor">
<tspan>D</tspan>
</text>
</g>
<g transform="translate(15.0153, 33.2353)">
<text font-family="Source Sans Pro" font-size="2.6163" text-anchor="start" fill="currentColor">
<tspan>m</tspan>
</text>
</g>
<g transform="translate(13.4106, 28.2790)">
<path transform="scale(0.0040, -0.0040)" d="M218 136c66 0 108 -36 108 -89c0 -89 -113 -183 -218 -183c-66 0 -108 36 -108 89c0 89 113 183 218 183z" fill="currentColor"/>
</g>
<g transform="translate(10.1106, 27.7790)">
<path transform="scale(0.0040, -0.0040)" d="M27 41l-1 -66v-11c0 -22 1 -44 4 -66c45 38 93 80 93 139c0 33 -14 67 -43 67c-31 0 -52 -30 -53 -63zM-15 -138l-12 595c8 5 18 8 27 8s19 -3 27 -8l-7 -345c25 21 58 34 91 34c52 0 89 -48 89 -102c0 -80 -86 -117 -147 -169c-15 -13 -24 -38 -45 -38
c-13 0 -23 11 -23 25z" fill="currentColor"/>
</g>
<g transform="translate(13.4756, 27.7790)">
<rect x="-0.0650" y="0.6861" width="0.1300" height="2.2952" ry="0.0400" fill="currentColor"/>
</g>
<g transform="translate(2.9834, 27.3360)">
<text font-family="Source Sans Pro" font-size="1.7461" text-anchor="start" fill="currentColor">
<tspan>13</tspan>
</text>
</g>
<g transform="translate(2.9834, 29.3360)">
<text font-family="Source Sans Pro" font-size="1.7461" text-anchor="start" fill="currentColor">
<tspan>29</tspan>
</text>
</g>
<g transform="translate(20.5226, 27.7790)">
<rect x="-0.0650" y="-0.8139" width="0.1300" height="3.6266" ry="0.0400" fill="currentColor"/>
</g>
<g transform="translate(22.2118, 26.2790)">
<path transform="scale(0.0040, -0.0040)" d="M0 0c0 31 25 56 56 56s56 -25 56 -56s-25 -56 -56 -56s-56 25 -56 56z" fill="currentColor"/>
</g>
<g transform="translate(20.4576, 26.7790)">
<path transform="scale(0.0040, -0.0040)" d="M218 136c66 0 108 -36 108 -89c0 -89 -113 -183 -218 -183c-66 0 -108 36 -108 89c0 89 113 183 218 183z" fill="currentColor"/>
</g>
<g transform="translate(38.9736, 27.7790)">
<rect x="-0.0650" y="0.6861" width="0.1300" height="2.7949" ry="0.0400" fill="currentColor"/>
</g>
<g transform="translate(16.1656, 27.7790)">
<rect x="-0.0650" y="-0.8139" width="0.1300" height="3.0226" ry="0.0400" fill="currentColor"/>
</g>
<g transform="translate(17.8548, 26.2790)">
<path transform="scale(0.0040, -0.0040)" d="M0 0c0 31 25 56 56 56s56 -25 56 -56s-25 -56 -56 -56s-56 25 -56 56z" fill="currentColor"/>
</g>
<g transform="translate(16.1006, 26.7790)">
<path transform="scale(0.0040, -0.0040)" d="M218 136c66 0 108 -36 108 -89c0 -89 -113 -183 -218 -183c-66 0 -108 36 -108 89c0 89 113 183 218 183z" fill="currentColor"/>
</g>
<g transform="translate(56.4392, 27.7790)">
<rect x="-0.0650" y="-0.8139" width="0.1300" height="3.6266" ry="0.0400" fill="currentColor"/>
</g>
<g transform="translate(49.3272, 26.7790)">
<path transform="scale(0.0040, -0.0040)" d="M218 136c66 0 108 -36 108 -89c0 -89 -113 -183 -218 -183c-66 0 -108 36 -108 89c0 89 113 183 218 183z" fill="currentColor"/>
</g>
<g transform="translate(51.0814, 26.2790)">
<path transform="scale(0.0040, -0.0040)" d="M0 0c0 31 25 56 56 56s56 -25 56 -56s-25 -56 -56 -56s-56 25 -56 56z" fill="currentColor"/>
</g>
<g transform="translate(49.3922, 27.7790)">
<rect x="-0.0650" y="-0.8139" width="0.1300" height="3.6266" ry="0.0400" fill="currentColor"/>
</g>
<g transform="translate(58.1284, 26.2790)">
<path transform="scale(0.0040, -0.0040)" d="M0 0c0 31 25 56 56 56s56 -25 56 -56s-25 -56 -56 -56s-56 25 -56 56z" fill="currentColor"/>
</g>
<g transform="translate(56.3742, 33.2353)">
<text font-family="Source Sans Pro" font-size="2.6163" text-anchor="start" fill="currentColor">
<tspan>A</tspan>
</text>
</g>
<g transform="translate(57.8082, 33.2353)">
<text font-family="Source Sans Pro" font-size="2.6163" text-anchor="start" fill="currentColor">
<tspan>m</tspan>
</text>
</g>
<g transform="translate(56.3742, 26.7790)">
<path transform="scale(0.0040, -0.0040)" d="M218 136c66 0 108 -36 108 -89c0 -89 -113 -183 -218 -183c-66 0 -108 36 -108 89c0 89 113 183 218 183z" fill="currentColor"/>
</g>
<g transform="translate(53.6842, 27.2790)">
<path transform="scale(0.0040, -0.0040)" d="M218 136c66 0 108 -36 108 -89c0 -89 -113 -183 -218 -183c-66 0 -108 36 -108 89c0 89 113 183 218 183z" fill="currentColor"/>
</g>
<g transform="translate(53.7492, 27.7790)">
<rect x="-0.0650" y="-0.3139" width="0.1300" height="3.3111" ry="0.0400" fill="currentColor"/>
</g>
<g transform="translate(64.6604, 27.7790)">
<rect x="-0.0650" y="-3.0000" width="0.1300" height="3.3139" ry="0.0400" fill="currentColor"/>
</g>
<g transform="translate(63.4212, 28.2790)">
<path transform="scale(0.0040, -0.0040)" d="M218 136c66 0 108 -36 108 -89c0 -89 -113 -183 -218 -183c-66 0 -108 36 -108 89c0 89 113 183 218 183z" fill="currentColor"/>
</g>
<g transform="translate(44.9702, 26.7790)">
<path transform="scale(0.0040, -0.0040)" d="M218 136c66 0 108 -36 108 -89c0 -89 -113 -183 -218 -183c-66 0 -108 36 -108 89c0 89 113 183 218 183z" fill="currentColor"/>
</g>
<g transform="translate(60.7962, 27.7790)">
<rect x="-0.0650" y="-0.3139" width="0.1300" height="3.3111" ry="0.0400" fill="currentColor"/>
</g>
<g transform="translate(60.7312, 27.2790)">
<path transform="scale(0.0040, -0.0040)" d="M218 136c66 0 108 -36 108 -89c0 -89 -113 -183 -218 -183c-66 0 -108 36 -108 89c0 89 113 183 218 183z" fill="currentColor"/>
</g>
<g transform="translate(46.7244, 26.2790)">
<path transform="scale(0.0040, -0.0040)" d="M0 0c0 31 25 56 56 56s56 -25 56 -56s-25 -56 -56 -56s-56 25 -56 56z" fill="currentColor"/>
</g>
<g transform="translate(45.0352, 27.7790)">
<rect x="-0.0650" y="-0.8139" width="0.1300" height="3.0226" ry="0.0400" fill="currentColor"/>
</g>
</svg>
