<?xml version="1.0" encoding="UTF-8" standalone="no"?>
<svg
   version="1.2"
   width="180.09424mm"
   height="60.526989mm"
   viewBox="0 0 102.48357 34.443199"
   id="svg1404"
   xmlns="http://www.w3.org/2000/svg"
   xmlns:svg="http://www.w3.org/2000/svg">
  <defs
     id="defs1408" />
  <style
     type="text/css"
     id="style2"><![CDATA[
tspan { white-space: pre; }
]]></style>
  <!-- Page: 1/1 -->
  <g
     transform="translate(2.5153677,5.779)"
     id="g6">
    <line
       stroke-linejoin="round"
       stroke-linecap="round"
       stroke-width="0.1"
       stroke="currentColor"
       x1="0.050000001"
       y1="0"
       x2="99.918198"
       y2="0"
       id="line4" />
  </g>
  <g
     transform="translate(2.5153677,4.779)"
     id="g10">
    <line
       stroke-linejoin="round"
       stroke-linecap="round"
       stroke-width="0.1"
       stroke="currentColor"
       x1="0.050000001"
       y1="0"
       x2="99.918198"
       y2="0"
       id="line8" />
  </g>
  <g
     transform="translate(2.5153677,3.779)"
     id="g14">
    <line
       stroke-linejoin="round"
       stroke-linecap="round"
       stroke-width="0.1"
       stroke="currentColor"
       x1="0.050000001"
       y1="0"
       x2="99.918198"
       y2="0"
       id="line12" />
  </g>
  <g
     transform="translate(2.5153677,2.779)"
     id="g18">
    <line
       stroke-linejoin="round"
       stroke-linecap="round"
       stroke-width="0.1"
       stroke="currentColor"
       x1="0.050000001"
       y1="0"
       x2="99.918198"
       y2="0"
       id="line16" />
  </g>
  <g
     transform="translate(2.5153677,1.779)"
     id="g22">
    <line
       stroke-linejoin="round"
       stroke-linecap="round"
       stroke-width="0.1"
       stroke="currentColor"
       x1="0.050000001"
       y1="0"
       x2="99.918198"
       y2="0"
       id="line20" />
  </g>
  <g
     transform="translate(35.406468,3.779)"
     id="g26">
    <rect
       x="0"
       y="-2"
       width="0.19"
       height="4"
       ry="0.0000"
       fill="currentColor"
       id="rect24" />
  </g>
  <g
     transform="translate(79.280268,3.779)"
     id="g30">
    <rect
       x="0"
       y="-2"
       width="0.19"
       height="4"
       ry="0.0000"
       fill="currentColor"
       id="rect28" />
  </g>
  <g
     transform="translate(93.200968,3.779)"
     id="g34">
    <rect
       x="0"
       y="-2"
       width="0.19"
       height="4"
       ry="0.0000"
       fill="currentColor"
       id="rect32" />
  </g>
  <g
     transform="translate(100.64357,3.279)"
     id="g38">
    <path
       transform="scale(0.004,-0.004)"
       d="M 0,0 C 0,31 25,56 56,56 87,56 112,31 112,0 112,-31 87,-56 56,-56 25,-56 0,-31 0,0 Z"
       fill="currentColor"
       id="path36" />
  </g>
  <g
     transform="translate(100.64357,4.279)"
     id="g42">
    <path
       transform="scale(0.004,-0.004)"
       d="M 0,0 C 0,31 25,56 56,56 87,56 112,31 112,0 112,-31 87,-56 56,-56 25,-56 0,-31 0,0 Z"
       fill="currentColor"
       id="path40" />
  </g>
  <g
     transform="matrix(-1,0,0,1,-8.6808323,-17.106)"
     id="g56">
    <g
       transform="translate(-111.1643,20.885)"
       id="g46">
      <rect
         x="0"
         y="-2"
         width="0.60000002"
         height="4"
         ry="0.0000"
         fill="currentColor"
         id="rect44" />
    </g>
    <g
       transform="translate(-111.1643,18.885)"
       id="g50">
      <path
         transform="scale(0.004,-0.004)"
         d="m 0,-56 v 87 c 0,14 11,25 25,25 h 50 c 159,0 271,136 362,270 12,17 38,-1 26,-18 C 364,164 248,-56 75,-56 Z"
         fill="currentColor"
         id="path48" />
    </g>
    <g
       transform="translate(-111.1643,22.885)"
       id="g54">
      <path
         transform="scale(0.004,-0.004)"
         d="m 0,56 h 75 c 173,0 289,-220 388,-364 12,-17 -14,-35 -26,-18 C 346,-192 234,-56 75,-56 H 25 C 11,-56 0,-45 0,-31 Z"
         fill="currentColor"
         id="path52" />
    </g>
  </g>
  <g
     transform="translate(101.39347,3.779)"
     id="g60">
    <rect
       x="0"
       y="-2"
       width="0.19"
       height="4"
       ry="0.0000"
       fill="currentColor"
       id="rect58" />
  </g>
  <g
     transform="translate(20.072468,3.779)"
     id="g64">
    <rect
       x="0"
       y="-2"
       width="0.19"
       height="4"
       ry="0.0000"
       fill="currentColor"
       id="rect62" />
  </g>
  <g
     transform="translate(67.713168,3.779)"
     id="g68">
    <rect
       x="0"
       y="-2"
       width="0.19"
       height="4"
       ry="0.0000"
       fill="currentColor"
       id="rect66" />
  </g>
  <g
     transform="translate(49.355668,3.779)"
     id="g72">
    <rect
       x="0"
       y="-2"
       width="0.19"
       height="4"
       ry="0.0000"
       fill="currentColor"
       id="rect70" />
  </g>
  <g
     transform="translate(12.865368,3.779)"
     id="g76">
    <rect
       x="0"
       y="-2"
       width="0.60000002"
       height="4"
       ry="0.0000"
       fill="currentColor"
       id="rect74" />
  </g>
  <g
     transform="translate(12.865368,1.779)"
     id="g80">
    <path
       transform="scale(0.004,-0.004)"
       d="m 0,-56 v 87 c 0,14 11,25 25,25 h 50 c 159,0 271,136 362,270 12,17 38,-1 26,-18 C 364,164 248,-56 75,-56 Z"
       fill="currentColor"
       id="path78" />
  </g>
  <g
     transform="translate(12.865368,5.779)"
     id="g84">
    <path
       transform="scale(0.004,-0.004)"
       d="m 0,56 h 75 c 173,0 289,-220 388,-364 12,-17 -14,-35 -26,-18 C 346,-192 234,-56 75,-56 H 25 C 11,-56 0,-45 0,-31 Z"
       fill="currentColor"
       id="path82" />
  </g>
  <g
     transform="translate(14.255368,3.279)"
     id="g88">
    <path
       transform="scale(0.004,-0.004)"
       d="M 0,0 C 0,31 25,56 56,56 87,56 112,31 112,0 112,-31 87,-56 56,-56 25,-56 0,-31 0,0 Z"
       fill="currentColor"
       id="path86" />
  </g>
  <g
     transform="translate(14.255368,4.279)"
     id="g92">
    <path
       transform="scale(0.004,-0.004)"
       d="M 0,0 C 0,31 25,56 56,56 87,56 112,31 112,0 112,-31 87,-56 56,-56 25,-56 0,-31 0,0 Z"
       fill="currentColor"
       id="path90" />
  </g>
  <g
     transform="translate(13.765368,3.779)"
     id="g96">
    <rect
       x="0"
       y="-2"
       width="0.19"
       height="4"
       ry="0.0000"
       fill="currentColor"
       id="rect94" />
  </g>
  <g
     transform="translate(77.491168,3.779)"
     id="g100">
    <rect
       x="-0.064999998"
       y="-0.31389999"
       width="0.13"
       height="2.4986"
       ry="0.039999999"
       fill="currentColor"
       id="rect98" />
  </g>
  <g
     transform="translate(77.426168,3.279)"
     id="g104">
    <path
       transform="scale(0.004,-0.004)"
       d="m 218,136 c 66,0 108,-36 108,-89 0,-89 -113,-183 -218,-183 -66,0 -108,36 -108,89 0,89 113,183 218,183 z"
       fill="currentColor"
       id="path102" />
  </g>
  <g
     transform="translate(75.278068,3.779)"
     id="g108">
    <rect
       x="-0.064999998"
       y="-0.81389999"
       width="0.13"
       height="2.8192"
       ry="0.039999999"
       fill="currentColor"
       id="rect106" />
  </g>
  <g
     transform="translate(75.213068,2.779)"
     id="g112">
    <path
       transform="scale(0.004,-0.004)"
       d="m 218,136 c 66,0 108,-36 108,-89 0,-89 -113,-183 -218,-183 -66,0 -108,36 -108,89 0,89 113,183 218,183 z"
       fill="currentColor"
       id="path110" />
  </g>
  <g
     transform="translate(73.524068,3.779)"
     id="g116">
    <rect
       x="-0.064999998"
       y="-3"
       width="0.13"
       height="3.3139"
       ry="0.039999999"
       fill="currentColor"
       id="rect114" />
  </g>
  <g
     transform="translate(72.284868,9.2667)"
     id="g122">
    <text
       font-family="'Source Sans Pro'"
       font-size="2.6163px"
       text-anchor="start"
       fill="currentColor"
       id="text120"><tspan
         id="tspan118">A</tspan></text>
  </g>
  <g
     transform="translate(72.284868,4.279)"
     id="g126">
    <path
       transform="scale(0.004,-0.004)"
       d="m 218,136 c 66,0 108,-36 108,-89 0,-89 -113,-183 -218,-183 -66,0 -108,36 -108,89 0,89 113,183 218,183 z"
       fill="currentColor"
       id="path124" />
  </g>
  <g
     transform="translate(83.342368,3.779)"
     id="g130">
    <rect
       x="-0.064999998"
       y="-0.31389999"
       width="0.13"
       height="2.4986"
       ry="0.039999999"
       fill="currentColor"
       id="rect128" />
  </g>
  <g
     transform="translate(83.277368,3.279)"
     id="g134">
    <path
       transform="scale(0.004,-0.004)"
       d="m 218,136 c 66,0 108,-36 108,-89 0,-89 -113,-183 -218,-183 -66,0 -108,36 -108,89 0,89 113,183 218,183 z"
       fill="currentColor"
       id="path132" />
  </g>
  <g
     transform="translate(57.071768,3.779)"
     id="g138">
    <rect
       x="-0.064999998"
       y="0.18610001"
       width="0.13"
       height="2.8139"
       ry="0.039999999"
       fill="currentColor"
       id="rect136" />
  </g>
  <g
     transform="translate(57.006768,3.779)"
     id="g142">
    <path
       transform="scale(0.004,-0.004)"
       d="m 218,136 c 66,0 108,-36 108,-89 0,-89 -113,-183 -218,-183 -66,0 -108,36 -108,89 0,89 113,183 218,183 z"
       fill="currentColor"
       id="path140" />
  </g>
  <g
     transform="translate(80.414168,3.779)"
     id="g146">
    <rect
       x="-0.064999998"
       y="-0.81389999"
       width="0.13"
       height="3.3139"
       ry="0.039999999"
       fill="currentColor"
       id="rect144" />
  </g>
  <g
     transform="translate(80.349168,9.2667)"
     id="g152">
    <text
       font-family="'Source Sans Pro'"
       font-size="2.6163px"
       text-anchor="start"
       fill="currentColor"
       id="text150"><tspan
         id="tspan148">D</tspan></text>
  </g>
  <g
     transform="translate(80.349168,2.779)"
     id="g156">
    <path
       transform="scale(0.004,-0.004)"
       d="m 218,136 c 66,0 108,-36 108,-89 0,-89 -113,-183 -218,-183 -66,0 -108,36 -108,89 0,89 113,183 218,183 z"
       fill="currentColor"
       id="path154" />
  </g>
  <g
     transform="translate(63.711068,3.779)"
     id="g160">
    <rect
       x="-0.064999998"
       y="-1.3139"
       width="0.13"
       height="3.5039001"
       ry="0.039999999"
       fill="currentColor"
       id="rect158" />
  </g>
  <g
     transform="translate(63.646068,2.279)"
     id="g164">
    <path
       transform="scale(0.004,-0.004)"
       d="m 218,136 c 66,0 108,-36 108,-89 0,-89 -113,-183 -218,-183 -66,0 -108,36 -108,89 0,89 113,183 218,183 z"
       fill="currentColor"
       id="path162" />
  </g>
  <g
     transform="translate(65.859168,3.279)"
     id="g168">
    <path
       transform="scale(0.004,-0.004)"
       d="m 218,136 c 66,0 108,-36 108,-89 0,-89 -113,-183 -218,-183 -66,0 -108,36 -108,89 0,89 113,183 218,183 z"
       fill="currentColor"
       id="path166" />
  </g>
  <g
     transform="translate(61.497968,3.779)"
     id="g172">
    <rect
       x="-0.064999998"
       y="-0.81389999"
       width="0.13"
       height="3.0039001"
       ry="0.039999999"
       fill="currentColor"
       id="rect170" />
  </g>
  <g
     transform="translate(61.432968,2.779)"
     id="g176">
    <path
       transform="scale(0.004,-0.004)"
       d="m 218,136 c 66,0 108,-36 108,-89 0,-89 -113,-183 -218,-183 -66,0 -108,36 -108,89 0,89 113,183 218,183 z"
       fill="currentColor"
       id="path174" />
  </g>
  <g
     transform="translate(59.284868,3.779)"
     id="g180">
    <rect
       x="-0.064999998"
       y="-0.31389999"
       width="0.13"
       height="2.5039001"
       ry="0.039999999"
       fill="currentColor"
       id="rect178" />
  </g>
  <g
     transform="translate(59.219868,9.2667)"
     id="g186">
    <text
       font-family="'Source Sans Pro'"
       font-size="2.6163px"
       text-anchor="start"
       fill="currentColor"
       id="text184"><tspan
         id="tspan182">A</tspan></text>
  </g>
  <g
     transform="translate(59.219868,3.279)"
     id="g190">
    <path
       transform="scale(0.004,-0.004)"
       d="m 218,136 c 66,0 108,-36 108,-89 0,-89 -113,-183 -218,-183 -66,0 -108,36 -108,89 0,89 113,183 218,183 z"
       fill="currentColor"
       id="path188" />
  </g>
  <g
     transform="translate(69.953868,3.779)"
     id="g194">
    <rect
       x="-0.064999998"
       y="-3"
       width="0.13"
       height="3.2409999"
       ry="0.039999999"
       fill="currentColor"
       id="rect192" />
  </g>
  <g
     transform="translate(68.641568,9.2667)"
     id="g200">
    <text
       font-family="'Source Sans Pro'"
       font-size="2.6163px"
       text-anchor="start"
       fill="currentColor"
       id="text198"><tspan
         id="tspan196">D</tspan></text>
  </g>
  <g
     transform="translate(68.641568,4.279)"
     id="g204">
    <path
       transform="scale(0.004,-0.004)"
       d="m 314,65 c 0,23 -19,41 -42,41 C 233,106 68,-4 41,-37 34,-45 31,-55 31,-65 c 0,-23 19,-41 42,-41 39,0 203,110 230,143 7,8 11,18 11,28 z m -52,71 c 41,0 82,-14 82,-71 0,-26 -16,-112 -74,-151 -25,-17 -87,-50 -187,-50 -41,0 -83,14 -83,71 0,26 16,112 74,151 25,17 88,50 188,50 z"
       fill="currentColor"
       id="path202" />
  </g>
  <g
     transform="translate(65.924168,3.779)"
     id="g208">
    <rect
       x="-0.064999998"
       y="-0.31389999"
       width="0.13"
       height="2.5039001"
       ry="0.039999999"
       fill="currentColor"
       id="rect206" />
  </g>
  <g
     transform="translate(59.219868,5.969)"
     id="g212">
    <polygon
       stroke-linejoin="round"
       stroke-linecap="round"
       stroke-width="0.08"
       fill="currentColor"
       stroke="currentColor"
       points="0.04,0.2 0.04,-0.2 6.7293,-0.2 6.7293,0.2 "
       id="polygon210" />
  </g>
  <g
     transform="translate(75.213068,5.779)"
     id="g216">
    <polygon
       stroke-linejoin="round"
       stroke-linecap="round"
       stroke-width="0.08"
       fill="currentColor"
       stroke="currentColor"
       points="0.04,0.2 0.04,-0.2 2.3031,-0.01 2.3031,0.39 "
       id="polygon214" />
  </g>
  <g
     transform="translate(50.367568,6.779)"
     id="g220">
    <polygon
       stroke-linejoin="round"
       stroke-linecap="round"
       stroke-width="0.08"
       fill="currentColor"
       stroke="currentColor"
       points="0.04,0.2 0.04,-0.2 6.7293,-0.2 6.7293,0.2 "
       id="polygon218" />
  </g>
  <g
     transform="translate(83.277368,5.969)"
     id="g224">
    <polygon
       stroke-linejoin="round"
       stroke-linecap="round"
       stroke-width="0.08"
       fill="currentColor"
       stroke="currentColor"
       points="0.04,0.2 0.04,-0.2 2.3031,-0.39 2.3031,0.01 "
       id="polygon222" />
  </g>
  <g
     transform="translate(16.005368,5.779)"
     id="g228">
    <polygon
       stroke-linejoin="round"
       stroke-linecap="round"
       stroke-width="0.08"
       fill="currentColor"
       stroke="currentColor"
       points="0.04,0.2 0.04,-0.2 2.3031,-0.01 2.3031,0.39 "
       id="polygon226" />
  </g>
  <g
     transform="translate(24.069668,5.969)"
     id="g232">
    <polygon
       stroke-linejoin="round"
       stroke-linecap="round"
       stroke-width="0.08"
       fill="currentColor"
       stroke="currentColor"
       points="0.04,0.2 0.04,-0.2 2.3031,-0.39 2.3031,0.01 "
       id="polygon230" />
  </g>
  <g
     transform="translate(31.423968,4.779)"
     id="g236">
    <polygon
       stroke-linejoin="round"
       stroke-linecap="round"
       stroke-width="0.08"
       fill="currentColor"
       stroke="currentColor"
       points="0.04,0.2 0.04,-0.2 2.3031,-0.39 2.3031,0.01 "
       id="polygon234" />
  </g>
  <g
     transform="translate(45.288568,5.779)"
     id="g240">
    <polygon
       stroke-linejoin="round"
       stroke-linecap="round"
       stroke-width="0.08"
       fill="currentColor"
       stroke="currentColor"
       points="0.04,0.2 0.04,-0.2 2.3031,-0.01 2.3031,0.39 "
       id="polygon238" />
  </g>
  <g
     transform="translate(87.768568,3.779)"
     id="g244">
    <rect
       x="-0.064999998"
       y="-1.3139"
       width="0.13"
       height="3.3139"
       ry="0.039999999"
       fill="currentColor"
       id="rect242" />
  </g>
  <g
     transform="translate(94.265768,9.2667)"
     id="g250">
    <text
       font-family="'Source Sans Pro'"
       font-size="2.6163px"
       text-anchor="start"
       fill="currentColor"
       id="text248"><tspan
         id="tspan246">D</tspan></text>
  </g>
  <g
     transform="translate(94.265768,2.779)"
     id="g254">
    <path
       transform="scale(0.004,-0.004)"
       d="m 314,65 c 0,23 -19,41 -42,41 C 233,106 68,-4 41,-37 34,-45 31,-55 31,-65 c 0,-23 19,-41 42,-41 39,0 203,110 230,143 7,8 11,18 11,28 z m -52,71 c 41,0 82,-14 82,-71 0,-26 -16,-112 -74,-151 -25,-17 -87,-50 -187,-50 -41,0 -83,14 -83,71 0,26 16,112 74,151 25,17 88,50 188,50 z"
       fill="currentColor"
       id="path252" />
  </g>
  <g
     transform="translate(90.696768,3.779)"
     id="g258">
    <rect
       x="-0.064999998"
       y="-0.31389999"
       width="0.13"
       height="3.3139"
       ry="0.039999999"
       fill="currentColor"
       id="rect256" />
  </g>
  <g
     transform="translate(90.631768,3.279)"
     id="g262">
    <path
       transform="scale(0.004,-0.004)"
       d="m 218,136 c 66,0 108,-36 108,-89 0,-89 -113,-183 -218,-183 -66,0 -108,36 -108,89 0,89 113,183 218,183 z"
       fill="currentColor"
       id="path260" />
  </g>
  <g
     transform="translate(94.330768,3.779)"
     id="g266">
    <rect
       x="-0.064999998"
       y="-0.741"
       width="0.13"
       height="3.2409999"
       ry="0.039999999"
       fill="currentColor"
       id="rect264" />
  </g>
  <g
     transform="translate(87.703568,9.2667)"
     id="g272">
    <text
       font-family="'Source Sans Pro'"
       font-size="2.6163px"
       text-anchor="start"
       fill="currentColor"
       id="text270"><tspan
         id="tspan268">A</tspan></text>
  </g>
  <g
     transform="translate(89.137568,8.0775)"
     id="g278">
    <text
       font-family="'Source Sans Pro'"
       font-size="1.85px"
       text-anchor="start"
       fill="currentColor"
       id="text276"><tspan
         id="tspan274">7</tspan></text>
  </g>
  <g
     transform="translate(87.703568,2.279)"
     id="g282">
    <path
       transform="scale(0.004,-0.004)"
       d="m 218,136 c 66,0 108,-36 108,-89 0,-89 -113,-183 -218,-183 -66,0 -108,36 -108,89 0,89 113,183 218,183 z"
       fill="currentColor"
       id="path280" />
  </g>
  <g
     transform="translate(85.555468,3.779)"
     id="g286">
    <rect
       x="-0.064999998"
       y="-0.81389999"
       width="0.13"
       height="2.8192"
       ry="0.039999999"
       fill="currentColor"
       id="rect284" />
  </g>
  <g
     transform="translate(85.490468,2.779)"
     id="g290">
    <path
       transform="scale(0.004,-0.004)"
       d="m 218,136 c 66,0 108,-36 108,-89 0,-89 -113,-183 -218,-183 -66,0 -108,36 -108,89 0,89 113,183 218,183 z"
       fill="currentColor"
       id="path288" />
  </g>
  <g
     transform="translate(97.974068,3.779)"
     id="g294">
    <rect
       x="-0.064999998"
       y="-0.81389999"
       width="0.13"
       height="3.3139"
       ry="0.039999999"
       fill="currentColor"
       id="rect292" />
  </g>
  <g
     transform="translate(97.909068,2.779)"
     id="g298">
    <path
       transform="scale(0.004,-0.004)"
       d="m 218,136 c 66,0 108,-36 108,-89 0,-89 -113,-183 -218,-183 -66,0 -108,36 -108,89 0,89 113,183 218,183 z"
       fill="currentColor"
       id="path296" />
  </g>
  <g
     transform="translate(26.347768,3.779)"
     id="g302">
    <rect
       x="-0.064999998"
       y="-0.81389999"
       width="0.13"
       height="2.8192"
       ry="0.039999999"
       fill="currentColor"
       id="rect300" />
  </g>
  <g
     transform="translate(28.560768,3.779)"
     id="g306">
    <rect
       x="-0.064999998"
       y="-1.3139"
       width="0.13"
       height="3.3139"
       ry="0.039999999"
       fill="currentColor"
       id="rect304" />
  </g>
  <g
     transform="translate(28.495768,9.2667)"
     id="g312">
    <text
       font-family="'Source Sans Pro'"
       font-size="2.6163px"
       text-anchor="start"
       fill="currentColor"
       id="text310"><tspan
         id="tspan308">A</tspan></text>
  </g>
  <g
     transform="translate(28.495768,2.279)"
     id="g316">
    <path
       transform="scale(0.004,-0.004)"
       d="m 218,136 c 66,0 108,-36 108,-89 0,-89 -113,-183 -218,-183 -66,0 -108,36 -108,89 0,89 113,183 218,183 z"
       fill="currentColor"
       id="path314" />
  </g>
  <g
     transform="translate(31.423968,1.779)"
     id="g320">
    <path
       transform="scale(0.004,-0.004)"
       d="m 218,136 c 66,0 108,-36 108,-89 0,-89 -113,-183 -218,-183 -66,0 -108,36 -108,89 0,89 113,183 218,183 z"
       fill="currentColor"
       id="path318" />
  </g>
  <g
     transform="translate(26.282768,2.779)"
     id="g324">
    <path
       transform="scale(0.004,-0.004)"
       d="m 218,136 c 66,0 108,-36 108,-89 0,-89 -113,-183 -218,-183 -66,0 -108,36 -108,89 0,89 113,183 218,183 z"
       fill="currentColor"
       id="path322" />
  </g>
  <g
     transform="translate(24.134668,3.779)"
     id="g328">
    <rect
       x="-0.064999998"
       y="-0.31389999"
       width="0.13"
       height="2.4986"
       ry="0.039999999"
       fill="currentColor"
       id="rect326" />
  </g>
  <g
     transform="translate(24.069668,3.279)"
     id="g332">
    <path
       transform="scale(0.004,-0.004)"
       d="m 218,136 c 66,0 108,-36 108,-89 0,-89 -113,-183 -218,-183 -66,0 -108,36 -108,89 0,89 113,183 218,183 z"
       fill="currentColor"
       id="path330" />
  </g>
  <g
     transform="translate(36.503968,1.779)"
     id="g336">
    <path
       transform="scale(0.004,-0.004)"
       d="m 218,136 c 66,0 108,-36 108,-89 0,-89 -113,-183 -218,-183 -66,0 -108,36 -108,89 0,89 113,183 218,183 z"
       fill="currentColor"
       id="path334" />
  </g>
  <g
     transform="translate(36.568968,3.779)"
     id="g340">
    <rect
       x="-0.064999998"
       y="-1.8139"
       width="0.13"
       height="3.3139"
       ry="0.039999999"
       fill="currentColor"
       id="rect338" />
  </g>
  <g
     transform="translate(36.503968,9.2667)"
     id="g346">
    <text
       font-family="'Source Sans Pro'"
       font-size="2.6163px"
       text-anchor="start"
       fill="currentColor"
       id="text344"><tspan
         id="tspan342">D</tspan></text>
  </g>
  <g
     transform="translate(33.702068,3.779)"
     id="g350">
    <rect
       x="-0.064999998"
       y="-2.3139"
       width="0.13"
       height="3.1292"
       ry="0.039999999"
       fill="currentColor"
       id="rect348" />
  </g>
  <g
     transform="translate(33.637068,1.279)"
     id="g354">
    <path
       transform="scale(0.004,-0.004)"
       d="m 218,136 c 66,0 108,-36 108,-89 0,-89 -113,-183 -218,-183 -66,0 -108,36 -108,89 0,89 113,183 218,183 z"
       fill="currentColor"
       id="path352" />
  </g>
  <g
     transform="translate(31.488968,3.779)"
     id="g358">
    <rect
       x="-0.064999998"
       y="-1.8139"
       width="0.13"
       height="2.8085999"
       ry="0.039999999"
       fill="currentColor"
       id="rect356" />
  </g>
  <g
     transform="translate(10.165368,3.779)"
     id="g362">
    <path
       transform="scale(0.004,-0.004)"
       d="m 250,262 c 116,0 176,-106 176,-163 0,-40 -30,-72 -67,-72 -31,0 -75,25 -75,75 0,38 27,77 72,77 4,0 9,0 14,-1 -28,37 -72,59 -120,59 C 144,237 137,164 137,51 V 0 -51 c 0,-113 7,-187 113,-187 80,0 139,70 158,151 2,7 7,10 12,10 6,0 13,-4 13,-12 0,-22 -50,-174 -183,-174 C 191,-263 0,-244 0,0 0,62 18,262 250,262 Z"
       fill="currentColor"
       id="path360" />
  </g>
  <g
     transform="translate(16.070368,3.779)"
     id="g366">
    <rect
       x="-0.064999998"
       y="-0.81389999"
       width="0.13"
       height="2.8192"
       ry="0.039999999"
       fill="currentColor"
       id="rect364" />
  </g>
  <g
     transform="translate(16.005368,9.2667)"
     id="g372">
    <text
       font-family="'Source Sans Pro'"
       font-size="2.6163px"
       text-anchor="start"
       fill="currentColor"
       id="text370"><tspan
         id="tspan368">A</tspan></text>
  </g>
  <g
     transform="translate(17.439368,8.0775)"
     id="g378">
    <text
       font-family="'Source Sans Pro'"
       font-size="1.85px"
       text-anchor="start"
       fill="currentColor"
       id="text376"><tspan
         id="tspan374">7</tspan></text>
  </g>
  <g
     transform="translate(6.8153677,1.779)"
     id="g382">
    <path
       transform="scale(0.004,-0.004)"
       d="m 216,-312 c 0,-10 -8,-19 -18,-19 -10,0 -19,9 -19,19 v 145 l -83,-31 v -158 c 0,-10 -9,-19 -19,-19 -10,0 -18,9 -18,19 v 145 l -32,-12 c -2,-1 -5,-1 -7,-1 -11,0 -20,9 -20,20 v 60 c 0,8 5,16 13,19 l 46,16 V 51 L 27,40 C 25,39 22,39 20,39 9,39 0,48 0,59 v 60 c 0,8 5,15 13,18 l 46,17 v 158 c 0,10 8,19 18,19 10,0 19,-9 19,-19 V 167 l 83,31 v 158 c 0,10 9,19 19,19 10,0 18,-9 18,-19 V 211 l 32,12 c 2,1 5,1 7,1 11,0 20,-9 20,-20 v -60 c 0,-8 -5,-16 -13,-19 L 216,109 V -51 l 32,11 c 2,1 5,1 7,1 11,0 20,-9 20,-20 v -60 c 0,-8 -5,-15 -13,-18 l -46,-17 z M 96,65 V -95 l 83,30 V 95 Z"
       fill="currentColor"
       id="path380" />
  </g>
  <g
     transform="translate(7.9153677,3.279)"
     id="g386">
    <path
       transform="scale(0.004,-0.004)"
       d="m 216,-312 c 0,-10 -8,-19 -18,-19 -10,0 -19,9 -19,19 v 145 l -83,-31 v -158 c 0,-10 -9,-19 -19,-19 -10,0 -18,9 -18,19 v 145 l -32,-12 c -2,-1 -5,-1 -7,-1 -11,0 -20,9 -20,20 v 60 c 0,8 5,16 13,19 l 46,16 V 51 L 27,40 C 25,39 22,39 20,39 9,39 0,48 0,59 v 60 c 0,8 5,15 13,18 l 46,17 v 158 c 0,10 8,19 18,19 10,0 19,-9 19,-19 V 167 l 83,31 v 158 c 0,10 9,19 19,19 10,0 18,-9 18,-19 V 211 l 32,12 c 2,1 5,1 7,1 11,0 20,-9 20,-20 v -60 c 0,-8 -5,-16 -13,-19 L 216,109 V -51 l 32,11 c 2,1 5,1 7,1 11,0 20,-9 20,-20 v -60 c 0,-8 -5,-15 -13,-18 l -46,-17 z M 96,65 V -95 l 83,30 V 95 Z"
       fill="currentColor"
       id="path384" />
  </g>
  <g
     transform="translate(3.3153677,4.779)"
     id="g390">
    <path
       transform="scale(0.004,-0.004)"
       d="m 266,-635 h -6 c -108,0 -195,88 -195,197 0,58 53,103 112,103 54,0 95,-47 95,-103 0,-52 -43,-95 -95,-95 -11,0 -21,2 -31,6 26,-39 68,-65 117,-65 h 4 z m 195,432 c 68,24 113,90 113,164 0,90 -66,179 -173,190 19,-89 48,-242 60,-354 z M 74,28 c 0,-145 141,-247 264,-247 1,0 47,0 82,6 -7,64 -29,203 -63,364 -79,-8 -124,-61 -124,-119 0,-44 25,-91 81,-123 5,-5 7,-10 7,-15 0,-11 -10,-22 -22,-22 -15,0 -126,62 -126,187 0,88 58,174 160,197 -14,58 -29,117 -46,175 C 180,310 74,188 74,28 Z m 176,525 c -29,96 -52,170 -52,346 0,115 55,224 149,292 6,5 14,5 20,0 68,-80 133,-245 133,-358 0,-143 -86,-255 -180,-364 21,-68 39,-138 56,-207 2,0 7,1 13,1 155,0 256,-128 256,-261 0,-113 -74,-212 -180,-246 3,-35 5,-70 5,-105 0,-19 -1,-39 -2,-58 -7,-119 -88,-225 -202,-228 l 1,43 c 93,2 153,92 159,191 1,18 2,37 2,55 0,31 -1,61 -4,92 -5,-1 -44,-8 -89,-8 C 142,-262 2,-82 2,112 2,289 133,418 250,553 Z m 178,363 c 0,34 1,66 -20,129 -99,-48 -162,-149 -162,-259 0,-52 12,-115 36,-194 80,97 146,198 146,324 z"
       fill="currentColor"
       id="path388" />
  </g>
  <g
     transform="translate(16.005368,2.779)"
     id="g394">
    <path
       transform="scale(0.004,-0.004)"
       d="m 218,136 c 66,0 108,-36 108,-89 0,-89 -113,-183 -218,-183 -66,0 -108,36 -108,89 0,89 113,183 218,183 z"
       fill="currentColor"
       id="path392" />
  </g>
  <g
     transform="translate(0.66176773,3.336)"
     id="g400">
    <text
       font-family="'Source Sans Pro'"
       font-size="1.7461px"
       text-anchor="start"
       fill="currentColor"
       id="text398"><tspan
         id="tspan396">1</tspan></text>
  </g>
  <g
     transform="translate(0.66176773,5.336)"
     id="g406">
    <text
       font-family="'Source Sans Pro'"
       font-size="1.7461px"
       text-anchor="start"
       fill="currentColor"
       id="text404"><tspan
         id="tspan402">7</tspan></text>
  </g>
  <g
     transform="translate(21.141468,2.779)"
     id="g410">
    <path
       transform="scale(0.004,-0.004)"
       d="m 218,136 c 66,0 108,-36 108,-89 0,-89 -113,-183 -218,-183 -66,0 -108,36 -108,89 0,89 113,183 218,183 z"
       fill="currentColor"
       id="path408" />
  </g>
  <g
     transform="translate(21.206468,3.779)"
     id="g414">
    <rect
       x="-0.064999998"
       y="-0.81389999"
       width="0.13"
       height="3.3139"
       ry="0.039999999"
       fill="currentColor"
       id="rect412" />
  </g>
  <g
     transform="translate(21.141468,9.2667)"
     id="g420">
    <text
       font-family="'Source Sans Pro'"
       font-size="2.6163px"
       text-anchor="start"
       fill="currentColor"
       id="text418"><tspan
         id="tspan416">D</tspan></text>
  </g>
  <g
     transform="translate(18.283368,3.779)"
     id="g424">
    <rect
       x="-0.064999998"
       y="-0.31389999"
       width="0.13"
       height="2.4986"
       ry="0.039999999"
       fill="currentColor"
       id="rect422" />
  </g>
  <g
     transform="translate(18.218368,3.279)"
     id="g428">
    <path
       transform="scale(0.004,-0.004)"
       d="m 218,136 c 66,0 108,-36 108,-89 0,-89 -113,-183 -218,-183 -66,0 -108,36 -108,89 0,89 113,183 218,183 z"
       fill="currentColor"
       id="path426" />
  </g>
  <g
     transform="translate(50.432568,3.779)"
     id="g432">
    <rect
       x="-0.064999998"
       y="0.18610001"
       width="0.13"
       height="2.8139"
       ry="0.039999999"
       fill="currentColor"
       id="rect430" />
  </g>
  <g
     transform="translate(50.367568,9.2667)"
     id="g438">
    <text
       font-family="'Source Sans Pro'"
       font-size="2.6163px"
       text-anchor="start"
       fill="currentColor"
       id="text436"><tspan
         id="tspan434">G</tspan></text>
  </g>
  <g
     transform="translate(50.367568,3.779)"
     id="g442">
    <path
       transform="scale(0.004,-0.004)"
       d="m 218,136 c 66,0 108,-36 108,-89 0,-89 -113,-183 -218,-183 -66,0 -108,36 -108,89 0,89 113,183 218,183 z"
       fill="currentColor"
       id="path440" />
  </g>
  <g
     transform="translate(47.566668,3.779)"
     id="g446">
    <rect
       x="-0.064999998"
       y="-0.31389999"
       width="0.13"
       height="2.4986"
       ry="0.039999999"
       fill="currentColor"
       id="rect444" />
  </g>
  <g
     transform="translate(47.501668,3.279)"
     id="g450">
    <path
       transform="scale(0.004,-0.004)"
       d="m 218,136 c 66,0 108,-36 108,-89 0,-89 -113,-183 -218,-183 -66,0 -108,36 -108,89 0,89 113,183 218,183 z"
       fill="currentColor"
       id="path448" />
  </g>
  <g
     transform="translate(45.353568,3.779)"
     id="g454">
    <rect
       x="-0.064999998"
       y="-0.81389999"
       width="0.13"
       height="2.8192"
       ry="0.039999999"
       fill="currentColor"
       id="rect452" />
  </g>
  <g
     transform="translate(45.288568,2.779)"
     id="g458">
    <path
       transform="scale(0.004,-0.004)"
       d="m 218,136 c 66,0 108,-36 108,-89 0,-89 -113,-183 -218,-183 -66,0 -108,36 -108,89 0,89 113,183 218,183 z"
       fill="currentColor"
       id="path456" />
  </g>
  <g
     transform="translate(54.858668,3.779)"
     id="g462">
    <rect
       x="-0.064999998"
       y="-0.81389999"
       width="0.13"
       height="3.8139"
       ry="0.039999999"
       fill="currentColor"
       id="rect460" />
  </g>
  <g
     transform="translate(54.793668,2.779)"
     id="g466">
    <path
       transform="scale(0.004,-0.004)"
       d="m 218,136 c 66,0 108,-36 108,-89 0,-89 -113,-183 -218,-183 -66,0 -108,36 -108,89 0,89 113,183 218,183 z"
       fill="currentColor"
       id="path464" />
  </g>
  <g
     transform="translate(52.645668,3.779)"
     id="g470">
    <rect
       x="-0.064999998"
       y="-0.31389999"
       width="0.13"
       height="3.3139"
       ry="0.039999999"
       fill="currentColor"
       id="rect468" />
  </g>
  <g
     transform="translate(52.580668,3.279)"
     id="g474">
    <path
       transform="scale(0.004,-0.004)"
       d="m 218,136 c 66,0 108,-36 108,-89 0,-89 -113,-183 -218,-183 -66,0 -108,36 -108,89 0,89 113,183 218,183 z"
       fill="currentColor"
       id="path472" />
  </g>
  <g
     transform="translate(39.432168,2.279)"
     id="g478">
    <path
       transform="scale(0.004,-0.004)"
       d="m 218,136 c 66,0 108,-36 108,-89 0,-89 -113,-183 -218,-183 -66,0 -108,36 -108,89 0,89 113,183 218,183 z"
       fill="currentColor"
       id="path476" />
  </g>
  <g
     transform="translate(39.497168,3.779)"
     id="g482">
    <rect
       x="-0.064999998"
       y="-1.3139"
       width="0.13"
       height="3.3139"
       ry="0.039999999"
       fill="currentColor"
       id="rect480" />
  </g>
  <g
     transform="translate(42.425368,3.779)"
     id="g486">
    <rect
       x="-0.064999998"
       y="-0.81389999"
       width="0.13"
       height="3.3139"
       ry="0.039999999"
       fill="currentColor"
       id="rect484" />
  </g>
  <g
     transform="translate(42.360368,2.779)"
     id="g490">
    <path
       transform="scale(0.004,-0.004)"
       d="m 218,136 c 66,0 108,-36 108,-89 0,-89 -113,-183 -218,-183 -66,0 -108,36 -108,89 0,89 113,183 218,183 z"
       fill="currentColor"
       id="path488" />
  </g>
  <g
     transform="translate(2.5153677,17.779)"
     id="g494">
    <line
       stroke-linejoin="round"
       stroke-linecap="round"
       stroke-width="0.1"
       stroke="currentColor"
       x1="0.050000001"
       y1="0"
       x2="99.918198"
       y2="0"
       id="line492" />
  </g>
  <g
     transform="translate(2.5153677,16.779)"
     id="g498">
    <line
       stroke-linejoin="round"
       stroke-linecap="round"
       stroke-width="0.1"
       stroke="currentColor"
       x1="0.050000001"
       y1="0"
       x2="99.918198"
       y2="0"
       id="line496" />
  </g>
  <g
     transform="translate(2.5153677,15.779)"
     id="g502">
    <line
       stroke-linejoin="round"
       stroke-linecap="round"
       stroke-width="0.1"
       stroke="currentColor"
       x1="0.050000001"
       y1="0"
       x2="99.918198"
       y2="0"
       id="line500" />
  </g>
  <g
     transform="translate(2.5153677,14.779)"
     id="g506">
    <line
       stroke-linejoin="round"
       stroke-linecap="round"
       stroke-width="0.1"
       stroke="currentColor"
       x1="0.050000001"
       y1="0"
       x2="99.918198"
       y2="0"
       id="line504" />
  </g>
  <g
     transform="translate(2.5153677,13.779)"
     id="g510">
    <line
       stroke-linejoin="round"
       stroke-linecap="round"
       stroke-width="0.1"
       stroke="currentColor"
       x1="0.050000001"
       y1="0"
       x2="99.918198"
       y2="0"
       id="line508" />
  </g>
  <g
     transform="translate(48.170668,15.779)"
     id="g514">
    <rect
       x="0"
       y="-2"
       width="0.19"
       height="4"
       ry="0.0000"
       fill="currentColor"
       id="rect512" />
  </g>
  <g
     transform="translate(64.132368,15.779)"
     id="g518">
    <rect
       x="0"
       y="-2"
       width="0.19"
       height="4"
       ry="0.0000"
       fill="currentColor"
       id="rect516" />
  </g>
  <g
     transform="translate(80.188068,15.779)"
     id="g522">
    <rect
       x="0"
       y="-2"
       width="0.19"
       height="4"
       ry="0.0000"
       fill="currentColor"
       id="rect520" />
  </g>
  <g
     transform="translate(96.142668,15.779)"
     id="g526">
    <rect
       x="0"
       y="-2"
       width="0.19"
       height="4"
       ry="0.0000"
       fill="currentColor"
       id="rect524" />
  </g>
  <g
     transform="translate(31.942568,15.779)"
     id="g530">
    <rect
       x="0"
       y="-2"
       width="0.19"
       height="4"
       ry="0.0000"
       fill="currentColor"
       id="rect528" />
  </g>
  <g
     transform="translate(15.714568,15.779)"
     id="g534">
    <rect
       x="0"
       y="-2"
       width="0.19"
       height="4"
       ry="0.0000"
       fill="currentColor"
       id="rect532" />
  </g>
  <g
     transform="translate(102.29347,15.779)"
     id="g538">
    <rect
       x="0"
       y="-2"
       width="0.19"
       height="4"
       ry="0.0000"
       fill="currentColor"
       id="rect536" />
  </g>
  <g
     transform="translate(101.80347,15.779)"
     id="g542">
    <rect
       x="0"
       y="-2"
       width="0.19"
       height="4"
       ry="0.0000"
       fill="currentColor"
       id="rect540" />
  </g>
  <g
     transform="translate(78.344368,15.779)"
     id="g546">
    <rect
       x="-0.064999998"
       y="-0.31389999"
       width="0.13"
       height="2.5204999"
       ry="0.039999999"
       fill="currentColor"
       id="rect544" />
  </g>
  <g
     transform="translate(86.628368,14.779)"
     id="g550">
    <path
       transform="scale(0.004,-0.004)"
       d="m 218,136 c 66,0 108,-36 108,-89 0,-89 -113,-183 -218,-183 -66,0 -108,36 -108,89 0,89 113,183 218,183 z"
       fill="currentColor"
       id="path548" />
  </g>
  <g
     transform="translate(72.928568,15.279)"
     id="g554">
    <path
       transform="scale(0.004,-0.004)"
       d="m 218,136 c 66,0 108,-36 108,-89 0,-89 -113,-183 -218,-183 -66,0 -108,36 -108,89 0,89 113,183 218,183 z"
       fill="currentColor"
       id="path552" />
  </g>
  <g
     transform="translate(78.279368,15.279)"
     id="g558">
    <path
       transform="scale(0.004,-0.004)"
       d="m 218,136 c 66,0 108,-36 108,-89 0,-89 -113,-183 -218,-183 -66,0 -108,36 -108,89 0,89 113,183 218,183 z"
       fill="currentColor"
       id="path556" />
  </g>
  <g
     transform="translate(76.053868,15.779)"
     id="g562">
    <rect
       x="-0.064999998"
       y="0.68610001"
       width="0.13"
       height="2.1071999"
       ry="0.039999999"
       fill="currentColor"
       id="rect560" />
  </g>
  <g
     transform="translate(75.988868,16.279)"
     id="g566">
    <path
       transform="scale(0.004,-0.004)"
       d="m 218,136 c 66,0 108,-36 108,-89 0,-89 -113,-183 -218,-183 -66,0 -108,36 -108,89 0,89 113,183 218,183 z"
       fill="currentColor"
       id="path564" />
  </g>
  <g
     transform="translate(72.993568,15.779)"
     id="g570">
    <rect
       x="-0.064999998"
       y="-0.31389999"
       width="0.13"
       height="3.3139"
       ry="0.039999999"
       fill="currentColor"
       id="rect568" />
  </g>
  <g
     transform="translate(56.872868,15.279)"
     id="g574">
    <path
       transform="scale(0.004,-0.004)"
       d="m 218,136 c 66,0 108,-36 108,-89 0,-89 -113,-183 -218,-183 -66,0 -108,36 -108,89 0,89 113,183 218,183 z"
       fill="currentColor"
       id="path572" />
  </g>
  <g
     transform="translate(84.402868,15.779)"
     id="g578">
    <rect
       x="-0.064999998"
       y="0.18610001"
       width="0.13"
       height="2.6071999"
       ry="0.039999999"
       fill="currentColor"
       id="rect576" />
  </g>
  <g
     transform="translate(84.337868,15.779)"
     id="g582">
    <path
       transform="scale(0.004,-0.004)"
       d="m 218,136 c 66,0 108,-36 108,-89 0,-89 -113,-183 -218,-183 -66,0 -108,36 -108,89 0,89 113,183 218,183 z"
       fill="currentColor"
       id="path580" />
  </g>
  <g
     transform="translate(81.277568,14.779)"
     id="g586">
    <path
       transform="scale(0.004,-0.004)"
       d="m 218,136 c 66,0 108,-36 108,-89 0,-89 -113,-183 -218,-183 -66,0 -108,36 -108,89 0,89 113,183 218,183 z"
       fill="currentColor"
       id="path584" />
  </g>
  <g
     transform="translate(81.342568,15.779)"
     id="g590">
    <rect
       x="-0.064999998"
       y="-0.81389999"
       width="0.13"
       height="3.3139"
       ry="0.039999999"
       fill="currentColor"
       id="rect588" />
  </g>
  <g
     transform="translate(81.277568,21.4682)"
     id="g596">
    <text
       font-family="'Source Sans Pro'"
       font-size="2.6163px"
       text-anchor="start"
       fill="currentColor"
       id="text594"><tspan
         id="tspan592">B</tspan></text>
  </g>
  <g
     transform="translate(82.813968,21.4682)"
     id="g602">
    <text
       font-family="'Source Sans Pro'"
       font-size="2.6163px"
       text-anchor="start"
       fill="currentColor"
       id="text600"><tspan
         id="tspan598">m</tspan></text>
  </g>
  <g
     transform="translate(65.258268,15.779)"
     id="g606">
    <rect
       x="-0.064999998"
       y="-0.31389999"
       width="0.13"
       height="3.3139"
       ry="0.039999999"
       fill="currentColor"
       id="rect604" />
  </g>
  <g
     transform="translate(65.193268,21.4682)"
     id="g612">
    <text
       font-family="'Source Sans Pro'"
       font-size="2.6163px"
       text-anchor="start"
       fill="currentColor"
       id="text610"><tspan
         id="tspan608">F</tspan></text>
  </g>
  <g
     transform="translate(66.490768,20.8682)"
     id="g616">
    <path
       transform="scale(0.0042,-0.0042)"
       d="m 216,-312 c 0,-10 -8,-19 -18,-19 -10,0 -19,9 -19,19 v 145 l -83,-31 v -158 c 0,-10 -9,-19 -19,-19 -10,0 -18,9 -18,19 v 145 l -32,-12 c -2,-1 -5,-1 -7,-1 -11,0 -20,9 -20,20 v 60 c 0,8 5,16 13,19 l 46,16 V 51 L 27,40 C 25,39 22,39 20,39 9,39 0,48 0,59 v 60 c 0,8 5,15 13,18 l 46,17 v 158 c 0,10 8,19 18,19 10,0 19,-9 19,-19 V 167 l 83,31 v 158 c 0,10 9,19 19,19 10,0 18,-9 18,-19 V 211 l 32,12 c 2,1 5,1 7,1 11,0 20,-9 20,-20 v -60 c 0,-8 -5,-16 -13,-19 L 216,109 V -51 l 32,11 c 2,1 5,1 7,1 11,0 20,-9 20,-20 v -60 c 0,-8 -5,-15 -13,-18 l -46,-17 z M 96,65 V -95 l 83,30 V 95 Z"
       fill="currentColor"
       id="path614" />
  </g>
  <g
     transform="translate(65.193268,15.279)"
     id="g620">
    <path
       transform="scale(0.004,-0.004)"
       d="m 218,136 c 66,0 108,-36 108,-89 0,-89 -113,-183 -218,-183 -66,0 -108,36 -108,89 0,89 113,183 218,183 z"
       fill="currentColor"
       id="path618" />
  </g>
  <g
     transform="translate(62.288668,15.779)"
     id="g624">
    <rect
       x="-0.064999998"
       y="-0.31389999"
       width="0.13"
       height="2.5204999"
       ry="0.039999999"
       fill="currentColor"
       id="rect622" />
  </g>
  <g
     transform="translate(62.223668,15.279)"
     id="g628">
    <path
       transform="scale(0.004,-0.004)"
       d="m 218,136 c 66,0 108,-36 108,-89 0,-89 -113,-183 -218,-183 -66,0 -108,36 -108,89 0,89 113,183 218,183 z"
       fill="currentColor"
       id="path626" />
  </g>
  <g
     transform="translate(59.998168,15.779)"
     id="g632">
    <rect
       x="-0.064999998"
       y="0.68610001"
       width="0.13"
       height="2.1071999"
       ry="0.039999999"
       fill="currentColor"
       id="rect630" />
  </g>
  <g
     transform="translate(59.933168,16.279)"
     id="g636">
    <path
       transform="scale(0.004,-0.004)"
       d="m 218,136 c 66,0 108,-36 108,-89 0,-89 -113,-183 -218,-183 -66,0 -108,36 -108,89 0,89 113,183 218,183 z"
       fill="currentColor"
       id="path634" />
  </g>
  <g
     transform="translate(56.937868,15.779)"
     id="g640">
    <rect
       x="-0.064999998"
       y="-0.31389999"
       width="0.13"
       height="3.3139"
       ry="0.039999999"
       fill="currentColor"
       id="rect638" />
  </g>
  <g
     transform="translate(68.412468,15.779)"
     id="g644">
    <rect
       x="-0.064999998"
       y="0.68610001"
       width="0.13"
       height="2.1071999"
       ry="0.039999999"
       fill="currentColor"
       id="rect642" />
  </g>
  <g
     transform="translate(70.703068,15.779)"
     id="g648">
    <rect
       x="-0.064999998"
       y="-0.31389999"
       width="0.13"
       height="2.5204999"
       ry="0.039999999"
       fill="currentColor"
       id="rect646" />
  </g>
  <g
     transform="translate(70.638068,15.279)"
     id="g652">
    <path
       transform="scale(0.004,-0.004)"
       d="m 218,136 c 66,0 108,-36 108,-89 0,-89 -113,-183 -218,-183 -66,0 -108,36 -108,89 0,89 113,183 218,183 z"
       fill="currentColor"
       id="path650" />
  </g>
  <g
     transform="translate(66.897468,16.279)"
     id="g656">
    <path
       transform="scale(0.004,-0.004)"
       d="m 216,-312 c 0,-10 -8,-19 -18,-19 -10,0 -19,9 -19,19 v 145 l -83,-31 v -158 c 0,-10 -9,-19 -19,-19 -10,0 -18,9 -18,19 v 145 l -32,-12 c -2,-1 -5,-1 -7,-1 -11,0 -20,9 -20,20 v 60 c 0,8 5,16 13,19 l 46,16 V 51 L 27,40 C 25,39 22,39 20,39 9,39 0,48 0,59 v 60 c 0,8 5,15 13,18 l 46,17 v 158 c 0,10 8,19 18,19 10,0 19,-9 19,-19 V 167 l 83,31 v 158 c 0,10 9,19 19,19 10,0 18,-9 18,-19 V 211 l 32,12 c 2,1 5,1 7,1 11,0 20,-9 20,-20 v -60 c 0,-8 -5,-16 -13,-19 L 216,109 V -51 l 32,11 c 2,1 5,1 7,1 11,0 20,-9 20,-20 v -60 c 0,-8 -5,-15 -13,-18 l -46,-17 z M 96,65 V -95 l 83,30 V 95 Z"
       fill="currentColor"
       id="path654" />
  </g>
  <g
     transform="translate(68.347468,16.279)"
     id="g660">
    <path
       transform="scale(0.004,-0.004)"
       d="m 218,136 c 66,0 108,-36 108,-89 0,-89 -113,-183 -218,-183 -66,0 -108,36 -108,89 0,89 113,183 218,183 z"
       fill="currentColor"
       id="path658" />
  </g>
  <g
     transform="translate(59.933168,18.589)"
     id="g664">
    <polygon
       stroke-linejoin="round"
       stroke-linecap="round"
       stroke-width="0.08"
       fill="currentColor"
       stroke="currentColor"
       points="0.04,0.2 0.04,-0.2 2.3805,-0.82 2.3805,-0.42 "
       id="polygon662" />
  </g>
  <g
     transform="translate(68.347468,18.589)"
     id="g668">
    <polygon
       stroke-linejoin="round"
       stroke-linecap="round"
       stroke-width="0.08"
       fill="currentColor"
       stroke="currentColor"
       points="0.04,0.2 0.04,-0.2 2.3805,-0.82 2.3805,-0.42 "
       id="polygon666" />
  </g>
  <g
     transform="translate(75.988868,18.589)"
     id="g672">
    <polygon
       stroke-linejoin="round"
       stroke-linecap="round"
       stroke-width="0.08"
       fill="currentColor"
       stroke="currentColor"
       points="0.04,0.2 0.04,-0.2 2.3805,-0.82 2.3805,-0.42 "
       id="polygon670" />
  </g>
  <g
     transform="translate(52.291868,18.589)"
     id="g676">
    <polygon
       stroke-linejoin="round"
       stroke-linecap="round"
       stroke-width="0.08"
       fill="currentColor"
       stroke="currentColor"
       points="0.04,0.2 0.04,-0.2 2.3805,-0.82 2.3805,-0.42 "
       id="polygon674" />
  </g>
  <g
     transform="translate(84.337868,18.589)"
     id="g680">
    <polygon
       stroke-linejoin="round"
       stroke-linecap="round"
       stroke-width="0.08"
       fill="currentColor"
       stroke="currentColor"
       points="0.04,0.2 0.04,-0.2 2.3805,-0.82 2.3805,-0.42 "
       id="polygon678" />
  </g>
  <g
     transform="translate(91.979168,18.589)"
     id="g684">
    <polygon
       stroke-linejoin="round"
       stroke-linecap="round"
       stroke-width="0.08"
       fill="currentColor"
       stroke="currentColor"
       points="0.04,0.2 0.04,-0.2 2.3805,-0.82 2.3805,-0.42 "
       id="polygon682" />
  </g>
  <g
     transform="translate(11.515368,17.779)"
     id="g688">
    <polygon
       stroke-linejoin="round"
       stroke-linecap="round"
       stroke-width="0.08"
       fill="currentColor"
       stroke="currentColor"
       points="0.04,0.2 0.04,-0.2 2.3805,-0.01 2.3805,0.39 "
       id="polygon686" />
  </g>
  <g
     transform="translate(20.981368,13.589)"
     id="g692">
    <polygon
       stroke-linejoin="round"
       stroke-linecap="round"
       stroke-width="0.08"
       fill="currentColor"
       stroke="currentColor"
       points="0.04,0.2 0.04,-0.2 2.3805,-1.01 2.3805,-0.61 "
       id="polygon690" />
  </g>
  <g
     transform="translate(28.622768,13.589)"
     id="g696">
    <polygon
       stroke-linejoin="round"
       stroke-linecap="round"
       stroke-width="0.08"
       fill="currentColor"
       stroke="currentColor"
       points="0.04,0.2 0.04,-0.2 2.3805,-1.01 2.3805,-0.61 "
       id="polygon694" />
  </g>
  <g
     transform="translate(37.209468,13.589)"
     id="g700">
    <polygon
       stroke-linejoin="round"
       stroke-linecap="round"
       stroke-width="0.08"
       fill="currentColor"
       stroke="currentColor"
       points="0.04,0.2 0.04,-0.2 2.3805,-0.82 2.3805,-0.42 "
       id="polygon698" />
  </g>
  <g
     transform="translate(44.850768,13.589)"
     id="g704">
    <polygon
       stroke-linejoin="round"
       stroke-linecap="round"
       stroke-width="0.08"
       fill="currentColor"
       stroke="currentColor"
       points="0.04,0.2 0.04,-0.2 2.3805,-0.82 2.3805,-0.42 "
       id="polygon702" />
  </g>
  <g
     transform="translate(92.044168,15.779)"
     id="g708">
    <rect
       x="-0.064999998"
       y="0.18610001"
       width="0.13"
       height="2.6071999"
       ry="0.039999999"
       fill="currentColor"
       id="rect706" />
  </g>
  <g
     transform="translate(94.334668,15.779)"
     id="g712">
    <rect
       x="-0.064999998"
       y="-0.81389999"
       width="0.13"
       height="3.0204999"
       ry="0.039999999"
       fill="currentColor"
       id="rect710" />
  </g>
  <g
     transform="translate(94.269668,14.779)"
     id="g716">
    <path
       transform="scale(0.004,-0.004)"
       d="m 218,136 c 66,0 108,-36 108,-89 0,-89 -113,-183 -218,-183 -66,0 -108,36 -108,89 0,89 113,183 218,183 z"
       fill="currentColor"
       id="path714" />
  </g>
  <g
     transform="translate(97.898068,14.279)"
     id="g720">
    <path
       transform="scale(0.004,-0.004)"
       d="m 314,65 c 0,23 -19,41 -42,41 C 233,106 68,-4 41,-37 34,-45 31,-55 31,-65 c 0,-23 19,-41 42,-41 39,0 203,110 230,143 7,8 11,18 11,28 z m -52,71 c 41,0 82,-14 82,-71 0,-26 -16,-112 -74,-151 -25,-17 -87,-50 -187,-50 -41,0 -83,14 -83,71 0,26 16,112 74,151 25,17 88,50 188,50 z"
       fill="currentColor"
       id="path718" />
  </g>
  <g
     transform="translate(91.979168,15.779)"
     id="g724">
    <path
       transform="scale(0.004,-0.004)"
       d="m 218,136 c 66,0 108,-36 108,-89 0,-89 -113,-183 -218,-183 -66,0 -108,36 -108,89 0,89 113,183 218,183 z"
       fill="currentColor"
       id="path722" />
  </g>
  <g
     transform="translate(88.983868,15.779)"
     id="g728">
    <rect
       x="-0.064999998"
       y="-0.81389999"
       width="0.13"
       height="3.3139"
       ry="0.039999999"
       fill="currentColor"
       id="rect726" />
  </g>
  <g
     transform="translate(88.918868,14.779)"
     id="g732">
    <path
       transform="scale(0.004,-0.004)"
       d="m 218,136 c 66,0 108,-36 108,-89 0,-89 -113,-183 -218,-183 -66,0 -108,36 -108,89 0,89 113,183 218,183 z"
       fill="currentColor"
       id="path730" />
  </g>
  <g
     transform="translate(86.693368,15.779)"
     id="g736">
    <rect
       x="-0.064999998"
       y="-0.81389999"
       width="0.13"
       height="3.0204999"
       ry="0.039999999"
       fill="currentColor"
       id="rect734" />
  </g>
  <g
     transform="translate(97.963068,15.779)"
     id="g740">
    <rect
       x="-0.064999998"
       y="-1.2410001"
       width="0.13"
       height="3.2409999"
       ry="0.039999999"
       fill="currentColor"
       id="rect738" />
  </g>
  <g
     transform="translate(99.725368,14.279)"
     id="g744">
    <path
       transform="scale(0.004,-0.004)"
       d="M 0,0 C 0,31 25,56 56,56 87,56 112,31 112,0 112,-31 87,-56 56,-56 25,-56 0,-31 0,0 Z"
       fill="currentColor"
       id="path742" />
  </g>
  <g
     transform="translate(97.898068,21.4682)"
     id="g750">
    <text
       font-family="'Source Sans Pro'"
       font-size="2.6163px"
       text-anchor="start"
       fill="currentColor"
       id="text748"><tspan
         id="tspan746">A</tspan></text>
  </g>
  <g
     transform="translate(99.332068,20.279)"
     id="g756">
    <text
       font-family="'Source Sans Pro'"
       font-size="1.85px"
       text-anchor="start"
       fill="currentColor"
       id="text754"><tspan
         id="tspan752">7</tspan></text>
  </g>
  <g
     transform="translate(28.687768,15.779)"
     id="g760">
    <rect
       x="-0.064999998"
       y="-2.2118001"
       width="0.13"
       height="3.5256"
       ry="0.039999999"
       fill="currentColor"
       id="rect758" />
  </g>
  <g
     transform="translate(27.448568,17.279)"
     id="g764">
    <path
       transform="scale(0.004,-0.004)"
       d="m 218,136 c 66,0 108,-36 108,-89 0,-89 -113,-183 -218,-183 -66,0 -108,36 -108,89 0,89 113,183 218,183 z"
       fill="currentColor"
       id="path762" />
  </g>
  <g
     transform="translate(24.453268,15.779)"
     id="g768">
    <rect
       x="-0.064999998"
       y="0.18610001"
       width="0.13"
       height="3.1472001"
       ry="0.039999999"
       fill="currentColor"
       id="rect766" />
  </g>
  <g
     transform="translate(24.388268,15.779)"
     id="g772">
    <path
       transform="scale(0.004,-0.004)"
       d="m 218,136 c 66,0 108,-36 108,-89 0,-89 -113,-183 -218,-183 -66,0 -108,36 -108,89 0,89 113,183 218,183 z"
       fill="currentColor"
       id="path770" />
  </g>
  <g
     transform="translate(23.336968,15.779)"
     id="g776">
    <rect
       x="-0.064999998"
       y="-2.9782"
       width="0.13"
       height="2.7921"
       ry="0.039999999"
       fill="currentColor"
       id="rect774" />
  </g>
  <g
     transform="translate(22.097668,15.779)"
     id="g780">
    <path
       transform="scale(0.004,-0.004)"
       d="m 218,136 c 66,0 108,-36 108,-89 0,-89 -113,-183 -218,-183 -66,0 -108,36 -108,89 0,89 113,183 218,183 z"
       fill="currentColor"
       id="path778" />
  </g>
  <g
     transform="translate(21.046368,15.779)"
     id="g784">
    <rect
       x="-0.064999998"
       y="-2.2118001"
       width="0.13"
       height="3.5256"
       ry="0.039999999"
       fill="currentColor"
       id="rect782" />
  </g>
  <g
     transform="translate(19.807168,17.279)"
     id="g788">
    <path
       transform="scale(0.004,-0.004)"
       d="m 218,136 c 66,0 108,-36 108,-89 0,-89 -113,-183 -218,-183 -66,0 -108,36 -108,89 0,89 113,183 218,183 z"
       fill="currentColor"
       id="path786" />
  </g>
  <g
     transform="translate(32.974968,21.4682)"
     id="g794">
    <text
       font-family="'Source Sans Pro'"
       font-size="2.6163px"
       text-anchor="start"
       fill="currentColor"
       id="text792"><tspan
         id="tspan790">G</tspan></text>
  </g>
  <g
     transform="translate(32.974968,15.779)"
     id="g798">
    <path
       transform="scale(0.004,-0.004)"
       d="m 218,136 c 66,0 108,-36 108,-89 0,-89 -113,-183 -218,-183 -66,0 -108,36 -108,89 0,89 113,183 218,183 z"
       fill="currentColor"
       id="path796" />
  </g>
  <g
     transform="translate(30.978268,15.779)"
     id="g802">
    <rect
       x="-0.064999998"
       y="-2.9782"
       width="0.13"
       height="2.7921"
       ry="0.039999999"
       fill="currentColor"
       id="rect800" />
  </g>
  <g
     transform="translate(29.739068,15.779)"
     id="g806">
    <path
       transform="scale(0.004,-0.004)"
       d="m 218,136 c 66,0 108,-36 108,-89 0,-89 -113,-183 -218,-183 -66,0 -108,36 -108,89 0,89 113,183 218,183 z"
       fill="currentColor"
       id="path804" />
  </g>
  <g
     transform="translate(6.8153677,13.779)"
     id="g810">
    <path
       transform="scale(0.004,-0.004)"
       d="m 216,-312 c 0,-10 -8,-19 -18,-19 -10,0 -19,9 -19,19 v 145 l -83,-31 v -158 c 0,-10 -9,-19 -19,-19 -10,0 -18,9 -18,19 v 145 l -32,-12 c -2,-1 -5,-1 -7,-1 -11,0 -20,9 -20,20 v 60 c 0,8 5,16 13,19 l 46,16 V 51 L 27,40 C 25,39 22,39 20,39 9,39 0,48 0,59 v 60 c 0,8 5,15 13,18 l 46,17 v 158 c 0,10 8,19 18,19 10,0 19,-9 19,-19 V 167 l 83,31 v 158 c 0,10 9,19 19,19 10,0 18,-9 18,-19 V 211 l 32,12 c 2,1 5,1 7,1 11,0 20,-9 20,-20 v -60 c 0,-8 -5,-16 -13,-19 L 216,109 V -51 l 32,11 c 2,1 5,1 7,1 11,0 20,-9 20,-20 v -60 c 0,-8 -5,-15 -13,-18 l -46,-17 z M 96,65 V -95 l 83,30 V 95 Z"
       fill="currentColor"
       id="path808" />
  </g>
  <g
     transform="translate(7.9153677,15.279)"
     id="g814">
    <path
       transform="scale(0.004,-0.004)"
       d="m 216,-312 c 0,-10 -8,-19 -18,-19 -10,0 -19,9 -19,19 v 145 l -83,-31 v -158 c 0,-10 -9,-19 -19,-19 -10,0 -18,9 -18,19 v 145 l -32,-12 c -2,-1 -5,-1 -7,-1 -11,0 -20,9 -20,20 v 60 c 0,8 5,16 13,19 l 46,16 V 51 L 27,40 C 25,39 22,39 20,39 9,39 0,48 0,59 v 60 c 0,8 5,15 13,18 l 46,17 v 158 c 0,10 8,19 18,19 10,0 19,-9 19,-19 V 167 l 83,31 v 158 c 0,10 9,19 19,19 10,0 18,-9 18,-19 V 211 l 32,12 c 2,1 5,1 7,1 11,0 20,-9 20,-20 v -60 c 0,-8 -5,-16 -13,-19 L 216,109 V -51 l 32,11 c 2,1 5,1 7,1 11,0 20,-9 20,-20 v -60 c 0,-8 -5,-15 -13,-18 l -46,-17 z M 96,65 V -95 l 83,30 V 95 Z"
       fill="currentColor"
       id="path812" />
  </g>
  <g
     transform="translate(11.580368,15.779)"
     id="g818">
    <rect
       x="-0.064999998"
       y="-0.81389999"
       width="0.13"
       height="2.819"
       ry="0.039999999"
       fill="currentColor"
       id="rect816" />
  </g>
  <g
     transform="translate(11.515368,21.4682)"
     id="g824">
    <text
       font-family="'Source Sans Pro'"
       font-size="2.6163px"
       text-anchor="start"
       fill="currentColor"
       id="text822"><tspan
         id="tspan820">F</tspan></text>
  </g>
  <g
     transform="translate(12.812768,20.8682)"
     id="g828">
    <path
       transform="scale(0.0042,-0.0042)"
       d="m 216,-312 c 0,-10 -8,-19 -18,-19 -10,0 -19,9 -19,19 v 145 l -83,-31 v -158 c 0,-10 -9,-19 -19,-19 -10,0 -18,9 -18,19 v 145 l -32,-12 c -2,-1 -5,-1 -7,-1 -11,0 -20,9 -20,20 v 60 c 0,8 5,16 13,19 l 46,16 V 51 L 27,40 C 25,39 22,39 20,39 9,39 0,48 0,59 v 60 c 0,8 5,15 13,18 l 46,17 v 158 c 0,10 8,19 18,19 10,0 19,-9 19,-19 V 167 l 83,31 v 158 c 0,10 9,19 19,19 10,0 18,-9 18,-19 V 211 l 32,12 c 2,1 5,1 7,1 11,0 20,-9 20,-20 v -60 c 0,-8 -5,-16 -13,-19 L 216,109 V -51 l 32,11 c 2,1 5,1 7,1 11,0 20,-9 20,-20 v -60 c 0,-8 -5,-15 -13,-18 l -46,-17 z M 96,65 V -95 l 83,30 V 95 Z"
       fill="currentColor"
       id="path826" />
  </g>
  <g
     transform="translate(13.978168,20.279)"
     id="g834">
    <text
       font-family="'Source Sans Pro'"
       font-size="1.85px"
       text-anchor="start"
       fill="currentColor"
       id="text832"><tspan
         id="tspan830">7</tspan></text>
  </g>
  <g
     transform="translate(11.515368,14.779)"
     id="g838">
    <path
       transform="scale(0.004,-0.004)"
       d="m 218,136 c 66,0 108,-36 108,-89 0,-89 -113,-183 -218,-183 -66,0 -108,36 -108,89 0,89 113,183 218,183 z"
       fill="currentColor"
       id="path836" />
  </g>
  <g
     transform="translate(3.3153677,16.779)"
     id="g842">
    <path
       transform="scale(0.004,-0.004)"
       d="m 266,-635 h -6 c -108,0 -195,88 -195,197 0,58 53,103 112,103 54,0 95,-47 95,-103 0,-52 -43,-95 -95,-95 -11,0 -21,2 -31,6 26,-39 68,-65 117,-65 h 4 z m 195,432 c 68,24 113,90 113,164 0,90 -66,179 -173,190 19,-89 48,-242 60,-354 z M 74,28 c 0,-145 141,-247 264,-247 1,0 47,0 82,6 -7,64 -29,203 -63,364 -79,-8 -124,-61 -124,-119 0,-44 25,-91 81,-123 5,-5 7,-10 7,-15 0,-11 -10,-22 -22,-22 -15,0 -126,62 -126,187 0,88 58,174 160,197 -14,58 -29,117 -46,175 C 180,310 74,188 74,28 Z m 176,525 c -29,96 -52,170 -52,346 0,115 55,224 149,292 6,5 14,5 20,0 68,-80 133,-245 133,-358 0,-143 -86,-255 -180,-364 21,-68 39,-138 56,-207 2,0 7,1 13,1 155,0 256,-128 256,-261 0,-113 -74,-212 -180,-246 3,-35 5,-70 5,-105 0,-19 -1,-39 -2,-58 -7,-119 -88,-225 -202,-228 l 1,43 c 93,2 153,92 159,191 1,18 2,37 2,55 0,31 -1,61 -4,92 -5,-1 -44,-8 -89,-8 C 142,-262 2,-82 2,112 2,289 133,418 250,553 Z m 178,363 c 0,34 1,66 -20,129 -99,-48 -162,-149 -162,-259 0,-52 12,-115 36,-194 80,97 146,198 146,324 z"
       fill="currentColor"
       id="path840" />
  </g>
  <g
     transform="translate(-0.19183227,16.336)"
     id="g848">
    <text
       font-family="'Source Sans Pro'"
       font-size="1.7461px"
       text-anchor="start"
       fill="currentColor"
       id="text846"><tspan
         id="tspan844">13</tspan></text>
  </g>
  <g
     transform="translate(16.811868,15.779)"
     id="g852">
    <rect
       x="-0.064999998"
       y="0.18610001"
       width="0.13"
       height="3.1472001"
       ry="0.039999999"
       fill="currentColor"
       id="rect850" />
  </g>
  <g
     transform="translate(33.039968,15.779)"
     id="g856">
    <rect
       x="-0.064999998"
       y="0.18610001"
       width="0.13"
       height="3.1472001"
       ry="0.039999999"
       fill="currentColor"
       id="rect854" />
  </g>
  <g
     transform="translate(16.746868,21.4682)"
     id="g862">
    <text
       font-family="'Source Sans Pro'"
       font-size="2.6163px"
       text-anchor="start"
       fill="currentColor"
       id="text860"><tspan
         id="tspan858">B</tspan></text>
  </g>
  <g
     transform="translate(18.283368,21.4682)"
     id="g868">
    <text
       font-family="'Source Sans Pro'"
       font-size="2.6163px"
       text-anchor="start"
       fill="currentColor"
       id="text866"><tspan
         id="tspan864">m</tspan></text>
  </g>
  <g
     transform="translate(16.746868,15.779)"
     id="g872">
    <path
       transform="scale(0.004,-0.004)"
       d="m 218,136 c 66,0 108,-36 108,-89 0,-89 -113,-183 -218,-183 -66,0 -108,36 -108,89 0,89 113,183 218,183 z"
       fill="currentColor"
       id="path870" />
  </g>
  <g
     transform="translate(13.870868,15.779)"
     id="g876">
    <rect
       x="-0.064999998"
       y="-0.31389999"
       width="0.13"
       height="2.4988"
       ry="0.039999999"
       fill="currentColor"
       id="rect874" />
  </g>
  <g
     transform="translate(13.805868,15.279)"
     id="g880">
    <path
       transform="scale(0.004,-0.004)"
       d="m 218,136 c 66,0 108,-36 108,-89 0,-89 -113,-183 -218,-183 -66,0 -108,36 -108,89 0,89 113,183 218,183 z"
       fill="currentColor"
       id="path878" />
  </g>
  <g
     transform="translate(36.035268,16.779)"
     id="g884">
    <path
       transform="scale(0.004,-0.004)"
       d="m 218,136 c 66,0 108,-36 108,-89 0,-89 -113,-183 -218,-183 -66,0 -108,36 -108,89 0,89 113,183 218,183 z"
       fill="currentColor"
       id="path882" />
  </g>
  <g
     transform="translate(47.206268,15.779)"
     id="g888">
    <rect
       x="-0.064999998"
       y="-2.7934"
       width="0.13"
       height="2.6071999"
       ry="0.039999999"
       fill="currentColor"
       id="rect886" />
  </g>
  <g
     transform="translate(40.616268,15.779)"
     id="g892">
    <path
       transform="scale(0.004,-0.004)"
       d="m 218,136 c 66,0 108,-36 108,-89 0,-89 -113,-183 -218,-183 -66,0 -108,36 -108,89 0,89 113,183 218,183 z"
       fill="currentColor"
       id="path890" />
  </g>
  <g
     transform="translate(52.356868,15.779)"
     id="g896">
    <rect
       x="-0.064999998"
       y="0.68610001"
       width="0.13"
       height="2.1071999"
       ry="0.039999999"
       fill="currentColor"
       id="rect894" />
  </g>
  <g
     transform="translate(52.291868,16.279)"
     id="g900">
    <path
       transform="scale(0.004,-0.004)"
       d="m 218,136 c 66,0 108,-36 108,-89 0,-89 -113,-183 -218,-183 -66,0 -108,36 -108,89 0,89 113,183 218,183 z"
       fill="currentColor"
       id="path898" />
  </g>
  <g
     transform="translate(45.967068,15.779)"
     id="g904">
    <path
       transform="scale(0.004,-0.004)"
       d="m 218,136 c 66,0 108,-36 108,-89 0,-89 -113,-183 -218,-183 -66,0 -108,36 -108,89 0,89 113,183 218,183 z"
       fill="currentColor"
       id="path902" />
  </g>
  <g
     transform="translate(49.296568,15.779)"
     id="g908">
    <rect
       x="-0.064999998"
       y="-0.31389999"
       width="0.13"
       height="3.3139"
       ry="0.039999999"
       fill="currentColor"
       id="rect906" />
  </g>
  <g
     transform="translate(40.681268,15.779)"
     id="g912">
    <rect
       x="-0.064999998"
       y="0.18610001"
       width="0.13"
       height="3.1472001"
       ry="0.039999999"
       fill="currentColor"
       id="rect910" />
  </g>
  <g
     transform="translate(43.676568,16.779)"
     id="g916">
    <path
       transform="scale(0.004,-0.004)"
       d="m 218,136 c 66,0 108,-36 108,-89 0,-89 -113,-183 -218,-183 -66,0 -108,36 -108,89 0,89 113,183 218,183 z"
       fill="currentColor"
       id="path914" />
  </g>
  <g
     transform="translate(44.915768,15.779)"
     id="g920">
    <rect
       x="-0.064999998"
       y="-2.2066"
       width="0.13"
       height="3.0204999"
       ry="0.039999999"
       fill="currentColor"
       id="rect918" />
  </g>
  <g
     transform="translate(37.274468,15.779)"
     id="g924">
    <rect
       x="-0.064999998"
       y="-2.2066"
       width="0.13"
       height="3.0204999"
       ry="0.039999999"
       fill="currentColor"
       id="rect922" />
  </g>
  <g
     transform="translate(54.647368,15.779)"
     id="g928">
    <rect
       x="-0.064999998"
       y="-0.31389999"
       width="0.13"
       height="2.5204999"
       ry="0.039999999"
       fill="currentColor"
       id="rect926" />
  </g>
  <g
     transform="translate(38.325768,15.779)"
     id="g932">
    <path
       transform="scale(0.004,-0.004)"
       d="m 218,136 c 66,0 108,-36 108,-89 0,-89 -113,-183 -218,-183 -66,0 -108,36 -108,89 0,89 113,183 218,183 z"
       fill="currentColor"
       id="path930" />
  </g>
  <g
     transform="translate(39.564968,15.779)"
     id="g936">
    <rect
       x="-0.064999998"
       y="-2.7934"
       width="0.13"
       height="2.6071999"
       ry="0.039999999"
       fill="currentColor"
       id="rect934" />
  </g>
  <g
     transform="translate(54.582368,15.279)"
     id="g940">
    <path
       transform="scale(0.004,-0.004)"
       d="m 218,136 c 66,0 108,-36 108,-89 0,-89 -113,-183 -218,-183 -66,0 -108,36 -108,89 0,89 113,183 218,183 z"
       fill="currentColor"
       id="path938" />
  </g>
  <g
     transform="translate(49.231568,15.279)"
     id="g944">
    <path
       transform="scale(0.004,-0.004)"
       d="m 218,136 c 66,0 108,-36 108,-89 0,-89 -113,-183 -218,-183 -66,0 -108,36 -108,89 0,89 113,183 218,183 z"
       fill="currentColor"
       id="path942" />
  </g>
  <g
     transform="translate(49.231568,21.4682)"
     id="g950">
    <text
       font-family="'Source Sans Pro'"
       font-size="2.6163px"
       text-anchor="start"
       fill="currentColor"
       id="text948"><tspan
         id="tspan946">A</tspan></text>
  </g>
  <g
     transform="translate(15.680068,27.779)"
     id="g954">
    <rect
       x="0"
       y="-2"
       width="0.19"
       height="4"
       ry="0.0000"
       fill="currentColor"
       id="rect952" />
  </g>
  <g
     transform="translate(79.591568,27.779)"
     id="g958">
    <rect
       x="0"
       y="-2"
       width="0.19"
       height="4"
       ry="0.0000"
       fill="currentColor"
       id="rect956" />
  </g>
  <g
     transform="translate(31.758968,27.779)"
     id="g962">
    <rect
       x="0"
       y="-2"
       width="0.19"
       height="4"
       ry="0.0000"
       fill="currentColor"
       id="rect960" />
  </g>
  <g
     transform="translate(93.917968,27.779)"
     id="g966">
    <rect
       x="0"
       y="-2"
       width="0.19"
       height="4"
       ry="0.0000"
       fill="currentColor"
       id="rect964" />
  </g>
  <g
     transform="translate(101.88347,27.779)"
     id="g970">
    <rect
       x="0"
       y="-2"
       width="0.60000002"
       height="4"
       ry="0.0000"
       fill="currentColor"
       id="rect968" />
  </g>
  <g
     transform="translate(101.39347,27.779)"
     id="g974">
    <rect
       x="0"
       y="-2"
       width="0.19"
       height="4"
       ry="0.0000"
       fill="currentColor"
       id="rect972" />
  </g>
  <g
     transform="translate(63.650568,27.779)"
     id="g978">
    <rect
       x="0"
       y="-2"
       width="0.19"
       height="4"
       ry="0.0000"
       fill="currentColor"
       id="rect976" />
  </g>
  <g
     transform="translate(47.837868,27.779)"
     id="g982">
    <rect
       x="0"
       y="-2"
       width="0.19"
       height="4"
       ry="0.0000"
       fill="currentColor"
       id="rect980" />
  </g>
  <g
     transform="translate(2.5153677,29.779)"
     id="g986">
    <line
       stroke-linejoin="round"
       stroke-linecap="round"
       stroke-width="0.1"
       stroke="currentColor"
       x1="0.050000001"
       y1="0"
       x2="99.918198"
       y2="0"
       id="line984" />
  </g>
  <g
     transform="translate(2.5153677,28.779)"
     id="g990">
    <line
       stroke-linejoin="round"
       stroke-linecap="round"
       stroke-width="0.1"
       stroke="currentColor"
       x1="0.050000001"
       y1="0"
       x2="99.918198"
       y2="0"
       id="line988" />
  </g>
  <g
     transform="translate(2.5153677,27.779)"
     id="g994">
    <line
       stroke-linejoin="round"
       stroke-linecap="round"
       stroke-width="0.1"
       stroke="currentColor"
       x1="0.050000001"
       y1="0"
       x2="99.918198"
       y2="0"
       id="line992" />
  </g>
  <g
     transform="translate(2.5153677,26.779)"
     id="g998">
    <line
       stroke-linejoin="round"
       stroke-linecap="round"
       stroke-width="0.1"
       stroke="currentColor"
       x1="0.050000001"
       y1="0"
       x2="99.918198"
       y2="0"
       id="line996" />
  </g>
  <g
     transform="translate(2.5153677,25.779)"
     id="g1002">
    <line
       stroke-linejoin="round"
       stroke-linecap="round"
       stroke-width="0.1"
       stroke="currentColor"
       x1="0.050000001"
       y1="0"
       x2="99.918198"
       y2="0"
       id="line1000" />
  </g>
  <g
     transform="translate(77.762068,27.779)"
     id="g1006">
    <rect
       x="-0.064999998"
       y="-0.31389999"
       width="0.13"
       height="2.5207"
       ry="0.039999999"
       fill="currentColor"
       id="rect1004" />
  </g>
  <g
     transform="translate(77.697068,27.279)"
     id="g1010">
    <path
       transform="scale(0.004,-0.004)"
       d="m 218,136 c 66,0 108,-36 108,-89 0,-89 -113,-183 -218,-183 -66,0 -108,36 -108,89 0,89 113,183 218,183 z"
       fill="currentColor"
       id="path1008" />
  </g>
  <g
     transform="translate(75.491768,27.779)"
     id="g1014">
    <rect
       x="-0.064999998"
       y="0.68610001"
       width="0.13"
       height="2.1071"
       ry="0.039999999"
       fill="currentColor"
       id="rect1012" />
  </g>
  <g
     transform="translate(75.426768,28.279)"
     id="g1018">
    <path
       transform="scale(0.004,-0.004)"
       d="m 218,136 c 66,0 108,-36 108,-89 0,-89 -113,-183 -218,-183 -66,0 -108,36 -108,89 0,89 113,183 218,183 z"
       fill="currentColor"
       id="path1016" />
  </g>
  <g
     transform="translate(72.465968,27.779)"
     id="g1022">
    <rect
       x="-0.064999998"
       y="-0.31389999"
       width="0.13"
       height="3.3139"
       ry="0.039999999"
       fill="currentColor"
       id="rect1020" />
  </g>
  <g
     transform="translate(72.400968,27.279)"
     id="g1026">
    <path
       transform="scale(0.004,-0.004)"
       d="m 218,136 c 66,0 108,-36 108,-89 0,-89 -113,-183 -218,-183 -66,0 -108,36 -108,89 0,89 113,183 218,183 z"
       fill="currentColor"
       id="path1024" />
  </g>
  <g
     transform="translate(83.766468,27.779)"
     id="g1030">
    <rect
       x="-0.064999998"
       y="-0.31389999"
       width="0.13"
       height="2.4986999"
       ry="0.039999999"
       fill="currentColor"
       id="rect1028" />
  </g>
  <g
     transform="translate(83.701468,27.279)"
     id="g1034">
    <path
       transform="scale(0.004,-0.004)"
       d="m 218,136 c 66,0 108,-36 108,-89 0,-89 -113,-183 -218,-183 -66,0 -108,36 -108,89 0,89 113,183 218,183 z"
       fill="currentColor"
       id="path1032" />
  </g>
  <g
     transform="translate(80.740668,27.779)"
     id="g1038">
    <rect
       x="-0.064999998"
       y="-0.81389999"
       width="0.13"
       height="3.3139"
       ry="0.039999999"
       fill="currentColor"
       id="rect1036" />
  </g>
  <g
     transform="translate(80.675668,33.4682)"
     id="g1044">
    <text
       font-family="'Source Sans Pro'"
       font-size="2.6163px"
       text-anchor="start"
       fill="currentColor"
       id="text1042"><tspan
         id="tspan1040">D</tspan></text>
  </g>
  <g
     transform="translate(80.675668,26.779)"
     id="g1048">
    <path
       transform="scale(0.004,-0.004)"
       d="m 218,136 c 66,0 108,-36 108,-89 0,-89 -113,-183 -218,-183 -66,0 -108,36 -108,89 0,89 113,183 218,183 z"
       fill="currentColor"
       id="path1046" />
  </g>
  <g
     transform="translate(64.706068,33.4682)"
     id="g1054">
    <text
       font-family="'Source Sans Pro'"
       font-size="2.6163px"
       text-anchor="start"
       fill="currentColor"
       id="text1052"><tspan
         id="tspan1050">F</tspan></text>
  </g>
  <g
     transform="translate(66.003568,32.8682)"
     id="g1058">
    <path
       transform="scale(0.0042,-0.0042)"
       d="m 216,-312 c 0,-10 -8,-19 -18,-19 -10,0 -19,9 -19,19 v 145 l -83,-31 v -158 c 0,-10 -9,-19 -19,-19 -10,0 -18,9 -18,19 v 145 l -32,-12 c -2,-1 -5,-1 -7,-1 -11,0 -20,9 -20,20 v 60 c 0,8 5,16 13,19 l 46,16 V 51 L 27,40 C 25,39 22,39 20,39 9,39 0,48 0,59 v 60 c 0,8 5,15 13,18 l 46,17 v 158 c 0,10 8,19 18,19 10,0 19,-9 19,-19 V 167 l 83,31 v 158 c 0,10 9,19 19,19 10,0 18,-9 18,-19 V 211 l 32,12 c 2,1 5,1 7,1 11,0 20,-9 20,-20 v -60 c 0,-8 -5,-16 -13,-19 L 216,109 V -51 l 32,11 c 2,1 5,1 7,1 11,0 20,-9 20,-20 v -60 c 0,-8 -5,-15 -13,-18 l -46,-17 z M 96,65 V -95 l 83,30 V 95 Z"
       fill="currentColor"
       id="path1056" />
  </g>
  <g
     transform="translate(64.706068,27.279)"
     id="g1062">
    <path
       transform="scale(0.004,-0.004)"
       d="m 218,136 c 66,0 108,-36 108,-89 0,-89 -113,-183 -218,-183 -66,0 -108,36 -108,89 0,89 113,183 218,183 z"
       fill="currentColor"
       id="path1060" />
  </g>
  <g
     transform="translate(61.821068,27.779)"
     id="g1066">
    <rect
       x="-0.064999998"
       y="-0.31389999"
       width="0.13"
       height="2.5207"
       ry="0.039999999"
       fill="currentColor"
       id="rect1064" />
  </g>
  <g
     transform="translate(61.756068,27.279)"
     id="g1070">
    <path
       transform="scale(0.004,-0.004)"
       d="m 218,136 c 66,0 108,-36 108,-89 0,-89 -113,-183 -218,-183 -66,0 -108,36 -108,89 0,89 113,183 218,183 z"
       fill="currentColor"
       id="path1068" />
  </g>
  <g
     transform="translate(64.771068,27.779)"
     id="g1074">
    <rect
       x="-0.064999998"
       y="-0.31389999"
       width="0.13"
       height="3.3139"
       ry="0.039999999"
       fill="currentColor"
       id="rect1072" />
  </g>
  <g
     transform="translate(59.550768,27.779)"
     id="g1078">
    <rect
       x="-0.064999998"
       y="0.68610001"
       width="0.13"
       height="2.1071"
       ry="0.039999999"
       fill="currentColor"
       id="rect1076" />
  </g>
  <g
     transform="translate(59.485768,28.279)"
     id="g1082">
    <path
       transform="scale(0.004,-0.004)"
       d="m 218,136 c 66,0 108,-36 108,-89 0,-89 -113,-183 -218,-183 -66,0 -108,36 -108,89 0,89 113,183 218,183 z"
       fill="currentColor"
       id="path1080" />
  </g>
  <g
     transform="translate(56.524968,27.779)"
     id="g1086">
    <rect
       x="-0.064999998"
       y="-0.31389999"
       width="0.13"
       height="3.3139"
       ry="0.039999999"
       fill="currentColor"
       id="rect1084" />
  </g>
  <g
     transform="translate(56.459968,27.279)"
     id="g1090">
    <path
       transform="scale(0.004,-0.004)"
       d="m 218,136 c 66,0 108,-36 108,-89 0,-89 -113,-183 -218,-183 -66,0 -108,36 -108,89 0,89 113,183 218,183 z"
       fill="currentColor"
       id="path1088" />
  </g>
  <g
     transform="translate(70.130668,27.279)"
     id="g1094">
    <path
       transform="scale(0.004,-0.004)"
       d="m 218,136 c 66,0 108,-36 108,-89 0,-89 -113,-183 -218,-183 -66,0 -108,36 -108,89 0,89 113,183 218,183 z"
       fill="currentColor"
       id="path1092" />
  </g>
  <g
     transform="translate(66.410268,28.279)"
     id="g1098">
    <path
       transform="scale(0.004,-0.004)"
       d="m 216,-312 c 0,-10 -8,-19 -18,-19 -10,0 -19,9 -19,19 v 145 l -83,-31 v -158 c 0,-10 -9,-19 -19,-19 -10,0 -18,9 -18,19 v 145 l -32,-12 c -2,-1 -5,-1 -7,-1 -11,0 -20,9 -20,20 v 60 c 0,8 5,16 13,19 l 46,16 V 51 L 27,40 C 25,39 22,39 20,39 9,39 0,48 0,59 v 60 c 0,8 5,15 13,18 l 46,17 v 158 c 0,10 8,19 18,19 10,0 19,-9 19,-19 V 167 l 83,31 v 158 c 0,10 9,19 19,19 10,0 18,-9 18,-19 V 211 l 32,12 c 2,1 5,1 7,1 11,0 20,-9 20,-20 v -60 c 0,-8 -5,-16 -13,-19 L 216,109 V -51 l 32,11 c 2,1 5,1 7,1 11,0 20,-9 20,-20 v -60 c 0,-8 -5,-15 -13,-18 l -46,-17 z M 96,65 V -95 l 83,30 V 95 Z"
       fill="currentColor"
       id="path1096" />
  </g>
  <g
     transform="translate(67.925268,27.779)"
     id="g1102">
    <rect
       x="-0.064999998"
       y="0.68610001"
       width="0.13"
       height="2.1071"
       ry="0.039999999"
       fill="currentColor"
       id="rect1100" />
  </g>
  <g
     transform="translate(67.860268,28.279)"
     id="g1106">
    <path
       transform="scale(0.004,-0.004)"
       d="m 218,136 c 66,0 108,-36 108,-89 0,-89 -113,-183 -218,-183 -66,0 -108,36 -108,89 0,89 113,183 218,183 z"
       fill="currentColor"
       id="path1104" />
  </g>
  <g
     transform="translate(70.195668,27.779)"
     id="g1110">
    <rect
       x="-0.064999998"
       y="-0.31389999"
       width="0.13"
       height="2.5207"
       ry="0.039999999"
       fill="currentColor"
       id="rect1108" />
  </g>
  <g
     transform="translate(75.426768,30.589)"
     id="g1114">
    <polygon
       stroke-linejoin="round"
       stroke-linecap="round"
       stroke-width="0.08"
       fill="currentColor"
       stroke="currentColor"
       points="0.04,0.2 0.04,-0.2 2.3603,-0.82 2.3603,-0.42 "
       id="polygon1112" />
  </g>
  <g
     transform="translate(59.485768,30.589)"
     id="g1118">
    <polygon
       stroke-linejoin="round"
       stroke-linecap="round"
       stroke-width="0.08"
       fill="currentColor"
       stroke="currentColor"
       points="0.04,0.2 0.04,-0.2 2.3603,-0.82 2.3603,-0.42 "
       id="polygon1116" />
  </g>
  <g
     transform="translate(67.860268,30.589)"
     id="g1122">
    <polygon
       stroke-linejoin="round"
       stroke-linecap="round"
       stroke-width="0.08"
       fill="currentColor"
       stroke="currentColor"
       points="0.04,0.2 0.04,-0.2 2.3603,-0.82 2.3603,-0.42 "
       id="polygon1120" />
  </g>
  <g
     transform="translate(51.919268,30.589)"
     id="g1126">
    <polygon
       stroke-linejoin="round"
       stroke-linecap="round"
       stroke-width="0.08"
       fill="currentColor"
       stroke="currentColor"
       points="0.04,0.2 0.04,-0.2 2.3603,-0.82 2.3603,-0.42 "
       id="polygon1124" />
  </g>
  <g
     transform="translate(83.701468,29.969)"
     id="g1130">
    <polygon
       stroke-linejoin="round"
       stroke-linecap="round"
       stroke-width="0.08"
       fill="currentColor"
       stroke="currentColor"
       points="0.04,0.2 0.04,-0.2 2.3603,-0.39 2.3603,0.01 "
       id="polygon1128" />
  </g>
  <g
     transform="translate(11.515368,29.779)"
     id="g1134">
    <polygon
       stroke-linejoin="round"
       stroke-linecap="round"
       stroke-width="0.08"
       fill="currentColor"
       stroke="currentColor"
       points="0.04,0.2 0.04,-0.2 2.3603,-0.01 2.3603,0.39 "
       id="polygon1132" />
  </g>
  <g
     transform="translate(20.907168,25.589)"
     id="g1138">
    <polygon
       stroke-linejoin="round"
       stroke-linecap="round"
       stroke-width="0.08"
       fill="currentColor"
       stroke="currentColor"
       points="0.04,0.2 0.04,-0.2 2.3603,-1.01 2.3603,-0.61 "
       id="polygon1136" />
  </g>
  <g
     transform="translate(28.473568,25.589)"
     id="g1142">
    <polygon
       stroke-linejoin="round"
       stroke-linecap="round"
       stroke-width="0.08"
       fill="currentColor"
       stroke="currentColor"
       points="0.04,0.2 0.04,-0.2 2.3603,-1.01 2.3603,-0.61 "
       id="polygon1140" />
  </g>
  <g
     transform="translate(36.986068,25.589)"
     id="g1146">
    <polygon
       stroke-linejoin="round"
       stroke-linecap="round"
       stroke-width="0.08"
       fill="currentColor"
       stroke="currentColor"
       points="0.04,0.2 0.04,-0.2 2.3603,-0.82 2.3603,-0.42 "
       id="polygon1144" />
  </g>
  <g
     transform="translate(44.552468,25.589)"
     id="g1150">
    <polygon
       stroke-linejoin="round"
       stroke-linecap="round"
       stroke-width="0.08"
       fill="currentColor"
       stroke="currentColor"
       points="0.04,0.2 0.04,-0.2 2.3603,-0.82 2.3603,-0.42 "
       id="polygon1148" />
  </g>
  <g
     transform="translate(95.062868,27.779)"
     id="g1154">
    <rect
       x="-0.064999998"
       y="-0.741"
       width="0.13"
       height="3.2409999"
       ry="0.039999999"
       fill="currentColor"
       id="rect1152" />
  </g>
  <g
     transform="translate(94.997868,33.4682)"
     id="g1160">
    <text
       font-family="'Source Sans Pro'"
       font-size="2.6163px"
       text-anchor="start"
       fill="currentColor"
       id="text1158"><tspan
         id="tspan1156">D</tspan></text>
  </g>
  <g
     transform="translate(94.997868,26.779)"
     id="g1164">
    <path
       transform="scale(0.004,-0.004)"
       d="m 314,65 c 0,23 -19,41 -42,41 C 233,106 68,-4 41,-37 34,-45 31,-55 31,-65 c 0,-23 19,-41 42,-41 39,0 203,110 230,143 7,8 11,18 11,28 z m -52,71 c 41,0 82,-14 82,-71 0,-26 -16,-112 -74,-151 -25,-17 -87,-50 -187,-50 -41,0 -83,14 -83,71 0,26 16,112 74,151 25,17 88,50 188,50 z"
       fill="currentColor"
       id="path1162" />
  </g>
  <g
     transform="translate(91.332968,27.779)"
     id="g1168">
    <rect
       x="-0.064999998"
       y="-0.31389999"
       width="0.13"
       height="3.3139"
       ry="0.039999999"
       fill="currentColor"
       id="rect1166" />
  </g>
  <g
     transform="translate(91.267968,27.279)"
     id="g1172">
    <path
       transform="scale(0.004,-0.004)"
       d="m 218,136 c 66,0 108,-36 108,-89 0,-89 -113,-183 -218,-183 -66,0 -108,36 -108,89 0,89 113,183 218,183 z"
       fill="currentColor"
       id="path1170" />
  </g>
  <g
     transform="translate(88.307168,27.779)"
     id="g1176">
    <rect
       x="-0.064999998"
       y="-1.3139"
       width="0.13"
       height="3.3139"
       ry="0.039999999"
       fill="currentColor"
       id="rect1174" />
  </g>
  <g
     transform="translate(88.242168,33.4682)"
     id="g1182">
    <text
       font-family="'Source Sans Pro'"
       font-size="2.6163px"
       text-anchor="start"
       fill="currentColor"
       id="text1180"><tspan
         id="tspan1178">A</tspan></text>
  </g>
  <g
     transform="translate(89.676168,32.279)"
     id="g1188">
    <text
       font-family="'Source Sans Pro'"
       font-size="1.85px"
       text-anchor="start"
       fill="currentColor"
       id="text1186"><tspan
         id="tspan1184">7</tspan></text>
  </g>
  <g
     transform="translate(88.242168,26.279)"
     id="g1192">
    <path
       transform="scale(0.004,-0.004)"
       d="m 218,136 c 66,0 108,-36 108,-89 0,-89 -113,-183 -218,-183 -66,0 -108,36 -108,89 0,89 113,183 218,183 z"
       fill="currentColor"
       id="path1190" />
  </g>
  <g
     transform="translate(86.036868,27.779)"
     id="g1196">
    <rect
       x="-0.064999998"
       y="-0.81389999"
       width="0.13"
       height="2.819"
       ry="0.039999999"
       fill="currentColor"
       id="rect1194" />
  </g>
  <g
     transform="translate(85.971868,26.779)"
     id="g1200">
    <path
       transform="scale(0.004,-0.004)"
       d="m 218,136 c 66,0 108,-36 108,-89 0,-89 -113,-183 -218,-183 -66,0 -108,36 -108,89 0,89 113,183 218,183 z"
       fill="currentColor"
       id="path1198" />
  </g>
  <g
     transform="translate(98.844268,27.779)"
     id="g1204">
    <rect
       x="-0.064999998"
       y="-0.81389999"
       width="0.13"
       height="3.3139"
       ry="0.039999999"
       fill="currentColor"
       id="rect1202" />
  </g>
  <g
     transform="translate(98.779268,26.779)"
     id="g1208">
    <path
       transform="scale(0.004,-0.004)"
       d="m 218,136 c 66,0 108,-36 108,-89 0,-89 -113,-183 -218,-183 -66,0 -108,36 -108,89 0,89 113,183 218,183 z"
       fill="currentColor"
       id="path1206" />
  </g>
  <g
     transform="translate(28.538568,27.779)"
     id="g1212">
    <rect
       x="-0.064999998"
       y="-2.2119"
       width="0.13"
       height="3.5258"
       ry="0.039999999"
       fill="currentColor"
       id="rect1210" />
  </g>
  <g
     transform="translate(27.299368,29.279)"
     id="g1216">
    <path
       transform="scale(0.004,-0.004)"
       d="m 218,136 c 66,0 108,-36 108,-89 0,-89 -113,-183 -218,-183 -66,0 -108,36 -108,89 0,89 113,183 218,183 z"
       fill="currentColor"
       id="path1214" />
  </g>
  <g
     transform="translate(24.338568,27.779)"
     id="g1220">
    <rect
       x="-0.064999998"
       y="0.18610001"
       width="0.13"
       height="3.1472001"
       ry="0.039999999"
       fill="currentColor"
       id="rect1218" />
  </g>
  <g
     transform="translate(24.273568,27.779)"
     id="g1224">
    <path
       transform="scale(0.004,-0.004)"
       d="m 218,136 c 66,0 108,-36 108,-89 0,-89 -113,-183 -218,-183 -66,0 -108,36 -108,89 0,89 113,183 218,183 z"
       fill="currentColor"
       id="path1222" />
  </g>
  <g
     transform="translate(23.242468,27.779)"
     id="g1228">
    <rect
       x="-0.064999998"
       y="-2.9781001"
       width="0.13"
       height="2.7920001"
       ry="0.039999999"
       fill="currentColor"
       id="rect1226" />
  </g>
  <g
     transform="translate(22.003268,27.779)"
     id="g1232">
    <path
       transform="scale(0.004,-0.004)"
       d="m 218,136 c 66,0 108,-36 108,-89 0,-89 -113,-183 -218,-183 -66,0 -108,36 -108,89 0,89 113,183 218,183 z"
       fill="currentColor"
       id="path1230" />
  </g>
  <g
     transform="translate(20.972168,27.779)"
     id="g1236">
    <rect
       x="-0.064999998"
       y="-2.2119"
       width="0.13"
       height="3.5258"
       ry="0.039999999"
       fill="currentColor"
       id="rect1234" />
  </g>
  <g
     transform="translate(19.732968,29.279)"
     id="g1240">
    <path
       transform="scale(0.004,-0.004)"
       d="m 218,136 c 66,0 108,-36 108,-89 0,-89 -113,-183 -218,-183 -66,0 -108,36 -108,89 0,89 113,183 218,183 z"
       fill="currentColor"
       id="path1238" />
  </g>
  <g
     transform="translate(32.850968,27.779)"
     id="g1244">
    <rect
       x="-0.064999998"
       y="0.18610001"
       width="0.13"
       height="3.1472001"
       ry="0.039999999"
       fill="currentColor"
       id="rect1242" />
  </g>
  <g
     transform="translate(32.785968,27.779)"
     id="g1248">
    <path
       transform="scale(0.004,-0.004)"
       d="m 218,136 c 66,0 108,-36 108,-89 0,-89 -113,-183 -218,-183 -66,0 -108,36 -108,89 0,89 113,183 218,183 z"
       fill="currentColor"
       id="path1246" />
  </g>
  <g
     transform="translate(30.808968,27.779)"
     id="g1252">
    <rect
       x="-0.064999998"
       y="-2.9781001"
       width="0.13"
       height="2.7920001"
       ry="0.039999999"
       fill="currentColor"
       id="rect1250" />
  </g>
  <g
     transform="translate(29.569668,27.779)"
     id="g1256">
    <path
       transform="scale(0.004,-0.004)"
       d="m 218,136 c 66,0 108,-36 108,-89 0,-89 -113,-183 -218,-183 -66,0 -108,36 -108,89 0,89 113,183 218,183 z"
       fill="currentColor"
       id="path1254" />
  </g>
  <g
     transform="translate(6.8153677,25.779)"
     id="g1260">
    <path
       transform="scale(0.004,-0.004)"
       d="m 216,-312 c 0,-10 -8,-19 -18,-19 -10,0 -19,9 -19,19 v 145 l -83,-31 v -158 c 0,-10 -9,-19 -19,-19 -10,0 -18,9 -18,19 v 145 l -32,-12 c -2,-1 -5,-1 -7,-1 -11,0 -20,9 -20,20 v 60 c 0,8 5,16 13,19 l 46,16 V 51 L 27,40 C 25,39 22,39 20,39 9,39 0,48 0,59 v 60 c 0,8 5,15 13,18 l 46,17 v 158 c 0,10 8,19 18,19 10,0 19,-9 19,-19 V 167 l 83,31 v 158 c 0,10 9,19 19,19 10,0 18,-9 18,-19 V 211 l 32,12 c 2,1 5,1 7,1 11,0 20,-9 20,-20 v -60 c 0,-8 -5,-16 -13,-19 L 216,109 V -51 l 32,11 c 2,1 5,1 7,1 11,0 20,-9 20,-20 v -60 c 0,-8 -5,-15 -13,-18 l -46,-17 z M 96,65 V -95 l 83,30 V 95 Z"
       fill="currentColor"
       id="path1258" />
  </g>
  <g
     transform="translate(7.9153677,27.279)"
     id="g1264">
    <path
       transform="scale(0.004,-0.004)"
       d="m 216,-312 c 0,-10 -8,-19 -18,-19 -10,0 -19,9 -19,19 v 145 l -83,-31 v -158 c 0,-10 -9,-19 -19,-19 -10,0 -18,9 -18,19 v 145 l -32,-12 c -2,-1 -5,-1 -7,-1 -11,0 -20,9 -20,20 v 60 c 0,8 5,16 13,19 l 46,16 V 51 L 27,40 C 25,39 22,39 20,39 9,39 0,48 0,59 v 60 c 0,8 5,15 13,18 l 46,17 v 158 c 0,10 8,19 18,19 10,0 19,-9 19,-19 V 167 l 83,31 v 158 c 0,10 9,19 19,19 10,0 18,-9 18,-19 V 211 l 32,12 c 2,1 5,1 7,1 11,0 20,-9 20,-20 v -60 c 0,-8 -5,-16 -13,-19 L 216,109 V -51 l 32,11 c 2,1 5,1 7,1 11,0 20,-9 20,-20 v -60 c 0,-8 -5,-15 -13,-18 l -46,-17 z M 96,65 V -95 l 83,30 V 95 Z"
       fill="currentColor"
       id="path1262" />
  </g>
  <g
     transform="translate(11.580368,27.779)"
     id="g1268">
    <rect
       x="-0.064999998"
       y="-0.81389999"
       width="0.13"
       height="2.819"
       ry="0.039999999"
       fill="currentColor"
       id="rect1266" />
  </g>
  <g
     transform="translate(11.515368,33.4682)"
     id="g1274">
    <text
       font-family="'Source Sans Pro'"
       font-size="2.6163px"
       text-anchor="start"
       fill="currentColor"
       id="text1272"><tspan
         id="tspan1270">F</tspan></text>
  </g>
  <g
     transform="translate(12.812768,32.8682)"
     id="g1278">
    <path
       transform="scale(0.0042,-0.0042)"
       d="m 216,-312 c 0,-10 -8,-19 -18,-19 -10,0 -19,9 -19,19 v 145 l -83,-31 v -158 c 0,-10 -9,-19 -19,-19 -10,0 -18,9 -18,19 v 145 l -32,-12 c -2,-1 -5,-1 -7,-1 -11,0 -20,9 -20,20 v 60 c 0,8 5,16 13,19 l 46,16 V 51 L 27,40 C 25,39 22,39 20,39 9,39 0,48 0,59 v 60 c 0,8 5,15 13,18 l 46,17 v 158 c 0,10 8,19 18,19 10,0 19,-9 19,-19 V 167 l 83,31 v 158 c 0,10 9,19 19,19 10,0 18,-9 18,-19 V 211 l 32,12 c 2,1 5,1 7,1 11,0 20,-9 20,-20 v -60 c 0,-8 -5,-16 -13,-19 L 216,109 V -51 l 32,11 c 2,1 5,1 7,1 11,0 20,-9 20,-20 v -60 c 0,-8 -5,-15 -13,-18 l -46,-17 z M 96,65 V -95 l 83,30 V 95 Z"
       fill="currentColor"
       id="path1276" />
  </g>
  <g
     transform="translate(13.978168,32.279)"
     id="g1284">
    <text
       font-family="'Source Sans Pro'"
       font-size="1.85px"
       text-anchor="start"
       fill="currentColor"
       id="text1282"><tspan
         id="tspan1280">7</tspan></text>
  </g>
  <g
     transform="translate(11.515368,26.779)"
     id="g1288">
    <path
       transform="scale(0.004,-0.004)"
       d="m 218,136 c 66,0 108,-36 108,-89 0,-89 -113,-183 -218,-183 -66,0 -108,36 -108,89 0,89 113,183 218,183 z"
       fill="currentColor"
       id="path1286" />
  </g>
  <g
     transform="translate(3.3153677,28.779)"
     id="g1292">
    <path
       transform="scale(0.004,-0.004)"
       d="m 266,-635 h -6 c -108,0 -195,88 -195,197 0,58 53,103 112,103 54,0 95,-47 95,-103 0,-52 -43,-95 -95,-95 -11,0 -21,2 -31,6 26,-39 68,-65 117,-65 h 4 z m 195,432 c 68,24 113,90 113,164 0,90 -66,179 -173,190 19,-89 48,-242 60,-354 z M 74,28 c 0,-145 141,-247 264,-247 1,0 47,0 82,6 -7,64 -29,203 -63,364 -79,-8 -124,-61 -124,-119 0,-44 25,-91 81,-123 5,-5 7,-10 7,-15 0,-11 -10,-22 -22,-22 -15,0 -126,62 -126,187 0,88 58,174 160,197 -14,58 -29,117 -46,175 C 180,310 74,188 74,28 Z m 176,525 c -29,96 -52,170 -52,346 0,115 55,224 149,292 6,5 14,5 20,0 68,-80 133,-245 133,-358 0,-143 -86,-255 -180,-364 21,-68 39,-138 56,-207 2,0 7,1 13,1 155,0 256,-128 256,-261 0,-113 -74,-212 -180,-246 3,-35 5,-70 5,-105 0,-19 -1,-39 -2,-58 -7,-119 -88,-225 -202,-228 l 1,43 c 93,2 153,92 159,191 1,18 2,37 2,55 0,31 -1,61 -4,92 -5,-1 -44,-8 -89,-8 C 142,-262 2,-82 2,112 2,289 133,418 250,553 Z m 178,363 c 0,34 1,66 -20,129 -99,-48 -162,-149 -162,-259 0,-52 12,-115 36,-194 80,97 146,198 146,324 z"
       fill="currentColor"
       id="path1290" />
  </g>
  <g
     transform="translate(-0.19183227,28.336)"
     id="g1298">
    <text
       font-family="'Source Sans Pro'"
       font-size="1.7461px"
       text-anchor="start"
       fill="currentColor"
       id="text1296"><tspan
         id="tspan1294">19</tspan></text>
  </g>
  <g
     transform="translate(32.785968,33.4682)"
     id="g1304">
    <text
       font-family="'Source Sans Pro'"
       font-size="2.6163px"
       text-anchor="start"
       fill="currentColor"
       id="text1302"><tspan
         id="tspan1300">G</tspan></text>
  </g>
  <g
     transform="translate(16.772068,27.779)"
     id="g1308">
    <rect
       x="-0.064999998"
       y="0.18610001"
       width="0.13"
       height="3.1472001"
       ry="0.039999999"
       fill="currentColor"
       id="rect1306" />
  </g>
  <g
     transform="translate(16.707068,33.4682)"
     id="g1314">
    <text
       font-family="'Source Sans Pro'"
       font-size="2.6163px"
       text-anchor="start"
       fill="currentColor"
       id="text1312"><tspan
         id="tspan1310">B</tspan></text>
  </g>
  <g
     transform="translate(18.243568,33.4682)"
     id="g1320">
    <text
       font-family="'Source Sans Pro'"
       font-size="2.6163px"
       text-anchor="start"
       fill="currentColor"
       id="text1318"><tspan
         id="tspan1316">m</tspan></text>
  </g>
  <g
     transform="translate(16.707068,27.779)"
     id="g1324">
    <path
       transform="scale(0.004,-0.004)"
       d="m 218,136 c 66,0 108,-36 108,-89 0,-89 -113,-183 -218,-183 -66,0 -108,36 -108,89 0,89 113,183 218,183 z"
       fill="currentColor"
       id="path1322" />
  </g>
  <g
     transform="translate(13.850668,27.779)"
     id="g1328">
    <rect
       x="-0.064999998"
       y="-0.31389999"
       width="0.13"
       height="2.4986999"
       ry="0.039999999"
       fill="currentColor"
       id="rect1326" />
  </g>
  <g
     transform="translate(13.785668,27.279)"
     id="g1332">
    <path
       transform="scale(0.004,-0.004)"
       d="m 218,136 c 66,0 108,-36 108,-89 0,-89 -113,-183 -218,-183 -66,0 -108,36 -108,89 0,89 113,183 218,183 z"
       fill="currentColor"
       id="path1330" />
  </g>
  <g
     transform="translate(46.887868,27.779)"
     id="g1336">
    <rect
       x="-0.064999998"
       y="-2.7932"
       width="0.13"
       height="2.6071"
       ry="0.039999999"
       fill="currentColor"
       id="rect1334" />
  </g>
  <g
     transform="translate(48.958468,27.779)"
     id="g1340">
    <rect
       x="-0.064999998"
       y="-0.31389999"
       width="0.13"
       height="3.3139"
       ry="0.039999999"
       fill="currentColor"
       id="rect1338" />
  </g>
  <g
     transform="translate(48.893468,33.4682)"
     id="g1346">
    <text
       font-family="'Source Sans Pro'"
       font-size="2.6163px"
       text-anchor="start"
       fill="currentColor"
       id="text1344"><tspan
         id="tspan1342">A</tspan></text>
  </g>
  <g
     transform="translate(48.893468,27.279)"
     id="g1350">
    <path
       transform="scale(0.004,-0.004)"
       d="m 218,136 c 66,0 108,-36 108,-89 0,-89 -113,-183 -218,-183 -66,0 -108,36 -108,89 0,89 113,183 218,183 z"
       fill="currentColor"
       id="path1348" />
  </g>
  <g
     transform="translate(45.648668,27.779)"
     id="g1354">
    <path
       transform="scale(0.004,-0.004)"
       d="m 218,136 c 66,0 108,-36 108,-89 0,-89 -113,-183 -218,-183 -66,0 -108,36 -108,89 0,89 113,183 218,183 z"
       fill="currentColor"
       id="path1352" />
  </g>
  <g
     transform="translate(44.617468,27.779)"
     id="g1358">
    <rect
       x="-0.064999998"
       y="-2.2068"
       width="0.13"
       height="3.0207"
       ry="0.039999999"
       fill="currentColor"
       id="rect1356" />
  </g>
  <g
     transform="translate(43.378268,28.779)"
     id="g1362">
    <path
       transform="scale(0.004,-0.004)"
       d="m 218,136 c 66,0 108,-36 108,-89 0,-89 -113,-183 -218,-183 -66,0 -108,36 -108,89 0,89 113,183 218,183 z"
       fill="currentColor"
       id="path1360" />
  </g>
  <g
     transform="translate(54.254568,27.779)"
     id="g1366">
    <rect
       x="-0.064999998"
       y="-0.31389999"
       width="0.13"
       height="2.5207"
       ry="0.039999999"
       fill="currentColor"
       id="rect1364" />
  </g>
  <g
     transform="translate(54.189568,27.279)"
     id="g1370">
    <path
       transform="scale(0.004,-0.004)"
       d="m 218,136 c 66,0 108,-36 108,-89 0,-89 -113,-183 -218,-183 -66,0 -108,36 -108,89 0,89 113,183 218,183 z"
       fill="currentColor"
       id="path1368" />
  </g>
  <g
     transform="translate(51.984268,27.779)"
     id="g1374">
    <rect
       x="-0.064999998"
       y="0.68610001"
       width="0.13"
       height="2.1071"
       ry="0.039999999"
       fill="currentColor"
       id="rect1372" />
  </g>
  <g
     transform="translate(51.919268,28.279)"
     id="g1378">
    <path
       transform="scale(0.004,-0.004)"
       d="m 218,136 c 66,0 108,-36 108,-89 0,-89 -113,-183 -218,-183 -66,0 -108,36 -108,89 0,89 113,183 218,183 z"
       fill="currentColor"
       id="path1376" />
  </g>
  <g
     transform="translate(39.321368,27.779)"
     id="g1382">
    <rect
       x="-0.064999998"
       y="-2.7932"
       width="0.13"
       height="2.6071"
       ry="0.039999999"
       fill="currentColor"
       id="rect1380" />
  </g>
  <g
     transform="translate(38.082168,27.779)"
     id="g1386">
    <path
       transform="scale(0.004,-0.004)"
       d="m 218,136 c 66,0 108,-36 108,-89 0,-89 -113,-183 -218,-183 -66,0 -108,36 -108,89 0,89 113,183 218,183 z"
       fill="currentColor"
       id="path1384" />
  </g>
  <g
     transform="translate(40.352468,27.779)"
     id="g1390">
    <path
       transform="scale(0.004,-0.004)"
       d="m 218,136 c 66,0 108,-36 108,-89 0,-89 -113,-183 -218,-183 -66,0 -108,36 -108,89 0,89 113,183 218,183 z"
       fill="currentColor"
       id="path1388" />
  </g>
  <g
     transform="translate(40.417468,27.779)"
     id="g1394">
    <rect
       x="-0.064999998"
       y="0.18610001"
       width="0.13"
       height="3.1472001"
       ry="0.039999999"
       fill="currentColor"
       id="rect1392" />
  </g>
  <g
     transform="translate(35.811868,28.779)"
     id="g1398">
    <path
       transform="scale(0.004,-0.004)"
       d="m 218,136 c 66,0 108,-36 108,-89 0,-89 -113,-183 -218,-183 -66,0 -108,36 -108,89 0,89 113,183 218,183 z"
       fill="currentColor"
       id="path1396" />
  </g>
  <g
     transform="translate(37.051068,27.779)"
     id="g1402">
    <rect
       x="-0.064999998"
       y="-2.2068"
       width="0.13"
       height="3.0207"
       ry="0.039999999"
       fill="currentColor"
       id="rect1400" />
  </g>
</svg>
