<svg xmlns="http://www.w3.org/2000/svg" xmlns:xlink="http://www.w3.org/1999/xlink" version="1.2" width="210.00mm" height="89.57mm" viewBox="0 0 119.5016 50.9727">
<style type="text/css">
<![CDATA[
tspan { white-space: pre; }
]]>
</style>
<!-- Page: 1/1 -->
<g transform="translate(5.6906, 5.7790)">
<line stroke-linejoin="round" stroke-linecap="round" stroke-width="0.1000" stroke="currentColor" x1="0.0500" y1="0" x2="113.7610" y2="0"/>
</g>
<g transform="translate(5.6906, 4.7790)">
<line stroke-linejoin="round" stroke-linecap="round" stroke-width="0.1000" stroke="currentColor" x1="0.0500" y1="0" x2="113.7610" y2="0"/>
</g>
<g transform="translate(5.6906, 3.7790)">
<line stroke-linejoin="round" stroke-linecap="round" stroke-width="0.1000" stroke="currentColor" x1="0.0500" y1="0" x2="113.7610" y2="0"/>
</g>
<g transform="translate(5.6906, 2.7790)">
<line stroke-linejoin="round" stroke-linecap="round" stroke-width="0.1000" stroke="currentColor" x1="0.0500" y1="0" x2="113.7610" y2="0"/>
</g>
<g transform="translate(5.6906, 1.7790)">
<line stroke-linejoin="round" stroke-linecap="round" stroke-width="0.1000" stroke="currentColor" x1="0.0500" y1="0" x2="113.7610" y2="0"/>
</g>
<g transform="translate(20.1822, 3.2790)">
<path transform="scale(0.0040, -0.0040)" d="M0 0c0 31 25 56 56 56s56 -25 56 -56s-25 -56 -56 -56s-56 25 -56 56z" fill="currentColor"/>
</g>
<g transform="translate(20.1822, 4.2790)">
<path transform="scale(0.0040, -0.0040)" d="M0 0c0 31 25 56 56 56s56 -25 56 -56s-25 -56 -56 -56s-56 25 -56 56z" fill="currentColor"/>
</g>
<g transform="translate(19.6922, 3.7790)">
<rect x="0.0000" y="-2.0000" width="0.1900" height="4.0000" ry="0.0000" fill="currentColor"/>
</g>
<g transform="translate(18.7922, 3.7790)">
<rect x="0.0000" y="-2.0000" width="0.6000" height="4.0000" ry="0.0000" fill="currentColor"/>
</g>
<g transform="translate(18.7922, 1.7790)">
<path transform="scale(0.0040, -0.0040)" d="M0 -56v87c0 14 11 25 25 25h50c159 0 271 136 362 270c12 17 38 -1 26 -18c-99 -144 -215 -364 -388 -364h-75z" fill="currentColor"/>
</g>
<g transform="translate(18.7922, 5.7790)">
<path transform="scale(0.0040, -0.0040)" d="M0 56h75c173 0 289 -220 388 -364c12 -17 -14 -35 -26 -18c-91 134 -203 270 -362 270h-50c-14 0 -25 11 -25 25v87z" fill="currentColor"/>
</g>
<g transform="translate(119.3116, 3.7790)">
<rect x="0.0000" y="-2.0000" width="0.1900" height="4.0000" ry="0.0000" fill="currentColor"/>
</g>
<g transform="translate(45.1595, 3.7790)">
<rect x="0.0000" y="-2.0000" width="0.1900" height="4.0000" ry="0.0000" fill="currentColor"/>
</g>
<g transform="translate(94.6657, 3.7790)">
<rect x="0.0000" y="-2.0000" width="0.1900" height="4.0000" ry="0.0000" fill="currentColor"/>
</g>
<g transform="translate(69.9126, 3.7790)">
<rect x="0.0000" y="-2.0000" width="0.1900" height="4.0000" ry="0.0000" fill="currentColor"/>
</g>
<g transform="translate(92.4047, 3.7790)">
<rect x="-0.0650" y="-2.0000" width="0.1300" height="3.3139" ry="0.0400" fill="currentColor"/>
</g>
<g transform="translate(91.1655, 5.2790)">
<path transform="scale(0.0040, -0.0040)" d="M218 136c66 0 108 -36 108 -89c0 -89 -113 -183 -218 -183c-66 0 -108 36 -108 89c0 89 113 183 218 183z" fill="currentColor"/>
</g>
<g transform="translate(88.4291, 3.7790)">
<rect x="-0.0650" y="-2.0000" width="0.1300" height="2.3139" ry="0.0400" fill="currentColor"/>
</g>
<g transform="translate(87.1898, 4.2790)">
<path transform="scale(0.0040, -0.0040)" d="M218 136c66 0 108 -36 108 -89c0 -89 -113 -183 -218 -183c-66 0 -108 36 -108 89c0 89 113 183 218 183z" fill="currentColor"/>
</g>
<g transform="translate(97.2796, 3.7790)">
<rect x="-0.0650" y="-1.8131" width="0.1300" height="3.6270" ry="0.0400" fill="currentColor"/>
</g>
<g transform="translate(96.0404, 9.6370)">
<text font-family="Source Sans Pro" font-size="2.6163" text-anchor="start" fill="currentColor">
<tspan>C</tspan>
</text>
</g>
<g transform="translate(97.5427, 8.4478)">
<text font-family="Source Sans Pro" font-size="1.8500" text-anchor="start" fill="currentColor">
<tspan>7</tspan>
</text>
</g>
<g transform="translate(96.0404, 5.7790)">
<path transform="scale(0.0040, -0.0040)" d="M218 136c66 0 108 -36 108 -89c0 -89 -113 -183 -218 -183c-66 0 -108 36 -108 89c0 89 113 183 218 183z" fill="currentColor"/>
</g>
<g transform="translate(72.5265, 3.7790)">
<rect x="-0.0650" y="-1.1950" width="0.1300" height="3.5089" ry="0.0400" fill="currentColor"/>
</g>
<g transform="translate(71.2873, 9.6370)">
<text font-family="Source Sans Pro" font-size="2.6163" text-anchor="start" fill="currentColor">
<tspan>B</tspan>
</text>
</g>
<g transform="translate(73.0456, 9.3370)">
<path transform="scale(0.0042, -0.0042)" d="M27 41l-1 -66v-11c0 -22 1 -44 4 -66c45 38 93 80 93 139c0 33 -14 67 -43 67c-31 0 -52 -30 -53 -63zM-15 -138l-12 595c8 5 18 8 27 8s19 -3 27 -8l-7 -345c25 21 58 34 91 34c52 0 89 -48 89 -102c0 -80 -86 -117 -147 -169c-15 -13 -24 -38 -45 -38
c-13 0 -23 11 -23 25z" fill="currentColor"/>
</g>
<g transform="translate(71.2873, 6.2790)">
<path transform="scale(0.0040, -0.0040)" d="M218 136c66 0 108 -36 108 -89c0 -89 -113 -183 -218 -183c-66 0 -108 36 -108 89c0 89 113 183 218 183z" fill="currentColor"/>
</g>
<g transform="translate(79.2386, 5.2790)">
<path transform="scale(0.0040, -0.0040)" d="M218 136c66 0 108 -36 108 -89c0 -89 -113 -183 -218 -183c-66 0 -108 36 -108 89c0 89 113 183 218 183z" fill="currentColor"/>
</g>
<g transform="translate(84.4534, 3.7790)">
<rect x="-0.0650" y="-2.0000" width="0.1300" height="2.8139" ry="0.0400" fill="currentColor"/>
</g>
<g transform="translate(83.2142, 9.6370)">
<text font-family="Source Sans Pro" font-size="2.6163" text-anchor="start" fill="currentColor">
<tspan>G</tspan>
</text>
</g>
<g transform="translate(84.8190, 9.6370)">
<text font-family="Source Sans Pro" font-size="2.6163" text-anchor="start" fill="currentColor">
<tspan>/</tspan>
</text>
</g>
<g transform="translate(85.7408, 9.6370)">
<text font-family="Source Sans Pro" font-size="2.6163" text-anchor="start" fill="currentColor">
<tspan>B</tspan>
</text>
</g>
<g transform="translate(83.2142, 4.7790)">
<path transform="scale(0.0040, -0.0040)" d="M218 136c66 0 108 -36 108 -89c0 -89 -113 -183 -218 -183c-66 0 -108 36 -108 89c0 89 113 183 218 183z" fill="currentColor"/>
</g>
<g transform="translate(80.4778, 3.7790)">
<rect x="-0.0650" y="-1.8050" width="0.1300" height="3.1189" ry="0.0400" fill="currentColor"/>
</g>
<g transform="translate(76.5022, 3.7790)">
<rect x="-0.0650" y="-1.5000" width="0.1300" height="3.3139" ry="0.0400" fill="currentColor"/>
</g>
<g transform="translate(75.2630, 5.7790)">
<path transform="scale(0.0040, -0.0040)" d="M218 136c66 0 108 -36 108 -89c0 -89 -113 -183 -218 -183c-66 0 -108 36 -108 89c0 89 113 183 218 183z" fill="currentColor"/>
</g>
<g transform="translate(72.4615, 2.5890)">
<polygon stroke-linejoin="round" stroke-linecap="round" stroke-width="0.0800" fill="currentColor" stroke="currentColor" points="8.0413 -0.8200 8.0413 -0.4200 0.0400 0.2000 0.0400 -0.2000"/>
</g>
<g transform="translate(84.3884, 1.7790)">
<polygon stroke-linejoin="round" stroke-linecap="round" stroke-width="0.0800" fill="currentColor" stroke="currentColor" points="8.0413 -0.2000 8.0413 0.2000 0.0400 0.2000 0.0400 -0.2000"/>
</g>
<g transform="translate(97.2146, 1.9690)">
<polygon stroke-linejoin="round" stroke-linecap="round" stroke-width="0.0800" fill="currentColor" stroke="currentColor" points="8.0413 -0.5800 8.0413 -0.1800 0.0400 0.2000 0.0400 -0.2000"/>
</g>
<g transform="translate(109.1415, 0.9690)">
<polygon stroke-linejoin="round" stroke-linecap="round" stroke-width="0.0800" fill="currentColor" stroke="currentColor" points="8.0413 -0.2000 8.0413 0.2000 0.0400 0.2000 0.0400 -0.2000"/>
</g>
<g transform="translate(21.8169, 6.5890)">
<polygon stroke-linejoin="round" stroke-linecap="round" stroke-width="0.0800" fill="currentColor" stroke="currentColor" points="8.0413 -0.8200 8.0413 -0.4200 0.0400 0.2000 0.0400 -0.2000"/>
</g>
<g transform="translate(34.9180, 0.9690)">
<polygon stroke-linejoin="round" stroke-linecap="round" stroke-width="0.0800" fill="currentColor" stroke="currentColor" points="8.0413 0.4200 8.0413 0.8200 0.0400 0.2000 0.0400 -0.2000"/>
</g>
<g transform="translate(47.7085, 1.9690)">
<polygon stroke-linejoin="round" stroke-linecap="round" stroke-width="0.0800" fill="currentColor" stroke="currentColor" points="8.0413 0.4200 8.0413 0.8200 0.0400 0.2000 0.0400 -0.2000"/>
</g>
<g transform="translate(59.6354, 2.5890)">
<polygon stroke-linejoin="round" stroke-linecap="round" stroke-width="0.0800" fill="currentColor" stroke="currentColor" points="8.0413 -0.2000 8.0413 0.2000 0.0400 0.2000 0.0400 -0.2000"/>
</g>
<g transform="translate(109.2065, 3.7790)">
<rect x="-0.0650" y="-2.8100" width="0.1300" height="3.6239" ry="0.0400" fill="currentColor"/>
</g>
<g transform="translate(107.9673, 9.6370)">
<text font-family="Source Sans Pro" font-size="2.6163" text-anchor="start" fill="currentColor">
<tspan>C</tspan>
</text>
</g>
<g transform="translate(109.4696, 8.4478)">
<text font-family="Source Sans Pro" font-size="1.8500" text-anchor="start" fill="currentColor">
<tspan>7</tspan>
</text>
</g>
<g transform="translate(110.3914, 9.6370)">
<text font-family="Source Sans Pro" font-size="2.6163" text-anchor="start" fill="currentColor">
<tspan>/</tspan>
</text>
</g>
<g transform="translate(111.3133, 9.6370)">
<text font-family="Source Sans Pro" font-size="2.6163" text-anchor="start" fill="currentColor">
<tspan>E</tspan>
</text>
</g>
<g transform="translate(107.9673, 4.7790)">
<path transform="scale(0.0040, -0.0040)" d="M218 136c66 0 108 -36 108 -89c0 -89 -113 -183 -218 -183c-66 0 -108 36 -108 89c0 89 113 183 218 183z" fill="currentColor"/>
</g>
<g transform="translate(105.2309, 3.7790)">
<rect x="-0.0650" y="-2.1869" width="0.1300" height="3.0008" ry="0.0400" fill="currentColor"/>
</g>
<g transform="translate(103.9916, 4.7790)">
<path transform="scale(0.0040, -0.0040)" d="M218 136c66 0 108 -36 108 -89c0 -89 -113 -183 -218 -183c-66 0 -108 36 -108 89c0 89 113 183 218 183z" fill="currentColor"/>
</g>
<g transform="translate(101.2552, 3.7790)">
<rect x="-0.0650" y="-2.0000" width="0.1300" height="2.8139" ry="0.0400" fill="currentColor"/>
</g>
<g transform="translate(117.1577, 3.7790)">
<rect x="-0.0650" y="-2.8100" width="0.1300" height="2.6239" ry="0.0400" fill="currentColor"/>
</g>
<g transform="translate(100.0160, 4.7790)">
<path transform="scale(0.0040, -0.0040)" d="M218 136c66 0 108 -36 108 -89c0 -89 -113 -183 -218 -183c-66 0 -108 36 -108 89c0 89 113 183 218 183z" fill="currentColor"/>
</g>
<g transform="translate(115.9185, 3.7790)">
<path transform="scale(0.0040, -0.0040)" d="M218 136c66 0 108 -36 108 -89c0 -89 -113 -183 -218 -183c-66 0 -108 36 -108 89c0 89 113 183 218 183z" fill="currentColor"/>
</g>
<g transform="translate(113.1821, 3.7790)">
<rect x="-0.0650" y="-2.8100" width="0.1300" height="2.1239" ry="0.0400" fill="currentColor"/>
</g>
<g transform="translate(111.9429, 3.2790)">
<path transform="scale(0.0040, -0.0040)" d="M218 136c66 0 108 -36 108 -89c0 -89 -113 -183 -218 -183c-66 0 -108 36 -108 89c0 89 113 183 218 183z" fill="currentColor"/>
</g>
<g transform="translate(33.7438, 3.7790)">
<path transform="scale(0.0040, -0.0040)" d="M218 136c66 0 108 -36 108 -89c0 -89 -113 -183 -218 -183c-66 0 -108 36 -108 89c0 89 113 183 218 183z" fill="currentColor"/>
</g>
<g transform="translate(29.8332, 3.7790)">
<rect x="-0.0650" y="-0.3139" width="0.1300" height="2.5089" ry="0.0400" fill="currentColor"/>
</g>
<g transform="translate(29.7682, 3.2790)">
<path transform="scale(0.0040, -0.0040)" d="M218 136c66 0 108 -36 108 -89c0 -89 -113 -183 -218 -183c-66 0 -108 36 -108 89c0 89 113 183 218 183z" fill="currentColor"/>
</g>
<g transform="translate(33.7438, 9.6370)">
<text font-family="Source Sans Pro" font-size="2.6163" text-anchor="start" fill="currentColor">
<tspan>C</tspan>
</text>
</g>
<g transform="translate(35.2461, 8.4478)">
<text font-family="Source Sans Pro" font-size="1.8500" text-anchor="start" fill="currentColor">
<tspan>7</tspan>
</text>
</g>
<g transform="translate(25.8576, 3.7790)">
<rect x="-0.0650" y="0.1861" width="0.1300" height="2.3139" ry="0.0400" fill="currentColor"/>
</g>
<g transform="translate(25.7926, 3.7790)">
<path transform="scale(0.0040, -0.0040)" d="M218 136c66 0 108 -36 108 -89c0 -89 -113 -183 -218 -183c-66 0 -108 36 -108 89c0 89 113 183 218 183z" fill="currentColor"/>
</g>
<g transform="translate(42.9343, 3.7790)">
<rect x="-0.0650" y="-2.1950" width="0.1300" height="3.0089" ry="0.0400" fill="currentColor"/>
</g>
<g transform="translate(41.6951, 4.7790)">
<path transform="scale(0.0040, -0.0040)" d="M218 136c66 0 108 -36 108 -89c0 -89 -113 -183 -218 -183c-66 0 -108 36 -108 89c0 89 113 183 218 183z" fill="currentColor"/>
</g>
<g transform="translate(38.9587, 3.7790)">
<rect x="-0.0650" y="-2.5000" width="0.1300" height="2.8139" ry="0.0400" fill="currentColor"/>
</g>
<g transform="translate(37.7194, 4.2790)">
<path transform="scale(0.0040, -0.0040)" d="M218 136c66 0 108 -36 108 -89c0 -89 -113 -183 -218 -183c-66 0 -108 36 -108 89c0 89 113 183 218 183z" fill="currentColor"/>
</g>
<g transform="translate(34.9830, 3.7790)">
<rect x="-0.0650" y="-2.8050" width="0.1300" height="2.6189" ry="0.0400" fill="currentColor"/>
</g>
<g transform="translate(6.4906, 4.7790)">
<path transform="scale(0.0040, -0.0040)" d="M266 -635h-6c-108 0 -195 88 -195 197c0 58 53 103 112 103c54 0 95 -47 95 -103c0 -52 -43 -95 -95 -95c-11 0 -21 2 -31 6c26 -39 68 -65 117 -65h4zM461 -203c68 24 113 90 113 164c0 90 -66 179 -173 190c19 -89 48 -242 60 -354zM74 28c0 -145 141 -247 264 -247
c1 0 47 0 82 6c-7 64 -29 203 -63 364c-79 -8 -124 -61 -124 -119c0 -44 25 -91 81 -123c5 -5 7 -10 7 -15c0 -11 -10 -22 -22 -22c-15 0 -126 62 -126 187c0 88 58 174 160 197c-14 58 -29 117 -46 175c-107 -121 -213 -243 -213 -403zM250 553c-29 96 -52 170 -52 346
c0 115 55 224 149 292c6 5 14 5 20 0c68 -80 133 -245 133 -358c0 -143 -86 -255 -180 -364c21 -68 39 -138 56 -207c2 0 7 1 13 1c155 0 256 -128 256 -261c0 -113 -74 -212 -180 -246c3 -35 5 -70 5 -105c0 -19 -1 -39 -2 -58c-7 -119 -88 -225 -202 -228l1 43
c93 2 153 92 159 191c1 18 2 37 2 55c0 31 -1 61 -4 92c-5 -1 -44 -8 -89 -8c-193 0 -333 180 -333 374c0 177 131 306 248 441zM428 916c0 34 1 66 -20 129c-99 -48 -162 -149 -162 -259c0 -52 12 -115 36 -194c80 97 146 198 146 324z" fill="currentColor"/>
</g>
<g transform="translate(15.6587, 6.7390)">
<path transform="scale(0.0040, -0.0040)" d="M0 0h-16v250h16v-250zM0 0v250c97 59 224 148 224 259c0 57 -15 112 -40 163c-3 16 10 27 23 27c7 0 15 -3 20 -11c25 -56 40 -117 40 -179c0 -203 -267 -306 -267 -509z" fill="currentColor"/>
</g>
<g transform="translate(15.5937, 3.7790)">
<rect x="-0.0650" y="-0.3139" width="0.1300" height="3.3139" ry="0.0400" fill="currentColor"/>
</g>
<g transform="translate(12.1118, 3.7790)">
<path transform="scale(0.0040, -0.0040)" d="M170 256c-51 0 -53 -44 -53 -102v-14v-15c0 -58 2 -102 53 -102c57 0 61 51 61 117s-4 116 -61 116zM117 266c17 7 34 13 53 13c101 0 170 -44 170 -139s-69 -140 -170 -140c-112 0 -170 124 -170 250c0 128 72 250 190 250c71 0 138 -39 138 -103c0 -36 -29 -66 -65 -66
s-66 30 -66 66c0 24 39 25 39 49c0 20 -23 31 -46 31c-66 0 -75 -65 -75 -139c0 -24 2 -48 2 -72z" fill="currentColor"/>
</g>
<g transform="translate(12.0606, 5.7791)">
<path transform="scale(0.0040, -0.0040)" d="M259 288c27 29 49 62 49 102c0 55 -57 87 -117 87c-47 0 -75 -36 -75 -71c0 -20 10 -40 30 -52zM289 271c33 -19 83 -60 83 -127c0 -73 -66 -144 -189 -144c-94 0 -183 54 -183 140c0 50 39 85 76 120c-41 28 -61 67 -61 106c0 68 61 134 176 134c81 0 161 -38 161 -110
c0 -47 -30 -85 -63 -119zM106 242c-33 -29 -62 -59 -62 -102c0 -69 66 -117 139 -117c54 0 86 42 86 83c0 24 -10 48 -35 62z" fill="currentColor"/>
</g>
<g transform="translate(10.1106, 3.7790)">
<path transform="scale(0.0040, -0.0040)" d="M27 41l-1 -66v-11c0 -22 1 -44 4 -66c45 38 93 80 93 139c0 33 -14 67 -43 67c-31 0 -52 -30 -53 -63zM-15 -138l-12 595c8 5 18 8 27 8s19 -3 27 -8l-7 -345c25 21 58 34 91 34c52 0 89 -48 89 -102c0 -80 -86 -117 -147 -169c-15 -13 -24 -38 -45 -38
c-13 0 -23 11 -23 25z" fill="currentColor"/>
</g>
<g transform="translate(15.5287, 3.2790)">
<path transform="scale(0.0040, -0.0040)" d="M218 136c66 0 108 -36 108 -89c0 -89 -113 -183 -218 -183c-66 0 -108 36 -108 89c0 89 113 183 218 183z" fill="currentColor"/>
</g>
<g transform="translate(3.8370, 4.3360)">
<text font-family="Source Sans Pro" font-size="1.7461" text-anchor="start" fill="currentColor">
<tspan>1</tspan>
</text>
</g>
<g transform="translate(21.8819, 3.7790)">
<rect x="-0.0650" y="0.6861" width="0.1300" height="2.1189" ry="0.0400" fill="currentColor"/>
</g>
<g transform="translate(67.6516, 3.7790)">
<rect x="-0.0650" y="-1.1900" width="0.1300" height="2.5039" ry="0.0400" fill="currentColor"/>
</g>
<g transform="translate(21.8169, 9.6370)">
<text font-family="Source Sans Pro" font-size="2.6163" text-anchor="start" fill="currentColor">
<tspan>F</tspan>
</text>
</g>
<g transform="translate(21.8169, 4.2790)">
<path transform="scale(0.0040, -0.0040)" d="M218 136c66 0 108 -36 108 -89c0 -89 -113 -183 -218 -183c-66 0 -108 36 -108 89c0 89 113 183 218 183z" fill="currentColor"/>
</g>
<g transform="translate(58.4612, 5.2790)">
<path transform="scale(0.0040, -0.0040)" d="M218 136c66 0 108 -36 108 -89c0 -89 -113 -183 -218 -183c-66 0 -108 36 -108 89c0 89 113 183 218 183z" fill="currentColor"/>
</g>
<g transform="translate(50.5099, 5.2790)">
<path transform="scale(0.0040, -0.0040)" d="M218 136c66 0 108 -36 108 -89c0 -89 -113 -183 -218 -183c-66 0 -108 36 -108 89c0 89 113 183 218 183z" fill="currentColor"/>
</g>
<g transform="translate(51.7491, 3.7790)">
<rect x="-0.0650" y="-1.5000" width="0.1300" height="2.8139" ry="0.0400" fill="currentColor"/>
</g>
<g transform="translate(54.4855, 5.2790)">
<path transform="scale(0.0040, -0.0040)" d="M218 136c66 0 108 -36 108 -89c0 -89 -113 -183 -218 -183c-66 0 -108 36 -108 89c0 89 113 183 218 183z" fill="currentColor"/>
</g>
<g transform="translate(55.7247, 3.7790)">
<rect x="-0.0650" y="-1.1950" width="0.1300" height="2.5089" ry="0.0400" fill="currentColor"/>
</g>
<g transform="translate(58.4612, 9.6370)">
<text font-family="Source Sans Pro" font-size="2.6163" text-anchor="start" fill="currentColor">
<tspan>A</tspan>
</text>
</g>
<g transform="translate(59.7004, 3.7790)">
<rect x="-0.0650" y="-1.1900" width="0.1300" height="2.5039" ry="0.0400" fill="currentColor"/>
</g>
<g transform="translate(62.4368, 5.7790)">
<path transform="scale(0.0040, -0.0040)" d="M218 136c66 0 108 -36 108 -89c0 -89 -113 -183 -218 -183c-66 0 -108 36 -108 89c0 89 113 183 218 183z" fill="currentColor"/>
</g>
<g transform="translate(63.6760, 3.7790)">
<rect x="-0.0650" y="-1.1900" width="0.1300" height="3.0039" ry="0.0400" fill="currentColor"/>
</g>
<g transform="translate(66.4124, 5.2790)">
<path transform="scale(0.0040, -0.0040)" d="M218 136c66 0 108 -36 108 -89c0 -89 -113 -183 -218 -183c-66 0 -108 36 -108 89c0 89 113 183 218 183z" fill="currentColor"/>
</g>
<g transform="translate(47.7735, 3.7790)">
<rect x="-0.0650" y="-1.8050" width="0.1300" height="2.1189" ry="0.0400" fill="currentColor"/>
</g>
<g transform="translate(46.5343, 4.2790)">
<path transform="scale(0.0040, -0.0040)" d="M218 136c66 0 108 -36 108 -89c0 -89 -113 -183 -218 -183c-66 0 -108 36 -108 89c0 89 113 183 218 183z" fill="currentColor"/>
</g>
<g transform="translate(46.5343, 9.6370)">
<text font-family="Source Sans Pro" font-size="2.6163" text-anchor="start" fill="currentColor">
<tspan>F</tspan>
</text>
</g>
<g transform="translate(5.6906, 19.5836)">
<line stroke-linejoin="round" stroke-linecap="round" stroke-width="0.1000" stroke="currentColor" x1="0.0500" y1="0" x2="113.7610" y2="0"/>
</g>
<g transform="translate(5.6906, 18.5836)">
<line stroke-linejoin="round" stroke-linecap="round" stroke-width="0.1000" stroke="currentColor" x1="0.0500" y1="0" x2="113.7610" y2="0"/>
</g>
<g transform="translate(5.6906, 17.5836)">
<line stroke-linejoin="round" stroke-linecap="round" stroke-width="0.1000" stroke="currentColor" x1="0.0500" y1="0" x2="113.7610" y2="0"/>
</g>
<g transform="translate(5.6906, 16.5836)">
<line stroke-linejoin="round" stroke-linecap="round" stroke-width="0.1000" stroke="currentColor" x1="0.0500" y1="0" x2="113.7610" y2="0"/>
</g>
<g transform="translate(5.6906, 15.5836)">
<line stroke-linejoin="round" stroke-linecap="round" stroke-width="0.1000" stroke="currentColor" x1="0.0500" y1="0" x2="113.7610" y2="0"/>
</g>
<g transform="translate(34.9836, 17.5836)">
<rect x="0.0000" y="-2.0000" width="0.1900" height="4.0000" ry="0.0000" fill="currentColor"/>
</g>
<g transform="translate(80.7507, 17.5836)">
<rect x="0.0000" y="-2.0000" width="0.1900" height="4.0000" ry="0.0000" fill="currentColor"/>
</g>
<g transform="translate(98.8428, 17.0836)">
<path transform="scale(0.0040, -0.0040)" d="M0 0c0 31 25 56 56 56s56 -25 56 -56s-25 -56 -56 -56s-56 25 -56 56z" fill="currentColor"/>
</g>
<g transform="translate(98.8428, 18.0836)">
<path transform="scale(0.0040, -0.0040)" d="M0 0c0 31 25 56 56 56s56 -25 56 -56s-25 -56 -56 -56s-56 25 -56 56z" fill="currentColor"/>
</g>
<g transform="scale(-1.0000, 1.0000)">
<g transform="translate(-100.6828, 17.5836)">
<rect x="0.0000" y="-2.0000" width="0.6000" height="4.0000" ry="0.0000" fill="currentColor"/>
</g>
<g transform="translate(-100.6828, 15.5836)">
<path transform="scale(0.0040, -0.0040)" d="M0 -56v87c0 14 11 25 25 25h50c159 0 271 136 362 270c12 17 38 -1 26 -18c-99 -144 -215 -364 -388 -364h-75z" fill="currentColor"/>
</g>
<g transform="translate(-100.6828, 19.5836)">
<path transform="scale(0.0040, -0.0040)" d="M0 56h75c173 0 289 -220 388 -364c12 -17 -14 -35 -26 -18c-91 134 -203 270 -362 270h-50c-14 0 -25 11 -25 25v87z" fill="currentColor"/>
</g>
</g>
<g transform="translate(99.5928, 17.5836)">
<rect x="0.0000" y="-2.0000" width="0.1900" height="4.0000" ry="0.0000" fill="currentColor"/>
</g>
<g transform="translate(119.3116, 17.5836)">
<rect x="0.0000" y="-2.0000" width="0.1900" height="4.0000" ry="0.0000" fill="currentColor"/>
</g>
<g transform="translate(118.8216, 17.5836)">
<rect x="0.0000" y="-2.0000" width="0.1900" height="4.0000" ry="0.0000" fill="currentColor"/>
</g>
<g transform="translate(57.8850, 17.5836)">
<rect x="0.0000" y="-2.0000" width="0.1900" height="4.0000" ry="0.0000" fill="currentColor"/>
</g>
<g transform="translate(89.7064, 17.5836)">
<rect x="-0.0650" y="-2.8100" width="0.1300" height="4.1239" ry="0.0400" fill="currentColor"/>
</g>
<g transform="translate(88.4672, 23.4415)">
<text font-family="Source Sans Pro" font-size="2.6163" text-anchor="start" fill="currentColor">
<tspan>C</tspan>
</text>
</g>
<g transform="translate(89.9695, 22.2523)">
<text font-family="Source Sans Pro" font-size="1.8500" text-anchor="start" fill="currentColor">
<tspan>7</tspan>
</text>
</g>
<g transform="translate(88.4672, 19.0836)">
<path transform="scale(0.0040, -0.0040)" d="M218 136c66 0 108 -36 108 -89c0 -89 -113 -183 -218 -183c-66 0 -108 36 -108 89c0 89 113 183 218 183z" fill="currentColor"/>
</g>
<g transform="translate(103.5396, 19.0836)">
<path transform="scale(0.0040, -0.0040)" d="M0 0c0 31 25 56 56 56s56 -25 56 -56s-25 -56 -56 -56s-56 25 -56 56z" fill="currentColor"/>
</g>
<g transform="translate(95.7982, 17.5836)">
<path transform="scale(0.0040, -0.0040)" d="M218 136c66 0 108 -36 108 -89c0 -89 -113 -183 -218 -183c-66 0 -108 36 -108 89c0 89 113 183 218 183z" fill="currentColor"/>
</g>
<g transform="translate(62.8431, 19.5836)">
<path transform="scale(0.0040, -0.0040)" d="M218 136c66 0 108 -36 108 -89c0 -89 -113 -183 -218 -183c-66 0 -108 36 -108 89c0 89 113 183 218 183z" fill="currentColor"/>
</g>
<g transform="translate(101.7854, 23.4415)">
<text font-family="Source Sans Pro" font-size="2.6163" text-anchor="start" fill="currentColor">
<tspan>F</tspan>
</text>
</g>
<g transform="translate(101.7854, 19.0836)">
<path transform="scale(0.0040, -0.0040)" d="M218 136c66 0 108 -36 108 -89c0 -89 -113 -183 -218 -183c-66 0 -108 36 -108 89c0 89 113 183 218 183z" fill="currentColor"/>
</g>
<g transform="translate(97.0374, 17.5836)">
<rect x="-0.0650" y="-2.8100" width="0.1300" height="2.6239" ry="0.0400" fill="currentColor"/>
</g>
<g transform="translate(93.3719, 17.5836)">
<rect x="-0.0650" y="-2.8100" width="0.1300" height="2.1239" ry="0.0400" fill="currentColor"/>
</g>
<g transform="translate(92.1327, 17.0836)">
<path transform="scale(0.0040, -0.0040)" d="M218 136c66 0 108 -36 108 -89c0 -89 -113 -183 -218 -183c-66 0 -108 36 -108 89c0 89 113 183 218 183z" fill="currentColor"/>
</g>
<g transform="translate(71.4134, 17.5836)">
<rect x="-0.0650" y="-2.0000" width="0.1300" height="3.8139" ry="0.0400" fill="currentColor"/>
</g>
<g transform="translate(70.1741, 23.4415)">
<text font-family="Source Sans Pro" font-size="2.6163" text-anchor="start" fill="currentColor">
<tspan>C</tspan>
</text>
</g>
<g transform="translate(71.6764, 22.2523)">
<text font-family="Source Sans Pro" font-size="1.8500" text-anchor="start" fill="currentColor">
<tspan>7</tspan>
</text>
</g>
<g transform="translate(70.1741, 19.5836)">
<path transform="scale(0.0040, -0.0040)" d="M218 136c66 0 108 -36 108 -89c0 -89 -113 -183 -218 -183c-66 0 -108 36 -108 89c0 89 113 183 218 183z" fill="currentColor"/>
</g>
<g transform="translate(67.7479, 17.5836)">
<rect x="-0.0650" y="-1.8046" width="0.1300" height="3.1185" ry="0.0400" fill="currentColor"/>
</g>
<g transform="translate(66.5086, 19.0836)">
<path transform="scale(0.0040, -0.0040)" d="M218 136c66 0 108 -36 108 -89c0 -89 -113 -183 -218 -183c-66 0 -108 36 -108 89c0 89 113 183 218 183z" fill="currentColor"/>
</g>
<g transform="translate(64.0824, 17.5836)">
<rect x="-0.0650" y="-1.5000" width="0.1300" height="3.3139" ry="0.0400" fill="currentColor"/>
</g>
<g transform="translate(83.2825, 17.5836)">
<rect x="-0.0650" y="-2.0000" width="0.1300" height="3.3139" ry="0.0400" fill="currentColor"/>
</g>
<g transform="translate(83.7975, 19.0836)">
<path transform="scale(0.0040, -0.0040)" d="M0 0c0 31 25 56 56 56s56 -25 56 -56s-25 -56 -56 -56s-56 25 -56 56z" fill="currentColor"/>
</g>
<g transform="translate(82.0433, 23.4415)">
<text font-family="Source Sans Pro" font-size="2.6163" text-anchor="start" fill="currentColor">
<tspan>F</tspan>
</text>
</g>
<g transform="translate(82.0433, 19.0836)">
<path transform="scale(0.0040, -0.0040)" d="M218 136c66 0 108 -36 108 -89c0 -89 -113 -183 -218 -183c-66 0 -108 36 -108 89c0 89 113 183 218 183z" fill="currentColor"/>
</g>
<g transform="translate(78.7444, 17.5836)">
<rect x="-0.0650" y="-2.0000" width="0.1300" height="2.8139" ry="0.0400" fill="currentColor"/>
</g>
<g transform="translate(77.5051, 18.5836)">
<path transform="scale(0.0040, -0.0040)" d="M218 136c66 0 108 -36 108 -89c0 -89 -113 -183 -218 -183c-66 0 -108 36 -108 89c0 89 113 183 218 183z" fill="currentColor"/>
</g>
<g transform="translate(75.0789, 17.5836)">
<rect x="-0.0650" y="-2.0000" width="0.1300" height="2.3139" ry="0.0400" fill="currentColor"/>
</g>
<g transform="translate(73.8396, 18.0836)">
<path transform="scale(0.0040, -0.0040)" d="M218 136c66 0 108 -36 108 -89c0 -89 -113 -183 -218 -183c-66 0 -108 36 -108 89c0 89 113 183 218 183z" fill="currentColor"/>
</g>
<g transform="translate(89.6414, 14.7736)">
<polygon stroke-linejoin="round" stroke-linecap="round" stroke-width="0.0800" fill="currentColor" stroke="currentColor" points="7.4210 -0.2000 7.4210 0.2000 0.0400 0.2000 0.0400 -0.2000"/>
</g>
<g transform="translate(60.3519, 16.3936)">
<polygon stroke-linejoin="round" stroke-linecap="round" stroke-width="0.0800" fill="currentColor" stroke="currentColor" points="7.4210 -0.8200 7.4210 -0.4200 0.0400 0.2000 0.0400 -0.2000"/>
</g>
<g transform="translate(71.3484, 15.5836)">
<polygon stroke-linejoin="round" stroke-linecap="round" stroke-width="0.0800" fill="currentColor" stroke="currentColor" points="7.4210 -0.2000 7.4210 0.2000 0.0400 0.2000 0.0400 -0.2000"/>
</g>
<g transform="translate(81.7807, 12.9284)">
<g>
<path transform="scale(0.0025, -0.0025)" d="M191 487c21 0 42 14 49 14c8 0 15 -10 15 -21v-353c0 -52 32 -99 80 -99c9 0 13 -7 13 -14s-4 -14 -13 -14c-48 0 -96 13 -144 13s-95 -13 -143 -13c-9 0 -14 7 -14 14s5 14 14 14c48 0 79 47 79 99v220c0 15 -10 22 -19 22c-5 0 -10 -1 -12 -6l-65 -129
c-3 -7 -9 -9 -15 -9c-9 0 -18 7 -18 17c0 3 1 5 2 8l127 250c7 13 35 -13 64 -13z" fill="currentColor"/>

<path transform="translate(0.8877, 0.0000) scale(0.0025, -0.0025)" d="M0 53c0 29 24 53 53 53s53 -24 53 -53s-24 -53 -53 -53s-53 24 -53 53z" fill="currentColor"/>
</g>
</g>
<g transform="translate(80.7507, 11.1356)">
<line stroke-linejoin="round" stroke-linecap="round" stroke-width="0.1600" stroke="currentColor" x1="18.9221" y1="-0.0000" x2="18.9221" y2="2.0000"/>
</g>
<g transform="translate(80.7507, 11.1356)">
<line stroke-linejoin="round" stroke-linecap="round" stroke-width="0.1600" stroke="currentColor" x1="0.1100" y1="-0.0000" x2="0.1100" y2="2.0000"/>
</g>
<g transform="translate(80.7507, 11.1356)">
<line stroke-linejoin="round" stroke-linecap="round" stroke-width="0.1600" stroke="currentColor" x1="0.1100" y1="-0.0000" x2="18.9221" y2="-0.0000"/>
</g>
<g transform="translate(109.3835, 16.3936)">
<polygon stroke-linejoin="round" stroke-linecap="round" stroke-width="0.0800" fill="currentColor" stroke="currentColor" points="7.4210 -0.2000 7.4210 0.2000 0.0400 0.2000 0.0400 -0.2000"/>
</g>
<g transform="translate(13.4106, 20.3936)">
<polygon stroke-linejoin="round" stroke-linecap="round" stroke-width="0.0800" fill="currentColor" stroke="currentColor" points="7.4210 -0.8200 7.4210 -0.4200 0.0400 0.2000 0.0400 -0.2000"/>
</g>
<g transform="translate(25.5813, 14.7736)">
<polygon stroke-linejoin="round" stroke-linecap="round" stroke-width="0.0800" fill="currentColor" stroke="currentColor" points="7.4210 0.4200 7.4210 0.8200 0.0400 0.2000 0.0400 -0.2000"/>
</g>
<g transform="translate(37.4505, 15.7736)">
<polygon stroke-linejoin="round" stroke-linecap="round" stroke-width="0.0800" fill="currentColor" stroke="currentColor" points="7.4210 0.4200 7.4210 0.8200 0.0400 0.2000 0.0400 -0.2000"/>
</g>
<g transform="translate(48.4470, 16.3936)">
<polygon stroke-linejoin="round" stroke-linecap="round" stroke-width="0.0800" fill="currentColor" stroke="currentColor" points="7.4210 -0.2000 7.4210 0.2000 0.0400 0.2000 0.0400 -0.2000"/>
</g>
<g transform="translate(109.4485, 17.5836)">
<rect x="-0.0650" y="-1.1900" width="0.1300" height="2.5039" ry="0.0400" fill="currentColor"/>
</g>
<g transform="translate(108.2093, 23.4415)">
<text font-family="Source Sans Pro" font-size="2.6163" text-anchor="start" fill="currentColor">
<tspan>B</tspan>
</text>
</g>
<g transform="translate(109.7458, 23.4415)">
<text font-family="Source Sans Pro" font-size="3.2965" text-anchor="start" fill="currentColor">
<tspan>°</tspan>
</text>
</g>
<g transform="translate(108.2093, 19.0836)">
<path transform="scale(0.0040, -0.0040)" d="M218 136c66 0 108 -36 108 -89c0 -89 -113 -183 -218 -183c-66 0 -108 36 -108 89c0 89 113 183 218 183z" fill="currentColor"/>
</g>
<g transform="translate(116.7795, 17.5836)">
<rect x="-0.0650" y="-1.1900" width="0.1300" height="2.5039" ry="0.0400" fill="currentColor"/>
</g>
<g transform="translate(103.0246, 17.5836)">
<rect x="-0.0650" y="-2.0000" width="0.1300" height="3.3139" ry="0.0400" fill="currentColor"/>
</g>
<g transform="translate(115.5403, 19.0836)">
<path transform="scale(0.0040, -0.0040)" d="M218 136c66 0 108 -36 108 -89c0 -89 -113 -183 -218 -183c-66 0 -108 36 -108 89c0 89 113 183 218 183z" fill="currentColor"/>
</g>
<g transform="translate(113.1140, 17.5836)">
<rect x="-0.0650" y="-1.1900" width="0.1300" height="3.0039" ry="0.0400" fill="currentColor"/>
</g>
<g transform="translate(111.8748, 19.5836)">
<path transform="scale(0.0040, -0.0040)" d="M218 136c66 0 108 -36 108 -89c0 -89 -113 -183 -218 -183c-66 0 -108 36 -108 89c0 89 113 183 218 183z" fill="currentColor"/>
</g>
<g transform="translate(32.9773, 17.5836)">
<rect x="-0.0650" y="-2.1954" width="0.1300" height="3.0093" ry="0.0400" fill="currentColor"/>
</g>
<g transform="translate(31.7381, 18.5836)">
<path transform="scale(0.0040, -0.0040)" d="M218 136c66 0 108 -36 108 -89c0 -89 -113 -183 -218 -183c-66 0 -108 36 -108 89c0 89 113 183 218 183z" fill="currentColor"/>
</g>
<g transform="translate(29.3118, 17.5836)">
<rect x="-0.0650" y="-2.5000" width="0.1300" height="2.8139" ry="0.0400" fill="currentColor"/>
</g>
<g transform="translate(28.0726, 18.0836)">
<path transform="scale(0.0040, -0.0040)" d="M218 136c66 0 108 -36 108 -89c0 -89 -113 -183 -218 -183c-66 0 -108 36 -108 89c0 89 113 183 218 183z" fill="currentColor"/>
</g>
<g transform="translate(25.6463, 17.5836)">
<rect x="-0.0650" y="-2.8046" width="0.1300" height="2.6185" ry="0.0400" fill="currentColor"/>
</g>
<g transform="translate(24.4071, 23.4415)">
<text font-family="Source Sans Pro" font-size="2.6163" text-anchor="start" fill="currentColor">
<tspan>A</tspan>
</text>
</g>
<g transform="translate(25.8411, 22.2523)">
<text font-family="Source Sans Pro" font-size="1.8500" text-anchor="start" fill="currentColor">
<tspan>7</tspan>
</text>
</g>
<g transform="translate(24.4071, 17.5836)">
<path transform="scale(0.0040, -0.0040)" d="M218 136c66 0 108 -36 108 -89c0 -89 -113 -183 -218 -183c-66 0 -108 36 -108 89c0 89 113 183 218 183z" fill="currentColor"/>
</g>
<g transform="translate(37.5155, 17.5836)">
<rect x="-0.0650" y="-1.8046" width="0.1300" height="2.1185" ry="0.0400" fill="currentColor"/>
</g>
<g transform="translate(36.2762, 23.4415)">
<text font-family="Source Sans Pro" font-size="2.6163" text-anchor="start" fill="currentColor">
<tspan>D</tspan>
</text>
</g>
<g transform="translate(37.8810, 23.4415)">
<text font-family="Source Sans Pro" font-size="2.6163" text-anchor="start" fill="currentColor">
<tspan>m</tspan>
</text>
</g>
<g transform="translate(36.2762, 18.0836)">
<path transform="scale(0.0040, -0.0040)" d="M218 136c66 0 108 -36 108 -89c0 -89 -113 -183 -218 -183c-66 0 -108 36 -108 89c0 89 113 183 218 183z" fill="currentColor"/>
</g>
<g transform="translate(10.1106, 17.5836)">
<path transform="scale(0.0040, -0.0040)" d="M27 41l-1 -66v-11c0 -22 1 -44 4 -66c45 38 93 80 93 139c0 33 -14 67 -43 67c-31 0 -52 -30 -53 -63zM-15 -138l-12 595c8 5 18 8 27 8s19 -3 27 -8l-7 -345c25 21 58 34 91 34c52 0 89 -48 89 -102c0 -80 -86 -117 -147 -169c-15 -13 -24 -38 -45 -38
c-13 0 -23 11 -23 25z" fill="currentColor"/>
</g>
<g transform="translate(6.4906, 18.5836)">
<path transform="scale(0.0040, -0.0040)" d="M266 -635h-6c-108 0 -195 88 -195 197c0 58 53 103 112 103c54 0 95 -47 95 -103c0 -52 -43 -95 -95 -95c-11 0 -21 2 -31 6c26 -39 68 -65 117 -65h4zM461 -203c68 24 113 90 113 164c0 90 -66 179 -173 190c19 -89 48 -242 60 -354zM74 28c0 -145 141 -247 264 -247
c1 0 47 0 82 6c-7 64 -29 203 -63 364c-79 -8 -124 -61 -124 -119c0 -44 25 -91 81 -123c5 -5 7 -10 7 -15c0 -11 -10 -22 -22 -22c-15 0 -126 62 -126 187c0 88 58 174 160 197c-14 58 -29 117 -46 175c-107 -121 -213 -243 -213 -403zM250 553c-29 96 -52 170 -52 346
c0 115 55 224 149 292c6 5 14 5 20 0c68 -80 133 -245 133 -358c0 -143 -86 -255 -180 -364c21 -68 39 -138 56 -207c2 0 7 1 13 1c155 0 256 -128 256 -261c0 -113 -74 -212 -180 -246c3 -35 5 -70 5 -105c0 -19 -1 -39 -2 -58c-7 -119 -88 -225 -202 -228l1 43
c93 2 153 92 159 191c1 18 2 37 2 55c0 31 -1 61 -4 92c-5 -1 -44 -8 -89 -8c-193 0 -333 180 -333 374c0 177 131 306 248 441zM428 916c0 34 1 66 -20 129c-99 -48 -162 -149 -162 -259c0 -52 12 -115 36 -194c80 97 146 198 146 324z" fill="currentColor"/>
</g>
<g transform="translate(101.5228, 12.8957)">
<g>
<path transform="scale(0.0025, -0.0025)" d="M233 0c-91 0 -93 69 -145 69c-29 0 -57 -21 -60 -56c-1 -9 -7 -13 -14 -13s-14 5 -14 14c0 155 233 167 233 341c0 57 -14 117 -63 117c-31 0 -61 -14 -61 -41c0 -25 32 -39 32 -64c0 -35 -28 -64 -63 -64s-64 29 -64 64c0 78 74 133 156 133c98 0 191 -55 191 -145
c0 -145 -138 -157 -236 -208h10c86 0 112 -61 170 -61c50 0 39 42 59 42c7 0 14 -6 14 -14c0 -24 -46 -114 -145 -114z" fill="currentColor"/>

<path transform="translate(0.9560, 0.0000) scale(0.0025, -0.0025)" d="M0 53c0 29 24 53 53 53s53 -24 53 -53s-24 -53 -53 -53s-53 24 -53 53z" fill="currentColor"/>
</g>
</g>
<g transform="translate(99.5928, 11.1356)">
<line stroke-linejoin="round" stroke-linecap="round" stroke-width="0.1600" stroke="currentColor" x1="19.8288" y1="-0.0000" x2="19.8288" y2="-0.0000"/>
</g>
<g transform="translate(99.5928, 11.1356)">
<line stroke-linejoin="round" stroke-linecap="round" stroke-width="0.1600" stroke="currentColor" x1="1.0100" y1="-0.0000" x2="1.0100" y2="2.0000"/>
</g>
<g transform="translate(99.5928, 11.1356)">
<line stroke-linejoin="round" stroke-linecap="round" stroke-width="0.1600" stroke="currentColor" x1="1.0100" y1="-0.0000" x2="19.8288" y2="-0.0000"/>
</g>
<g transform="translate(3.8370, 17.1301)">
<text font-family="Source Sans Pro" font-size="1.7461" text-anchor="start" fill="currentColor">
<tspan>5</tspan>
</text>
</g>
<g transform="translate(2.9834, 19.1301)">
<text font-family="Source Sans Pro" font-size="1.7461" text-anchor="start" fill="currentColor">
<tspan>13</tspan>
</text>
</g>
<g transform="translate(17.0761, 17.5836)">
<path transform="scale(0.0040, -0.0040)" d="M218 136c66 0 108 -36 108 -89c0 -89 -113 -183 -218 -183c-66 0 -108 36 -108 89c0 89 113 183 218 183z" fill="currentColor"/>
</g>
<g transform="translate(20.8066, 17.5836)">
<rect x="-0.0650" y="-0.3139" width="0.1300" height="2.5093" ry="0.0400" fill="currentColor"/>
</g>
<g transform="translate(20.7416, 17.0836)">
<path transform="scale(0.0040, -0.0040)" d="M218 136c66 0 108 -36 108 -89c0 -89 -113 -183 -218 -183c-66 0 -108 36 -108 89c0 89 113 183 218 183z" fill="currentColor"/>
</g>
<g transform="translate(17.1411, 17.5836)">
<rect x="-0.0650" y="0.1861" width="0.1300" height="2.3139" ry="0.0400" fill="currentColor"/>
</g>
<g transform="translate(13.4756, 17.5836)">
<rect x="-0.0650" y="0.6861" width="0.1300" height="2.1185" ry="0.0400" fill="currentColor"/>
</g>
<g transform="translate(13.4106, 23.4415)">
<text font-family="Source Sans Pro" font-size="2.6163" text-anchor="start" fill="currentColor">
<tspan>F</tspan>
</text>
</g>
<g transform="translate(13.4106, 18.0836)">
<path transform="scale(0.0040, -0.0040)" d="M218 136c66 0 108 -36 108 -89c0 -89 -113 -183 -218 -183c-66 0 -108 36 -108 89c0 89 113 183 218 183z" fill="currentColor"/>
</g>
<g transform="translate(47.2727, 19.0836)">
<path transform="scale(0.0040, -0.0040)" d="M218 136c66 0 108 -36 108 -89c0 -89 -113 -183 -218 -183c-66 0 -108 36 -108 89c0 89 113 183 218 183z" fill="currentColor"/>
</g>
<g transform="translate(60.4169, 17.5836)">
<rect x="-0.0650" y="-1.1954" width="0.1300" height="3.5093" ry="0.0400" fill="currentColor"/>
</g>
<g transform="translate(47.2727, 23.4415)">
<text font-family="Source Sans Pro" font-size="2.6163" text-anchor="start" fill="currentColor">
<tspan>F</tspan>
</text>
</g>
<g transform="translate(48.5702, 22.2523)">
<text font-family="Source Sans Pro" font-size="1.8500" text-anchor="start" fill="currentColor">
<tspan>7</tspan>
</text>
</g>
<g transform="translate(49.4921, 23.4415)">
<text font-family="Source Sans Pro" font-size="2.6163" text-anchor="start" fill="currentColor">
<tspan>/</tspan>
</text>
</g>
<g transform="translate(50.4139, 23.4415)">
<text font-family="Source Sans Pro" font-size="2.6163" text-anchor="start" fill="currentColor">
<tspan>C</tspan>
</text>
</g>
<g transform="translate(48.5120, 17.5836)">
<rect x="-0.0650" y="-1.1900" width="0.1300" height="2.5039" ry="0.0400" fill="currentColor"/>
</g>
<g transform="translate(59.1776, 23.4415)">
<text font-family="Source Sans Pro" font-size="2.6163" text-anchor="start" fill="currentColor">
<tspan>B</tspan>
</text>
</g>
<g transform="translate(60.9360, 23.1415)">
<path transform="scale(0.0042, -0.0042)" d="M27 41l-1 -66v-11c0 -22 1 -44 4 -66c45 38 93 80 93 139c0 33 -14 67 -43 67c-31 0 -52 -30 -53 -63zM-15 -138l-12 595c8 5 18 8 27 8s19 -3 27 -8l-7 -345c25 21 58 34 91 34c52 0 89 -48 89 -102c0 -80 -86 -117 -147 -169c-15 -13 -24 -38 -45 -38
c-13 0 -23 11 -23 25z" fill="currentColor"/>
</g>
<g transform="translate(59.1776, 20.0836)">
<path transform="scale(0.0040, -0.0040)" d="M218 136c66 0 108 -36 108 -89c0 -89 -113 -183 -218 -183c-66 0 -108 36 -108 89c0 89 113 183 218 183z" fill="currentColor"/>
</g>
<g transform="translate(50.9382, 19.5836)">
<path transform="scale(0.0040, -0.0040)" d="M218 136c66 0 108 -36 108 -89c0 -89 -113 -183 -218 -183c-66 0 -108 36 -108 89c0 89 113 183 218 183z" fill="currentColor"/>
</g>
<g transform="translate(52.1775, 17.5836)">
<rect x="-0.0650" y="-1.1900" width="0.1300" height="3.0039" ry="0.0400" fill="currentColor"/>
</g>
<g transform="translate(39.9417, 19.0836)">
<path transform="scale(0.0040, -0.0040)" d="M218 136c66 0 108 -36 108 -89c0 -89 -113 -183 -218 -183c-66 0 -108 36 -108 89c0 89 113 183 218 183z" fill="currentColor"/>
</g>
<g transform="translate(41.1810, 17.5836)">
<rect x="-0.0650" y="-1.5000" width="0.1300" height="2.8139" ry="0.0400" fill="currentColor"/>
</g>
<g transform="translate(54.6037, 19.0836)">
<path transform="scale(0.0040, -0.0040)" d="M218 136c66 0 108 -36 108 -89c0 -89 -113 -183 -218 -183c-66 0 -108 36 -108 89c0 89 113 183 218 183z" fill="currentColor"/>
</g>
<g transform="translate(55.8430, 17.5836)">
<rect x="-0.0650" y="-1.1900" width="0.1300" height="2.5039" ry="0.0400" fill="currentColor"/>
</g>
<g transform="translate(43.6072, 19.0836)">
<path transform="scale(0.0040, -0.0040)" d="M218 136c66 0 108 -36 108 -89c0 -89 -113 -183 -218 -183c-66 0 -108 36 -108 89c0 89 113 183 218 183z" fill="currentColor"/>
</g>
<g transform="translate(44.8465, 17.5836)">
<rect x="-0.0650" y="-1.1954" width="0.1300" height="2.5093" ry="0.0400" fill="currentColor"/>
</g>
<g transform="translate(5.6906, 31.5836)">
<line stroke-linejoin="round" stroke-linecap="round" stroke-width="0.1000" stroke="currentColor" x1="0.0500" y1="0" x2="113.7610" y2="0"/>
</g>
<g transform="translate(5.6906, 30.5836)">
<line stroke-linejoin="round" stroke-linecap="round" stroke-width="0.1000" stroke="currentColor" x1="0.0500" y1="0" x2="113.7610" y2="0"/>
</g>
<g transform="translate(5.6906, 29.5836)">
<line stroke-linejoin="round" stroke-linecap="round" stroke-width="0.1000" stroke="currentColor" x1="0.0500" y1="0" x2="113.7610" y2="0"/>
</g>
<g transform="translate(5.6906, 28.5836)">
<line stroke-linejoin="round" stroke-linecap="round" stroke-width="0.1000" stroke="currentColor" x1="0.0500" y1="0" x2="113.7610" y2="0"/>
</g>
<g transform="translate(5.6906, 27.5836)">
<line stroke-linejoin="round" stroke-linecap="round" stroke-width="0.1000" stroke="currentColor" x1="0.0500" y1="0" x2="113.7610" y2="0"/>
</g>
<g transform="translate(119.3116, 29.5836)">
<rect x="0.0000" y="-2.0000" width="0.1900" height="4.0000" ry="0.0000" fill="currentColor"/>
</g>
<g transform="translate(93.0019, 29.5836)">
<rect x="0.0000" y="-2.0000" width="0.1900" height="4.0000" ry="0.0000" fill="currentColor"/>
</g>
<g transform="translate(40.2522, 29.5836)">
<rect x="0.0000" y="-2.0000" width="0.1900" height="4.0000" ry="0.0000" fill="currentColor"/>
</g>
<g transform="translate(12.0106, 29.5836)">
<rect x="0.0000" y="-2.0000" width="0.6000" height="4.0000" ry="0.0000" fill="currentColor"/>
</g>
<g transform="translate(12.0106, 27.5836)">
<path transform="scale(0.0040, -0.0040)" d="M0 -56v87c0 14 11 25 25 25h50c159 0 271 136 362 270c12 17 38 -1 26 -18c-99 -144 -215 -364 -388 -364h-75z" fill="currentColor"/>
</g>
<g transform="translate(12.0106, 31.5836)">
<path transform="scale(0.0040, -0.0040)" d="M0 56h75c173 0 289 -220 388 -364c12 -17 -14 -35 -26 -18c-91 134 -203 270 -362 270h-50c-14 0 -25 11 -25 25v87z" fill="currentColor"/>
</g>
<g transform="translate(13.4006, 29.0836)">
<path transform="scale(0.0040, -0.0040)" d="M0 0c0 31 25 56 56 56s56 -25 56 -56s-25 -56 -56 -56s-56 25 -56 56z" fill="currentColor"/>
</g>
<g transform="translate(13.4006, 30.0836)">
<path transform="scale(0.0040, -0.0040)" d="M0 0c0 31 25 56 56 56s56 -25 56 -56s-25 -56 -56 -56s-56 25 -56 56z" fill="currentColor"/>
</g>
<g transform="translate(12.9106, 29.5836)">
<rect x="0.0000" y="-2.0000" width="0.1900" height="4.0000" ry="0.0000" fill="currentColor"/>
</g>
<g transform="translate(5.6906, 32.5836)">
<rect x="17.7018" y="-0.1000" width="1.9563" height="0.2000" ry="0.1000" fill="currentColor"/>
</g>
<g transform="translate(66.8459, 29.5836)">
<rect x="0.0000" y="-2.0000" width="0.1900" height="4.0000" ry="0.0000" fill="currentColor"/>
</g>
<g transform="translate(89.7868, 29.5836)">
<rect x="-0.0650" y="-0.8139" width="0.1300" height="3.0137" ry="0.0400" fill="currentColor"/>
</g>
<g transform="translate(94.7126, 29.5836)">
<rect x="-0.0650" y="-1.3139" width="0.1300" height="3.5085" ry="0.0400" fill="currentColor"/>
</g>
<g transform="translate(94.6476, 36.1931)">
<text font-family="Source Sans Pro" font-size="2.6163" text-anchor="start" fill="currentColor">
<tspan>C</tspan>
</text>
</g>
<g transform="translate(94.6476, 28.0836)">
<path transform="scale(0.0040, -0.0040)" d="M218 136c66 0 108 -36 108 -89c0 -89 -113 -183 -218 -183c-66 0 -108 36 -108 89c0 89 113 183 218 183z" fill="currentColor"/>
</g>
<g transform="translate(89.7218, 28.5836)">
<path transform="scale(0.0040, -0.0040)" d="M218 136c66 0 108 -36 108 -89c0 -89 -113 -183 -218 -183c-66 0 -108 36 -108 89c0 89 113 183 218 183z" fill="currentColor"/>
</g>
<g transform="translate(98.9965, 29.5836)">
<rect x="-0.0650" y="-0.3139" width="0.1300" height="2.8139" ry="0.0400" fill="currentColor"/>
</g>
<g transform="translate(98.9315, 29.0836)">
<path transform="scale(0.0040, -0.0040)" d="M218 136c66 0 108 -36 108 -89c0 -89 -113 -183 -218 -183c-66 0 -108 36 -108 89c0 89 113 183 218 183z" fill="currentColor"/>
</g>
<g transform="translate(73.8254, 29.5836)">
<rect x="-0.0650" y="-2.5000" width="0.1300" height="2.8139" ry="0.0400" fill="currentColor"/>
</g>
<g transform="translate(72.5862, 30.0836)">
<path transform="scale(0.0040, -0.0040)" d="M218 136c66 0 108 -36 108 -89c0 -89 -113 -183 -218 -183c-66 0 -108 36 -108 89c0 89 113 183 218 183z" fill="currentColor"/>
</g>
<g transform="translate(76.8701, 29.5836)">
<path transform="scale(0.0040, -0.0040)" d="M218 136c66 0 108 -36 108 -89c0 -89 -113 -183 -218 -183c-66 0 -108 36 -108 89c0 89 113 183 218 183z" fill="currentColor"/>
</g>
<g transform="translate(85.5029, 29.5836)">
<rect x="-0.0650" y="-1.8139" width="0.1300" height="4.6589" ry="0.0400" fill="currentColor"/>
</g>
<g transform="translate(78.1093, 29.5836)">
<rect x="-0.0650" y="-2.8054" width="0.1300" height="2.6193" ry="0.0400" fill="currentColor"/>
</g>
<g transform="translate(75.8358, 29.5836)">
<path transform="scale(0.0040, -0.0040)" d="M-8 375c8 4 17 7 26 7s16 -3 24 -7l-2 -183l106 20h3c10 0 18 -7 18 -17l7 -570c-8 -4 -16 -7 -25 -7s-17 3 -25 7l3 183l-106 -20h-3c-10 0 -18 7 -18 17zM131 112l-92 -17l-3 -207l92 17z" fill="currentColor"/>
</g>
<g transform="translate(81.1540, 30.5836)">
<path transform="scale(0.0040, -0.0040)" d="M218 136c66 0 108 -36 108 -89c0 -89 -113 -183 -218 -183c-66 0 -108 36 -108 89c0 89 113 183 218 183z" fill="currentColor"/>
</g>
<g transform="translate(81.1540, 36.1931)">
<text font-family="Source Sans Pro" font-size="2.6163" text-anchor="start" fill="currentColor">
<tspan>G</tspan>
</text>
</g>
<g transform="translate(82.7587, 35.0038)">
<text font-family="Source Sans Pro" font-size="1.8500" text-anchor="start" fill="currentColor">
<tspan>7</tspan>
</text>
</g>
<g transform="translate(81.2190, 29.5836)">
<rect x="-0.0650" y="1.1861" width="0.1300" height="2.3041" ry="0.0400" fill="currentColor"/>
</g>
<g transform="translate(85.4379, 27.5836)">
<path transform="scale(0.0040, -0.0040)" d="M218 136c66 0 108 -36 108 -89c0 -89 -113 -183 -218 -183c-66 0 -108 36 -108 89c0 89 113 183 218 183z" fill="currentColor"/>
</g>
<g transform="translate(69.4765, 27.3936)">
<polygon stroke-linejoin="round" stroke-linecap="round" stroke-width="0.0800" fill="currentColor" stroke="currentColor" points="8.6578 -0.8200 8.6578 -0.4200 0.0400 0.2000 0.0400 -0.2000"/>
</g>
<g transform="translate(81.1540, 33.0836)">
<polygon stroke-linejoin="round" stroke-linecap="round" stroke-width="0.0800" fill="currentColor" stroke="currentColor" points="8.6578 -1.5100 8.6578 -1.1100 0.0400 0.2000 0.0400 -0.2000"/>
</g>
<g transform="translate(94.6476, 31.7736)">
<polygon stroke-linejoin="round" stroke-linecap="round" stroke-width="0.0800" fill="currentColor" stroke="currentColor" points="8.6578 0.4200 8.6578 0.8200 0.0400 0.2000 0.0400 -0.2000"/>
</g>
<g transform="translate(107.4994, 32.3936)">
<polygon stroke-linejoin="round" stroke-linecap="round" stroke-width="0.0800" fill="currentColor" stroke="currentColor" points="8.6578 -0.8200 8.6578 -0.4200 0.0400 0.2000 0.0400 -0.2000"/>
</g>
<g transform="translate(55.7345, 28.3936)">
<polygon stroke-linejoin="round" stroke-linecap="round" stroke-width="0.0800" fill="currentColor" stroke="currentColor" points="8.6578 -0.2000 8.6578 0.2000 0.0400 0.2000 0.0400 -0.2000"/>
</g>
<g transform="translate(42.8828, 27.7736)">
<polygon stroke-linejoin="round" stroke-linecap="round" stroke-width="0.0800" fill="currentColor" stroke="currentColor" points="8.6578 0.4200 8.6578 0.8200 0.0400 0.2000 0.0400 -0.2000"/>
</g>
<g transform="translate(29.1765, 26.7736)">
<polygon stroke-linejoin="round" stroke-linecap="round" stroke-width="0.0800" fill="currentColor" stroke="currentColor" points="8.6578 0.4200 8.6578 0.8200 0.0400 0.2000 0.0400 -0.2000"/>
</g>
<g transform="translate(16.3248, 27.5836)">
<polygon stroke-linejoin="round" stroke-linecap="round" stroke-width="0.0800" fill="currentColor" stroke="currentColor" points="8.6578 0.9900 8.6578 1.3900 0.0400 0.2000 0.0400 -0.2000"/>
</g>
<g transform="translate(111.7833, 28.5836)">
<path transform="scale(0.0040, -0.0040)" d="M218 136c66 0 108 -36 108 -89c0 -89 -113 -183 -218 -183c-66 0 -108 36 -108 89c0 89 113 183 218 183z" fill="currentColor"/>
</g>
<g transform="translate(107.5644, 29.5836)">
<rect x="-0.0650" y="-0.3139" width="0.1300" height="3.1193" ry="0.0400" fill="currentColor"/>
</g>
<g transform="translate(107.4994, 36.1931)">
<text font-family="Source Sans Pro" font-size="2.6163" text-anchor="start" fill="currentColor">
<tspan>C</tspan>
</text>
</g>
<g transform="translate(109.0017, 35.0038)">
<text font-family="Source Sans Pro" font-size="1.8500" text-anchor="start" fill="currentColor">
<tspan>7</tspan>
</text>
</g>
<g transform="translate(109.9235, 36.1931)">
<text font-family="Source Sans Pro" font-size="2.6163" text-anchor="start" fill="currentColor">
<tspan>/</tspan>
</text>
</g>
<g transform="translate(110.8454, 36.1931)">
<text font-family="Source Sans Pro" font-size="2.6163" text-anchor="start" fill="currentColor">
<tspan>E</tspan>
</text>
</g>
<g transform="translate(107.4994, 29.0836)">
<path transform="scale(0.0040, -0.0040)" d="M218 136c66 0 108 -36 108 -89c0 -89 -113 -183 -218 -183c-66 0 -108 36 -108 89c0 89 113 183 218 183z" fill="currentColor"/>
</g>
<g transform="translate(111.8483, 29.5836)">
<rect x="-0.0650" y="-0.8139" width="0.1300" height="3.3139" ry="0.0400" fill="currentColor"/>
</g>
<g transform="translate(103.2804, 29.5836)">
<rect x="-0.0650" y="-0.3139" width="0.1300" height="3.1193" ry="0.0400" fill="currentColor"/>
</g>
<g transform="translate(103.2154, 29.0836)">
<path transform="scale(0.0040, -0.0040)" d="M218 136c66 0 108 -36 108 -89c0 -89 -113 -183 -218 -183c-66 0 -108 36 -108 89c0 89 113 183 218 183z" fill="currentColor"/>
</g>
<g transform="translate(116.0672, 28.0836)">
<path transform="scale(0.0040, -0.0040)" d="M218 136c66 0 108 -36 108 -89c0 -89 -113 -183 -218 -183c-66 0 -108 36 -108 89c0 89 113 183 218 183z" fill="currentColor"/>
</g>
<g transform="translate(116.1322, 29.5836)">
<rect x="-0.0650" y="-1.3139" width="0.1300" height="3.5085" ry="0.0400" fill="currentColor"/>
</g>
<g transform="translate(36.5701, 30.5836)">
<path transform="scale(0.0040, -0.0040)" d="M218 136c66 0 108 -36 108 -89c0 -89 -113 -183 -218 -183c-66 0 -108 36 -108 89c0 89 113 183 218 183z" fill="currentColor"/>
</g>
<g transform="translate(33.5254, 29.5836)">
<rect x="-0.0650" y="-2.5000" width="0.1300" height="2.8139" ry="0.0400" fill="currentColor"/>
</g>
<g transform="translate(32.2862, 30.0836)">
<path transform="scale(0.0040, -0.0040)" d="M218 136c66 0 108 -36 108 -89c0 -89 -113 -183 -218 -183c-66 0 -108 36 -108 89c0 89 113 183 218 183z" fill="currentColor"/>
</g>
<g transform="translate(37.8093, 29.5836)">
<rect x="-0.0650" y="-2.1946" width="0.1300" height="3.0085" ry="0.0400" fill="currentColor"/>
</g>
<g transform="translate(29.2415, 29.5836)">
<rect x="-0.0650" y="-2.8054" width="0.1300" height="2.6193" ry="0.0400" fill="currentColor"/>
</g>
<g transform="translate(28.0023, 36.1931)">
<text font-family="Source Sans Pro" font-size="2.6163" text-anchor="start" fill="currentColor">
<tspan>C</tspan>
</text>
</g>
<g transform="translate(29.5046, 35.0038)">
<text font-family="Source Sans Pro" font-size="1.8500" text-anchor="start" fill="currentColor">
<tspan>7</tspan>
</text>
</g>
<g transform="translate(30.4265, 36.1931)">
<text font-family="Source Sans Pro" font-size="2.6163" text-anchor="start" fill="currentColor">
<tspan>/</tspan>
</text>
</g>
<g transform="translate(31.3483, 36.1931)">
<text font-family="Source Sans Pro" font-size="2.6163" text-anchor="start" fill="currentColor">
<tspan>E</tspan>
</text>
</g>
<g transform="translate(28.0023, 29.5836)">
<path transform="scale(0.0040, -0.0040)" d="M218 136c66 0 108 -36 108 -89c0 -89 -113 -183 -218 -183c-66 0 -108 36 -108 89c0 89 113 183 218 183z" fill="currentColor"/>
</g>
<g transform="translate(41.7085, 36.1931)">
<text font-family="Source Sans Pro" font-size="2.6163" text-anchor="start" fill="currentColor">
<tspan>F</tspan>
</text>
</g>
<g transform="translate(42.9478, 29.5836)">
<rect x="-0.0650" y="-1.8054" width="0.1300" height="2.1193" ry="0.0400" fill="currentColor"/>
</g>
<g transform="translate(10.1106, 29.5836)">
<path transform="scale(0.0040, -0.0040)" d="M27 41l-1 -66v-11c0 -22 1 -44 4 -66c45 38 93 80 93 139c0 33 -14 67 -43 67c-31 0 -52 -30 -53 -63zM-15 -138l-12 595c8 5 18 8 27 8s19 -3 27 -8l-7 -345c25 21 58 34 91 34c52 0 89 -48 89 -102c0 -80 -86 -117 -147 -169c-15 -13 -24 -38 -45 -38
c-13 0 -23 11 -23 25z" fill="currentColor"/>
</g>
<g transform="translate(6.4906, 30.5836)">
<path transform="scale(0.0040, -0.0040)" d="M266 -635h-6c-108 0 -195 88 -195 197c0 58 53 103 112 103c54 0 95 -47 95 -103c0 -52 -43 -95 -95 -95c-11 0 -21 2 -31 6c26 -39 68 -65 117 -65h4zM461 -203c68 24 113 90 113 164c0 90 -66 179 -173 190c19 -89 48 -242 60 -354zM74 28c0 -145 141 -247 264 -247
c1 0 47 0 82 6c-7 64 -29 203 -63 364c-79 -8 -124 -61 -124 -119c0 -44 25 -91 81 -123c5 -5 7 -10 7 -15c0 -11 -10 -22 -22 -22c-15 0 -126 62 -126 187c0 88 58 174 160 197c-14 58 -29 117 -46 175c-107 -121 -213 -243 -213 -403zM250 553c-29 96 -52 170 -52 346
c0 115 55 224 149 292c6 5 14 5 20 0c68 -80 133 -245 133 -358c0 -143 -86 -255 -180 -364c21 -68 39 -138 56 -207c2 0 7 1 13 1c155 0 256 -128 256 -261c0 -113 -74 -212 -180 -246c3 -35 5 -70 5 -105c0 -19 -1 -39 -2 -58c-7 -119 -88 -225 -202 -228l1 43
c93 2 153 92 159 191c1 18 2 37 2 55c0 31 -1 61 -4 92c-5 -1 -44 -8 -89 -8c-193 0 -333 180 -333 374c0 177 131 306 248 441zM428 916c0 34 1 66 -20 129c-99 -48 -162 -149 -162 -259c0 -52 12 -115 36 -194c80 97 146 198 146 324z" fill="currentColor"/>
</g>
<g transform="translate(15.1506, 30.5836)">
<path transform="scale(0.0040, -0.0040)" d="M218 136c66 0 108 -36 108 -89c0 -89 -113 -183 -218 -183c-66 0 -108 36 -108 89c0 89 113 183 218 183z" fill="currentColor"/>
</g>
<g transform="translate(2.9834, 29.1301)">
<text font-family="Source Sans Pro" font-size="1.7461" text-anchor="start" fill="currentColor">
<tspan>17</tspan>
</text>
</g>
<g transform="translate(2.9834, 31.1301)">
<text font-family="Source Sans Pro" font-size="1.7461" text-anchor="start" fill="currentColor">
<tspan>25</tspan>
</text>
</g>
<g transform="translate(41.7085, 30.0836)">
<path transform="scale(0.0040, -0.0040)" d="M218 136c66 0 108 -36 108 -89c0 -89 -113 -183 -218 -183c-66 0 -108 36 -108 89c0 89 113 183 218 183z" fill="currentColor"/>
</g>
<g transform="translate(15.1506, 36.1931)">
<text font-family="Source Sans Pro" font-size="2.6163" text-anchor="start" fill="currentColor">
<tspan>C</tspan>
</text>
</g>
<g transform="translate(16.6529, 35.0038)">
<text font-family="Source Sans Pro" font-size="1.8500" text-anchor="start" fill="currentColor">
<tspan>7</tspan>
</text>
</g>
<g transform="translate(16.3898, 29.5836)">
<rect x="-0.0650" y="-1.9911" width="0.1300" height="2.8050" ry="0.0400" fill="currentColor"/>
</g>
<g transform="translate(19.4345, 31.5836)">
<path transform="scale(0.0040, -0.0040)" d="M218 136c66 0 108 -36 108 -89c0 -89 -113 -183 -218 -183c-66 0 -108 36 -108 89c0 89 113 183 218 183z" fill="currentColor"/>
</g>
<g transform="translate(20.6737, 29.5836)">
<rect x="-0.0650" y="-1.4050" width="0.1300" height="3.2189" ry="0.0400" fill="currentColor"/>
</g>
<g transform="translate(23.7184, 32.5836)">
<path transform="scale(0.0040, -0.0040)" d="M218 136c66 0 108 -36 108 -89c0 -89 -113 -183 -218 -183c-66 0 -108 36 -108 89c0 89 113 183 218 183z" fill="currentColor"/>
</g>
<g transform="translate(24.9576, 29.5836)">
<rect x="-0.0650" y="-0.8189" width="0.1300" height="3.6328" ry="0.0400" fill="currentColor"/>
</g>
<g transform="translate(51.5156, 29.5836)">
<rect x="-0.0650" y="-1.1946" width="0.1300" height="2.5085" ry="0.0400" fill="currentColor"/>
</g>
<g transform="translate(54.5603, 36.1931)">
<text font-family="Source Sans Pro" font-size="2.6163" text-anchor="start" fill="currentColor">
<tspan>F</tspan>
</text>
</g>
<g transform="translate(55.8577, 36.1931)">
<text font-family="Source Sans Pro" font-size="2.6163" text-anchor="start" fill="currentColor">
<tspan>/</tspan>
</text>
</g>
<g transform="translate(56.7796, 36.1931)">
<text font-family="Source Sans Pro" font-size="2.6163" text-anchor="start" fill="currentColor">
<tspan>A</tspan>
</text>
</g>
<g transform="translate(55.7995, 29.5836)">
<rect x="-0.0650" y="-1.1900" width="0.1300" height="2.5039" ry="0.0400" fill="currentColor"/>
</g>
<g transform="translate(58.8442, 31.5836)">
<path transform="scale(0.0040, -0.0040)" d="M218 136c66 0 108 -36 108 -89c0 -89 -113 -183 -218 -183c-66 0 -108 36 -108 89c0 89 113 183 218 183z" fill="currentColor"/>
</g>
<g transform="translate(60.0834, 29.5836)">
<rect x="-0.0650" y="-1.1900" width="0.1300" height="3.0039" ry="0.0400" fill="currentColor"/>
</g>
<g transform="translate(54.5603, 31.0836)">
<path transform="scale(0.0040, -0.0040)" d="M218 136c66 0 108 -36 108 -89c0 -89 -113 -183 -218 -183c-66 0 -108 36 -108 89c0 89 113 183 218 183z" fill="currentColor"/>
</g>
<g transform="translate(63.1281, 31.0836)">
<path transform="scale(0.0040, -0.0040)" d="M218 136c66 0 108 -36 108 -89c0 -89 -113 -183 -218 -183c-66 0 -108 36 -108 89c0 89 113 183 218 183z" fill="currentColor"/>
</g>
<g transform="translate(64.3673, 29.5836)">
<rect x="-0.0650" y="-1.1900" width="0.1300" height="2.5039" ry="0.0400" fill="currentColor"/>
</g>
<g transform="translate(68.3022, 30.5836)">
<path transform="scale(0.0040, -0.0040)" d="M218 136c66 0 108 -36 108 -89c0 -89 -113 -183 -218 -183c-66 0 -108 36 -108 89c0 89 113 183 218 183z" fill="currentColor"/>
</g>
<g transform="translate(68.3022, 36.1931)">
<text font-family="Source Sans Pro" font-size="2.6163" text-anchor="start" fill="currentColor">
<tspan>G</tspan>
</text>
</g>
<g transform="translate(69.9070, 36.1931)">
<text font-family="Source Sans Pro" font-size="2.6163" text-anchor="start" fill="currentColor">
<tspan>/</tspan>
</text>
</g>
<g transform="translate(70.8289, 36.1931)">
<text font-family="Source Sans Pro" font-size="2.6163" text-anchor="start" fill="currentColor">
<tspan>B</tspan>
</text>
</g>
<g transform="translate(69.5415, 29.5836)">
<rect x="-0.0650" y="-2.1946" width="0.1300" height="3.0085" ry="0.0400" fill="currentColor"/>
</g>
<g transform="translate(47.2317, 29.5836)">
<rect x="-0.0650" y="-1.5000" width="0.1300" height="2.8139" ry="0.0400" fill="currentColor"/>
</g>
<g transform="translate(45.9925, 31.0836)">
<path transform="scale(0.0040, -0.0040)" d="M218 136c66 0 108 -36 108 -89c0 -89 -113 -183 -218 -183c-66 0 -108 36 -108 89c0 89 113 183 218 183z" fill="currentColor"/>
</g>
<g transform="translate(50.2764, 31.0836)">
<path transform="scale(0.0040, -0.0040)" d="M218 136c66 0 108 -36 108 -89c0 -89 -113 -183 -218 -183c-66 0 -108 36 -108 89c0 89 113 183 218 183z" fill="currentColor"/>
</g>
<g transform="translate(5.6906, 46.1396)">
<line stroke-linejoin="round" stroke-linecap="round" stroke-width="0.1000" stroke="currentColor" x1="0.0500" y1="0" x2="113.7610" y2="0"/>
</g>
<g transform="translate(5.6906, 45.1396)">
<line stroke-linejoin="round" stroke-linecap="round" stroke-width="0.1000" stroke="currentColor" x1="0.0500" y1="0" x2="113.7610" y2="0"/>
</g>
<g transform="translate(5.6906, 44.1396)">
<line stroke-linejoin="round" stroke-linecap="round" stroke-width="0.1000" stroke="currentColor" x1="0.0500" y1="0" x2="113.7610" y2="0"/>
</g>
<g transform="translate(5.6906, 43.1396)">
<line stroke-linejoin="round" stroke-linecap="round" stroke-width="0.1000" stroke="currentColor" x1="0.0500" y1="0" x2="113.7610" y2="0"/>
</g>
<g transform="translate(5.6906, 42.1396)">
<line stroke-linejoin="round" stroke-linecap="round" stroke-width="0.1000" stroke="currentColor" x1="0.0500" y1="0" x2="113.7610" y2="0"/>
</g>
<g transform="translate(34.0878, 44.1396)">
<rect x="0.0000" y="-2.0000" width="0.1900" height="4.0000" ry="0.0000" fill="currentColor"/>
</g>
<g transform="translate(100.0973, 43.6396)">
<path transform="scale(0.0040, -0.0040)" d="M0 0c0 31 25 56 56 56s56 -25 56 -56s-25 -56 -56 -56s-56 25 -56 56z" fill="currentColor"/>
</g>
<g transform="translate(100.0973, 44.6396)">
<path transform="scale(0.0040, -0.0040)" d="M0 0c0 31 25 56 56 56s56 -25 56 -56s-25 -56 -56 -56s-56 25 -56 56z" fill="currentColor"/>
</g>
<g transform="scale(-1.0000, 1.0000)">
<g transform="translate(-101.9372, 44.1396)">
<rect x="0.0000" y="-2.0000" width="0.6000" height="4.0000" ry="0.0000" fill="currentColor"/>
</g>
<g transform="translate(-101.9372, 42.1396)">
<path transform="scale(0.0040, -0.0040)" d="M0 -56v87c0 14 11 25 25 25h50c159 0 271 136 362 270c12 17 38 -1 26 -18c-99 -144 -215 -364 -388 -364h-75z" fill="currentColor"/>
</g>
<g transform="translate(-101.9372, 46.1396)">
<path transform="scale(0.0040, -0.0040)" d="M0 56h75c173 0 289 -220 388 -364c12 -17 -14 -35 -26 -18c-91 134 -203 270 -362 270h-50c-14 0 -25 11 -25 25v87z" fill="currentColor"/>
</g>
</g>
<g transform="translate(100.8472, 44.1396)">
<rect x="0.0000" y="-2.0000" width="0.1900" height="4.0000" ry="0.0000" fill="currentColor"/>
</g>
<g transform="translate(118.9016, 44.1396)">
<rect x="0.0000" y="-2.0000" width="0.6000" height="4.0000" ry="0.0000" fill="currentColor"/>
</g>
<g transform="translate(118.4116, 44.1396)">
<rect x="0.0000" y="-2.0000" width="0.1900" height="4.0000" ry="0.0000" fill="currentColor"/>
</g>
<g transform="translate(78.2579, 44.1396)">
<rect x="0.0000" y="-2.0000" width="0.1900" height="4.0000" ry="0.0000" fill="currentColor"/>
</g>
<g transform="translate(56.2175, 44.1396)">
<rect x="0.0000" y="-2.0000" width="0.1900" height="4.0000" ry="0.0000" fill="currentColor"/>
</g>
<g transform="translate(5.6906, 47.1396)">
<rect x="51.4569" y="-0.1000" width="1.9563" height="0.2000" ry="0.1000" fill="currentColor"/>
</g>
<g transform="translate(91.3349, 44.1396)">
<rect x="-0.0650" y="-1.1900" width="0.1300" height="2.5039" ry="0.0400" fill="currentColor"/>
</g>
<g transform="translate(90.0957, 50.5541)">
<text font-family="Source Sans Pro" font-size="2.6163" text-anchor="start" fill="currentColor">
<tspan>B</tspan>
</text>
</g>
<g transform="translate(91.6322, 50.5541)">
<text font-family="Source Sans Pro" font-size="3.2965" text-anchor="start" fill="currentColor">
<tspan>°</tspan>
</text>
</g>
<g transform="translate(90.0957, 45.6396)">
<path transform="scale(0.0040, -0.0040)" d="M218 136c66 0 108 -36 108 -89c0 -89 -113 -183 -218 -183c-66 0 -108 36 -108 89c0 89 113 183 218 183z" fill="currentColor"/>
</g>
<g transform="translate(87.8077, 44.1396)">
<rect x="-0.0650" y="-1.1956" width="0.1300" height="2.5095" ry="0.0400" fill="currentColor"/>
</g>
<g transform="translate(86.5685, 45.6396)">
<path transform="scale(0.0040, -0.0040)" d="M218 136c66 0 108 -36 108 -89c0 -89 -113 -183 -218 -183c-66 0 -108 36 -108 89c0 89 113 183 218 183z" fill="currentColor"/>
</g>
<g transform="translate(84.2804, 44.1396)">
<rect x="-0.0650" y="-1.5000" width="0.1300" height="2.8139" ry="0.0400" fill="currentColor"/>
</g>
<g transform="translate(83.0412, 45.6396)">
<path transform="scale(0.0040, -0.0040)" d="M218 136c66 0 108 -36 108 -89c0 -89 -113 -183 -218 -183c-66 0 -108 36 -108 89c0 89 113 183 218 183z" fill="currentColor"/>
</g>
<g transform="translate(64.5281, 45.1396)">
<path transform="scale(0.0040, -0.0040)" d="M218 136c66 0 108 -36 108 -89c0 -89 -113 -183 -218 -183c-66 0 -108 36 -108 89c0 89 113 183 218 183z" fill="currentColor"/>
</g>
<g transform="translate(103.0033, 44.6396)">
<path transform="scale(0.0040, -0.0040)" d="M218 136c66 0 108 -36 108 -89c0 -89 -113 -183 -218 -183c-66 0 -108 36 -108 89c0 89 113 183 218 183z" fill="currentColor"/>
</g>
<g transform="translate(98.3895, 44.1396)">
<rect x="-0.0650" y="-1.1900" width="0.1300" height="2.5039" ry="0.0400" fill="currentColor"/>
</g>
<g transform="translate(97.1503, 45.6396)">
<path transform="scale(0.0040, -0.0040)" d="M218 136c66 0 108 -36 108 -89c0 -89 -113 -183 -218 -183c-66 0 -108 36 -108 89c0 89 113 183 218 183z" fill="currentColor"/>
</g>
<g transform="translate(94.8622, 44.1396)">
<rect x="-0.0650" y="-1.1900" width="0.1300" height="3.0039" ry="0.0400" fill="currentColor"/>
</g>
<g transform="translate(93.6230, 46.1396)">
<path transform="scale(0.0040, -0.0040)" d="M218 136c66 0 108 -36 108 -89c0 -89 -113 -183 -218 -183c-66 0 -108 36 -108 89c0 89 113 183 218 183z" fill="currentColor"/>
</g>
<g transform="translate(76.3491, 44.1396)">
<rect x="-0.0650" y="-2.1956" width="0.1300" height="3.0095" ry="0.0400" fill="currentColor"/>
</g>
<g transform="translate(75.1099, 45.1396)">
<path transform="scale(0.0040, -0.0040)" d="M218 136c66 0 108 -36 108 -89c0 -89 -113 -183 -218 -183c-66 0 -108 36 -108 89c0 89 113 183 218 183z" fill="currentColor"/>
</g>
<g transform="translate(72.8218, 44.1396)">
<rect x="-0.0650" y="-2.5000" width="0.1300" height="2.8139" ry="0.0400" fill="currentColor"/>
</g>
<g transform="translate(71.5826, 44.6396)">
<path transform="scale(0.0040, -0.0040)" d="M218 136c66 0 108 -36 108 -89c0 -89 -113 -183 -218 -183c-66 0 -108 36 -108 89c0 89 113 183 218 183z" fill="currentColor"/>
</g>
<g transform="translate(69.2946, 44.1396)">
<rect x="-0.0650" y="-2.8044" width="0.1300" height="2.6183" ry="0.0400" fill="currentColor"/>
</g>
<g transform="translate(68.0553, 50.5541)">
<text font-family="Source Sans Pro" font-size="2.6163" text-anchor="start" fill="currentColor">
<tspan>C</tspan>
</text>
</g>
<g transform="translate(69.5577, 49.3649)">
<text font-family="Source Sans Pro" font-size="1.8500" text-anchor="start" fill="currentColor">
<tspan>7</tspan>
</text>
</g>
<g transform="translate(70.4795, 50.5541)">
<text font-family="Source Sans Pro" font-size="2.6163" text-anchor="start" fill="currentColor">
<tspan>/</tspan>
</text>
</g>
<g transform="translate(71.4014, 50.5541)">
<text font-family="Source Sans Pro" font-size="2.6163" text-anchor="start" fill="currentColor">
<tspan>E</tspan>
</text>
</g>
<g transform="translate(68.0553, 44.1396)">
<path transform="scale(0.0040, -0.0040)" d="M218 136c66 0 108 -36 108 -89c0 -89 -113 -183 -218 -183c-66 0 -108 36 -108 89c0 89 113 183 218 183z" fill="currentColor"/>
</g>
<g transform="translate(65.7673, 44.1396)">
<rect x="-0.0650" y="-1.9892" width="0.1300" height="2.8031" ry="0.0400" fill="currentColor"/>
</g>
<g transform="translate(80.7531, 44.1396)">
<rect x="-0.0650" y="-1.8044" width="0.1300" height="2.1183" ry="0.0400" fill="currentColor"/>
</g>
<g transform="translate(79.5139, 50.5541)">
<text font-family="Source Sans Pro" font-size="2.6163" text-anchor="start" fill="currentColor">
<tspan>F</tspan>
</text>
</g>
<g transform="translate(79.5139, 44.6396)">
<path transform="scale(0.0040, -0.0040)" d="M218 136c66 0 108 -36 108 -89c0 -89 -113 -183 -218 -183c-66 0 -108 36 -108 89c0 89 113 183 218 183z" fill="currentColor"/>
</g>
<g transform="translate(69.2296, 41.3296)">
<polygon stroke-linejoin="round" stroke-linecap="round" stroke-width="0.0800" fill="currentColor" stroke="currentColor" points="7.1445 0.4200 7.1445 0.8200 0.0400 0.2000 0.0400 -0.2000"/>
</g>
<g transform="translate(79.2879, 39.4845)">
<g>
<path transform="scale(0.0025, -0.0025)" d="M191 487c21 0 42 14 49 14c8 0 15 -10 15 -21v-353c0 -52 32 -99 80 -99c9 0 13 -7 13 -14s-4 -14 -13 -14c-48 0 -96 13 -144 13s-95 -13 -143 -13c-9 0 -14 7 -14 14s5 14 14 14c48 0 79 47 79 99v220c0 15 -10 22 -19 22c-5 0 -10 -1 -12 -6l-65 -129
c-3 -7 -9 -9 -15 -9c-9 0 -18 7 -18 17c0 3 1 5 2 8l127 250c7 13 35 -13 64 -13z" fill="currentColor"/>

<path transform="translate(0.8877, 0.0000) scale(0.0025, -0.0025)" d="M0 53c0 29 24 53 53 53s53 -24 53 -53s-24 -53 -53 -53s-53 24 -53 53z" fill="currentColor"/>
</g>
</g>
<g transform="translate(78.2579, 37.6916)">
<line stroke-linejoin="round" stroke-linecap="round" stroke-width="0.1600" stroke="currentColor" x1="22.6694" y1="-0.0000" x2="22.6694" y2="2.0000"/>
</g>
<g transform="translate(78.2579, 37.6916)">
<line stroke-linejoin="round" stroke-linecap="round" stroke-width="0.1600" stroke="currentColor" x1="0.1100" y1="-0.0000" x2="0.1100" y2="2.0000"/>
</g>
<g transform="translate(78.2579, 37.6916)">
<line stroke-linejoin="round" stroke-linecap="round" stroke-width="0.1600" stroke="currentColor" x1="0.1100" y1="-0.0000" x2="22.6694" y2="-0.0000"/>
</g>
<g transform="translate(80.6881, 42.3296)">
<polygon stroke-linejoin="round" stroke-linecap="round" stroke-width="0.0800" fill="currentColor" stroke="currentColor" points="7.1445 0.4200 7.1445 0.8200 0.0400 0.2000 0.0400 -0.2000"/>
</g>
<g transform="translate(58.6477, 43.3296)">
<polygon stroke-linejoin="round" stroke-linecap="round" stroke-width="0.0800" fill="currentColor" stroke="currentColor" points="7.1445 -1.3900 7.1445 -0.9900 0.0400 0.2000 0.0400 -0.2000"/>
</g>
<g transform="translate(91.2699, 42.9496)">
<polygon stroke-linejoin="round" stroke-linecap="round" stroke-width="0.0800" fill="currentColor" stroke="currentColor" points="7.1445 -0.2000 7.1445 0.2000 0.0400 0.2000 0.0400 -0.2000"/>
</g>
<g transform="translate(104.1775, 42.3296)">
<polygon stroke-linejoin="round" stroke-linecap="round" stroke-width="0.0800" fill="currentColor" stroke="currentColor" points="7.1445 0.4200 7.1445 0.8200 0.0400 0.2000 0.0400 -0.2000"/>
</g>
<g transform="translate(13.4106, 45.3296)">
<polygon stroke-linejoin="round" stroke-linecap="round" stroke-width="0.0800" fill="currentColor" stroke="currentColor" points="7.1445 -0.2000 7.1445 0.2000 0.0400 0.2000 0.0400 -0.2000"/>
</g>
<g transform="translate(25.1666, 42.3296)">
<polygon stroke-linejoin="round" stroke-linecap="round" stroke-width="0.0800" fill="currentColor" stroke="currentColor" points="7.1445 -1.3900 7.1445 -0.9900 0.0400 0.2000 0.0400 -0.2000"/>
</g>
<g transform="translate(35.5046, 47.1396)">
<polygon stroke-linejoin="round" stroke-linecap="round" stroke-width="0.0800" fill="currentColor" stroke="currentColor" points="7.1445 0.3000 7.1445 0.7000 0.0400 0.2000 0.0400 -0.2000"/>
</g>
<g transform="translate(47.2606, 42.3296)">
<polygon stroke-linejoin="round" stroke-linecap="round" stroke-width="0.0800" fill="currentColor" stroke="currentColor" points="7.1445 -1.5800 7.1445 -1.1800 0.0400 0.2000 0.0400 -0.2000"/>
</g>
<g transform="translate(107.7698, 44.1396)">
<rect x="-0.0650" y="-1.5000" width="0.1300" height="2.8139" ry="0.0400" fill="currentColor"/>
</g>
<g transform="translate(106.5306, 45.6396)">
<path transform="scale(0.0040, -0.0040)" d="M218 136c66 0 108 -36 108 -89c0 -89 -113 -183 -218 -183c-66 0 -108 36 -108 89c0 89 113 183 218 183z" fill="currentColor"/>
</g>
<g transform="translate(104.2425, 44.1396)">
<rect x="-0.0650" y="-1.8044" width="0.1300" height="2.1183" ry="0.0400" fill="currentColor"/>
</g>
<g transform="translate(114.8243, 44.1396)">
<rect x="-0.0650" y="-2.0000" width="0.1300" height="3.3139" ry="0.0400" fill="currentColor"/>
</g>
<g transform="translate(103.0033, 50.5541)">
<text font-family="Source Sans Pro" font-size="2.6163" text-anchor="start" fill="currentColor">
<tspan>F</tspan>
</text>
</g>
<g transform="translate(113.5851, 45.6396)">
<path transform="scale(0.0040, -0.0040)" d="M218 136c66 0 108 -36 108 -89c0 -89 -113 -183 -218 -183c-66 0 -108 36 -108 89c0 89 113 183 218 183z" fill="currentColor"/>
</g>
<g transform="translate(111.2970, 44.1396)">
<rect x="-0.0650" y="-1.1956" width="0.1300" height="2.5095" ry="0.0400" fill="currentColor"/>
</g>
<g transform="translate(110.0578, 45.6396)">
<path transform="scale(0.0040, -0.0040)" d="M218 136c66 0 108 -36 108 -89c0 -89 -113 -183 -218 -183c-66 0 -108 36 -108 89c0 89 113 183 218 183z" fill="currentColor"/>
</g>
<g transform="translate(32.2861, 44.1396)">
<rect x="-0.0650" y="-2.9892" width="0.1300" height="2.3031" ry="0.0400" fill="currentColor"/>
</g>
<g transform="translate(31.0469, 43.6396)">
<path transform="scale(0.0040, -0.0040)" d="M218 136c66 0 108 -36 108 -89c0 -89 -113 -183 -218 -183c-66 0 -108 36 -108 89c0 89 113 183 218 183z" fill="currentColor"/>
</g>
<g transform="translate(35.5046, 43.1396)">
<path transform="scale(0.0040, -0.0040)" d="M218 136c66 0 108 -36 108 -89c0 -89 -113 -183 -218 -183c-66 0 -108 36 -108 89c0 89 113 183 218 183z" fill="currentColor"/>
</g>
<g transform="translate(28.7589, 44.1396)">
<rect x="-0.0650" y="-2.4050" width="0.1300" height="2.7189" ry="0.0400" fill="currentColor"/>
</g>
<g transform="translate(27.5196, 44.6396)">
<path transform="scale(0.0040, -0.0040)" d="M218 136c66 0 108 -36 108 -89c0 -89 -113 -183 -218 -183c-66 0 -108 36 -108 89c0 89 113 183 218 183z" fill="currentColor"/>
</g>
<g transform="translate(25.2316, 44.1396)">
<rect x="-0.0650" y="-1.8208" width="0.1300" height="3.1347" ry="0.0400" fill="currentColor"/>
</g>
<g transform="translate(23.9924, 50.5541)">
<text font-family="Source Sans Pro" font-size="2.6163" text-anchor="start" fill="currentColor">
<tspan>F</tspan>
</text>
</g>
<g transform="translate(25.2898, 49.3649)">
<text font-family="Source Sans Pro" font-size="1.8500" text-anchor="start" fill="currentColor">
<tspan>7</tspan>
</text>
</g>
<g transform="translate(26.2117, 50.5541)">
<text font-family="Source Sans Pro" font-size="2.6163" text-anchor="start" fill="currentColor">
<tspan>/</tspan>
</text>
</g>
<g transform="translate(27.1336, 50.5541)">
<text font-family="Source Sans Pro" font-size="2.6163" text-anchor="start" fill="currentColor">
<tspan>E</tspan>
</text>
</g>
<g transform="translate(28.7212, 50.2541)">
<path transform="scale(0.0042, -0.0042)" d="M27 41l-1 -66v-11c0 -22 1 -44 4 -66c45 38 93 80 93 139c0 33 -14 67 -43 67c-31 0 -52 -30 -53 -63zM-15 -138l-12 595c8 5 18 8 27 8s19 -3 27 -8l-7 -345c25 21 58 34 91 34c52 0 89 -48 89 -102c0 -80 -86 -117 -147 -169c-15 -13 -24 -38 -45 -38
c-13 0 -23 11 -23 25z" fill="currentColor"/>
</g>
<g transform="translate(23.9924, 45.6396)">
<path transform="scale(0.0040, -0.0040)" d="M218 136c66 0 108 -36 108 -89c0 -89 -113 -183 -218 -183c-66 0 -108 36 -108 89c0 89 113 183 218 183z" fill="currentColor"/>
</g>
<g transform="translate(39.0969, 44.1396)">
<rect x="-0.0650" y="0.1861" width="0.1300" height="3.0639" ry="0.0400" fill="currentColor"/>
</g>
<g transform="translate(39.0319, 44.1396)">
<path transform="scale(0.0040, -0.0040)" d="M218 136c66 0 108 -36 108 -89c0 -89 -113 -183 -218 -183c-66 0 -108 36 -108 89c0 89 113 183 218 183z" fill="currentColor"/>
</g>
<g transform="translate(35.5696, 44.1396)">
<rect x="-0.0650" y="-0.8139" width="0.1300" height="3.8184" ry="0.0400" fill="currentColor"/>
</g>
<g transform="translate(35.5046, 50.5541)">
<text font-family="Source Sans Pro" font-size="2.6163" text-anchor="start" fill="currentColor">
<tspan>G</tspan>
</text>
</g>
<g transform="translate(37.1093, 50.5541)">
<text font-family="Source Sans Pro" font-size="2.6163" text-anchor="start" fill="currentColor">
<tspan>m</tspan>
</text>
</g>
<g transform="translate(39.2945, 50.5541)">
<text font-family="Source Sans Pro" font-size="2.6163" text-anchor="start" fill="currentColor">
<tspan>/</tspan>
</text>
</g>
<g transform="translate(40.2164, 50.5541)">
<text font-family="Source Sans Pro" font-size="2.6163" text-anchor="start" fill="currentColor">
<tspan>D</tspan>
</text>
</g>
<g transform="translate(10.1106, 44.1396)">
<path transform="scale(0.0040, -0.0040)" d="M27 41l-1 -66v-11c0 -22 1 -44 4 -66c45 38 93 80 93 139c0 33 -14 67 -43 67c-31 0 -52 -30 -53 -63zM-15 -138l-12 595c8 5 18 8 27 8s19 -3 27 -8l-7 -345c25 21 58 34 91 34c52 0 89 -48 89 -102c0 -80 -86 -117 -147 -169c-15 -13 -24 -38 -45 -38
c-13 0 -23 11 -23 25z" fill="currentColor"/>
</g>
<g transform="translate(6.4906, 45.1396)">
<path transform="scale(0.0040, -0.0040)" d="M266 -635h-6c-108 0 -195 88 -195 197c0 58 53 103 112 103c54 0 95 -47 95 -103c0 -52 -43 -95 -95 -95c-11 0 -21 2 -31 6c26 -39 68 -65 117 -65h4zM461 -203c68 24 113 90 113 164c0 90 -66 179 -173 190c19 -89 48 -242 60 -354zM74 28c0 -145 141 -247 264 -247
c1 0 47 0 82 6c-7 64 -29 203 -63 364c-79 -8 -124 -61 -124 -119c0 -44 25 -91 81 -123c5 -5 7 -10 7 -15c0 -11 -10 -22 -22 -22c-15 0 -126 62 -126 187c0 88 58 174 160 197c-14 58 -29 117 -46 175c-107 -121 -213 -243 -213 -403zM250 553c-29 96 -52 170 -52 346
c0 115 55 224 149 292c6 5 14 5 20 0c68 -80 133 -245 133 -358c0 -143 -86 -255 -180 -364c21 -68 39 -138 56 -207c2 0 7 1 13 1c155 0 256 -128 256 -261c0 -113 -74 -212 -180 -246c3 -35 5 -70 5 -105c0 -19 -1 -39 -2 -58c-7 -119 -88 -225 -202 -228l1 43
c93 2 153 92 159 191c1 18 2 37 2 55c0 31 -1 61 -4 92c-5 -1 -44 -8 -89 -8c-193 0 -333 180 -333 374c0 177 131 306 248 441zM428 916c0 34 1 66 -20 129c-99 -48 -162 -149 -162 -259c0 -52 12 -115 36 -194c80 97 146 198 146 324z" fill="currentColor"/>
</g>
<g transform="translate(102.7772, 39.4517)">
<g>
<path transform="scale(0.0025, -0.0025)" d="M233 0c-91 0 -93 69 -145 69c-29 0 -57 -21 -60 -56c-1 -9 -7 -13 -14 -13s-14 5 -14 14c0 155 233 167 233 341c0 57 -14 117 -63 117c-31 0 -61 -14 -61 -41c0 -25 32 -39 32 -64c0 -35 -28 -64 -63 -64s-64 29 -64 64c0 78 74 133 156 133c98 0 191 -55 191 -145
c0 -145 -138 -157 -236 -208h10c86 0 112 -61 170 -61c50 0 39 42 59 42c7 0 14 -6 14 -14c0 -24 -46 -114 -145 -114z" fill="currentColor"/>

<path transform="translate(0.9560, 0.0000) scale(0.0025, -0.0025)" d="M0 53c0 29 24 53 53 53s53 -24 53 -53s-24 -53 -53 -53s-53 24 -53 53z" fill="currentColor"/>
</g>
</g>
<g transform="translate(100.8472, 37.6916)">
<line stroke-linejoin="round" stroke-linecap="round" stroke-width="0.1600" stroke="currentColor" x1="18.5743" y1="-0.0000" x2="18.5743" y2="2.0000"/>
</g>
<g transform="translate(100.8472, 37.6916)">
<line stroke-linejoin="round" stroke-linecap="round" stroke-width="0.1600" stroke="currentColor" x1="1.0100" y1="-0.0000" x2="1.0100" y2="2.0000"/>
</g>
<g transform="translate(100.8472, 37.6916)">
<line stroke-linejoin="round" stroke-linecap="round" stroke-width="0.1600" stroke="currentColor" x1="1.0100" y1="-0.0000" x2="18.5743" y2="-0.0000"/>
</g>
<g transform="translate(2.9834, 43.6967)">
<text font-family="Source Sans Pro" font-size="1.7461" text-anchor="start" fill="currentColor">
<tspan>21</tspan>
</text>
</g>
<g transform="translate(2.9834, 45.6967)">
<text font-family="Source Sans Pro" font-size="1.7461" text-anchor="start" fill="currentColor">
<tspan>29</tspan>
</text>
</g>
<g transform="translate(17.0028, 44.1396)">
<rect x="-0.0650" y="-1.3139" width="0.1300" height="2.5039" ry="0.0400" fill="currentColor"/>
</g>
<g transform="translate(20.5301, 44.1396)">
<rect x="-0.0650" y="-1.8139" width="0.1300" height="3.0039" ry="0.0400" fill="currentColor"/>
</g>
<g transform="translate(20.4651, 42.1396)">
<path transform="scale(0.0040, -0.0040)" d="M218 136c66 0 108 -36 108 -89c0 -89 -113 -183 -218 -183c-66 0 -108 36 -108 89c0 89 113 183 218 183z" fill="currentColor"/>
</g>
<g transform="translate(16.9378, 42.6396)">
<path transform="scale(0.0040, -0.0040)" d="M218 136c66 0 108 -36 108 -89c0 -89 -113 -183 -218 -183c-66 0 -108 36 -108 89c0 89 113 183 218 183z" fill="currentColor"/>
</g>
<g transform="translate(13.4756, 44.1396)">
<rect x="-0.0650" y="-1.8139" width="0.1300" height="3.0039" ry="0.0400" fill="currentColor"/>
</g>
<g transform="translate(13.4106, 50.5541)">
<text font-family="Source Sans Pro" font-size="2.6163" text-anchor="start" fill="currentColor">
<tspan>F</tspan>
</text>
</g>
<g transform="translate(13.4106, 42.1396)">
<path transform="scale(0.0040, -0.0040)" d="M218 136c66 0 108 -36 108 -89c0 -89 -113 -183 -218 -183c-66 0 -108 36 -108 89c0 89 113 183 218 183z" fill="currentColor"/>
</g>
<g transform="translate(47.3256, 44.1396)">
<rect x="-0.0650" y="-1.8225" width="0.1300" height="4.1364" ry="0.0400" fill="currentColor"/>
</g>
<g transform="translate(57.4735, 50.5541)">
<text font-family="Source Sans Pro" font-size="2.6163" text-anchor="start" fill="currentColor">
<tspan>C</tspan>
</text>
</g>
<g transform="translate(58.9758, 49.3649)">
<text font-family="Source Sans Pro" font-size="1.8500" text-anchor="start" fill="currentColor">
<tspan>7</tspan>
</text>
</g>
<g transform="translate(54.3802, 44.1396)">
<rect x="-0.0650" y="-3.1775" width="0.1300" height="2.9914" ry="0.0400" fill="currentColor"/>
</g>
<g transform="translate(46.0864, 50.5541)">
<text font-family="Source Sans Pro" font-size="2.6163" text-anchor="start" fill="currentColor">
<tspan>G</tspan>
</text>
</g>
<g transform="translate(47.6911, 50.5541)">
<text font-family="Source Sans Pro" font-size="2.6163" text-anchor="start" fill="currentColor">
<tspan>m</tspan>
</text>
</g>
<g transform="translate(49.8763, 50.5541)">
<text font-family="Source Sans Pro" font-size="2.6163" text-anchor="start" fill="currentColor">
<tspan>/</tspan>
</text>
</g>
<g transform="translate(50.7982, 50.5541)">
<text font-family="Source Sans Pro" font-size="2.6163" text-anchor="start" fill="currentColor">
<tspan>B</tspan>
</text>
</g>
<g transform="translate(52.5565, 50.2541)">
<path transform="scale(0.0042, -0.0042)" d="M27 41l-1 -66v-11c0 -22 1 -44 4 -66c45 38 93 80 93 139c0 33 -14 67 -43 67c-31 0 -52 -30 -53 -63zM-15 -138l-12 595c8 5 18 8 27 8s19 -3 27 -8l-7 -345c25 21 58 34 91 34c52 0 89 -48 89 -102c0 -80 -86 -117 -147 -169c-15 -13 -24 -38 -45 -38
c-13 0 -23 11 -23 25z" fill="currentColor"/>
</g>
<g transform="translate(49.6137, 45.1396)">
<path transform="scale(0.0040, -0.0040)" d="M218 136c66 0 108 -36 108 -89c0 -89 -113 -183 -218 -183c-66 0 -108 36 -108 89c0 89 113 183 218 183z" fill="currentColor"/>
</g>
<g transform="translate(50.8529, 44.1396)">
<rect x="-0.0650" y="-2.5000" width="0.1300" height="3.3139" ry="0.0400" fill="currentColor"/>
</g>
<g transform="translate(53.1409, 44.1396)">
<path transform="scale(0.0040, -0.0040)" d="M218 136c66 0 108 -36 108 -89c0 -89 -113 -183 -218 -183c-66 0 -108 36 -108 89c0 89 113 183 218 183z" fill="currentColor"/>
</g>
<g transform="translate(58.7127, 44.1396)">
<rect x="-0.0650" y="-0.8208" width="0.1300" height="3.6347" ry="0.0400" fill="currentColor"/>
</g>
<g transform="translate(46.0864, 46.6396)">
<path transform="scale(0.0040, -0.0040)" d="M218 136c66 0 108 -36 108 -89c0 -89 -113 -183 -218 -183c-66 0 -108 36 -108 89c0 89 113 183 218 183z" fill="currentColor"/>
</g>
<g transform="translate(62.2400, 44.1396)">
<rect x="-0.0650" y="-1.4050" width="0.1300" height="3.2189" ry="0.0400" fill="currentColor"/>
</g>
<g transform="translate(61.0008, 46.1396)">
<path transform="scale(0.0040, -0.0040)" d="M218 136c66 0 108 -36 108 -89c0 -89 -113 -183 -218 -183c-66 0 -108 36 -108 89c0 89 113 183 218 183z" fill="currentColor"/>
</g>
<g transform="translate(42.5591, 44.1396)">
<path transform="scale(0.0040, -0.0040)" d="M218 136c66 0 108 -36 108 -89c0 -89 -113 -183 -218 -183c-66 0 -108 36 -108 89c0 89 113 183 218 183z" fill="currentColor"/>
</g>
<g transform="translate(42.6241, 44.1396)">
<rect x="-0.0650" y="0.1861" width="0.1300" height="3.3094" ry="0.0400" fill="currentColor"/>
</g>
<g transform="translate(57.4735, 47.1396)">
<path transform="scale(0.0040, -0.0040)" d="M218 136c66 0 108 -36 108 -89c0 -89 -113 -183 -218 -183c-66 0 -108 36 -108 89c0 89 113 183 218 183z" fill="currentColor"/>
</g>
</svg>
