<svg xmlns="http://www.w3.org/2000/svg" xmlns:xlink="http://www.w3.org/1999/xlink" version="1.2" width="210.00mm" height="63.28mm" viewBox="0 0 119.5016 36.0109">
<style type="text/css">
<![CDATA[
tspan { white-space: pre; }
]]>
</style>
<!-- Page: 1/1 -->
<g transform="translate(5.6906, 5.7790)">
<line stroke-linejoin="round" stroke-linecap="round" stroke-width="0.1000" stroke="currentColor" x1="0.0500" y1="0" x2="113.7610" y2="0"/>
</g>
<g transform="translate(5.6906, 4.7790)">
<line stroke-linejoin="round" stroke-linecap="round" stroke-width="0.1000" stroke="currentColor" x1="0.0500" y1="0" x2="113.7610" y2="0"/>
</g>
<g transform="translate(5.6906, 3.7790)">
<line stroke-linejoin="round" stroke-linecap="round" stroke-width="0.1000" stroke="currentColor" x1="0.0500" y1="0" x2="113.7610" y2="0"/>
</g>
<g transform="translate(5.6906, 2.7790)">
<line stroke-linejoin="round" stroke-linecap="round" stroke-width="0.1000" stroke="currentColor" x1="0.0500" y1="0" x2="113.7610" y2="0"/>
</g>
<g transform="translate(5.6906, 1.7790)">
<line stroke-linejoin="round" stroke-linecap="round" stroke-width="0.1000" stroke="currentColor" x1="0.0500" y1="0" x2="113.7610" y2="0"/>
</g>
<g transform="translate(16.0406, 3.7790)">
<rect x="0.0000" y="-2.0000" width="0.6000" height="4.0000" ry="0.0000" fill="currentColor"/>
</g>
<g transform="translate(16.0406, 1.7790)">
<path transform="scale(0.0040, -0.0040)" d="M0 -56v87c0 14 11 25 25 25h50c159 0 271 136 362 270c12 17 38 -1 26 -18c-99 -144 -215 -364 -388 -364h-75z" fill="currentColor"/>
</g>
<g transform="translate(16.0406, 5.7790)">
<path transform="scale(0.0040, -0.0040)" d="M0 56h75c173 0 289 -220 388 -364c12 -17 -14 -35 -26 -18c-91 134 -203 270 -362 270h-50c-14 0 -25 11 -25 25v87z" fill="currentColor"/>
</g>
<g transform="translate(17.4306, 3.2790)">
<path transform="scale(0.0040, -0.0040)" d="M0 0c0 31 25 56 56 56s56 -25 56 -56s-25 -56 -56 -56s-56 25 -56 56z" fill="currentColor"/>
</g>
<g transform="translate(17.4306, 4.2790)">
<path transform="scale(0.0040, -0.0040)" d="M0 0c0 31 25 56 56 56s56 -25 56 -56s-25 -56 -56 -56s-56 25 -56 56z" fill="currentColor"/>
</g>
<g transform="translate(16.9406, 3.7790)">
<rect x="0.0000" y="-2.0000" width="0.1900" height="4.0000" ry="0.0000" fill="currentColor"/>
</g>
<g transform="translate(94.2853, 3.7790)">
<rect x="0.0000" y="-2.0000" width="0.1900" height="4.0000" ry="0.0000" fill="currentColor"/>
</g>
<g transform="translate(43.4290, 3.7790)">
<rect x="0.0000" y="-2.0000" width="0.1900" height="4.0000" ry="0.0000" fill="currentColor"/>
</g>
<g transform="translate(117.6616, 3.2790)">
<path transform="scale(0.0040, -0.0040)" d="M0 0c0 31 25 56 56 56s56 -25 56 -56s-25 -56 -56 -56s-56 25 -56 56z" fill="currentColor"/>
</g>
<g transform="translate(117.6616, 4.2790)">
<path transform="scale(0.0040, -0.0040)" d="M0 0c0 31 25 56 56 56s56 -25 56 -56s-25 -56 -56 -56s-56 25 -56 56z" fill="currentColor"/>
</g>
<g transform="scale(-1.0000, 1.0000)">
<g transform="translate(-119.5016, 3.7790)">
<rect x="0.0000" y="-2.0000" width="0.6000" height="4.0000" ry="0.0000" fill="currentColor"/>
</g>
<g transform="translate(-119.5016, 1.7790)">
<path transform="scale(0.0040, -0.0040)" d="M0 -56v87c0 14 11 25 25 25h50c159 0 271 136 362 270c12 17 38 -1 26 -18c-99 -144 -215 -364 -388 -364h-75z" fill="currentColor"/>
</g>
<g transform="translate(-119.5016, 5.7790)">
<path transform="scale(0.0040, -0.0040)" d="M0 56h75c173 0 289 -220 388 -364c12 -17 -14 -35 -26 -18c-91 134 -203 270 -362 270h-50c-14 0 -25 11 -25 25v87z" fill="currentColor"/>
</g>
</g>
<g transform="translate(118.4116, 3.7790)">
<rect x="0.0000" y="-2.0000" width="0.1900" height="4.0000" ry="0.0000" fill="currentColor"/>
</g>
<g transform="translate(69.0701, 3.7790)">
<rect x="0.0000" y="-2.0000" width="0.1900" height="4.0000" ry="0.0000" fill="currentColor"/>
</g>
<g transform="translate(5.6906, 6.7790)">
<rect x="107.8495" y="-0.1000" width="1.9563" height="0.2000" ry="0.1000" fill="currentColor"/>
</g>
<g transform="translate(5.6906, 6.7790)">
<rect x="103.8123" y="-0.1000" width="1.9563" height="0.2000" ry="0.1000" fill="currentColor"/>
</g>
<g transform="translate(5.6906, 6.7790)">
<rect x="100.6055" y="-0.1000" width="1.9563" height="0.2000" ry="0.1000" fill="currentColor"/>
</g>
<g transform="translate(5.6906, 7.7790)">
<rect x="100.7566" y="-0.1000" width="1.8053" height="0.2000" ry="0.1000" fill="currentColor"/>
</g>
<g transform="translate(5.6906, 6.7790)">
<rect x="91.9566" y="-0.1000" width="1.9563" height="0.2000" ry="0.1000" fill="currentColor"/>
</g>
<g transform="translate(5.6906, 6.7790)">
<rect x="89.2355" y="-0.1000" width="1.9563" height="0.2000" ry="0.1000" fill="currentColor"/>
</g>
<g transform="translate(5.6906, 7.7790)">
<rect x="89.2355" y="-0.1000" width="1.9563" height="0.2000" ry="0.1000" fill="currentColor"/>
</g>
<g transform="translate(5.6906, 6.7790)">
<rect x="85.9198" y="-0.1000" width="1.9563" height="0.2000" ry="0.1000" fill="currentColor"/>
</g>
<g transform="translate(5.6906, 6.7790)">
<rect x="64.0203" y="-0.1000" width="1.9563" height="0.2000" ry="0.1000" fill="currentColor"/>
</g>
<g transform="translate(5.6906, 6.7790)">
<rect x="60.7403" y="-0.1000" width="1.9563" height="0.2000" ry="0.1000" fill="currentColor"/>
</g>
<g transform="translate(5.6906, 7.7790)">
<rect x="60.8914" y="-0.1000" width="1.8053" height="0.2000" ry="0.1000" fill="currentColor"/>
</g>
<g transform="translate(5.6906, 6.7790)">
<rect x="56.5861" y="-0.1000" width="1.9563" height="0.2000" ry="0.1000" fill="currentColor"/>
</g>
<g transform="translate(5.6906, 6.7790)">
<rect x="38.3792" y="-0.1000" width="1.9563" height="0.2000" ry="0.1000" fill="currentColor"/>
</g>
<g transform="translate(5.6906, 7.7790)">
<rect x="38.3792" y="-0.1000" width="1.9563" height="0.2000" ry="0.1000" fill="currentColor"/>
</g>
<g transform="translate(5.6906, 6.7790)">
<rect x="35.0635" y="-0.1000" width="1.9563" height="0.2000" ry="0.1000" fill="currentColor"/>
</g>
<g transform="translate(5.6906, 6.7790)">
<rect x="13.1639" y="-0.1000" width="1.9563" height="0.2000" ry="0.1000" fill="currentColor"/>
</g>
<g transform="translate(87.1066, 3.7790)">
<rect x="-0.0650" y="-1.8132" width="0.1300" height="3.6271" ry="0.0400" fill="currentColor"/>
</g>
<g transform="translate(93.1756, 3.7790)">
<rect x="-0.0650" y="-0.8132" width="0.1300" height="3.6271" ry="0.0400" fill="currentColor"/>
</g>
<g transform="translate(91.9364, 6.7790)">
<path transform="scale(0.0040, -0.0040)" d="M218 136c66 0 108 -36 108 -89c0 -89 -113 -183 -218 -183c-66 0 -108 36 -108 89c0 89 113 183 218 183z" fill="currentColor"/>
</g>
<g transform="translate(89.4831, 3.7790)">
<rect x="-0.0650" y="-0.9968" width="0.1300" height="3.3107" ry="0.0400" fill="currentColor"/>
</g>
<g transform="translate(89.9981, 6.2790)">
<path transform="scale(0.0040, -0.0040)" d="M0 0c0 31 25 56 56 56s56 -25 56 -56s-25 -56 -56 -56s-56 25 -56 56z" fill="currentColor"/>
</g>
<g transform="translate(88.2438, 6.2790)">
<path transform="scale(0.0040, -0.0040)" d="M218 136c66 0 108 -36 108 -89c0 -89 -113 -183 -218 -183c-66 0 -108 36 -108 89c0 89 113 183 218 183z" fill="currentColor"/>
</g>
<g transform="translate(85.8674, 5.7790)">
<path transform="scale(0.0040, -0.0040)" d="M218 136c66 0 108 -36 108 -89c0 -89 -113 -183 -218 -183c-66 0 -108 36 -108 89c0 89 113 183 218 183z" fill="currentColor"/>
</g>
<g transform="translate(70.0369, 7.2790)">
<path transform="scale(0.0040, -0.0040)" d="M218 136c66 0 108 -36 108 -89c0 -89 -113 -183 -218 -183c-66 0 -108 36 -108 89c0 89 113 183 218 183z" fill="currentColor"/>
</g>
<g transform="translate(99.2124, 3.7790)">
<rect x="-0.0650" y="-0.5000" width="0.1300" height="3.3139" ry="0.0400" fill="currentColor"/>
</g>
<g transform="translate(97.9732, 6.7790)">
<path transform="scale(0.0040, -0.0040)" d="M218 136c66 0 108 -36 108 -89c0 -89 -113 -183 -218 -183c-66 0 -108 36 -108 89c0 89 113 183 218 183z" fill="currentColor"/>
</g>
<g transform="translate(96.4913, 3.7790)">
<rect x="-0.0650" y="-0.1972" width="0.1300" height="4.0111" ry="0.0400" fill="currentColor"/>
</g>
<g transform="translate(95.2521, 11.9682)">
<text font-family="Source Sans Pro" font-size="2.6163" text-anchor="start" fill="currentColor">
<tspan>A</tspan>
</text>
</g>
<g transform="translate(95.2521, 7.7790)">
<path transform="scale(0.0040, -0.0040)" d="M218 136c66 0 108 -36 108 -89c0 -89 -113 -183 -218 -183c-66 0 -108 36 -108 89c0 89 113 183 218 183z" fill="currentColor"/>
</g>
<g transform="translate(73.6525, 3.7790)">
<rect x="-0.0650" y="-1.7841" width="0.1300" height="3.0980" ry="0.0400" fill="currentColor"/>
</g>
<g transform="translate(74.1675, 5.2790)">
<path transform="scale(0.0040, -0.0040)" d="M0 0c0 31 25 56 56 56s56 -25 56 -56s-25 -56 -56 -56s-56 25 -56 56z" fill="currentColor"/>
</g>
<g transform="translate(72.4133, 5.2790)">
<path transform="scale(0.0040, -0.0040)" d="M218 136c66 0 108 -36 108 -89c0 -89 -113 -183 -218 -183c-66 0 -108 36 -108 89c0 89 113 183 218 183z" fill="currentColor"/>
</g>
<g transform="translate(71.2761, 3.7790)">
<rect x="-0.0650" y="-0.8359" width="0.1300" height="4.1498" ry="0.0400" fill="currentColor"/>
</g>
<g transform="translate(70.0369, 11.9682)">
<text font-family="Source Sans Pro" font-size="2.6163" text-anchor="start" fill="currentColor">
<tspan>B</tspan>
</text>
</g>
<g transform="translate(71.5734, 11.9682)">
<text font-family="Source Sans Pro" font-size="2.6163" text-anchor="start" fill="currentColor">
<tspan>m</tspan>
</text>
</g>
<g transform="translate(79.7985, 4.7790)">
<path transform="scale(0.0040, -0.0040)" d="M218 136c66 0 108 -36 108 -89c0 -89 -113 -183 -218 -183c-66 0 -108 36 -108 89c0 89 113 183 218 183z" fill="currentColor"/>
</g>
<g transform="translate(83.4141, 3.7790)">
<rect x="-0.0650" y="-1.9968" width="0.1300" height="3.3107" ry="0.0400" fill="currentColor"/>
</g>
<g transform="translate(83.9291, 5.2790)">
<path transform="scale(0.0040, -0.0040)" d="M0 0c0 31 25 56 56 56s56 -25 56 -56s-25 -56 -56 -56s-56 25 -56 56z" fill="currentColor"/>
</g>
<g transform="translate(82.1749, 5.2790)">
<path transform="scale(0.0040, -0.0040)" d="M218 136c66 0 108 -36 108 -89c0 -89 -113 -183 -218 -183c-66 0 -108 36 -108 89c0 89 113 183 218 183z" fill="currentColor"/>
</g>
<g transform="translate(81.0377, 3.7790)">
<rect x="-0.0650" y="-1.9968" width="0.1300" height="2.8107" ry="0.0400" fill="currentColor"/>
</g>
<g transform="translate(77.3451, 3.7790)">
<rect x="-0.0650" y="-1.8132" width="0.1300" height="3.1271" ry="0.0400" fill="currentColor"/>
</g>
<g transform="translate(77.8601, 5.2790)">
<path transform="scale(0.0040, -0.0040)" d="M0 0c0 31 25 56 56 56s56 -25 56 -56s-25 -56 -56 -56s-56 25 -56 56z" fill="currentColor"/>
</g>
<g transform="translate(76.1059, 5.2790)">
<path transform="scale(0.0040, -0.0040)" d="M218 136c66 0 108 -36 108 -89c0 -89 -113 -183 -218 -183c-66 0 -108 36 -108 89c0 89 113 183 218 183z" fill="currentColor"/>
</g>
<g transform="translate(71.2111, 2.9690)">
<polygon stroke-linejoin="round" stroke-linecap="round" stroke-width="0.0800" fill="currentColor" stroke="currentColor" points="2.4664 -1.2000 2.4664 -0.8000 0.0400 0.2000 0.0400 -0.2000"/>
</g>
<g transform="translate(71.2111, 3.7790)">
<polygon stroke-linejoin="round" stroke-linecap="round" stroke-width="0.0800" fill="currentColor" stroke="currentColor" points="1.1250 -0.6648 1.1250 -0.2648 0.0400 0.2000 0.0400 -0.2000"/>
</g>
<g transform="translate(77.2801, 1.9690)">
<polygon stroke-linejoin="round" stroke-linecap="round" stroke-width="0.0800" fill="currentColor" stroke="currentColor" points="3.7826 -0.3900 3.7826 0.0100 0.0400 0.2000 0.0400 -0.2000"/>
</g>
<g transform="translate(79.9377, 2.6469)">
<polygon stroke-linejoin="round" stroke-linecap="round" stroke-width="0.0800" fill="currentColor" stroke="currentColor" points="1.1250 -0.2579 1.1250 0.1421 0.0400 0.2000 0.0400 -0.2000"/>
</g>
<g transform="translate(83.3491, 1.7790)">
<polygon stroke-linejoin="round" stroke-linecap="round" stroke-width="0.0800" fill="currentColor" stroke="currentColor" points="3.7826 -0.0100 3.7826 0.3900 0.0400 0.2000 0.0400 -0.2000"/>
</g>
<g transform="translate(86.0066, 2.7211)">
<polygon stroke-linejoin="round" stroke-linecap="round" stroke-width="0.0800" fill="currentColor" stroke="currentColor" points="1.1250 -0.1421 1.1250 0.2579 0.0400 0.2000 0.0400 -0.2000"/>
</g>
<g transform="translate(63.7769, 3.5890)">
<polygon stroke-linejoin="round" stroke-linecap="round" stroke-width="0.0800" fill="currentColor" stroke="currentColor" points="4.2442 -0.0100 4.2442 0.3900 0.0400 0.2000 0.0400 -0.2000"/>
</g>
<g transform="translate(66.8961, 4.5373)">
<polygon stroke-linejoin="round" stroke-linecap="round" stroke-width="0.0800" fill="currentColor" stroke="currentColor" points="1.1250 -0.1483 1.1250 0.2517 0.0400 0.2000 0.0400 -0.2000"/>
</g>
<g transform="translate(89.4181, 2.7790)">
<polygon stroke-linejoin="round" stroke-linecap="round" stroke-width="0.0800" fill="currentColor" stroke="currentColor" points="3.7826 -0.0100 3.7826 0.3900 0.0400 0.2000 0.0400 -0.2000"/>
</g>
<g transform="translate(92.0756, 3.7211)">
<polygon stroke-linejoin="round" stroke-linecap="round" stroke-width="0.0800" fill="currentColor" stroke="currentColor" points="1.1250 -0.1421 1.1250 0.2579 0.0400 0.2000 0.0400 -0.2000"/>
</g>
<g transform="translate(98.7856, 2.4889)">
<text font-family="Source Sans Pro" font-style="italic" font-size="1.7461" text-anchor="start" fill="currentColor">
<tspan>3</tspan>
</text>
</g>
<g transform="translate(96.4263, 3.5890)">
<polygon stroke-linejoin="round" stroke-linecap="round" stroke-width="0.0800" fill="currentColor" stroke="currentColor" points="5.5321 -0.8200 5.5321 -0.4200 0.0400 0.2000 0.0400 -0.2000"/>
</g>
<g transform="translate(20.3548, 2.9690)">
<polygon stroke-linejoin="round" stroke-linecap="round" stroke-width="0.0800" fill="currentColor" stroke="currentColor" points="2.4664 -1.2000 2.4664 -0.8000 0.0400 0.2000 0.0400 -0.2000"/>
</g>
<g transform="translate(20.3548, 3.7790)">
<polygon stroke-linejoin="round" stroke-linecap="round" stroke-width="0.0800" fill="currentColor" stroke="currentColor" points="1.1250 -0.6648 1.1250 -0.2648 0.0400 0.2000 0.0400 -0.2000"/>
</g>
<g transform="translate(26.4237, 1.9690)">
<polygon stroke-linejoin="round" stroke-linecap="round" stroke-width="0.0800" fill="currentColor" stroke="currentColor" points="3.7826 -0.3900 3.7826 0.0100 0.0400 0.2000 0.0400 -0.2000"/>
</g>
<g transform="translate(29.0813, 2.6469)">
<polygon stroke-linejoin="round" stroke-linecap="round" stroke-width="0.0800" fill="currentColor" stroke="currentColor" points="1.1250 -0.2579 1.1250 0.1421 0.0400 0.2000 0.0400 -0.2000"/>
</g>
<g transform="translate(32.4927, 1.7790)">
<polygon stroke-linejoin="round" stroke-linecap="round" stroke-width="0.0800" fill="currentColor" stroke="currentColor" points="3.7826 -0.0100 3.7826 0.3900 0.0400 0.2000 0.0400 -0.2000"/>
</g>
<g transform="translate(35.1503, 2.7211)">
<polygon stroke-linejoin="round" stroke-linecap="round" stroke-width="0.0800" fill="currentColor" stroke="currentColor" points="1.1250 -0.1421 1.1250 0.2579 0.0400 0.2000 0.0400 -0.2000"/>
</g>
<g transform="translate(38.5617, 2.7790)">
<polygon stroke-linejoin="round" stroke-linecap="round" stroke-width="0.0800" fill="currentColor" stroke="currentColor" points="3.7826 -0.0100 3.7826 0.3900 0.0400 0.2000 0.0400 -0.2000"/>
</g>
<g transform="translate(41.2193, 3.7211)">
<polygon stroke-linejoin="round" stroke-linecap="round" stroke-width="0.0800" fill="currentColor" stroke="currentColor" points="1.1250 -0.1421 1.1250 0.2579 0.0400 0.2000 0.0400 -0.2000"/>
</g>
<g transform="translate(104.5895, 2.7790)">
<polygon stroke-linejoin="round" stroke-linecap="round" stroke-width="0.0800" fill="currentColor" stroke="currentColor" points="3.2968 0.6100 3.2968 1.0100 0.0400 0.2000 0.0400 -0.2000"/>
</g>
<g transform="translate(45.5700, 3.7790)">
<polygon stroke-linejoin="round" stroke-linecap="round" stroke-width="0.0800" fill="currentColor" stroke="currentColor" points="2.4664 -1.0100 2.4664 -0.6100 0.0400 0.2000 0.0400 -0.2000"/>
</g>
<g transform="translate(45.5700, 4.5890)">
<polygon stroke-linejoin="round" stroke-linecap="round" stroke-width="0.0800" fill="currentColor" stroke="currentColor" points="1.1250 -0.5765 1.1250 -0.1765 0.0400 0.2000 0.0400 -0.2000"/>
</g>
<g transform="translate(51.6390, 1.9690)">
<polygon stroke-linejoin="round" stroke-linecap="round" stroke-width="0.0800" fill="currentColor" stroke="currentColor" points="3.7826 -0.3900 3.7826 0.0100 0.0400 0.2000 0.0400 -0.2000"/>
</g>
<g transform="translate(54.2965, 2.6469)">
<polygon stroke-linejoin="round" stroke-linecap="round" stroke-width="0.0800" fill="currentColor" stroke="currentColor" points="1.1250 -0.2579 1.1250 0.1421 0.0400 0.2000 0.0400 -0.2000"/>
</g>
<g transform="translate(57.7079, 2.5890)">
<polygon stroke-linejoin="round" stroke-linecap="round" stroke-width="0.0800" fill="currentColor" stroke="currentColor" points="3.7826 0.1800 3.7826 0.5800 0.0400 0.2000 0.0400 -0.2000"/>
</g>
<g transform="translate(60.3655, 3.6632)">
<polygon stroke-linejoin="round" stroke-linecap="round" stroke-width="0.0800" fill="currentColor" stroke="currentColor" points="1.1250 -0.0842 1.1250 0.3158 0.0400 0.2000 0.0400 -0.2000"/>
</g>
<g transform="translate(104.6545, 3.7790)">
<rect x="-0.0650" y="-0.9842" width="0.1300" height="2.2981" ry="0.0400" fill="currentColor"/>
</g>
<g transform="translate(107.8613, 3.7790)">
<rect x="-0.0650" y="-0.2058" width="0.1300" height="4.0197" ry="0.0400" fill="currentColor"/>
</g>
<g transform="translate(106.6221, 7.7790)">
<path transform="scale(0.0040, -0.0040)" d="M218 136c66 0 108 -36 108 -89c0 -89 -113 -183 -218 -183c-66 0 -108 36 -108 89c0 89 113 183 218 183z" fill="currentColor"/>
</g>
<g transform="translate(105.1721, 7.7790)">
<path transform="scale(0.0040, -0.0040)" d="M216 -312c0 -10 -8 -19 -18 -19s-19 9 -19 19v145l-83 -31v-158c0 -10 -9 -19 -19 -19s-18 9 -18 19v145l-32 -12c-2 -1 -5 -1 -7 -1c-11 0 -20 9 -20 20v60c0 8 5 16 13 19l46 16v160l-32 -11c-2 -1 -5 -1 -7 -1c-11 0 -20 9 -20 20v60c0 8 5 15 13 18l46 17v158
c0 10 8 19 18 19s19 -9 19 -19v-145l83 31v158c0 10 9 19 19 19s18 -9 18 -19v-145l32 12c2 1 5 1 7 1c11 0 20 -9 20 -20v-60c0 -8 -5 -16 -13 -19l-46 -16v-160l32 11c2 1 5 1 7 1c11 0 20 -9 20 -20v-60c0 -8 -5 -15 -13 -18l-46 -17v-158zM96 65v-160l83 30v160z" fill="currentColor"/>
</g>
<g transform="translate(103.4153, 11.9682)">
<text font-family="Source Sans Pro" font-size="2.6163" text-anchor="start" fill="currentColor">
<tspan>F</tspan>
</text>
</g>
<g transform="translate(104.7127, 11.3682)">
<path transform="scale(0.0042, -0.0042)" d="M216 -312c0 -10 -8 -19 -18 -19s-19 9 -19 19v145l-83 -31v-158c0 -10 -9 -19 -19 -19s-18 9 -18 19v145l-32 -12c-2 -1 -5 -1 -7 -1c-11 0 -20 9 -20 20v60c0 8 5 16 13 19l46 16v160l-32 -11c-2 -1 -5 -1 -7 -1c-11 0 -20 9 -20 20v60c0 8 5 15 13 18l46 17v158
c0 10 8 19 18 19s19 -9 19 -19v-145l83 31v158c0 10 9 19 19 19s18 -9 18 -19v-145l32 12c2 1 5 1 7 1c11 0 20 -9 20 -20v-60c0 -8 -5 -16 -13 -19l-46 -16v-160l32 11c2 1 5 1 7 1c11 0 20 -9 20 -20v-60c0 -8 -5 -15 -13 -18l-46 -17v-158zM96 65v-160l83 30v160z" fill="currentColor"/>
</g>
<g transform="translate(103.4153, 5.2790)">
<path transform="scale(0.0040, -0.0040)" d="M218 136c66 0 108 -36 108 -89c0 -89 -113 -183 -218 -183c-66 0 -108 36 -108 89c0 89 113 183 218 183z" fill="currentColor"/>
</g>
<g transform="translate(101.9335, 3.7790)">
<rect x="-0.0650" y="-0.8028" width="0.1300" height="2.6167" ry="0.0400" fill="currentColor"/>
</g>
<g transform="translate(100.6942, 5.7790)">
<path transform="scale(0.0040, -0.0040)" d="M218 136c66 0 108 -36 108 -89c0 -89 -113 -183 -218 -183c-66 0 -108 36 -108 89c0 89 113 183 218 183z" fill="currentColor"/>
</g>
<g transform="translate(115.1054, 3.7790)">
<rect x="-0.0650" y="-0.0000" width="0.1300" height="3.3139" ry="0.0400" fill="currentColor"/>
</g>
<g transform="translate(113.8661, 7.2790)">
<path transform="scale(0.0040, -0.0040)" d="M218 136c66 0 108 -36 108 -89c0 -89 -113 -183 -218 -183c-66 0 -108 36 -108 89c0 89 113 183 218 183z" fill="currentColor"/>
</g>
<g transform="translate(111.0681, 3.7790)">
<rect x="-0.0650" y="-0.0000" width="0.1300" height="3.3139" ry="0.0400" fill="currentColor"/>
</g>
<g transform="translate(109.8289, 11.9682)">
<text font-family="Source Sans Pro" font-size="2.6163" text-anchor="start" fill="currentColor">
<tspan>B</tspan>
</text>
</g>
<g transform="translate(111.3654, 11.9682)">
<text font-family="Source Sans Pro" font-size="2.6163" text-anchor="start" fill="currentColor">
<tspan>m</tspan>
</text>
</g>
<g transform="translate(109.8289, 7.2790)">
<path transform="scale(0.0040, -0.0040)" d="M218 136c66 0 108 -36 108 -89c0 -89 -113 -183 -218 -183c-66 0 -108 36 -108 89c0 89 113 183 218 183z" fill="currentColor"/>
</g>
<g transform="translate(45.6350, 3.7790)">
<rect x="-0.0650" y="-0.0210" width="0.1300" height="3.8349" ry="0.0400" fill="currentColor"/>
</g>
<g transform="translate(44.3958, 11.9682)">
<text font-family="Source Sans Pro" font-size="2.6163" text-anchor="start" fill="currentColor">
<tspan>A</tspan>
</text>
</g>
<g transform="translate(44.3958, 7.7790)">
<path transform="scale(0.0040, -0.0040)" d="M218 136c66 0 108 -36 108 -89c0 -89 -113 -183 -218 -183c-66 0 -108 36 -108 89c0 89 113 183 218 183z" fill="currentColor"/>
</g>
<g transform="translate(22.7962, 3.7790)">
<rect x="-0.0650" y="-1.7841" width="0.1300" height="3.0980" ry="0.0400" fill="currentColor"/>
</g>
<g transform="translate(42.3193, 3.7790)">
<rect x="-0.0650" y="-0.8132" width="0.1300" height="3.6271" ry="0.0400" fill="currentColor"/>
</g>
<g transform="translate(41.0801, 6.7790)">
<path transform="scale(0.0040, -0.0040)" d="M218 136c66 0 108 -36 108 -89c0 -89 -113 -183 -218 -183c-66 0 -108 36 -108 89c0 89 113 183 218 183z" fill="currentColor"/>
</g>
<g transform="translate(48.0114, 3.7790)">
<rect x="-0.0650" y="-0.7890" width="0.1300" height="2.6029" ry="0.0400" fill="currentColor"/>
</g>
<g transform="translate(48.5264, 5.2790)">
<path transform="scale(0.0040, -0.0040)" d="M0 0c0 31 25 56 56 56s56 -25 56 -56s-25 -56 -56 -56s-56 25 -56 56z" fill="currentColor"/>
</g>
<g transform="translate(46.7722, 5.7790)">
<path transform="scale(0.0040, -0.0040)" d="M218 136c66 0 108 -36 108 -89c0 -89 -113 -183 -218 -183c-66 0 -108 36 -108 89c0 89 113 183 218 183z" fill="currentColor"/>
</g>
<g transform="translate(21.5570, 5.2790)">
<path transform="scale(0.0040, -0.0040)" d="M218 136c66 0 108 -36 108 -89c0 -89 -113 -183 -218 -183c-66 0 -108 36 -108 89c0 89 113 183 218 183z" fill="currentColor"/>
</g>
<g transform="translate(23.3112, 5.2790)">
<path transform="scale(0.0040, -0.0040)" d="M0 0c0 31 25 56 56 56s56 -25 56 -56s-25 -56 -56 -56s-56 25 -56 56z" fill="currentColor"/>
</g>
<g transform="translate(28.9421, 4.7790)">
<path transform="scale(0.0040, -0.0040)" d="M218 136c66 0 108 -36 108 -89c0 -89 -113 -183 -218 -183c-66 0 -108 36 -108 89c0 89 113 183 218 183z" fill="currentColor"/>
</g>
<g transform="translate(35.0111, 5.7790)">
<path transform="scale(0.0040, -0.0040)" d="M218 136c66 0 108 -36 108 -89c0 -89 -113 -183 -218 -183c-66 0 -108 36 -108 89c0 89 113 183 218 183z" fill="currentColor"/>
</g>
<g transform="translate(36.2503, 3.7790)">
<rect x="-0.0650" y="-1.8132" width="0.1300" height="3.6271" ry="0.0400" fill="currentColor"/>
</g>
<g transform="translate(30.1813, 3.7790)">
<rect x="-0.0650" y="-1.9968" width="0.1300" height="2.8107" ry="0.0400" fill="currentColor"/>
</g>
<g transform="translate(32.5577, 3.7790)">
<rect x="-0.0650" y="-1.9968" width="0.1300" height="3.3107" ry="0.0400" fill="currentColor"/>
</g>
<g transform="translate(33.0727, 5.2790)">
<path transform="scale(0.0040, -0.0040)" d="M0 0c0 31 25 56 56 56s56 -25 56 -56s-25 -56 -56 -56s-56 25 -56 56z" fill="currentColor"/>
</g>
<g transform="translate(31.3185, 5.2790)">
<path transform="scale(0.0040, -0.0040)" d="M218 136c66 0 108 -36 108 -89c0 -89 -113 -183 -218 -183c-66 0 -108 36 -108 89c0 89 113 183 218 183z" fill="currentColor"/>
</g>
<g transform="translate(37.3875, 6.2790)">
<path transform="scale(0.0040, -0.0040)" d="M218 136c66 0 108 -36 108 -89c0 -89 -113 -183 -218 -183c-66 0 -108 36 -108 89c0 89 113 183 218 183z" fill="currentColor"/>
</g>
<g transform="translate(25.2495, 5.2790)">
<path transform="scale(0.0040, -0.0040)" d="M218 136c66 0 108 -36 108 -89c0 -89 -113 -183 -218 -183c-66 0 -108 36 -108 89c0 89 113 183 218 183z" fill="currentColor"/>
</g>
<g transform="translate(27.0037, 5.2790)">
<path transform="scale(0.0040, -0.0040)" d="M0 0c0 31 25 56 56 56s56 -25 56 -56s-25 -56 -56 -56s-56 25 -56 56z" fill="currentColor"/>
</g>
<g transform="translate(38.6267, 3.7790)">
<rect x="-0.0650" y="-0.9968" width="0.1300" height="3.3107" ry="0.0400" fill="currentColor"/>
</g>
<g transform="translate(39.1417, 6.2790)">
<path transform="scale(0.0040, -0.0040)" d="M0 0c0 31 25 56 56 56s56 -25 56 -56s-25 -56 -56 -56s-56 25 -56 56z" fill="currentColor"/>
</g>
<g transform="translate(26.4887, 3.7790)">
<rect x="-0.0650" y="-1.8132" width="0.1300" height="3.1271" ry="0.0400" fill="currentColor"/>
</g>
<g transform="translate(61.4655, 3.7790)">
<rect x="-0.0650" y="-0.8165" width="0.1300" height="3.1304" ry="0.0400" fill="currentColor"/>
</g>
<g transform="translate(64.3569, 6.2790)">
<path transform="scale(0.0040, -0.0040)" d="M0 0c0 31 25 56 56 56s56 -25 56 -56s-25 -56 -56 -56s-56 25 -56 56z" fill="currentColor"/>
</g>
<g transform="translate(62.6027, 6.7790)">
<path transform="scale(0.0040, -0.0040)" d="M218 136c66 0 108 -36 108 -89c0 -89 -113 -183 -218 -183c-66 0 -108 36 -108 89c0 89 113 183 218 183z" fill="currentColor"/>
</g>
<g transform="translate(60.2263, 6.2790)">
<path transform="scale(0.0040, -0.0040)" d="M218 136c66 0 108 -36 108 -89c0 -89 -113 -183 -218 -183c-66 0 -108 36 -108 89c0 89 113 183 218 183z" fill="currentColor"/>
</g>
<g transform="translate(19.1806, 7.2790)">
<path transform="scale(0.0040, -0.0040)" d="M218 136c66 0 108 -36 108 -89c0 -89 -113 -183 -218 -183c-66 0 -108 36 -108 89c0 89 113 183 218 183z" fill="currentColor"/>
</g>
<g transform="translate(6.4906, 4.7790)">
<path transform="scale(0.0040, -0.0040)" d="M266 -635h-6c-108 0 -195 88 -195 197c0 58 53 103 112 103c54 0 95 -47 95 -103c0 -52 -43 -95 -95 -95c-11 0 -21 2 -31 6c26 -39 68 -65 117 -65h4zM461 -203c68 24 113 90 113 164c0 90 -66 179 -173 190c19 -89 48 -242 60 -354zM74 28c0 -145 141 -247 264 -247
c1 0 47 0 82 6c-7 64 -29 203 -63 364c-79 -8 -124 -61 -124 -119c0 -44 25 -91 81 -123c5 -5 7 -10 7 -15c0 -11 -10 -22 -22 -22c-15 0 -126 62 -126 187c0 88 58 174 160 197c-14 58 -29 117 -46 175c-107 -121 -213 -243 -213 -403zM250 553c-29 96 -52 170 -52 346
c0 115 55 224 149 292c6 5 14 5 20 0c68 -80 133 -245 133 -358c0 -143 -86 -255 -180 -364c21 -68 39 -138 56 -207c2 0 7 1 13 1c155 0 256 -128 256 -261c0 -113 -74 -212 -180 -246c3 -35 5 -70 5 -105c0 -19 -1 -39 -2 -58c-7 -119 -88 -225 -202 -228l1 43
c93 2 153 92 159 191c1 18 2 37 2 55c0 31 -1 61 -4 92c-5 -1 -44 -8 -89 -8c-193 0 -333 180 -333 374c0 177 131 306 248 441zM428 916c0 34 1 66 -20 129c-99 -48 -162 -149 -162 -259c0 -52 12 -115 36 -194c80 97 146 198 146 324z" fill="currentColor"/>
</g>
<g transform="translate(9.9906, 1.7790)">
<path transform="scale(0.0040, -0.0040)" d="M216 -312c0 -10 -8 -19 -18 -19s-19 9 -19 19v145l-83 -31v-158c0 -10 -9 -19 -19 -19s-18 9 -18 19v145l-32 -12c-2 -1 -5 -1 -7 -1c-11 0 -20 9 -20 20v60c0 8 5 16 13 19l46 16v160l-32 -11c-2 -1 -5 -1 -7 -1c-11 0 -20 9 -20 20v60c0 8 5 15 13 18l46 17v158
c0 10 8 19 18 19s19 -9 19 -19v-145l83 31v158c0 10 9 19 19 19s18 -9 18 -19v-145l32 12c2 1 5 1 7 1c11 0 20 -9 20 -20v-60c0 -8 -5 -16 -13 -19l-46 -16v-160l32 11c2 1 5 1 7 1c11 0 20 -9 20 -20v-60c0 -8 -5 -15 -13 -18l-46 -17v-158zM96 65v-160l83 30v160z" fill="currentColor"/>
</g>
<g transform="translate(11.0906, 3.2790)">
<path transform="scale(0.0040, -0.0040)" d="M216 -312c0 -10 -8 -19 -18 -19s-19 9 -19 19v145l-83 -31v-158c0 -10 -9 -19 -19 -19s-18 9 -18 19v145l-32 -12c-2 -1 -5 -1 -7 -1c-11 0 -20 9 -20 20v60c0 8 5 16 13 19l46 16v160l-32 -11c-2 -1 -5 -1 -7 -1c-11 0 -20 9 -20 20v60c0 8 5 15 13 18l46 17v158
c0 10 8 19 18 19s19 -9 19 -19v-145l83 31v158c0 10 9 19 19 19s18 -9 18 -19v-145l32 12c2 1 5 1 7 1c11 0 20 -9 20 -20v-60c0 -8 -5 -16 -13 -19l-46 -16v-160l32 11c2 1 5 1 7 1c11 0 20 -9 20 -20v-60c0 -8 -5 -15 -13 -18l-46 -17v-158zM96 65v-160l83 30v160z" fill="currentColor"/>
</g>
<g transform="translate(66.7569, 7.7790)">
<path transform="scale(0.0040, -0.0040)" d="M218 136c66 0 108 -36 108 -89c0 -89 -113 -183 -218 -183c-66 0 -108 36 -108 89c0 89 113 183 218 183z" fill="currentColor"/>
</g>
<g transform="translate(3.8370, 1.3360)">
<text font-family="Source Sans Pro" font-size="1.7461" text-anchor="start" fill="currentColor">
<tspan>1</tspan>
</text>
</g>
<g transform="translate(3.8370, 3.3360)">
<text font-family="Source Sans Pro" font-size="1.7461" text-anchor="start" fill="currentColor">
<tspan>5</tspan>
</text>
</g>
<g transform="translate(2.9834, 5.3360)">
<text font-family="Source Sans Pro" font-size="1.7461" text-anchor="start" fill="currentColor">
<tspan>17</tspan>
</text>
</g>
<g transform="translate(2.9834, 7.3360)">
<text font-family="Source Sans Pro" font-size="1.7461" text-anchor="start" fill="currentColor">
<tspan>21</tspan>
</text>
</g>
<g transform="translate(65.3069, 7.7790)">
<path transform="scale(0.0040, -0.0040)" d="M216 -312c0 -10 -8 -19 -18 -19s-19 9 -19 19v145l-83 -31v-158c0 -10 -9 -19 -19 -19s-18 9 -18 19v145l-32 -12c-2 -1 -5 -1 -7 -1c-11 0 -20 9 -20 20v60c0 8 5 16 13 19l46 16v160l-32 -11c-2 -1 -5 -1 -7 -1c-11 0 -20 9 -20 20v60c0 8 5 15 13 18l46 17v158
c0 10 8 19 18 19s19 -9 19 -19v-145l83 31v158c0 10 9 19 19 19s18 -9 18 -19v-145l32 12c2 1 5 1 7 1c11 0 20 -9 20 -20v-60c0 -8 -5 -16 -13 -19l-46 -16v-160l32 11c2 1 5 1 7 1c11 0 20 -9 20 -20v-60c0 -8 -5 -15 -13 -18l-46 -17v-158zM96 65v-160l83 30v160z" fill="currentColor"/>
</g>
<g transform="translate(67.9961, 3.7790)">
<rect x="-0.0650" y="-0.0029" width="0.1300" height="3.8168" ry="0.0400" fill="currentColor"/>
</g>
<g transform="translate(63.8419, 3.7790)">
<rect x="-0.0650" y="-0.1871" width="0.1300" height="3.0010" ry="0.0400" fill="currentColor"/>
</g>
<g transform="translate(13.3406, 3.7790)">
<path transform="scale(0.0040, -0.0040)" d="M250 262c116 0 176 -106 176 -163c0 -40 -30 -72 -67 -72c-31 0 -75 25 -75 75c0 38 27 77 72 77c4 0 9 0 14 -1c-28 37 -72 59 -120 59c-106 0 -113 -73 -113 -186v-51v-51c0 -113 7 -187 113 -187c80 0 139 70 158 151c2 7 7 10 12 10c6 0 13 -4 13 -12
c0 -22 -50 -174 -183 -174c-59 0 -250 19 -250 263c0 62 18 262 250 262z" fill="currentColor"/>
</g>
<g transform="translate(51.7040, 3.7790)">
<rect x="-0.0650" y="-1.8132" width="0.1300" height="3.6271" ry="0.0400" fill="currentColor"/>
</g>
<g transform="translate(52.2190, 5.2790)">
<path transform="scale(0.0040, -0.0040)" d="M0 0c0 31 25 56 56 56s56 -25 56 -56s-25 -56 -56 -56s-56 25 -56 56z" fill="currentColor"/>
</g>
<g transform="translate(50.4648, 5.7790)">
<path transform="scale(0.0040, -0.0040)" d="M218 136c66 0 108 -36 108 -89c0 -89 -113 -183 -218 -183c-66 0 -108 36 -108 89c0 89 113 183 218 183z" fill="currentColor"/>
</g>
<g transform="translate(20.4198, 3.7790)">
<rect x="-0.0650" y="-0.8359" width="0.1300" height="4.1498" ry="0.0400" fill="currentColor"/>
</g>
<g transform="translate(57.7729, 3.7790)">
<rect x="-0.0650" y="-1.1835" width="0.1300" height="2.9974" ry="0.0400" fill="currentColor"/>
</g>
<g transform="translate(58.2879, 5.2790)">
<path transform="scale(0.0040, -0.0040)" d="M0 0c0 31 25 56 56 56s56 -25 56 -56s-25 -56 -56 -56s-56 25 -56 56z" fill="currentColor"/>
</g>
<g transform="translate(56.5337, 11.9682)">
<text font-family="Source Sans Pro" font-size="2.6163" text-anchor="start" fill="currentColor">
<tspan>F</tspan>
</text>
</g>
<g transform="translate(57.8312, 11.3682)">
<path transform="scale(0.0042, -0.0042)" d="M216 -312c0 -10 -8 -19 -18 -19s-19 9 -19 19v145l-83 -31v-158c0 -10 -9 -19 -19 -19s-18 9 -18 19v145l-32 -12c-2 -1 -5 -1 -7 -1c-11 0 -20 9 -20 20v60c0 8 5 16 13 19l46 16v160l-32 -11c-2 -1 -5 -1 -7 -1c-11 0 -20 9 -20 20v60c0 8 5 15 13 18l46 17v158
c0 10 8 19 18 19s19 -9 19 -19v-145l83 31v158c0 10 9 19 19 19s18 -9 18 -19v-145l32 12c2 1 5 1 7 1c11 0 20 -9 20 -20v-60c0 -8 -5 -16 -13 -19l-46 -16v-160l32 11c2 1 5 1 7 1c11 0 20 -9 20 -20v-60c0 -8 -5 -15 -13 -18l-46 -17v-158zM96 65v-160l83 30v160z" fill="currentColor"/>
</g>
<g transform="translate(56.5337, 5.7790)">
<path transform="scale(0.0040, -0.0040)" d="M218 136c66 0 108 -36 108 -89c0 -89 -113 -183 -218 -183c-66 0 -108 36 -108 89c0 89 113 183 218 183z" fill="currentColor"/>
</g>
<g transform="translate(19.1806, 11.9682)">
<text font-family="Source Sans Pro" font-size="2.6163" text-anchor="start" fill="currentColor">
<tspan>B</tspan>
</text>
</g>
<g transform="translate(20.7170, 11.9682)">
<text font-family="Source Sans Pro" font-size="2.6163" text-anchor="start" fill="currentColor">
<tspan>m</tspan>
</text>
</g>
<g transform="translate(54.1573, 5.2790)">
<path transform="scale(0.0040, -0.0040)" d="M218 136c66 0 108 -36 108 -89c0 -89 -113 -183 -218 -183c-66 0 -108 36 -108 89c0 89 113 183 218 183z" fill="currentColor"/>
</g>
<g transform="translate(55.3965, 3.7790)">
<rect x="-0.0650" y="-1.9968" width="0.1300" height="3.3107" ry="0.0400" fill="currentColor"/>
</g>
<g transform="translate(5.6906, 19.4721)">
<line stroke-linejoin="round" stroke-linecap="round" stroke-width="0.1000" stroke="currentColor" x1="0.0500" y1="0" x2="113.7610" y2="0"/>
</g>
<g transform="translate(5.6906, 18.4721)">
<line stroke-linejoin="round" stroke-linecap="round" stroke-width="0.1000" stroke="currentColor" x1="0.0500" y1="0" x2="113.7610" y2="0"/>
</g>
<g transform="translate(5.6906, 17.4721)">
<line stroke-linejoin="round" stroke-linecap="round" stroke-width="0.1000" stroke="currentColor" x1="0.0500" y1="0" x2="113.7610" y2="0"/>
</g>
<g transform="translate(5.6906, 16.4721)">
<line stroke-linejoin="round" stroke-linecap="round" stroke-width="0.1000" stroke="currentColor" x1="0.0500" y1="0" x2="113.7610" y2="0"/>
</g>
<g transform="translate(5.6906, 15.4721)">
<line stroke-linejoin="round" stroke-linecap="round" stroke-width="0.1000" stroke="currentColor" x1="0.0500" y1="0" x2="113.7610" y2="0"/>
</g>
<g transform="translate(38.1401, 17.4721)">
<rect x="0.0000" y="-2.0000" width="0.1900" height="4.0000" ry="0.0000" fill="currentColor"/>
</g>
<g transform="translate(119.3116, 17.4721)">
<rect x="0.0000" y="-2.0000" width="0.1900" height="4.0000" ry="0.0000" fill="currentColor"/>
</g>
<g transform="translate(86.6354, 17.4721)">
<rect x="0.0000" y="-2.0000" width="0.1900" height="4.0000" ry="0.0000" fill="currentColor"/>
</g>
<g transform="translate(62.5419, 17.4721)">
<rect x="0.0000" y="-2.0000" width="0.1900" height="4.0000" ry="0.0000" fill="currentColor"/>
</g>
<g transform="translate(94.1098, 17.4721)">
<rect x="-0.0650" y="-1.2095" width="0.1300" height="3.5233" ry="0.0400" fill="currentColor"/>
</g>
<g transform="translate(92.8706, 19.9721)">
<path transform="scale(0.0040, -0.0040)" d="M218 136c66 0 108 -36 108 -89c0 -89 -113 -183 -218 -183c-66 0 -108 36 -108 89c0 89 113 183 218 183z" fill="currentColor"/>
</g>
<g transform="translate(91.4684, 17.4721)">
<rect x="-0.0650" y="-2.0000" width="0.1300" height="3.3139" ry="0.0400" fill="currentColor"/>
</g>
<g transform="translate(90.2292, 18.9721)">
<path transform="scale(0.0040, -0.0040)" d="M218 136c66 0 108 -36 108 -89c0 -89 -113 -183 -218 -183c-66 0 -108 36 -108 89c0 89 113 183 218 183z" fill="currentColor"/>
</g>
<g transform="translate(104.6757, 17.4721)">
<rect x="-0.0650" y="-2.1757" width="0.1300" height="2.4896" ry="0.0400" fill="currentColor"/>
</g>
<g transform="translate(103.4365, 17.9721)">
<path transform="scale(0.0040, -0.0040)" d="M218 136c66 0 108 -36 108 -89c0 -89 -113 -183 -218 -183c-66 0 -108 36 -108 89c0 89 113 183 218 183z" fill="currentColor"/>
</g>
<g transform="translate(102.0342, 17.4721)">
<rect x="-0.0650" y="-1.8266" width="0.1300" height="4.1405" ry="0.0400" fill="currentColor"/>
</g>
<g transform="translate(100.7950, 19.9721)">
<path transform="scale(0.0040, -0.0040)" d="M218 136c66 0 108 -36 108 -89c0 -89 -113 -183 -218 -183c-66 0 -108 36 -108 89c0 89 113 183 218 183z" fill="currentColor"/>
</g>
<g transform="translate(99.3928, 17.4721)">
<rect x="-0.0650" y="-2.5000" width="0.1300" height="3.8139" ry="0.0400" fill="currentColor"/>
</g>
<g transform="translate(98.1536, 18.9721)">
<path transform="scale(0.0040, -0.0040)" d="M218 136c66 0 108 -36 108 -89c0 -89 -113 -183 -218 -183c-66 0 -108 36 -108 89c0 89 113 183 218 183z" fill="currentColor"/>
</g>
<g transform="translate(96.7513, 17.4721)">
<rect x="-0.0650" y="-3.1734" width="0.1300" height="2.9873" ry="0.0400" fill="currentColor"/>
</g>
<g transform="translate(95.5121, 17.4721)">
<path transform="scale(0.0040, -0.0040)" d="M218 136c66 0 108 -36 108 -89c0 -89 -113 -183 -218 -183c-66 0 -108 36 -108 89c0 89 113 183 218 183z" fill="currentColor"/>
</g>
<g transform="translate(75.3711, 17.4721)">
<rect x="-0.0650" y="-2.3139" width="0.1300" height="3.1272" ry="0.0400" fill="currentColor"/>
</g>
<g transform="translate(77.0603, 14.9721)">
<path transform="scale(0.0040, -0.0040)" d="M0 0c0 31 25 56 56 56s56 -25 56 -56s-25 -56 -56 -56s-56 25 -56 56z" fill="currentColor"/>
</g>
<g transform="translate(75.3061, 14.9721)">
<path transform="scale(0.0040, -0.0040)" d="M218 136c66 0 108 -36 108 -89c0 -89 -113 -183 -218 -183c-66 0 -108 36 -108 89c0 89 113 183 218 183z" fill="currentColor"/>
</g>
<g transform="translate(78.8682, 15.4721)">
<path transform="scale(0.0040, -0.0040)" d="M218 136c66 0 108 -36 108 -89c0 -89 -113 -183 -218 -183c-66 0 -108 36 -108 89c0 89 113 183 218 183z" fill="currentColor"/>
</g>
<g transform="translate(73.0563, 17.4721)">
<rect x="-0.0650" y="-1.8139" width="0.1300" height="3.6272" ry="0.0400" fill="currentColor"/>
</g>
<g transform="translate(72.9913, 15.4721)">
<path transform="scale(0.0040, -0.0040)" d="M218 136c66 0 108 -36 108 -89c0 -89 -113 -183 -218 -183c-66 0 -108 36 -108 89c0 89 113 183 218 183z" fill="currentColor"/>
</g>
<g transform="translate(69.4941, 17.4721)">
<rect x="-0.0650" y="-1.3139" width="0.1300" height="3.3105" ry="0.0400" fill="currentColor"/>
</g>
<g transform="translate(71.1833, 15.9721)">
<path transform="scale(0.0040, -0.0040)" d="M0 0c0 31 25 56 56 56s56 -25 56 -56s-25 -56 -56 -56s-56 25 -56 56z" fill="currentColor"/>
</g>
<g transform="translate(69.4291, 15.9721)">
<path transform="scale(0.0040, -0.0040)" d="M218 136c66 0 108 -36 108 -89c0 -89 -113 -183 -218 -183c-66 0 -108 36 -108 89c0 89 113 183 218 183z" fill="currentColor"/>
</g>
<g transform="translate(88.8269, 17.4721)">
<rect x="-0.0650" y="-2.7905" width="0.1300" height="2.1044" ry="0.0400" fill="currentColor"/>
</g>
<g transform="translate(87.5877, 22.9284)">
<text font-family="Source Sans Pro" font-size="2.6163" text-anchor="start" fill="currentColor">
<tspan>B</tspan>
</text>
</g>
<g transform="translate(89.1242, 22.9284)">
<text font-family="Source Sans Pro" font-size="2.6163" text-anchor="start" fill="currentColor">
<tspan>m</tspan>
</text>
</g>
<g transform="translate(91.3093, 21.7392)">
<text font-family="Source Sans Pro" font-size="1.8500" text-anchor="start" fill="currentColor">
<tspan>7</tspan>
</text>
</g>
<g transform="translate(87.5877, 16.9721)">
<path transform="scale(0.0040, -0.0040)" d="M218 136c66 0 108 -36 108 -89c0 -89 -113 -183 -218 -183c-66 0 -108 36 -108 89c0 89 113 183 218 183z" fill="currentColor"/>
</g>
<g transform="translate(84.8102, 17.4721)">
<rect x="-0.0650" y="-0.8139" width="0.1300" height="2.8105" ry="0.0400" fill="currentColor"/>
</g>
<g transform="translate(84.7452, 16.4721)">
<path transform="scale(0.0040, -0.0040)" d="M218 136c66 0 108 -36 108 -89c0 -89 -113 -183 -218 -183c-66 0 -108 36 -108 89c0 89 113 183 218 183z" fill="currentColor"/>
</g>
<g transform="translate(81.2481, 17.4721)">
<rect x="-0.0650" y="-1.3139" width="0.1300" height="3.1272" ry="0.0400" fill="currentColor"/>
</g>
<g transform="translate(82.9373, 15.9721)">
<path transform="scale(0.0040, -0.0040)" d="M0 0c0 31 25 56 56 56s56 -25 56 -56s-25 -56 -56 -56s-56 25 -56 56z" fill="currentColor"/>
</g>
<g transform="translate(81.1831, 15.9721)">
<path transform="scale(0.0040, -0.0040)" d="M218 136c66 0 108 -36 108 -89c0 -89 -113 -183 -218 -183c-66 0 -108 36 -108 89c0 89 113 183 218 183z" fill="currentColor"/>
</g>
<g transform="translate(78.9332, 17.4721)">
<rect x="-0.0650" y="-1.8139" width="0.1300" height="2.8105" ry="0.0400" fill="currentColor"/>
</g>
<g transform="translate(63.5521, 19.6621)">
<polygon stroke-linejoin="round" stroke-linecap="round" stroke-width="0.0800" fill="currentColor" stroke="currentColor" points="1.1250 -0.6765 1.1250 -0.2765 0.0400 0.2000 0.0400 -0.2000"/>
</g>
<g transform="translate(63.5521, 20.4721)">
<polygon stroke-linejoin="round" stroke-linecap="round" stroke-width="0.0800" fill="currentColor" stroke="currentColor" points="2.4048 -1.2000 2.4048 -0.8000 0.0400 0.2000 0.0400 -0.2000"/>
</g>
<g transform="translate(71.9563, 18.5320)">
<polygon stroke-linejoin="round" stroke-linecap="round" stroke-width="0.0800" fill="currentColor" stroke="currentColor" points="1.1250 -0.2600 1.1250 0.1400 0.0400 0.2000 0.0400 -0.2000"/>
</g>
<g transform="translate(69.4291, 19.4721)">
<polygon stroke-linejoin="round" stroke-linecap="round" stroke-width="0.0800" fill="currentColor" stroke="currentColor" points="3.6521 -0.3900 3.6521 0.0100 0.0400 0.2000 0.0400 -0.2000"/>
</g>
<g transform="translate(77.8332, 17.6021)">
<polygon stroke-linejoin="round" stroke-linecap="round" stroke-width="0.0800" fill="currentColor" stroke="currentColor" points="1.1250 -0.1400 1.1250 0.2600 0.0400 0.2000 0.0400 -0.2000"/>
</g>
<g transform="translate(75.3061, 18.2821)">
<polygon stroke-linejoin="round" stroke-linecap="round" stroke-width="0.0800" fill="currentColor" stroke="currentColor" points="3.6521 -0.0100 3.6521 0.3900 0.0400 0.2000 0.0400 -0.2000"/>
</g>
<g transform="translate(83.7102, 18.6021)">
<polygon stroke-linejoin="round" stroke-linecap="round" stroke-width="0.0800" fill="currentColor" stroke="currentColor" points="1.1250 -0.1400 1.1250 0.2600 0.0400 0.2000 0.0400 -0.2000"/>
</g>
<g transform="translate(81.1831, 19.2821)">
<polygon stroke-linejoin="round" stroke-linecap="round" stroke-width="0.0800" fill="currentColor" stroke="currentColor" points="3.6521 -0.0100 3.6521 0.3900 0.0400 0.2000 0.0400 -0.2000"/>
</g>
<g transform="translate(91.0416, 14.6701)">
<text font-family="Source Sans Pro" font-style="italic" font-size="1.7461" text-anchor="start" fill="currentColor">
<tspan>3</tspan>
</text>
</g>
<g transform="translate(98.9660, 14.1729)">
<text font-family="Source Sans Pro" font-style="italic" font-size="1.7461" text-anchor="start" fill="currentColor">
<tspan>3</tspan>
</text>
</g>
<g transform="translate(88.7619, 14.6621)">
<polygon stroke-linejoin="round" stroke-linecap="round" stroke-width="0.0800" fill="currentColor" stroke="currentColor" points="5.3729 1.4200 5.3729 1.8200 0.0400 0.2000 0.0400 -0.2000"/>
</g>
<g transform="translate(106.8904, 15.0801)">
<text font-family="Source Sans Pro" font-style="italic" font-size="1.7461" text-anchor="start" fill="currentColor">
<tspan>3</tspan>
</text>
</g>
<g transform="translate(15.8648, 15.4721)">
<polygon stroke-linejoin="round" stroke-linecap="round" stroke-width="0.0800" fill="currentColor" stroke="currentColor" points="2.4048 -1.0100 2.4048 -0.6100 0.0400 0.2000 0.0400 -0.2000"/>
</g>
<g transform="translate(15.8648, 16.2821)">
<polygon stroke-linejoin="round" stroke-linecap="round" stroke-width="0.0800" fill="currentColor" stroke="currentColor" points="1.1250 -0.5860 1.1250 -0.1860 0.0400 0.2000 0.0400 -0.2000"/>
</g>
<g transform="translate(23.0947, 19.5920)">
<polygon stroke-linejoin="round" stroke-linecap="round" stroke-width="0.0800" fill="currentColor" stroke="currentColor" points="1.1250 -0.3199 1.1250 0.0801 0.0400 0.2000 0.0400 -0.2000"/>
</g>
<g transform="translate(20.5675, 20.6621)">
<polygon stroke-linejoin="round" stroke-linecap="round" stroke-width="0.0800" fill="currentColor" stroke="currentColor" points="3.6521 -0.5800 3.6521 -0.1800 0.0400 0.2000 0.0400 -0.2000"/>
</g>
<g transform="translate(28.9717, 19.6021)">
<polygon stroke-linejoin="round" stroke-linecap="round" stroke-width="0.0800" fill="currentColor" stroke="currentColor" points="1.1250 -0.1400 1.1250 0.2600 0.0400 0.2000 0.0400 -0.2000"/>
</g>
<g transform="translate(26.4445, 20.2821)">
<polygon stroke-linejoin="round" stroke-linecap="round" stroke-width="0.0800" fill="currentColor" stroke="currentColor" points="3.6521 -0.0100 3.6521 0.3900 0.0400 0.2000 0.0400 -0.2000"/>
</g>
<g transform="translate(33.4957, 14.2821)">
<polygon stroke-linejoin="round" stroke-linecap="round" stroke-width="0.0800" fill="currentColor" stroke="currentColor" points="3.6521 0.1800 3.6521 0.5800 0.0400 0.2000 0.0400 -0.2000"/>
</g>
<g transform="translate(36.0229, 15.3522)">
<polygon stroke-linejoin="round" stroke-linecap="round" stroke-width="0.0800" fill="currentColor" stroke="currentColor" points="1.1250 -0.0801 1.1250 0.3199 0.0400 0.2000 0.0400 -0.2000"/>
</g>
<g transform="translate(96.6863, 14.2821)">
<polygon stroke-linejoin="round" stroke-linecap="round" stroke-width="0.0800" fill="currentColor" stroke="currentColor" points="5.3729 1.1800 5.3729 1.5800 0.0400 0.2000 0.0400 -0.2000"/>
</g>
<g transform="translate(40.2666, 14.6621)">
<polygon stroke-linejoin="round" stroke-linecap="round" stroke-width="0.0800" fill="currentColor" stroke="currentColor" points="2.4048 -0.8900 2.4048 -0.4900 0.0400 0.2000 0.0400 -0.2000"/>
</g>
<g transform="translate(40.2666, 15.4721)">
<polygon stroke-linejoin="round" stroke-linecap="round" stroke-width="0.0800" fill="currentColor" stroke="currentColor" points="1.1250 -0.5288 1.1250 -0.1288 0.0400 0.2000 0.0400 -0.2000"/>
</g>
<g transform="translate(47.4965, 19.5920)">
<polygon stroke-linejoin="round" stroke-linecap="round" stroke-width="0.0800" fill="currentColor" stroke="currentColor" points="1.1250 -0.3199 1.1250 0.0801 0.0400 0.2000 0.0400 -0.2000"/>
</g>
<g transform="translate(44.9694, 20.6621)">
<polygon stroke-linejoin="round" stroke-linecap="round" stroke-width="0.0800" fill="currentColor" stroke="currentColor" points="3.6521 -0.5800 3.6521 -0.1800 0.0400 0.2000 0.0400 -0.2000"/>
</g>
<g transform="translate(53.3735, 19.6021)">
<polygon stroke-linejoin="round" stroke-linecap="round" stroke-width="0.0800" fill="currentColor" stroke="currentColor" points="1.1250 -0.1400 1.1250 0.2600 0.0400 0.2000 0.0400 -0.2000"/>
</g>
<g transform="translate(50.8464, 20.2821)">
<polygon stroke-linejoin="round" stroke-linecap="round" stroke-width="0.0800" fill="currentColor" stroke="currentColor" points="3.6521 -0.0100 3.6521 0.3900 0.0400 0.2000 0.0400 -0.2000"/>
</g>
<g transform="translate(57.8976, 14.2821)">
<polygon stroke-linejoin="round" stroke-linecap="round" stroke-width="0.0800" fill="currentColor" stroke="currentColor" points="3.6521 0.1800 3.6521 0.5800 0.0400 0.2000 0.0400 -0.2000"/>
</g>
<g transform="translate(60.4247, 15.3522)">
<polygon stroke-linejoin="round" stroke-linecap="round" stroke-width="0.0800" fill="currentColor" stroke="currentColor" points="1.1250 -0.0801 1.1250 0.3199 0.0400 0.2000 0.0400 -0.2000"/>
</g>
<g transform="translate(115.2415, 17.4721)">
<rect x="-0.0650" y="-2.5000" width="0.1300" height="3.8139" ry="0.0400" fill="currentColor"/>
</g>
<g transform="translate(114.0023, 18.9721)">
<path transform="scale(0.0040, -0.0040)" d="M218 136c66 0 108 -36 108 -89c0 -89 -113 -183 -218 -183c-66 0 -108 36 -108 89c0 89 113 183 218 183z" fill="currentColor"/>
</g>
<g transform="translate(112.6001, 17.4721)">
<rect x="-0.0650" y="-3.1734" width="0.1300" height="2.9873" ry="0.0400" fill="currentColor"/>
</g>
<g transform="translate(111.3609, 17.4721)">
<path transform="scale(0.0040, -0.0040)" d="M218 136c66 0 108 -36 108 -89c0 -89 -113 -183 -218 -183c-66 0 -108 36 -108 89c0 89 113 183 218 183z" fill="currentColor"/>
</g>
<g transform="translate(109.9586, 17.4721)">
<rect x="-0.0650" y="-1.0143" width="0.1300" height="3.3282" ry="0.0400" fill="currentColor"/>
</g>
<g transform="translate(108.7194, 19.9721)">
<path transform="scale(0.0040, -0.0040)" d="M218 136c66 0 108 -36 108 -89c0 -89 -113 -183 -218 -183c-66 0 -108 36 -108 89c0 89 113 183 218 183z" fill="currentColor"/>
</g>
<g transform="translate(107.3172, 17.4721)">
<rect x="-0.0650" y="-1.5950" width="0.1300" height="2.9089" ry="0.0400" fill="currentColor"/>
</g>
<g transform="translate(106.0779, 18.9721)">
<path transform="scale(0.0040, -0.0040)" d="M218 136c66 0 108 -36 108 -89c0 -89 -113 -183 -218 -183c-66 0 -108 36 -108 89c0 89 113 183 218 183z" fill="currentColor"/>
</g>
<g transform="translate(114.8148, 14.1729)">
<text font-family="Source Sans Pro" font-style="italic" font-size="1.7461" text-anchor="start" fill="currentColor">
<tspan>3</tspan>
</text>
</g>
<g transform="translate(104.6107, 15.2821)">
<polygon stroke-linejoin="round" stroke-linecap="round" stroke-width="0.0800" fill="currentColor" stroke="currentColor" points="5.3729 0.9900 5.3729 1.3900 0.0400 0.2000 0.0400 -0.2000"/>
</g>
<g transform="translate(112.5351, 14.2821)">
<polygon stroke-linejoin="round" stroke-linecap="round" stroke-width="0.0800" fill="currentColor" stroke="currentColor" points="5.3729 1.1800 5.3729 1.5800 0.0400 0.2000 0.0400 -0.2000"/>
</g>
<g transform="translate(117.8830, 17.4721)">
<rect x="-0.0650" y="-1.8266" width="0.1300" height="4.1405" ry="0.0400" fill="currentColor"/>
</g>
<g transform="translate(116.6438, 19.9721)">
<path transform="scale(0.0040, -0.0040)" d="M218 136c66 0 108 -36 108 -89c0 -89 -113 -183 -218 -183c-66 0 -108 36 -108 89c0 89 113 183 218 183z" fill="currentColor"/>
</g>
<g transform="translate(32.3215, 17.4721)">
<path transform="scale(0.0040, -0.0040)" d="M218 136c66 0 108 -36 108 -89c0 -89 -113 -183 -218 -183c-66 0 -108 36 -108 89c0 89 113 183 218 183z" fill="currentColor"/>
</g>
<g transform="translate(37.1229, 17.4721)">
<rect x="-0.0650" y="-2.8167" width="0.1300" height="3.1306" ry="0.0400" fill="currentColor"/>
</g>
<g transform="translate(35.8837, 17.9721)">
<path transform="scale(0.0040, -0.0040)" d="M218 136c66 0 108 -36 108 -89c0 -89 -113 -183 -218 -183c-66 0 -108 36 -108 89c0 89 113 183 218 183z" fill="currentColor"/>
</g>
<g transform="translate(33.5607, 17.4721)">
<rect x="-0.0650" y="-3.1833" width="0.1300" height="2.9972" ry="0.0400" fill="currentColor"/>
</g>
<g transform="translate(34.0757, 16.9721)">
<path transform="scale(0.0040, -0.0040)" d="M0 0c0 31 25 56 56 56s56 -25 56 -56s-25 -56 -56 -56s-56 25 -56 56z" fill="currentColor"/>
</g>
<g transform="translate(30.0717, 17.4721)">
<rect x="-0.0650" y="-0.3139" width="0.1300" height="3.3105" ry="0.0400" fill="currentColor"/>
</g>
<g transform="translate(30.0067, 16.9721)">
<path transform="scale(0.0040, -0.0040)" d="M218 136c66 0 108 -36 108 -89c0 -89 -113 -183 -218 -183c-66 0 -108 36 -108 89c0 89 113 183 218 183z" fill="currentColor"/>
</g>
<g transform="translate(42.6465, 17.4721)">
<rect x="-0.0650" y="-3.4817" width="0.1300" height="3.2955" ry="0.0400" fill="currentColor"/>
</g>
<g transform="translate(43.1615, 16.9721)">
<path transform="scale(0.0040, -0.0040)" d="M0 0c0 31 25 56 56 56s56 -25 56 -56s-25 -56 -56 -56s-56 25 -56 56z" fill="currentColor"/>
</g>
<g transform="translate(41.4073, 17.4721)">
<path transform="scale(0.0040, -0.0040)" d="M218 136c66 0 108 -36 108 -89c0 -89 -113 -183 -218 -183c-66 0 -108 36 -108 89c0 89 113 183 218 183z" fill="currentColor"/>
</g>
<g transform="translate(26.5095, 17.4721)">
<rect x="-0.0650" y="-0.8139" width="0.1300" height="3.6272" ry="0.0400" fill="currentColor"/>
</g>
<g transform="translate(40.3316, 17.4721)">
<rect x="-0.0650" y="-2.8283" width="0.1300" height="3.6422" ry="0.0400" fill="currentColor"/>
</g>
<g transform="translate(39.0924, 22.9284)">
<text font-family="Source Sans Pro" font-size="2.6163" text-anchor="start" fill="currentColor">
<tspan>G</tspan>
</text>
</g>
<g transform="translate(39.0924, 18.4721)">
<path transform="scale(0.0040, -0.0040)" d="M218 136c66 0 108 -36 108 -89c0 -89 -113 -183 -218 -183c-66 0 -108 36 -108 89c0 89 113 183 218 183z" fill="currentColor"/>
</g>
<g transform="translate(15.9298, 17.4721)">
<rect x="-0.0650" y="-2.0215" width="0.1300" height="3.3354" ry="0.0400" fill="currentColor"/>
</g>
<g transform="translate(14.6906, 22.9284)">
<text font-family="Source Sans Pro" font-size="2.6163" text-anchor="start" fill="currentColor">
<tspan>B</tspan>
</text>
</g>
<g transform="translate(16.2270, 22.9284)">
<text font-family="Source Sans Pro" font-size="2.6163" text-anchor="start" fill="currentColor">
<tspan>m</tspan>
</text>
</g>
<g transform="translate(14.6906, 18.9721)">
<path transform="scale(0.0040, -0.0040)" d="M218 136c66 0 108 -36 108 -89c0 -89 -113 -183 -218 -183c-66 0 -108 36 -108 89c0 89 113 183 218 183z" fill="currentColor"/>
</g>
<g transform="translate(17.0054, 17.4721)">
<path transform="scale(0.0040, -0.0040)" d="M218 136c66 0 108 -36 108 -89c0 -89 -113 -183 -218 -183c-66 0 -108 36 -108 89c0 89 113 183 218 183z" fill="currentColor"/>
</g>
<g transform="translate(9.9906, 15.4721)">
<path transform="scale(0.0040, -0.0040)" d="M216 -312c0 -10 -8 -19 -18 -19s-19 9 -19 19v145l-83 -31v-158c0 -10 -9 -19 -19 -19s-18 9 -18 19v145l-32 -12c-2 -1 -5 -1 -7 -1c-11 0 -20 9 -20 20v60c0 8 5 16 13 19l46 16v160l-32 -11c-2 -1 -5 -1 -7 -1c-11 0 -20 9 -20 20v60c0 8 5 15 13 18l46 17v158
c0 10 8 19 18 19s19 -9 19 -19v-145l83 31v158c0 10 9 19 19 19s18 -9 18 -19v-145l32 12c2 1 5 1 7 1c11 0 20 -9 20 -20v-60c0 -8 -5 -16 -13 -19l-46 -16v-160l32 11c2 1 5 1 7 1c11 0 20 -9 20 -20v-60c0 -8 -5 -15 -13 -18l-46 -17v-158zM96 65v-160l83 30v160z" fill="currentColor"/>
</g>
<g transform="translate(11.0906, 16.9721)">
<path transform="scale(0.0040, -0.0040)" d="M216 -312c0 -10 -8 -19 -18 -19s-19 9 -19 19v145l-83 -31v-158c0 -10 -9 -19 -19 -19s-18 9 -18 19v145l-32 -12c-2 -1 -5 -1 -7 -1c-11 0 -20 9 -20 20v60c0 8 5 16 13 19l46 16v160l-32 -11c-2 -1 -5 -1 -7 -1c-11 0 -20 9 -20 20v60c0 8 5 15 13 18l46 17v158
c0 10 8 19 18 19s19 -9 19 -19v-145l83 31v158c0 10 9 19 19 19s18 -9 18 -19v-145l32 12c2 1 5 1 7 1c11 0 20 -9 20 -20v-60c0 -8 -5 -16 -13 -19l-46 -16v-160l32 11c2 1 5 1 7 1c11 0 20 -9 20 -20v-60c0 -8 -5 -15 -13 -18l-46 -17v-158zM96 65v-160l83 30v160z" fill="currentColor"/>
</g>
<g transform="translate(6.4906, 18.4721)">
<path transform="scale(0.0040, -0.0040)" d="M266 -635h-6c-108 0 -195 88 -195 197c0 58 53 103 112 103c54 0 95 -47 95 -103c0 -52 -43 -95 -95 -95c-11 0 -21 2 -31 6c26 -39 68 -65 117 -65h4zM461 -203c68 24 113 90 113 164c0 90 -66 179 -173 190c19 -89 48 -242 60 -354zM74 28c0 -145 141 -247 264 -247
c1 0 47 0 82 6c-7 64 -29 203 -63 364c-79 -8 -124 -61 -124 -119c0 -44 25 -91 81 -123c5 -5 7 -10 7 -15c0 -11 -10 -22 -22 -22c-15 0 -126 62 -126 187c0 88 58 174 160 197c-14 58 -29 117 -46 175c-107 -121 -213 -243 -213 -403zM250 553c-29 96 -52 170 -52 346
c0 115 55 224 149 292c6 5 14 5 20 0c68 -80 133 -245 133 -358c0 -143 -86 -255 -180 -364c21 -68 39 -138 56 -207c2 0 7 1 13 1c155 0 256 -128 256 -261c0 -113 -74 -212 -180 -246c3 -35 5 -70 5 -105c0 -19 -1 -39 -2 -58c-7 -119 -88 -225 -202 -228l1 43
c93 2 153 92 159 191c1 18 2 37 2 55c0 31 -1 61 -4 92c-5 -1 -44 -8 -89 -8c-193 0 -333 180 -333 374c0 177 131 306 248 441zM428 916c0 34 1 66 -20 129c-99 -48 -162 -149 -162 -259c0 -52 12 -115 36 -194c80 97 146 198 146 324z" fill="currentColor"/>
</g>
<g transform="translate(3.8370, 17.0291)">
<text font-family="Source Sans Pro" font-size="1.7461" text-anchor="start" fill="currentColor">
<tspan>9</tspan>
</text>
</g>
<g transform="translate(2.9834, 19.0291)">
<text font-family="Source Sans Pro" font-size="1.7461" text-anchor="start" fill="currentColor">
<tspan>25</tspan>
</text>
</g>
<g transform="translate(28.1987, 15.9721)">
<path transform="scale(0.0040, -0.0040)" d="M0 0c0 31 25 56 56 56s56 -25 56 -56s-25 -56 -56 -56s-56 25 -56 56z" fill="currentColor"/>
</g>
<g transform="translate(26.4445, 16.4721)">
<path transform="scale(0.0040, -0.0040)" d="M218 136c66 0 108 -36 108 -89c0 -89 -113 -183 -218 -183c-66 0 -108 36 -108 89c0 89 113 183 218 183z" fill="currentColor"/>
</g>
<g transform="translate(24.1947, 17.4721)">
<rect x="-0.0650" y="-0.3139" width="0.1300" height="3.1306" ry="0.0400" fill="currentColor"/>
</g>
<g transform="translate(24.1297, 16.9721)">
<path transform="scale(0.0040, -0.0040)" d="M218 136c66 0 108 -36 108 -89c0 -89 -113 -183 -218 -183c-66 0 -108 36 -108 89c0 89 113 183 218 183z" fill="currentColor"/>
</g>
<g transform="translate(20.6325, 17.4721)">
<rect x="-0.0650" y="0.1861" width="0.1300" height="2.9972" ry="0.0400" fill="currentColor"/>
</g>
<g transform="translate(22.3218, 16.9721)">
<path transform="scale(0.0040, -0.0040)" d="M0 0c0 31 25 56 56 56s56 -25 56 -56s-25 -56 -56 -56s-56 25 -56 56z" fill="currentColor"/>
</g>
<g transform="translate(20.5675, 17.4721)">
<path transform="scale(0.0040, -0.0040)" d="M218 136c66 0 108 -36 108 -89c0 -89 -113 -183 -218 -183c-66 0 -108 36 -108 89c0 89 113 183 218 183z" fill="currentColor"/>
</g>
<g transform="translate(18.2446, 17.4721)">
<rect x="-0.0650" y="-2.7885" width="0.1300" height="2.6024" ry="0.0400" fill="currentColor"/>
</g>
<g transform="translate(18.7596, 16.9721)">
<path transform="scale(0.0040, -0.0040)" d="M0 0c0 31 25 56 56 56s56 -25 56 -56s-25 -56 -56 -56s-56 25 -56 56z" fill="currentColor"/>
</g>
<g transform="translate(56.7234, 17.4721)">
<path transform="scale(0.0040, -0.0040)" d="M218 136c66 0 108 -36 108 -89c0 -89 -113 -183 -218 -183c-66 0 -108 36 -108 89c0 89 113 183 218 183z" fill="currentColor"/>
</g>
<g transform="translate(61.5247, 17.4721)">
<rect x="-0.0650" y="-2.8167" width="0.1300" height="3.1306" ry="0.0400" fill="currentColor"/>
</g>
<g transform="translate(60.2855, 17.9721)">
<path transform="scale(0.0040, -0.0040)" d="M218 136c66 0 108 -36 108 -89c0 -89 -113 -183 -218 -183c-66 0 -108 36 -108 89c0 89 113 183 218 183z" fill="currentColor"/>
</g>
<g transform="translate(57.9626, 17.4721)">
<rect x="-0.0650" y="-3.1833" width="0.1300" height="2.9972" ry="0.0400" fill="currentColor"/>
</g>
<g transform="translate(58.4776, 16.9721)">
<path transform="scale(0.0040, -0.0040)" d="M0 0c0 31 25 56 56 56s56 -25 56 -56s-25 -56 -56 -56s-56 25 -56 56z" fill="currentColor"/>
</g>
<g transform="translate(54.4735, 17.4721)">
<rect x="-0.0650" y="-0.3139" width="0.1300" height="3.3105" ry="0.0400" fill="currentColor"/>
</g>
<g transform="translate(54.4085, 16.9721)">
<path transform="scale(0.0040, -0.0040)" d="M218 136c66 0 108 -36 108 -89c0 -89 -113 -183 -218 -183c-66 0 -108 36 -108 89c0 89 113 183 218 183z" fill="currentColor"/>
</g>
<g transform="translate(65.9320, 17.4721)">
<rect x="-0.0650" y="-1.3139" width="0.1300" height="3.3405" ry="0.0400" fill="currentColor"/>
</g>
<g transform="translate(67.6212, 15.9721)">
<path transform="scale(0.0040, -0.0040)" d="M0 0c0 31 25 56 56 56s56 -25 56 -56s-25 -56 -56 -56s-56 25 -56 56z" fill="currentColor"/>
</g>
<g transform="translate(65.8670, 15.9721)">
<path transform="scale(0.0040, -0.0040)" d="M218 136c66 0 108 -36 108 -89c0 -89 -113 -183 -218 -183c-66 0 -108 36 -108 89c0 89 113 183 218 183z" fill="currentColor"/>
</g>
<g transform="translate(63.6171, 17.4721)">
<rect x="-0.0650" y="0.6861" width="0.1300" height="2.2873" ry="0.0400" fill="currentColor"/>
</g>
<g transform="translate(63.5521, 22.9284)">
<text font-family="Source Sans Pro" font-size="2.6163" text-anchor="start" fill="currentColor">
<tspan>A</tspan>
</text>
</g>
<g transform="translate(63.5521, 17.9721)">
<path transform="scale(0.0040, -0.0040)" d="M218 136c66 0 108 -36 108 -89c0 -89 -113 -183 -218 -183c-66 0 -108 36 -108 89c0 89 113 183 218 183z" fill="currentColor"/>
</g>
<g transform="translate(45.0344, 17.4721)">
<rect x="-0.0650" y="0.1861" width="0.1300" height="2.9972" ry="0.0400" fill="currentColor"/>
</g>
<g transform="translate(46.7236, 16.9721)">
<path transform="scale(0.0040, -0.0040)" d="M0 0c0 31 25 56 56 56s56 -25 56 -56s-25 -56 -56 -56s-56 25 -56 56z" fill="currentColor"/>
</g>
<g transform="translate(50.8464, 16.4721)">
<path transform="scale(0.0040, -0.0040)" d="M218 136c66 0 108 -36 108 -89c0 -89 -113 -183 -218 -183c-66 0 -108 36 -108 89c0 89 113 183 218 183z" fill="currentColor"/>
</g>
<g transform="translate(52.6006, 15.9721)">
<path transform="scale(0.0040, -0.0040)" d="M0 0c0 31 25 56 56 56s56 -25 56 -56s-25 -56 -56 -56s-56 25 -56 56z" fill="currentColor"/>
</g>
<g transform="translate(44.9694, 17.4721)">
<path transform="scale(0.0040, -0.0040)" d="M218 136c66 0 108 -36 108 -89c0 -89 -113 -183 -218 -183c-66 0 -108 36 -108 89c0 89 113 183 218 183z" fill="currentColor"/>
</g>
<g transform="translate(50.9114, 17.4721)">
<rect x="-0.0650" y="-0.8139" width="0.1300" height="3.6272" ry="0.0400" fill="currentColor"/>
</g>
<g transform="translate(48.5965, 17.4721)">
<rect x="-0.0650" y="-0.3139" width="0.1300" height="3.1306" ry="0.0400" fill="currentColor"/>
</g>
<g transform="translate(48.5315, 16.9721)">
<path transform="scale(0.0040, -0.0040)" d="M218 136c66 0 108 -36 108 -89c0 -89 -113 -183 -218 -183c-66 0 -108 36 -108 89c0 89 113 183 218 183z" fill="currentColor"/>
</g>
<g transform="translate(5.6906, 31.4721)">
<line stroke-linejoin="round" stroke-linecap="round" stroke-width="0.1000" stroke="currentColor" x1="0.0500" y1="0" x2="113.7610" y2="0"/>
</g>
<g transform="translate(5.6906, 30.4721)">
<line stroke-linejoin="round" stroke-linecap="round" stroke-width="0.1000" stroke="currentColor" x1="0.0500" y1="0" x2="113.7610" y2="0"/>
</g>
<g transform="translate(5.6906, 29.4721)">
<line stroke-linejoin="round" stroke-linecap="round" stroke-width="0.1000" stroke="currentColor" x1="0.0500" y1="0" x2="113.7610" y2="0"/>
</g>
<g transform="translate(5.6906, 28.4721)">
<line stroke-linejoin="round" stroke-linecap="round" stroke-width="0.1000" stroke="currentColor" x1="0.0500" y1="0" x2="113.7610" y2="0"/>
</g>
<g transform="translate(5.6906, 27.4721)">
<line stroke-linejoin="round" stroke-linecap="round" stroke-width="0.1000" stroke="currentColor" x1="0.0500" y1="0" x2="113.7610" y2="0"/>
</g>
<g transform="translate(66.0687, 29.4721)">
<rect x="0.0000" y="-2.0000" width="0.1900" height="4.0000" ry="0.0000" fill="currentColor"/>
</g>
<g transform="translate(91.9466, 29.4721)">
<rect x="0.0000" y="-2.0000" width="0.1900" height="4.0000" ry="0.0000" fill="currentColor"/>
</g>
<g transform="translate(117.6616, 28.9721)">
<path transform="scale(0.0040, -0.0040)" d="M0 0c0 31 25 56 56 56s56 -25 56 -56s-25 -56 -56 -56s-56 25 -56 56z" fill="currentColor"/>
</g>
<g transform="translate(117.6616, 29.9721)">
<path transform="scale(0.0040, -0.0040)" d="M0 0c0 31 25 56 56 56s56 -25 56 -56s-25 -56 -56 -56s-56 25 -56 56z" fill="currentColor"/>
</g>
<g transform="scale(-1.0000, 1.0000)">
<g transform="translate(-119.5016, 29.4721)">
<rect x="0.0000" y="-2.0000" width="0.6000" height="4.0000" ry="0.0000" fill="currentColor"/>
</g>
<g transform="translate(-119.5016, 27.4721)">
<path transform="scale(0.0040, -0.0040)" d="M0 -56v87c0 14 11 25 25 25h50c159 0 271 136 362 270c12 17 38 -1 26 -18c-99 -144 -215 -364 -388 -364h-75z" fill="currentColor"/>
</g>
<g transform="translate(-119.5016, 31.4721)">
<path transform="scale(0.0040, -0.0040)" d="M0 56h75c173 0 289 -220 388 -364c12 -17 -14 -35 -26 -18c-91 134 -203 270 -362 270h-50c-14 0 -25 11 -25 25v87z" fill="currentColor"/>
</g>
</g>
<g transform="translate(118.4116, 29.4721)">
<rect x="0.0000" y="-2.0000" width="0.1900" height="4.0000" ry="0.0000" fill="currentColor"/>
</g>
<g transform="translate(39.8866, 29.4721)">
<rect x="0.0000" y="-2.0000" width="0.1900" height="4.0000" ry="0.0000" fill="currentColor"/>
</g>
<g transform="translate(92.9327, 35.0217)">
<text font-family="Source Sans Pro" font-size="2.6163" text-anchor="start" fill="currentColor">
<tspan>A</tspan>
</text>
</g>
<g transform="translate(92.9327, 28.9721)">
<path transform="scale(0.0040, -0.0040)" d="M218 136c66 0 108 -36 108 -89c0 -89 -113 -183 -218 -183c-66 0 -108 36 -108 89c0 89 113 183 218 183z" fill="currentColor"/>
</g>
<g transform="translate(90.0202, 29.4721)">
<rect x="-0.0650" y="-0.8139" width="0.1300" height="2.8108" ry="0.0400" fill="currentColor"/>
</g>
<g transform="translate(89.9552, 28.4721)">
<path transform="scale(0.0040, -0.0040)" d="M218 136c66 0 108 -36 108 -89c0 -89 -113 -183 -218 -183c-66 0 -108 36 -108 89c0 89 113 183 218 183z" fill="currentColor"/>
</g>
<g transform="translate(86.1543, 29.4721)">
<rect x="-0.0650" y="-1.3139" width="0.1300" height="3.1270" ry="0.0400" fill="currentColor"/>
</g>
<g transform="translate(87.8435, 27.9721)">
<path transform="scale(0.0040, -0.0040)" d="M0 0c0 31 25 56 56 56s56 -25 56 -56s-25 -56 -56 -56s-56 25 -56 56z" fill="currentColor"/>
</g>
<g transform="translate(86.0893, 27.9721)">
<path transform="scale(0.0040, -0.0040)" d="M218 136c66 0 108 -36 108 -89c0 -89 -113 -183 -218 -183c-66 0 -108 36 -108 89c0 89 113 183 218 183z" fill="currentColor"/>
</g>
<g transform="translate(97.8491, 29.9721)">
<path transform="scale(0.0040, -0.0040)" d="M218 136c66 0 108 -36 108 -89c0 -89 -113 -183 -218 -183c-66 0 -108 36 -108 89c0 89 113 183 218 183z" fill="currentColor"/>
</g>
<g transform="translate(96.6301, 29.4721)">
<rect x="-0.0650" y="-3.5377" width="0.1300" height="3.3516" ry="0.0400" fill="currentColor"/>
</g>
<g transform="translate(95.3909, 29.4721)">
<path transform="scale(0.0040, -0.0040)" d="M218 136c66 0 108 -36 108 -89c0 -89 -113 -183 -218 -183c-66 0 -108 36 -108 89c0 89 113 183 218 183z" fill="currentColor"/>
</g>
<g transform="translate(94.1719, 29.4721)">
<rect x="-0.0650" y="-3.8030" width="0.1300" height="3.1169" ry="0.0400" fill="currentColor"/>
</g>
<g transform="translate(73.4410, 27.9721)">
<path transform="scale(0.0040, -0.0040)" d="M218 136c66 0 108 -36 108 -89c0 -89 -113 -183 -218 -183c-66 0 -108 36 -108 89c0 89 113 183 218 183z" fill="currentColor"/>
</g>
<g transform="translate(69.6401, 29.4721)">
<rect x="-0.0650" y="-1.3139" width="0.1300" height="3.3390" ry="0.0400" fill="currentColor"/>
</g>
<g transform="translate(71.3293, 27.9721)">
<path transform="scale(0.0040, -0.0040)" d="M0 0c0 31 25 56 56 56s56 -25 56 -56s-25 -56 -56 -56s-56 25 -56 56z" fill="currentColor"/>
</g>
<g transform="translate(69.5751, 27.9721)">
<path transform="scale(0.0040, -0.0040)" d="M218 136c66 0 108 -36 108 -89c0 -89 -113 -183 -218 -183c-66 0 -108 36 -108 89c0 89 113 183 218 183z" fill="currentColor"/>
</g>
<g transform="translate(75.1952, 27.9721)">
<path transform="scale(0.0040, -0.0040)" d="M0 0c0 31 25 56 56 56s56 -25 56 -56s-25 -56 -56 -56s-56 25 -56 56z" fill="currentColor"/>
</g>
<g transform="translate(83.6311, 27.4721)">
<path transform="scale(0.0040, -0.0040)" d="M218 136c66 0 108 -36 108 -89c0 -89 -113 -183 -218 -183c-66 0 -108 36 -108 89c0 89 113 183 218 183z" fill="currentColor"/>
</g>
<g transform="translate(79.8301, 29.4721)">
<rect x="-0.0650" y="-2.3139" width="0.1300" height="3.1270" ry="0.0400" fill="currentColor"/>
</g>
<g transform="translate(81.5194, 26.9721)">
<path transform="scale(0.0040, -0.0040)" d="M0 0c0 31 25 56 56 56s56 -25 56 -56s-25 -56 -56 -56s-56 25 -56 56z" fill="currentColor"/>
</g>
<g transform="translate(79.7651, 26.9721)">
<path transform="scale(0.0040, -0.0040)" d="M218 136c66 0 108 -36 108 -89c0 -89 -113 -183 -218 -183c-66 0 -108 36 -108 89c0 89 113 183 218 183z" fill="currentColor"/>
</g>
<g transform="translate(83.6961, 29.4721)">
<rect x="-0.0650" y="-1.8139" width="0.1300" height="2.8108" ry="0.0400" fill="currentColor"/>
</g>
<g transform="translate(77.3719, 29.4721)">
<rect x="-0.0650" y="-1.8139" width="0.1300" height="3.6270" ry="0.0400" fill="currentColor"/>
</g>
<g transform="translate(77.3069, 27.4721)">
<path transform="scale(0.0040, -0.0040)" d="M218 136c66 0 108 -36 108 -89c0 -89 -113 -183 -218 -183c-66 0 -108 36 -108 89c0 89 113 183 218 183z" fill="currentColor"/>
</g>
<g transform="translate(73.5060, 29.4721)">
<rect x="-0.0650" y="-1.3139" width="0.1300" height="3.3108" ry="0.0400" fill="currentColor"/>
</g>
<g transform="translate(88.9202, 30.6067)">
<polygon stroke-linejoin="round" stroke-linecap="round" stroke-width="0.0800" fill="currentColor" stroke="currentColor" points="1.1250 -0.1446 1.1250 0.2554 0.0400 0.2000 0.0400 -0.2000"/>
</g>
<g transform="translate(86.0893, 31.2821)">
<polygon stroke-linejoin="round" stroke-linecap="round" stroke-width="0.0800" fill="currentColor" stroke="currentColor" points="3.9559 -0.0100 3.9559 0.3900 0.0400 0.2000 0.0400 -0.2000"/>
</g>
<g transform="translate(67.1168, 31.6621)">
<polygon stroke-linejoin="round" stroke-linecap="round" stroke-width="0.0800" fill="currentColor" stroke="currentColor" points="1.1250 -0.6501 1.1250 -0.2501 0.0400 0.2000 0.0400 -0.2000"/>
</g>
<g transform="translate(67.1168, 32.4721)">
<polygon stroke-linejoin="round" stroke-linecap="round" stroke-width="0.0800" fill="currentColor" stroke="currentColor" points="2.5482 -1.2000 2.5482 -0.8000 0.0400 0.2000 0.0400 -0.2000"/>
</g>
<g transform="translate(76.2719, 30.5275)">
<polygon stroke-linejoin="round" stroke-linecap="round" stroke-width="0.0800" fill="currentColor" stroke="currentColor" points="1.1250 -0.2554 1.1250 0.1446 0.0400 0.2000 0.0400 -0.2000"/>
</g>
<g transform="translate(73.4410, 31.4721)">
<polygon stroke-linejoin="round" stroke-linecap="round" stroke-width="0.0800" fill="currentColor" stroke="currentColor" points="3.9559 -0.3900 3.9559 0.0100 0.0400 0.2000 0.0400 -0.2000"/>
</g>
<g transform="translate(82.5961, 29.6067)">
<polygon stroke-linejoin="round" stroke-linecap="round" stroke-width="0.0800" fill="currentColor" stroke="currentColor" points="1.1250 -0.1446 1.1250 0.2554 0.0400 0.2000 0.0400 -0.2000"/>
</g>
<g transform="translate(79.7651, 30.2821)">
<polygon stroke-linejoin="round" stroke-linecap="round" stroke-width="0.0800" fill="currentColor" stroke="currentColor" points="3.9559 -0.0100 3.9559 0.3900 0.0400 0.2000 0.0400 -0.2000"/>
</g>
<g transform="translate(61.0193, 26.2821)">
<polygon stroke-linejoin="round" stroke-linecap="round" stroke-width="0.0800" fill="currentColor" stroke="currentColor" points="3.9559 0.1800 3.9559 0.5800 0.0400 0.2000 0.0400 -0.2000"/>
</g>
<g transform="translate(63.8503, 27.3613)">
<polygon stroke-linejoin="round" stroke-linecap="round" stroke-width="0.0800" fill="currentColor" stroke="currentColor" points="1.1250 -0.0892 1.1250 0.3108 0.0400 0.2000 0.0400 -0.2000"/>
</g>
<g transform="translate(94.1069, 25.6621)">
<polygon stroke-linejoin="round" stroke-linecap="round" stroke-width="0.0800" fill="currentColor" stroke="currentColor" points="7.4647 0.6100 7.4647 1.0100 0.0400 0.2000 0.0400 -0.2000"/>
</g>
<g transform="translate(94.1069, 26.4721)">
<polygon stroke-linejoin="round" stroke-linecap="round" stroke-width="0.0800" fill="currentColor" stroke="currentColor" points="7.4647 0.6100 7.4647 1.0100 0.0400 0.2000 0.0400 -0.2000"/>
</g>
<g transform="translate(103.9398, 27.2821)">
<polygon stroke-linejoin="round" stroke-linecap="round" stroke-width="0.0800" fill="currentColor" stroke="currentColor" points="3.4364 -0.8200 3.4364 -0.4200 0.0400 0.2000 0.0400 -0.2000"/>
</g>
<g transform="translate(15.8648, 27.4721)">
<polygon stroke-linejoin="round" stroke-linecap="round" stroke-width="0.0800" fill="currentColor" stroke="currentColor" points="2.5482 -1.0100 2.5482 -0.6100 0.0400 0.2000 0.0400 -0.2000"/>
</g>
<g transform="translate(15.8648, 28.2821)">
<polygon stroke-linejoin="round" stroke-linecap="round" stroke-width="0.0800" fill="currentColor" stroke="currentColor" points="1.1250 -0.5646 1.1250 -0.1646 0.0400 0.2000 0.0400 -0.2000"/>
</g>
<g transform="translate(23.8456, 31.5829)">
<polygon stroke-linejoin="round" stroke-linecap="round" stroke-width="0.0800" fill="currentColor" stroke="currentColor" points="1.1250 -0.3108 1.1250 0.0892 0.0400 0.2000 0.0400 -0.2000"/>
</g>
<g transform="translate(21.0147, 32.6621)">
<polygon stroke-linejoin="round" stroke-linecap="round" stroke-width="0.0800" fill="currentColor" stroke="currentColor" points="3.9559 -0.5800 3.9559 -0.1800 0.0400 0.2000 0.0400 -0.2000"/>
</g>
<g transform="translate(30.1698, 31.6067)">
<polygon stroke-linejoin="round" stroke-linecap="round" stroke-width="0.0800" fill="currentColor" stroke="currentColor" points="1.1250 -0.1446 1.1250 0.2554 0.0400 0.2000 0.0400 -0.2000"/>
</g>
<g transform="translate(27.3389, 32.2821)">
<polygon stroke-linejoin="round" stroke-linecap="round" stroke-width="0.0800" fill="currentColor" stroke="currentColor" points="3.9559 -0.0100 3.9559 0.3900 0.0400 0.2000 0.0400 -0.2000"/>
</g>
<g transform="translate(34.8372, 26.2821)">
<polygon stroke-linejoin="round" stroke-linecap="round" stroke-width="0.0800" fill="currentColor" stroke="currentColor" points="3.9559 0.1800 3.9559 0.5800 0.0400 0.2000 0.0400 -0.2000"/>
</g>
<g transform="translate(37.6682, 27.3613)">
<polygon stroke-linejoin="round" stroke-linecap="round" stroke-width="0.0800" fill="currentColor" stroke="currentColor" points="1.1250 -0.0892 1.1250 0.3108 0.0400 0.2000 0.0400 -0.2000"/>
</g>
<g transform="translate(42.0469, 26.6621)">
<polygon stroke-linejoin="round" stroke-linecap="round" stroke-width="0.0800" fill="currentColor" stroke="currentColor" points="2.5482 -0.8900 2.5482 -0.4900 0.0400 0.2000 0.0400 -0.2000"/>
</g>
<g transform="translate(42.0469, 27.4721)">
<polygon stroke-linejoin="round" stroke-linecap="round" stroke-width="0.0800" fill="currentColor" stroke="currentColor" points="1.1250 -0.5106 1.1250 -0.1106 0.0400 0.2000 0.0400 -0.2000"/>
</g>
<g transform="translate(50.0277, 31.5829)">
<polygon stroke-linejoin="round" stroke-linecap="round" stroke-width="0.0800" fill="currentColor" stroke="currentColor" points="1.1250 -0.3108 1.1250 0.0892 0.0400 0.2000 0.0400 -0.2000"/>
</g>
<g transform="translate(47.1968, 32.6621)">
<polygon stroke-linejoin="round" stroke-linecap="round" stroke-width="0.0800" fill="currentColor" stroke="currentColor" points="3.9559 -0.5800 3.9559 -0.1800 0.0400 0.2000 0.0400 -0.2000"/>
</g>
<g transform="translate(56.3519, 31.6067)">
<polygon stroke-linejoin="round" stroke-linecap="round" stroke-width="0.0800" fill="currentColor" stroke="currentColor" points="1.1250 -0.1446 1.1250 0.2554 0.0400 0.2000 0.0400 -0.2000"/>
</g>
<g transform="translate(53.5210, 32.2821)">
<polygon stroke-linejoin="round" stroke-linecap="round" stroke-width="0.0800" fill="currentColor" stroke="currentColor" points="3.9559 -0.0100 3.9559 0.3900 0.0400 0.2000 0.0400 -0.2000"/>
</g>
<g transform="translate(102.7656, 30.9721)">
<path transform="scale(0.0040, -0.0040)" d="M218 136c66 0 108 -36 108 -89c0 -89 -113 -183 -218 -183c-66 0 -108 36 -108 89c0 89 113 183 218 183z" fill="currentColor"/>
</g>
<g transform="translate(107.3512, 29.4721)">
<rect x="-0.0650" y="-2.7984" width="0.1300" height="3.1123" ry="0.0400" fill="currentColor"/>
</g>
<g transform="translate(106.1120, 29.9721)">
<path transform="scale(0.0040, -0.0040)" d="M218 136c66 0 108 -36 108 -89c0 -89 -113 -183 -218 -183c-66 0 -108 36 -108 89c0 89 113 183 218 183z" fill="currentColor"/>
</g>
<g transform="translate(104.0048, 29.4721)">
<rect x="-0.0650" y="-2.2016" width="0.1300" height="3.5155" ry="0.0400" fill="currentColor"/>
</g>
<g transform="translate(102.7656, 35.0217)">
<text font-family="Source Sans Pro" font-size="2.6163" text-anchor="start" fill="currentColor">
<tspan>F</tspan>
</text>
</g>
<g transform="translate(104.0630, 34.4217)">
<path transform="scale(0.0042, -0.0042)" d="M216 -312c0 -10 -8 -19 -18 -19s-19 9 -19 19v145l-83 -31v-158c0 -10 -9 -19 -19 -19s-18 9 -18 19v145l-32 -12c-2 -1 -5 -1 -7 -1c-11 0 -20 9 -20 20v60c0 8 5 16 13 19l46 16v160l-32 -11c-2 -1 -5 -1 -7 -1c-11 0 -20 9 -20 20v60c0 8 5 15 13 18l46 17v158
c0 10 8 19 18 19s19 -9 19 -19v-145l83 31v158c0 10 9 19 19 19s18 -9 18 -19v-145l32 12c2 1 5 1 7 1c11 0 20 -9 20 -20v-60c0 -8 -5 -16 -13 -19l-46 -16v-160l32 11c2 1 5 1 7 1c11 0 20 -9 20 -20v-60c0 -8 -5 -15 -13 -18l-46 -17v-158zM96 65v-160l83 30v160z" fill="currentColor"/>
</g>
<g transform="translate(101.5466, 29.4721)">
<rect x="-0.0650" y="-3.0070" width="0.1300" height="3.8209" ry="0.0400" fill="currentColor"/>
</g>
<g transform="translate(100.3073, 30.4721)">
<path transform="scale(0.0040, -0.0040)" d="M218 136c66 0 108 -36 108 -89c0 -89 -113 -183 -218 -183c-66 0 -108 36 -108 89c0 89 113 183 218 183z" fill="currentColor"/>
</g>
<g transform="translate(113.7579, 29.4721)">
<rect x="-0.0650" y="0.1861" width="0.1300" height="3.1472" ry="0.0400" fill="currentColor"/>
</g>
<g transform="translate(99.0883, 29.4721)">
<rect x="-0.0650" y="-3.2723" width="0.1300" height="3.5862" ry="0.0400" fill="currentColor"/>
</g>
<g transform="translate(113.6929, 29.4721)">
<path transform="scale(0.0040, -0.0040)" d="M218 136c66 0 108 -36 108 -89c0 -89 -113 -183 -218 -183c-66 0 -108 36 -108 89c0 89 113 183 218 183z" fill="currentColor"/>
</g>
<g transform="translate(109.5233, 29.4721)">
<rect x="-0.0650" y="0.1861" width="0.1300" height="3.1472" ry="0.0400" fill="currentColor"/>
</g>
<g transform="translate(109.4583, 35.0217)">
<text font-family="Source Sans Pro" font-size="2.6163" text-anchor="start" fill="currentColor">
<tspan>B</tspan>
</text>
</g>
<g transform="translate(110.9948, 35.0217)">
<text font-family="Source Sans Pro" font-size="2.6163" text-anchor="start" fill="currentColor">
<tspan>m</tspan>
</text>
</g>
<g transform="translate(109.4583, 29.4721)">
<path transform="scale(0.0040, -0.0040)" d="M218 136c66 0 108 -36 108 -89c0 -89 -113 -183 -218 -183c-66 0 -108 36 -108 89c0 89 113 183 218 183z" fill="currentColor"/>
</g>
<g transform="translate(104.6620, 29.9721)">
<path transform="scale(0.0040, -0.0040)" d="M216 -312c0 -10 -8 -19 -18 -19s-19 9 -19 19v145l-83 -31v-158c0 -10 -9 -19 -19 -19s-18 9 -18 19v145l-32 -12c-2 -1 -5 -1 -7 -1c-11 0 -20 9 -20 20v60c0 8 5 16 13 19l46 16v160l-32 -11c-2 -1 -5 -1 -7 -1c-11 0 -20 9 -20 20v60c0 8 5 15 13 18l46 17v158
c0 10 8 19 18 19s19 -9 19 -19v-145l83 31v158c0 10 9 19 19 19s18 -9 18 -19v-145l32 12c2 1 5 1 7 1c11 0 20 -9 20 -20v-60c0 -8 -5 -16 -13 -19l-46 -16v-160l32 11c2 1 5 1 7 1c11 0 20 -9 20 -20v-60c0 -8 -5 -15 -13 -18l-46 -17v-158zM96 65v-160l83 30v160z" fill="currentColor"/>
</g>
<g transform="translate(31.2048, 28.9721)">
<path transform="scale(0.0040, -0.0040)" d="M218 136c66 0 108 -36 108 -89c0 -89 -113 -183 -218 -183c-66 0 -108 36 -108 89c0 89 113 183 218 183z" fill="currentColor"/>
</g>
<g transform="translate(34.9022, 29.4721)">
<rect x="-0.0650" y="-3.1838" width="0.1300" height="2.9977" ry="0.0400" fill="currentColor"/>
</g>
<g transform="translate(35.4172, 28.9721)">
<path transform="scale(0.0040, -0.0040)" d="M0 0c0 31 25 56 56 56s56 -25 56 -56s-25 -56 -56 -56s-56 25 -56 56z" fill="currentColor"/>
</g>
<g transform="translate(33.6630, 29.4721)">
<path transform="scale(0.0040, -0.0040)" d="M218 136c66 0 108 -36 108 -89c0 -89 -113 -183 -218 -183c-66 0 -108 36 -108 89c0 89 113 183 218 183z" fill="currentColor"/>
</g>
<g transform="translate(31.2698, 29.4721)">
<rect x="-0.0650" y="-0.3139" width="0.1300" height="3.3108" ry="0.0400" fill="currentColor"/>
</g>
<g transform="translate(27.4039, 29.4721)">
<rect x="-0.0650" y="-0.8139" width="0.1300" height="3.6270" ry="0.0400" fill="currentColor"/>
</g>
<g transform="translate(29.0931, 27.9721)">
<path transform="scale(0.0040, -0.0040)" d="M0 0c0 31 25 56 56 56s56 -25 56 -56s-25 -56 -56 -56s-56 25 -56 56z" fill="currentColor"/>
</g>
<g transform="translate(27.3389, 28.4721)">
<path transform="scale(0.0040, -0.0040)" d="M218 136c66 0 108 -36 108 -89c0 -89 -113 -183 -218 -183c-66 0 -108 36 -108 89c0 89 113 183 218 183z" fill="currentColor"/>
</g>
<g transform="translate(42.1119, 29.4721)">
<rect x="-0.0650" y="-2.8273" width="0.1300" height="3.6412" ry="0.0400" fill="currentColor"/>
</g>
<g transform="translate(40.8727, 35.0217)">
<text font-family="Source Sans Pro" font-size="2.6163" text-anchor="start" fill="currentColor">
<tspan>G</tspan>
</text>
</g>
<g transform="translate(40.8727, 30.4721)">
<path transform="scale(0.0040, -0.0040)" d="M218 136c66 0 108 -36 108 -89c0 -89 -113 -183 -218 -183c-66 0 -108 36 -108 89c0 89 113 183 218 183z" fill="currentColor"/>
</g>
<g transform="translate(38.7682, 29.4721)">
<rect x="-0.0650" y="-2.8162" width="0.1300" height="3.1301" ry="0.0400" fill="currentColor"/>
</g>
<g transform="translate(37.5290, 29.9721)">
<path transform="scale(0.0040, -0.0040)" d="M218 136c66 0 108 -36 108 -89c0 -89 -113 -183 -218 -183c-66 0 -108 36 -108 89c0 89 113 183 218 183z" fill="currentColor"/>
</g>
<g transform="translate(9.9906, 27.4721)">
<path transform="scale(0.0040, -0.0040)" d="M216 -312c0 -10 -8 -19 -18 -19s-19 9 -19 19v145l-83 -31v-158c0 -10 -9 -19 -19 -19s-18 9 -18 19v145l-32 -12c-2 -1 -5 -1 -7 -1c-11 0 -20 9 -20 20v60c0 8 5 16 13 19l46 16v160l-32 -11c-2 -1 -5 -1 -7 -1c-11 0 -20 9 -20 20v60c0 8 5 15 13 18l46 17v158
c0 10 8 19 18 19s19 -9 19 -19v-145l83 31v158c0 10 9 19 19 19s18 -9 18 -19v-145l32 12c2 1 5 1 7 1c11 0 20 -9 20 -20v-60c0 -8 -5 -16 -13 -19l-46 -16v-160l32 11c2 1 5 1 7 1c11 0 20 -9 20 -20v-60c0 -8 -5 -15 -13 -18l-46 -17v-158zM96 65v-160l83 30v160z" fill="currentColor"/>
</g>
<g transform="translate(11.0906, 28.9721)">
<path transform="scale(0.0040, -0.0040)" d="M216 -312c0 -10 -8 -19 -18 -19s-19 9 -19 19v145l-83 -31v-158c0 -10 -9 -19 -19 -19s-18 9 -18 19v145l-32 -12c-2 -1 -5 -1 -7 -1c-11 0 -20 9 -20 20v60c0 8 5 16 13 19l46 16v160l-32 -11c-2 -1 -5 -1 -7 -1c-11 0 -20 9 -20 20v60c0 8 5 15 13 18l46 17v158
c0 10 8 19 18 19s19 -9 19 -19v-145l83 31v158c0 10 9 19 19 19s18 -9 18 -19v-145l32 12c2 1 5 1 7 1c11 0 20 -9 20 -20v-60c0 -8 -5 -16 -13 -19l-46 -16v-160l32 11c2 1 5 1 7 1c11 0 20 -9 20 -20v-60c0 -8 -5 -15 -13 -18l-46 -17v-158zM96 65v-160l83 30v160z" fill="currentColor"/>
</g>
<g transform="translate(15.9298, 29.4721)">
<rect x="-0.0650" y="-2.0203" width="0.1300" height="3.3342" ry="0.0400" fill="currentColor"/>
</g>
<g transform="translate(14.6906, 35.0217)">
<text font-family="Source Sans Pro" font-size="2.6163" text-anchor="start" fill="currentColor">
<tspan>B</tspan>
</text>
</g>
<g transform="translate(16.2270, 35.0217)">
<text font-family="Source Sans Pro" font-size="2.6163" text-anchor="start" fill="currentColor">
<tspan>m</tspan>
</text>
</g>
<g transform="translate(14.6906, 30.9721)">
<path transform="scale(0.0040, -0.0040)" d="M218 136c66 0 108 -36 108 -89c0 -89 -113 -183 -218 -183c-66 0 -108 36 -108 89c0 89 113 183 218 183z" fill="currentColor"/>
</g>
<g transform="translate(6.4906, 30.4721)">
<path transform="scale(0.0040, -0.0040)" d="M266 -635h-6c-108 0 -195 88 -195 197c0 58 53 103 112 103c54 0 95 -47 95 -103c0 -52 -43 -95 -95 -95c-11 0 -21 2 -31 6c26 -39 68 -65 117 -65h4zM461 -203c68 24 113 90 113 164c0 90 -66 179 -173 190c19 -89 48 -242 60 -354zM74 28c0 -145 141 -247 264 -247
c1 0 47 0 82 6c-7 64 -29 203 -63 364c-79 -8 -124 -61 -124 -119c0 -44 25 -91 81 -123c5 -5 7 -10 7 -15c0 -11 -10 -22 -22 -22c-15 0 -126 62 -126 187c0 88 58 174 160 197c-14 58 -29 117 -46 175c-107 -121 -213 -243 -213 -403zM250 553c-29 96 -52 170 -52 346
c0 115 55 224 149 292c6 5 14 5 20 0c68 -80 133 -245 133 -358c0 -143 -86 -255 -180 -364c21 -68 39 -138 56 -207c2 0 7 1 13 1c155 0 256 -128 256 -261c0 -113 -74 -212 -180 -246c3 -35 5 -70 5 -105c0 -19 -1 -39 -2 -58c-7 -119 -88 -225 -202 -228l1 43
c93 2 153 92 159 191c1 18 2 37 2 55c0 31 -1 61 -4 92c-5 -1 -44 -8 -89 -8c-193 0 -333 180 -333 374c0 177 131 306 248 441zM428 916c0 34 1 66 -20 129c-99 -48 -162 -149 -162 -259c0 -52 12 -115 36 -194c80 97 146 198 146 324z" fill="currentColor"/>
</g>
<g transform="translate(2.9834, 29.0291)">
<text font-family="Source Sans Pro" font-size="1.7461" text-anchor="start" fill="currentColor">
<tspan>13</tspan>
</text>
</g>
<g transform="translate(2.9834, 31.0291)">
<text font-family="Source Sans Pro" font-size="1.7461" text-anchor="start" fill="currentColor">
<tspan>29</tspan>
</text>
</g>
<g transform="translate(21.0147, 29.4721)">
<path transform="scale(0.0040, -0.0040)" d="M218 136c66 0 108 -36 108 -89c0 -89 -113 -183 -218 -183c-66 0 -108 36 -108 89c0 89 113 183 218 183z" fill="currentColor"/>
</g>
<g transform="translate(24.9456, 29.4721)">
<rect x="-0.0650" y="-0.3139" width="0.1300" height="3.1301" ry="0.0400" fill="currentColor"/>
</g>
<g transform="translate(24.8806, 28.9721)">
<path transform="scale(0.0040, -0.0040)" d="M218 136c66 0 108 -36 108 -89c0 -89 -113 -183 -218 -183c-66 0 -108 36 -108 89c0 89 113 183 218 183z" fill="currentColor"/>
</g>
<g transform="translate(21.0797, 29.4721)">
<rect x="-0.0650" y="0.1861" width="0.1300" height="2.9977" ry="0.0400" fill="currentColor"/>
</g>
<g transform="translate(22.7689, 28.9721)">
<path transform="scale(0.0040, -0.0040)" d="M0 0c0 31 25 56 56 56s56 -25 56 -56s-25 -56 -56 -56s-56 25 -56 56z" fill="currentColor"/>
</g>
<g transform="translate(67.1818, 29.4721)">
<rect x="-0.0650" y="0.6861" width="0.1300" height="2.2888" ry="0.0400" fill="currentColor"/>
</g>
<g transform="translate(18.3880, 29.4721)">
<rect x="-0.0650" y="-2.7897" width="0.1300" height="2.6036" ry="0.0400" fill="currentColor"/>
</g>
<g transform="translate(18.9030, 28.9721)">
<path transform="scale(0.0040, -0.0040)" d="M0 0c0 31 25 56 56 56s56 -25 56 -56s-25 -56 -56 -56s-56 25 -56 56z" fill="currentColor"/>
</g>
<g transform="translate(17.1488, 29.4721)">
<path transform="scale(0.0040, -0.0040)" d="M218 136c66 0 108 -36 108 -89c0 -89 -113 -183 -218 -183c-66 0 -108 36 -108 89c0 89 113 183 218 183z" fill="currentColor"/>
</g>
<g transform="translate(53.5860, 29.4721)">
<rect x="-0.0650" y="-0.8139" width="0.1300" height="3.6270" ry="0.0400" fill="currentColor"/>
</g>
<g transform="translate(57.4519, 29.4721)">
<rect x="-0.0650" y="-0.3139" width="0.1300" height="3.3108" ry="0.0400" fill="currentColor"/>
</g>
<g transform="translate(57.3869, 28.9721)">
<path transform="scale(0.0040, -0.0040)" d="M218 136c66 0 108 -36 108 -89c0 -89 -113 -183 -218 -183c-66 0 -108 36 -108 89c0 89 113 183 218 183z" fill="currentColor"/>
</g>
<g transform="translate(55.2752, 27.9721)">
<path transform="scale(0.0040, -0.0040)" d="M0 0c0 31 25 56 56 56s56 -25 56 -56s-25 -56 -56 -56s-56 25 -56 56z" fill="currentColor"/>
</g>
<g transform="translate(53.5210, 28.4721)">
<path transform="scale(0.0040, -0.0040)" d="M218 136c66 0 108 -36 108 -89c0 -89 -113 -183 -218 -183c-66 0 -108 36 -108 89c0 89 113 183 218 183z" fill="currentColor"/>
</g>
<g transform="translate(51.1277, 29.4721)">
<rect x="-0.0650" y="-0.3139" width="0.1300" height="3.1301" ry="0.0400" fill="currentColor"/>
</g>
<g transform="translate(51.0627, 28.9721)">
<path transform="scale(0.0040, -0.0040)" d="M218 136c66 0 108 -36 108 -89c0 -89 -113 -183 -218 -183c-66 0 -108 36 -108 89c0 89 113 183 218 183z" fill="currentColor"/>
</g>
<g transform="translate(67.1168, 35.0217)">
<text font-family="Source Sans Pro" font-size="2.6163" text-anchor="start" fill="currentColor">
<tspan>A</tspan>
</text>
</g>
<g transform="translate(67.1168, 29.9721)">
<path transform="scale(0.0040, -0.0040)" d="M218 136c66 0 108 -36 108 -89c0 -89 -113 -183 -218 -183c-66 0 -108 36 -108 89c0 89 113 183 218 183z" fill="currentColor"/>
</g>
<g transform="translate(64.9503, 29.4721)">
<rect x="-0.0650" y="-2.8162" width="0.1300" height="3.1301" ry="0.0400" fill="currentColor"/>
</g>
<g transform="translate(63.7110, 29.9721)">
<path transform="scale(0.0040, -0.0040)" d="M218 136c66 0 108 -36 108 -89c0 -89 -113 -183 -218 -183c-66 0 -108 36 -108 89c0 89 113 183 218 183z" fill="currentColor"/>
</g>
<g transform="translate(61.0843, 29.4721)">
<rect x="-0.0650" y="-3.1838" width="0.1300" height="2.9977" ry="0.0400" fill="currentColor"/>
</g>
<g transform="translate(61.5993, 28.9721)">
<path transform="scale(0.0040, -0.0040)" d="M0 0c0 31 25 56 56 56s56 -25 56 -56s-25 -56 -56 -56s-56 25 -56 56z" fill="currentColor"/>
</g>
<g transform="translate(59.8451, 29.4721)">
<path transform="scale(0.0040, -0.0040)" d="M218 136c66 0 108 -36 108 -89c0 -89 -113 -183 -218 -183c-66 0 -108 36 -108 89c0 89 113 183 218 183z" fill="currentColor"/>
</g>
<g transform="translate(47.2618, 29.4721)">
<rect x="-0.0650" y="0.1861" width="0.1300" height="2.9977" ry="0.0400" fill="currentColor"/>
</g>
<g transform="translate(44.5701, 29.4721)">
<rect x="-0.0650" y="-3.4827" width="0.1300" height="3.2966" ry="0.0400" fill="currentColor"/>
</g>
<g transform="translate(45.0851, 28.9721)">
<path transform="scale(0.0040, -0.0040)" d="M0 0c0 31 25 56 56 56s56 -25 56 -56s-25 -56 -56 -56s-56 25 -56 56z" fill="currentColor"/>
</g>
<g transform="translate(43.3309, 29.4721)">
<path transform="scale(0.0040, -0.0040)" d="M218 136c66 0 108 -36 108 -89c0 -89 -113 -183 -218 -183c-66 0 -108 36 -108 89c0 89 113 183 218 183z" fill="currentColor"/>
</g>
<g transform="translate(47.1968, 29.4721)">
<path transform="scale(0.0040, -0.0040)" d="M218 136c66 0 108 -36 108 -89c0 -89 -113 -183 -218 -183c-66 0 -108 36 -108 89c0 89 113 183 218 183z" fill="currentColor"/>
</g>
<g transform="translate(48.9510, 28.9721)">
<path transform="scale(0.0040, -0.0040)" d="M0 0c0 31 25 56 56 56s56 -25 56 -56s-25 -56 -56 -56s-56 25 -56 56z" fill="currentColor"/>
</g>
</svg>
